<svg width="256" height="256" viewBox="0 0 256 256" fill="none" xmlns="http://www.w3.org/2000/svg" >
<rect width="256" height="256" fill="#59C3FF" fill-opacity="0.29"/>
<path d="M49.7409 201.092C51.8529 201.092 53.4609 201.452 54.5649 202.172C55.6689 202.868 56.4009 203.816 56.7609 205.016C57.1209 206.192 57.3009 207.68 57.3009 209.48V221H53.9169V219.02C53.0049 219.884 52.0929 220.508 51.1809 220.892C50.2689 221.276 49.2849 221.468 48.2289 221.468C46.9809 221.468 45.8529 221.204 44.8449 220.676C43.8369 220.124 43.0329 219.344 42.4329 218.336C41.8569 217.304 41.5689 216.092 41.5689 214.7C41.5689 212.54 42.2409 210.872 43.5849 209.696C44.9289 208.496 46.7409 207.896 49.0209 207.896C50.8209 207.896 52.4409 208.292 53.8809 209.084C53.8569 207.908 53.7369 206.972 53.5209 206.276C53.3049 205.58 52.8609 205.052 52.1889 204.692C51.5169 204.308 50.5209 204.116 49.2009 204.116H46.5369V201.092H49.7409ZM48.6969 218.552C49.5129 218.552 50.3649 218.36 51.2529 217.976C52.1649 217.592 53.0529 217.016 53.9169 216.248V211.712C52.5729 211.04 51.1089 210.704 49.5249 210.704C48.2529 210.704 47.1849 211.016 46.3209 211.64C45.4569 212.24 45.0249 213.26 45.0249 214.7C45.0249 216.044 45.3849 217.028 46.1049 217.652C46.8489 218.252 47.7129 218.552 48.6969 218.552ZM71.3105 221.612C68.2145 221.588 65.8265 220.628 64.1465 218.732C62.4905 216.836 61.6625 214.268 61.6625 211.028C61.6625 207.788 62.4905 205.232 64.1465 203.36C65.8265 201.488 68.2145 200.54 71.3105 200.516C72.3905 200.516 73.3145 200.6 74.0825 200.768C74.8745 200.912 75.7145 201.164 76.6025 201.524V204.8C75.7385 204.392 74.9105 204.104 74.1185 203.936C73.3505 203.768 72.4985 203.684 71.5625 203.684C69.3305 203.708 67.7105 204.38 66.7025 205.7C65.6945 206.996 65.1905 208.76 65.1905 210.992C65.1905 213.272 65.6945 215.084 66.7025 216.428C67.7105 217.772 69.3065 218.456 71.4905 218.48C73.1945 218.48 75.0545 217.964 77.0705 216.932L78.1505 219.884C75.9665 221.036 73.6865 221.612 71.3105 221.612ZM88.6588 201.092C90.7708 201.092 92.3788 201.452 93.4828 202.172C94.5868 202.868 95.3188 203.816 95.6788 205.016C96.0388 206.192 96.2188 207.68 96.2188 209.48V221H92.8348V219.02C91.9228 219.884 91.0108 220.508 90.0988 220.892C89.1868 221.276 88.2028 221.468 87.1468 221.468C85.8988 221.468 84.7708 221.204 83.7628 220.676C82.7548 220.124 81.9508 219.344 81.3508 218.336C80.7748 217.304 80.4868 216.092 80.4868 214.7C80.4868 212.54 81.1588 210.872 82.5028 209.696C83.8468 208.496 85.6588 207.896 87.9388 207.896C89.7388 207.896 91.3588 208.292 92.7988 209.084C92.7748 207.908 92.6548 206.972 92.4388 206.276C92.2228 205.58 91.7788 205.052 91.1068 204.692C90.4348 204.308 89.4388 204.116 88.1188 204.116H85.4548V201.092H88.6588ZM87.6148 218.552C88.4308 218.552 89.2828 218.36 90.1708 217.976C91.0828 217.592 91.9708 217.016 92.8348 216.248V211.712C91.4908 211.04 90.0268 210.704 88.4428 210.704C87.1708 210.704 86.1028 211.016 85.2388 211.64C84.3748 212.24 83.9428 213.26 83.9428 214.7C83.9428 216.044 84.3028 217.028 85.0228 217.652C85.7668 218.252 86.6308 218.552 87.6148 218.552ZM118.58 190.544V221H115.196V219.2C113.3 220.808 111.38 221.612 109.436 221.612C106.748 221.612 104.6 220.712 102.992 218.912C101.384 217.112 100.58 214.496 100.58 211.064C100.58 207.632 101.384 205.016 102.992 203.216C104.6 201.416 106.748 200.516 109.436 200.516C111.356 200.516 113.276 201.332 115.196 202.964V190.544H118.58ZM109.868 218.48C111.596 218.48 113.372 217.736 115.196 216.248V205.916C113.42 204.428 111.644 203.684 109.868 203.684C107.972 203.684 106.532 204.308 105.548 205.556C104.588 206.804 104.108 208.64 104.108 211.064C104.108 213.488 104.588 215.336 105.548 216.608C106.532 217.856 107.972 218.48 109.868 218.48ZM127.382 211.316C127.43 213.524 127.982 215.288 129.038 216.608C130.094 217.928 131.774 218.588 134.078 218.588C135.83 218.588 137.75 218.096 139.838 217.112L140.882 219.92C138.698 221.048 136.334 221.612 133.79 221.612C131.678 221.612 129.878 221.168 128.39 220.28C126.902 219.392 125.774 218.156 125.006 216.572C124.238 214.988 123.854 213.14 123.854 211.028C123.854 208.796 124.25 206.9 125.042 205.34C125.858 203.756 126.95 202.556 128.318 201.74C129.686 200.924 131.222 200.516 132.926 200.516C135.542 200.516 137.594 201.332 139.082 202.964C140.57 204.596 141.314 206.936 141.314 209.984V211.316H127.382ZM132.926 203.54C129.95 203.54 128.174 205.184 127.598 208.472H137.75C137.63 206.792 137.174 205.556 136.382 204.764C135.59 203.948 134.438 203.54 132.926 203.54ZM168.528 200.66C170.952 200.66 172.74 201.308 173.892 202.604C175.068 203.9 175.656 206.036 175.656 209.012V221H172.272V209.012C172.272 207.116 171.96 205.784 171.336 205.016C170.736 204.224 169.644 203.828 168.06 203.828C166.188 203.828 164.316 204.728 162.444 206.528C162.54 207.2 162.588 208.028 162.588 209.012V221H159.204V209.012C159.204 207.116 158.892 205.784 158.268 205.016C157.668 204.224 156.576 203.828 154.992 203.828C153.168 203.828 151.344 204.644 149.52 206.276V221H146.136V201.092H149.52V203.216C151.464 201.512 153.444 200.66 155.46 200.66C157.068 200.66 158.388 200.936 159.42 201.488C160.452 202.016 161.232 202.868 161.76 204.044C163.944 201.788 166.2 200.66 168.528 200.66ZM181.328 191.912H184.712V197.348H181.328V191.912ZM181.328 201.092H184.712V221H181.328V201.092ZM199.631 221.612C196.535 221.588 194.147 220.628 192.467 218.732C190.811 216.836 189.983 214.268 189.983 211.028C189.983 207.788 190.811 205.232 192.467 203.36C194.147 201.488 196.535 200.54 199.631 200.516C200.711 200.516 201.635 200.6 202.403 200.768C203.195 200.912 204.035 201.164 204.923 201.524V204.8C204.059 204.392 203.231 204.104 202.439 203.936C201.671 203.768 200.819 203.684 199.883 203.684C197.651 203.708 196.031 204.38 195.023 205.7C194.015 206.996 193.511 208.76 193.511 210.992C193.511 213.272 194.015 215.084 195.023 216.428C196.031 217.772 197.627 218.456 199.811 218.48C201.515 218.48 203.375 217.964 205.391 216.932L206.471 219.884C204.287 221.036 202.007 221.612 199.631 221.612Z" fill="#59C3FF"/>
<path d="M122.102 79.1198C121.762 79.1647 121.429 79.2516 121.111 79.3786L64.5306 101.459C63.7525 101.761 63.0839 102.291 62.6125 102.98C62.1411 103.668 61.8888 104.484 61.8888 105.318C61.8888 106.153 62.1411 106.968 62.6125 107.657C63.0839 108.346 63.7525 108.876 64.5306 109.178L83.98 116.768V135.7C83.98 138.972 86.0111 141.531 88.3356 143.29C90.6601 145.048 93.5479 146.338 96.9606 147.43C103.786 149.614 112.735 150.88 122.62 150.88C132.505 150.88 141.454 149.614 148.279 147.43C151.692 146.338 154.58 145.048 156.904 143.29C159.229 141.531 161.26 138.972 161.26 135.7V116.768L175.06 111.377V138.503C173.405 139.763 172.3 141.739 172.3 143.98C172.3 147.791 175.389 150.88 179.2 150.88C183.011 150.88 186.1 147.791 186.1 143.98C186.1 141.739 184.995 139.763 183.34 138.503V105.34C183.345 104.503 183.097 103.684 182.627 102.991C182.157 102.298 181.489 101.764 180.709 101.459L124.129 79.3786C123.486 79.1243 122.789 79.0354 122.102 79.1198ZM122.62 87.7017L167.815 105.34L122.62 122.935L77.425 105.34L122.62 87.7017ZM92.26 120.002L121.111 131.258C122.081 131.638 123.159 131.638 124.129 131.258L152.98 120.002V135.657C152.95 135.697 152.777 136.03 151.902 136.692C150.735 137.575 148.566 138.675 145.735 139.581C140.074 141.393 131.789 142.6 122.62 142.6C113.451 142.6 105.166 141.393 99.505 139.581C96.6744 138.675 94.5052 137.575 93.3381 136.692C92.5301 136.08 92.3102 135.782 92.26 135.7V120.002Z" fill="#59C3FF"/>
</svg>
