<svg  viewBox="0 0 516 754" fill="none" xmlns="http://www.w3.org/2000/svg">
<circle cx="447.126" cy="600.126" r="35.1263" fill="#A9DBF7" fill-opacity="0.56"/>
<circle cx="462.179" cy="219.179" r="30.1789" fill="#A9DBF7" fill-opacity="0.56"/>
<circle cx="65.9263" cy="213.926" r="53.9263" fill="#A9DBF7" fill-opacity="0.56"/>
<circle cx="47.6211" cy="533.621" r="35.6211" fill="#A9DBF7" fill-opacity="0.56"/>
<path d="M111.136 457.187H119.077C120.218 457.187 121.141 456.258 121.141 455.123V443.214C121.141 439.886 118.432 437.177 115.104 437.177C111.776 437.177 109.067 439.886 109.067 443.214V455.123C109.072 456.258 109.996 457.187 111.136 457.187ZM113.2 443.214C113.2 442.161 114.051 441.31 115.104 441.31C116.157 441.31 117.008 442.161 117.008 443.214V453.054H113.2V443.214Z" fill="#35B2F9"/>
<path d="M154.8 385.576C151.472 385.576 148.763 388.285 148.763 391.614V403.523C148.763 404.663 149.692 405.587 150.827 405.587H158.768C159.908 405.587 160.832 404.658 160.832 403.523V391.614C160.837 388.285 158.123 385.576 154.8 385.576ZM156.704 401.454H152.896V391.614C152.896 390.561 153.747 389.71 154.8 389.71C155.853 389.71 156.704 390.561 156.704 391.614V401.454Z" fill="#35B2F9"/>
<path d="M148.763 347.949C148.763 349.09 149.692 350.013 150.827 350.013H158.768C159.908 350.013 160.832 349.085 160.832 347.949V336.04C160.832 332.712 158.123 330.003 154.795 330.003C151.467 330.003 148.758 332.712 148.758 336.04V347.949H148.763ZM152.896 336.04C152.896 334.987 153.747 334.136 154.8 334.136C155.853 334.136 156.704 334.987 156.704 336.04V345.88H152.896V336.04Z" fill="#35B2F9"/>
<path d="M357.227 457.187H365.168C366.308 457.187 367.232 456.258 367.232 455.123V443.214C367.232 439.886 364.523 437.177 361.195 437.177C357.867 437.177 355.158 439.886 355.158 443.214V455.123C355.163 456.258 356.092 457.187 357.227 457.187ZM359.296 443.214C359.296 442.161 360.147 441.31 361.2 441.31C362.253 441.31 363.104 442.161 363.104 443.214V453.054H359.296V443.214Z" fill="#35B2F9"/>
<path d="M394.854 403.518C394.854 404.658 395.782 405.582 396.918 405.582H404.859C405.999 405.582 406.923 404.653 406.923 403.518V391.614C406.923 388.285 404.214 385.576 400.886 385.576C397.557 385.576 394.848 388.285 394.848 391.614V403.518H394.854ZM398.987 391.614C398.987 390.561 399.838 389.71 400.891 389.71C401.943 389.71 402.795 390.561 402.795 391.614V401.454H398.987V391.614Z" fill="#35B2F9"/>
<path d="M394.854 347.949C394.854 349.09 395.782 350.013 396.918 350.013H404.859C405.999 350.013 406.923 349.085 406.923 347.949V336.04C406.923 332.712 404.214 330.003 400.886 330.003C397.557 330.003 394.848 332.712 394.848 336.04V347.949H394.854ZM398.987 336.04C398.987 334.987 399.838 334.136 400.891 334.136C401.943 334.136 402.795 334.987 402.795 336.04V345.88H398.987V336.04Z" fill="#35B2F9"/>
<path d="M428.321 251.416C427.929 250.916 427.331 250.622 426.696 250.622H424.709H418.76H410.375H401.995H393.615H385.235H376.855H368.476H360.096H351.716H343.336H337.387H335.4C334.765 250.622 334.167 250.921 333.775 251.416C333.388 251.917 333.243 252.572 333.403 253.186L335.323 260.864V308.259V316.2V345.886H274.352L258.924 338.171C258.351 337.877 257.654 337.877 257.082 338.171L241.653 345.886H180.683V316.2V308.259V260.864L182.602 253.186C182.757 252.572 182.618 251.917 182.231 251.416C181.838 250.916 181.24 250.622 180.605 250.622H178.619H172.669H164.289H155.909H147.524H139.145H130.765H122.385H114.005H105.625H97.2454H91.2959H89.3093C88.6746 250.622 88.0761 250.921 87.6839 251.416C87.2969 251.917 87.1524 252.572 87.3124 253.186L89.2319 260.864V308.259V316.2V363.827V371.763V419.395V427.331V502.744V510.68V594.04C89.2319 595.181 90.1607 596.104 91.2959 596.104H103.2H111.136H119.077H123.045H130.987H138.923H146.864H150.832H158.773H166.709H178.619H337.392H349.301H357.237H365.178H369.146H377.088H385.024H392.965H396.933H404.874H412.8H424.709C425.85 596.104 426.773 595.175 426.773 594.04V510.686V502.749V427.331V419.395V371.763V363.827V316.2V308.259V260.864L428.693 253.186C428.848 252.567 428.708 251.912 428.321 251.416ZM158.768 524.494H150.827H142.891H134.955H127.013H119.077H111.136H105.264V512.75H164.64V524.494H158.768ZM166.704 508.616H103.2H93.3599V504.814H103.2H127.013H142.891H166.704H176.544V508.616H166.704ZM97.2454 262.691H101.136V300.318V306.19H93.3599V262.691H97.2454ZM105.625 262.691H109.072V268.563C109.072 269.703 110.001 270.627 111.136 270.627C112.271 270.627 113.2 269.698 113.2 268.563V262.691H114H117.008V268.563C117.008 269.703 117.937 270.627 119.072 270.627C120.207 270.627 121.136 269.698 121.136 268.563V262.691H122.375H122.952V298.254H121.131V280.467C121.131 277.139 118.422 274.435 115.094 274.435C111.766 274.435 109.057 277.139 109.057 280.467V298.248H105.264V262.686H105.625V262.691ZM130.765 262.691H132.891V268.563C132.891 269.703 133.819 270.627 134.955 270.627C136.09 270.627 137.019 269.698 137.019 268.563V262.691H139.139H142.808V298.254H140.982V280.467C140.982 277.139 138.278 274.435 134.95 274.435C131.621 274.435 128.912 277.139 128.912 280.467V298.248H127.086V262.686H130.765V262.691ZM147.524 262.691H148.763V268.563C148.763 269.703 149.692 270.627 150.827 270.627C151.962 270.627 152.891 269.698 152.891 268.563V262.691H155.899H156.699V268.563C156.699 269.703 157.628 270.627 158.763 270.627C159.898 270.627 160.827 269.698 160.827 268.563V262.691H164.274H164.63V298.254H160.837V280.467C160.837 277.139 158.128 274.435 154.8 274.435C151.472 274.435 148.763 277.139 148.763 280.467V298.248H146.941V262.686H147.524V262.691ZM172.664 262.691H176.549V306.19H168.773V262.691H172.664ZM216.24 358.584L212.437 360.488V357.95H216.24V358.584ZM208.304 362.552L204.496 364.456V357.95H208.304V362.552ZM200.363 366.526L196.56 368.43V357.955H200.363V366.526ZM192.427 370.494L188.624 372.398V357.955H192.427V370.494ZM184.491 374.462L180.683 376.366V371.763V363.827V357.95H184.491V374.462ZM303.563 360.488L299.76 358.584V357.95H303.563V360.488ZM311.504 364.456L307.696 362.552V357.95H311.504V364.456ZM319.44 368.424L315.637 366.52V357.944H319.44V368.424ZM327.376 372.392L323.573 370.488V357.944H327.376V372.392ZM343.336 262.691H347.227V300.318V306.19H339.451V262.691H343.336ZM351.716 262.691H355.163V268.563C355.163 269.703 356.092 270.627 357.227 270.627C358.362 270.627 359.291 269.698 359.291 268.563V262.691H360.091H363.099V268.563C363.099 269.703 364.028 270.627 365.163 270.627C366.298 270.627 367.227 269.698 367.227 268.563V262.691H368.465H369.043V298.254H367.237V280.467C367.237 277.139 364.528 274.435 361.2 274.435C357.872 274.435 355.163 277.139 355.163 280.467V298.248H351.36V262.686H351.716V262.691ZM376.855 262.691H378.976V268.563C378.976 269.703 379.905 270.627 381.04 270.627C382.175 270.627 383.104 269.698 383.104 268.563V262.691H385.23H388.899V298.254H387.072V280.467C387.072 277.139 384.363 274.435 381.035 274.435C377.707 274.435 375.003 277.139 375.003 280.467V298.248H373.176V262.686H376.855V262.691ZM393.615 262.691H394.854V268.563C394.854 269.703 395.782 270.627 396.918 270.627C398.053 270.627 398.982 269.698 398.982 268.563V262.691H401.99H402.79V268.563C402.79 269.703 403.718 270.627 404.854 270.627C405.989 270.627 406.918 269.698 406.918 268.563V262.691H410.365H410.721V298.254H406.918V280.467C406.918 277.139 404.209 274.435 400.88 274.435C397.552 274.435 394.843 277.139 394.843 280.467V298.248H393.037V262.686H393.615V262.691ZM418.755 262.691H422.64V306.19H414.864V262.691H418.755ZM402.795 298.254H398.987V280.467C398.987 279.42 399.838 278.568 400.891 278.568C401.943 278.568 402.795 279.42 402.795 280.467V298.254ZM404.864 302.387H410.669V306.19H393.037V302.387H396.923H404.864ZM382.949 298.254H379.147V280.467C379.147 279.42 379.998 278.568 381.045 278.568C382.098 278.568 382.949 279.42 382.949 280.467V298.254ZM385.013 302.387H388.904V306.19H373.187V302.387H377.077H385.013ZM363.104 298.254H359.296V280.467C359.296 279.42 360.147 278.568 361.2 278.568C362.253 278.568 363.104 279.42 363.104 280.467V298.254ZM365.168 302.387H369.054V306.19H351.355V302.387H357.227H365.168ZM349.291 310.323H371.118H390.968H412.733H412.8H422.64V314.131H412.8H388.987H373.109H349.296H339.456V310.323H349.291ZM422.64 425.267H412.8H388.987H373.109H349.296H339.456V421.464H349.296H373.109H388.987H412.8H422.64V425.267ZM386.918 435.267V476.867H375.173V435.267V429.395H378.976V435.267C378.976 436.407 379.905 437.331 381.04 437.331C382.175 437.331 383.104 436.402 383.104 435.267V429.395H386.912V435.267H386.918ZM307.696 540.954C309.285 541.558 310.513 542.807 311.102 544.401H307.696V540.954ZM303.563 544.401H300.168C300.756 542.807 301.984 541.558 303.563 540.954V544.401ZM299.76 548.534H303.563V560.222H299.76V548.534ZM307.696 548.534H311.504V560.222H307.696V548.534ZM311.504 538.348C309.853 537.141 307.835 536.403 305.632 536.403H305.627C303.429 536.403 301.411 537.141 299.76 538.348V522.595C299.76 519.354 302.397 516.718 305.637 516.718C308.878 516.718 311.509 519.354 311.509 522.595V538.348H311.504ZM299.76 564.35H303.563V576.094H299.76V564.35ZM307.696 564.35H311.504V576.094H307.696V564.35ZM315.637 562.286V546.465V546.413V522.6C315.637 517.084 311.148 512.595 305.637 512.595C300.121 512.595 295.632 517.084 295.632 522.6V546.413V546.47V562.286V576.099H291.829V570.227V522.6C291.829 514.979 298.021 508.787 305.637 508.787C313.258 508.787 319.45 514.979 319.45 522.6V570.227V576.099H315.637V562.286ZM260.064 540.954C261.648 541.558 262.876 542.807 263.464 544.401H260.064V540.954ZM255.931 544.401H252.536C253.124 542.807 254.347 541.558 255.931 540.954V544.401ZM252.128 548.534H255.931V560.222H252.128V548.534ZM260.064 548.534H263.867V560.222H260.064V548.534ZM263.872 538.348C262.221 537.141 260.203 536.403 258 536.403C255.802 536.403 253.784 537.141 252.128 538.348V522.595C252.128 519.354 254.76 516.718 258 516.718C261.241 516.718 263.872 519.354 263.872 522.595V538.348ZM252.128 564.35H255.931V576.094H252.128V564.35ZM260.064 564.35H263.867V576.094H260.064V564.35ZM268 562.286V546.465V546.413V522.6C268 517.084 263.511 512.595 258 512.595C252.489 512.595 248 517.084 248 522.6V546.413V546.47V562.286V576.099H244.192V570.227V522.6C244.192 514.979 250.384 508.787 258.005 508.787C265.627 508.787 271.819 514.979 271.819 522.6V570.227V576.099H268.01V562.286H268ZM212.437 540.954C214.021 541.558 215.249 542.807 215.838 544.401H212.437V540.954ZM208.304 544.401H204.904C205.492 542.807 206.72 541.558 208.304 540.954V544.401ZM204.496 548.534H208.304V560.222H204.496V548.534ZM212.437 548.534H216.24V560.222H212.437V548.534ZM216.24 538.348C214.589 537.141 212.571 536.403 210.368 536.403C208.165 536.403 206.147 537.141 204.491 538.348V522.595C204.491 519.354 207.122 516.718 210.363 516.718C213.603 516.718 216.24 519.354 216.24 522.595V538.348ZM204.496 564.35H208.304V576.094H204.496V564.35ZM212.437 564.35H216.24V576.094H212.437V564.35ZM220.373 562.286V546.465V546.413V522.6C220.373 517.084 215.884 512.595 210.368 512.595C204.857 512.595 200.368 517.084 200.368 522.6V546.413V546.47V562.286V576.099H196.565V570.227V522.6C196.565 514.979 202.757 508.787 210.378 508.787C217.995 508.787 224.187 514.979 224.187 522.6V570.227V576.099H220.384V562.286H220.373ZM93.3599 429.4H101.136V478.936V500.685H93.3599V429.4ZM111.136 326.2C112.276 326.2 113.2 325.271 113.2 324.136V318.264H117.008V324.136C117.008 325.276 117.937 326.2 119.072 326.2C120.207 326.2 121.136 325.271 121.136 324.136V318.264H124.939V324.136V361.763H105.264V318.264H109.067V324.136C109.072 325.271 109.996 326.2 111.136 326.2ZM134.955 326.2C136.095 326.2 137.019 325.271 137.019 324.136V318.264H140.822V324.136V361.763H129.077V324.136V318.264H132.886V324.136C132.891 325.271 133.814 326.2 134.955 326.2ZM150.827 326.2C151.967 326.2 152.891 325.271 152.891 324.136V318.264H156.699V324.136C156.699 325.276 157.628 326.2 158.763 326.2C159.898 326.2 160.827 325.271 160.827 324.136V318.264H164.63V361.763H144.95V324.136V318.264H148.752V324.136C148.763 325.271 149.692 326.2 150.827 326.2ZM335.317 480.84H323.573V477.032H335.317V480.84ZM319.44 482.904V511.284C316.148 507.27 311.21 504.654 305.627 504.654C300.044 504.654 295.111 507.27 291.819 511.284V482.904V477.027H295.622V482.904C295.622 484.044 296.55 484.968 297.686 484.968C298.821 484.968 299.75 484.039 299.75 482.904V477.027H303.553V482.904C303.553 484.044 304.481 484.968 305.617 484.968C306.752 484.968 307.681 484.039 307.681 482.904V477.027H311.489V482.904C311.489 484.044 312.417 484.968 313.553 484.968C314.688 484.968 315.617 484.039 315.617 482.904V477.027H319.42V482.904H319.44ZM271.813 482.904V511.284C268.521 507.27 263.583 504.654 258 504.654C252.417 504.654 247.484 507.275 244.187 511.284V482.904V477.027H247.995V482.904C247.995 484.044 248.924 484.968 250.059 484.968C251.194 484.968 252.123 484.039 252.123 482.904V477.027H255.926V482.904C255.926 484.044 256.855 484.968 257.99 484.968C259.125 484.968 260.054 484.039 260.054 482.904V477.027H263.857V482.904C263.857 484.044 264.785 484.968 265.921 484.968C267.056 484.968 267.985 484.039 267.985 482.904V477.027H271.793V482.904H271.813ZM224.176 482.904V511.284C220.884 507.27 215.951 504.654 210.368 504.654C204.785 504.654 199.852 507.275 196.555 511.284V482.904V477.027H200.358V482.904C200.358 484.044 201.286 484.968 202.422 484.968C203.557 484.968 204.486 484.039 204.486 482.904V477.027H208.294V482.904C208.294 484.044 209.223 484.968 210.358 484.968C211.493 484.968 212.422 484.039 212.422 482.904V477.027H216.225V482.904C216.225 484.044 217.153 484.968 218.289 484.968C219.424 484.968 220.353 484.039 220.353 482.904V477.027H224.156V482.904H224.176ZM180.683 477.027H192.427V480.835H180.683V477.027ZM228.309 477.027H240.054V480.835H228.309V477.027ZM275.941 477.027H287.686V480.835H275.941V477.027ZM335.317 472.894H321.504H289.755H273.877H242.123H226.245H194.496H180.683V469.091H186.56H194.496H202.432H218.309H226.245H242.123H250.064H265.936H273.877H289.755H297.691H313.568H321.504H329.44H335.317V472.894ZM224.176 464.958H220.373V451.144V435.329V435.267V411.454C220.373 405.943 215.884 401.454 210.368 401.454C204.857 401.454 200.368 405.943 200.368 411.454V435.267V435.329V451.144V464.958H196.565V411.454C196.565 403.832 202.757 397.64 210.378 397.64C217.995 397.64 224.187 403.832 224.187 411.454V464.958H224.176ZM212.437 429.818C214.021 430.422 215.249 431.671 215.838 433.265H212.437V429.818ZM208.304 433.265H204.898C205.487 431.671 206.715 430.422 208.304 429.818V433.265ZM204.496 437.398H208.304V449.085H204.496V437.398ZM212.437 437.398H216.24V449.085H212.437V437.398ZM216.24 427.212C214.589 426.005 212.571 425.267 210.368 425.267C208.165 425.267 206.147 426.005 204.491 427.212V411.454C204.491 408.213 207.122 405.582 210.363 405.582C213.603 405.582 216.24 408.213 216.24 411.454V427.212ZM204.496 453.214H208.304V464.958H204.496V453.214ZM212.437 453.214H216.24V464.958H212.437V453.214ZM271.813 464.958H268.005V451.144V435.329V435.267V395.576C268.005 390.065 263.516 385.576 258.005 385.576C252.494 385.576 248.005 390.065 248.005 395.576V435.267V435.329V451.144V464.958H244.197V395.576C244.197 387.96 250.389 381.768 258.01 381.768C265.632 381.768 271.824 387.96 271.824 395.576V464.958H271.813ZM260.064 429.818C261.648 430.422 262.876 431.671 263.464 433.265H260.064V429.818ZM255.931 433.265H252.53C253.119 431.671 254.342 430.422 255.931 429.818V433.265ZM252.128 437.398H255.931V449.085H252.128V437.398ZM260.064 437.398H263.867V449.085H260.064V437.398ZM263.872 427.212C262.221 426.005 260.203 425.267 258 425.267C255.802 425.267 253.784 426.005 252.128 427.212V395.576C252.128 392.336 254.76 389.704 258 389.704C261.241 389.704 263.872 392.336 263.872 395.576V427.212ZM252.128 453.214H255.931V464.958H252.128V453.214ZM260.064 453.214H263.867V464.958H260.064V453.214ZM319.44 464.958H315.637V451.144V435.329V435.267V411.454C315.637 405.943 311.148 401.454 305.637 401.454C300.121 401.454 295.632 405.943 295.632 411.454V435.267V435.329V451.144V464.958H291.829V411.454C291.829 403.832 298.021 397.64 305.637 397.64C313.258 397.64 319.45 403.832 319.45 411.454V464.958H319.44ZM307.696 429.818C309.285 430.417 310.513 431.671 311.102 433.265H307.696V429.818ZM303.563 433.265H300.162C300.751 431.671 301.974 430.422 303.563 429.818V433.265ZM299.76 437.398H303.563V449.085H299.76V437.398ZM307.696 437.398H311.504V449.085H307.696V437.398ZM311.504 427.212C309.853 426.005 307.835 425.267 305.632 425.267H305.627C303.429 425.267 301.411 426.005 299.76 427.212V411.454C299.76 408.213 302.397 405.582 305.637 405.582C308.878 405.582 311.509 408.213 311.509 411.454V427.212H311.504ZM299.76 453.214H303.563V464.958H299.76V453.214ZM307.696 453.214H311.504V464.958H307.696V453.214ZM335.317 419.395V427.331V464.958H331.509V395.576V394.942L335.317 396.846V419.395ZM327.376 393.512V395.576V464.958H323.573V411.454C323.573 401.562 315.519 393.507 305.627 393.507C295.735 393.507 287.686 401.562 287.686 411.454V464.958H283.877V395.576V393.512V371.133L327.376 392.883V393.512ZM279.749 393.512V395.576V464.958H275.947V395.576C275.947 385.685 267.892 377.635 258 377.635C248.108 377.635 240.054 385.685 240.054 395.576V464.958H236.251V395.576V393.512V369.064L258 358.192L279.749 369.064V393.512ZM232.117 393.512V395.576V464.958H228.309V411.454C228.309 401.562 220.26 393.507 210.368 393.507C200.476 393.507 192.422 401.562 192.422 411.454V464.958H188.619V395.576V393.512V392.878L232.117 371.128V393.512ZM184.491 395.576V464.958H180.683V427.331V419.395V396.846L184.491 394.942V395.576ZM176.549 379.704V387.64V395.576V417.331H168.773V373.827H176.549V379.704ZM164.64 417.331H144.96V379.704V373.827H148.763V379.704C148.763 380.845 149.692 381.768 150.827 381.768C151.962 381.768 152.891 380.839 152.891 379.704V373.827H156.699V379.704C156.699 380.845 157.628 381.768 158.763 381.768C159.898 381.768 160.827 380.839 160.827 379.704V373.827H164.63V417.331H164.64ZM124.949 379.704V417.331H105.264V373.827H109.067V379.704C109.067 380.845 109.996 381.768 111.131 381.768C112.266 381.768 113.195 380.839 113.195 379.704V373.827H117.003V379.704C117.003 380.845 117.932 381.768 119.067 381.768C120.202 381.768 121.131 380.839 121.131 379.704V373.827H124.934V379.704H124.949ZM129.083 379.704V373.827H132.891V379.704C132.891 380.845 133.819 381.768 134.955 381.768C136.09 381.768 137.019 380.839 137.019 379.704V373.827H140.822V379.704V417.331H129.077V379.704H129.083ZM176.549 347.949V355.886V361.763H168.773V318.264H176.549V347.949ZM93.3599 318.264H101.136V361.763H93.3599V318.264ZM103.2 365.891H127.013H142.891H166.704H176.544V369.694H166.704H142.891H127.013H103.2H93.3599V365.891H103.2ZM101.131 373.827V417.331H93.3547V373.827H101.131ZM103.2 421.464H127.013H142.891H166.704H176.544V425.267H166.704H142.891H127.013H103.2H93.3599V421.464H103.2ZM140.827 435.267V476.867H129.083V435.267V429.395H132.891V435.267C132.891 436.407 133.819 437.331 134.955 437.331C136.09 437.331 137.019 436.402 137.019 435.267V429.395H140.822V435.267H140.827ZM105.264 429.4H109.067V435.272C109.067 436.413 109.996 437.336 111.131 437.336C112.266 437.336 113.195 436.407 113.195 435.272V429.4H117.003V435.272C117.003 436.413 117.932 437.336 119.067 437.336C120.202 437.336 121.131 436.407 121.131 435.272V429.4H124.934V435.272V476.872H121.131V467.032C121.131 463.704 118.422 460.995 115.094 460.995C111.766 460.995 109.057 463.704 109.057 467.032V476.872H105.264V429.4ZM117.013 476.867H113.205V467.027C113.205 465.974 114.057 465.123 115.109 465.123C116.162 465.123 117.013 465.974 117.013 467.027V476.867ZM105.264 481H111.136H119.077H124.949V500.68H105.264V481ZM129.083 481H140.827V500.68H129.083V481ZM144.96 481H164.64V500.68H144.96V481ZM144.96 476.867V435.267V429.395H148.763V435.267C148.763 436.407 149.692 437.331 150.827 437.331C151.962 437.331 152.891 436.402 152.891 435.267V429.395H156.699V435.267C156.699 436.407 157.628 437.331 158.763 437.331C159.898 437.331 160.827 436.402 160.827 435.267V429.395H164.63V476.862H144.96V476.867ZM168.773 478.931V429.395H176.549V467.022V474.958V482.899V500.675H168.773V478.931ZM180.683 572.291H192.427V576.094H180.683V572.291ZM180.683 568.158V510.686V502.749V484.973H192.427V522.6V568.163H180.683V568.158ZM228.309 572.291H240.054V576.094H228.309V572.291ZM228.309 568.158V522.595V484.968H240.054V522.595V568.158H228.309ZM275.941 572.291H287.686V576.094H275.941V572.291ZM275.941 568.158V522.595V484.968H287.686V522.595V568.158H275.941ZM323.573 522.595V484.968H335.317V502.744V510.68V568.158H323.573V522.595ZM323.573 572.291H335.317V576.094H323.573V572.291ZM339.451 379.704V373.827H347.227V417.331H339.451V395.576V387.64V379.704ZM357.227 381.768C358.367 381.768 359.291 380.839 359.291 379.704V373.827H363.099V379.704C363.099 380.845 364.028 381.768 365.163 381.768C366.298 381.768 367.227 380.839 367.227 379.704V373.827H371.03V379.704V417.331H351.35V373.827H355.153V379.704C355.163 380.845 356.092 381.768 357.227 381.768ZM381.045 381.768C382.186 381.768 383.109 380.839 383.109 379.704V373.827H386.918V379.704V417.331H375.173V379.704V373.827H378.976V379.704C378.976 380.845 379.905 381.768 381.045 381.768ZM396.923 381.768C398.063 381.768 398.987 380.839 398.987 379.704V373.827H402.795V379.704C402.795 380.845 403.724 381.768 404.859 381.768C405.994 381.768 406.923 380.839 406.923 379.704V373.827H410.726V417.331H391.045V379.704V373.827H394.848V379.704C394.854 380.845 395.782 381.768 396.923 381.768ZM422.64 417.331H414.864V373.827H422.64V417.331ZM422.64 369.694H412.8H388.987H373.109H349.296H339.456V365.891H349.296H373.109H388.987H412.8H422.64V369.694ZM357.227 326.2C358.367 326.2 359.291 325.271 359.291 324.136V318.264H363.099V324.136C363.099 325.276 364.028 326.2 365.163 326.2C366.298 326.2 367.227 325.271 367.227 324.136V318.264H371.03V324.136V361.763H351.35V318.264H355.153V324.136C355.163 325.271 356.092 326.2 357.227 326.2ZM381.045 326.2C382.186 326.2 383.109 325.271 383.109 324.136V318.264H386.918V324.136V361.763H375.173V324.136V318.264H378.976V324.136C378.976 325.271 379.905 326.2 381.045 326.2ZM396.923 326.2C398.063 326.2 398.987 325.271 398.987 324.136V318.264H402.795V324.136C402.795 325.276 403.724 326.2 404.859 326.2C405.994 326.2 406.923 325.271 406.923 324.136V318.264H410.726V361.763H391.045V324.136V318.264H394.848V324.136C394.854 325.271 395.782 326.2 396.923 326.2ZM339.451 318.264H347.227V361.763H339.451V355.886V347.949V318.264ZM422.64 361.758H414.864V318.259H422.64V361.758ZM335.317 363.827V371.763V376.366L331.509 374.462V357.95H335.317V363.827ZM335.317 392.238L331.509 390.334V387.006L335.317 388.91V392.238ZM327.376 388.27L283.877 366.52V363.197L327.376 384.947V388.27ZM279.749 364.451L258.924 354.038C258.351 353.744 257.654 353.744 257.082 354.038L236.256 364.451V361.128L258 350.256L279.749 361.128V364.451ZM232.117 366.52L188.619 388.27V384.942L232.117 363.192V366.52ZM184.491 390.334L180.683 392.238V388.91L184.491 387.006V390.334ZM156.704 298.254H152.896V280.467C152.896 279.42 153.747 278.568 154.8 278.568C155.853 278.568 156.704 279.42 156.704 280.467V298.254ZM158.768 302.387H164.573V306.19H146.941V302.387H150.827H158.768ZM136.854 298.254H133.051V280.467C133.051 279.42 133.902 278.568 134.955 278.568C136.002 278.568 136.854 279.42 136.854 280.467V298.254ZM138.923 302.387H142.813V306.19H127.096V302.387H130.987H138.923ZM117.013 298.254H113.205V280.467C113.205 279.42 114.057 278.568 115.109 278.568C116.162 278.568 117.013 279.42 117.013 280.467V298.254ZM119.077 302.387H122.963V306.19H105.264V302.387H111.136H119.077ZM103.2 310.323H125.027H144.877H166.642H166.709H176.549V314.131H166.709H142.896H127.019H103.2H93.3599V310.323H103.2ZM180.683 580.227H194.496H202.432H218.309H226.245H242.123H250.064H265.936H273.877H289.755H297.691H313.568H321.504H335.317V584.035H180.683V580.227ZM339.451 482.904V474.963V467.027V429.4H347.227V478.936V500.685H339.451V482.904ZM351.36 429.4H355.163V435.272C355.163 436.413 356.092 437.336 357.227 437.336C358.362 437.336 359.291 436.407 359.291 435.272V429.4H363.099V435.272C363.099 436.413 364.028 437.336 365.163 437.336C366.298 437.336 367.227 436.407 367.227 435.272V429.4H371.03V435.272V476.872H367.237V467.032C367.237 463.704 364.528 460.995 361.2 460.995C357.872 460.995 355.163 463.704 355.163 467.032V476.872H351.36V429.4ZM363.104 476.867H359.296V467.027C359.296 465.974 360.147 465.123 361.2 465.123C362.253 465.123 363.104 465.974 363.104 467.027V476.867ZM351.36 481H357.232H365.173H371.045V500.68H351.365V481H351.36ZM375.173 481H386.918V500.68H375.173V481ZM391.051 481H410.731V500.68H391.051V481ZM391.051 476.867V435.267V429.395H394.854V435.267C394.854 436.407 395.782 437.331 396.918 437.331C398.053 437.331 398.982 436.402 398.982 435.267V429.395H402.79V435.267C402.79 436.407 403.718 437.331 404.854 437.331C405.989 437.331 406.918 436.402 406.918 435.267V429.395H410.721V476.862H391.051V476.867ZM414.864 478.931V429.395H422.64V500.675H414.864V478.931ZM424.049 254.75L423.094 258.558H420.824V254.75H422.645H424.049ZM416.691 258.558H412.8H412.444V254.75H416.691V258.558ZM408.311 258.558H404.064V254.75H408.311V258.558ZM399.931 258.558H395.684V254.75H399.931V258.558ZM391.551 258.558H390.973H387.304V254.75H391.551V258.558ZM383.171 258.558H378.925V254.75H383.171V258.558ZM374.792 258.558H371.123H370.54V254.75H374.786V258.558H374.792ZM366.412 258.558H362.165V254.75H366.412V258.558ZM358.032 258.558H353.785V254.75H358.032V258.558ZM349.652 258.558H349.296H345.405V254.75H349.652V258.558ZM339.451 254.75H341.272V258.558H339.002L338.047 254.75H339.451ZM335.317 350.014V353.816H329.44H321.504H313.568H305.627H297.691H290.224L282.613 350.014H335.317ZM258 342.32L335.317 380.979V381.768V384.297L258.924 346.102C258.635 345.958 258.32 345.88 258 345.88C257.68 345.88 257.365 345.958 257.076 346.102L180.677 384.297V381.768V380.979L258 342.32ZM233.382 350.014L225.771 353.816H218.304H210.368H202.427H194.491H186.555H180.677V350.014H233.382ZM177.953 254.75L176.998 258.558H174.728V254.75H176.549H177.953ZM170.595 258.558H166.704H166.348V254.75H170.595V258.558ZM162.215 258.558H157.968V254.75H162.215V258.558ZM153.835 258.558H149.588V254.75H153.835V258.558ZM145.455 258.558H144.877H141.209V254.75H145.455V258.558ZM137.075 258.558H132.829V254.75H137.075V258.558ZM128.696 258.558H125.027H124.449V254.75H128.696V258.558ZM120.316 258.558H116.069V254.75H120.316V258.558ZM111.936 258.558H107.689V254.75H111.936V258.558ZM103.556 258.558H103.2H99.3094V254.75H103.556V258.558ZM93.3599 254.75H95.1814V258.558H92.911L91.9564 254.75H93.3599ZM101.131 591.976H93.3547V512.75H101.131V526.563V554.349V591.976ZM105.264 556.414H109.067V591.976H105.264V556.414ZM128.917 591.976H125.109V554.349C125.109 552.115 123.288 550.299 121.059 550.299C118.83 550.299 117.013 552.12 117.013 554.349V591.976H113.205V554.349C113.205 550.015 116.735 546.496 121.064 546.496C125.393 546.496 128.917 550.02 128.917 554.349V591.976ZM133.051 556.414H136.854V591.976H133.051V556.414ZM137.065 552.28H132.844C131.859 546.656 126.967 542.358 121.064 542.358C115.161 542.358 110.264 546.656 109.278 552.28H105.264V528.627H109.067V534.504C109.067 535.645 109.996 536.568 111.131 536.568C112.266 536.568 113.195 535.639 113.195 534.504V528.627H117.003V534.504C117.003 535.645 117.932 536.568 119.067 536.568C120.202 536.568 121.131 535.639 121.131 534.504V528.627H124.934V534.504C124.934 535.645 125.863 536.568 126.998 536.568C128.133 536.568 129.062 535.639 129.062 534.504V528.627H132.87V534.504C132.87 535.645 133.799 536.568 134.934 536.568C136.069 536.568 136.998 535.639 136.998 534.504V528.627H140.801V534.504C140.801 535.645 141.73 536.568 142.865 536.568C144 536.568 144.929 535.639 144.929 534.504V528.627H148.732V534.504C148.732 535.645 149.661 536.568 150.796 536.568C151.931 536.568 152.86 535.639 152.86 534.504V528.627H156.668V534.504C156.668 535.645 157.597 536.568 158.732 536.568C159.867 536.568 160.796 535.639 160.796 534.504V528.627H164.599V552.28H160.584C159.599 546.656 154.702 542.358 148.799 542.358C142.942 542.358 138.051 546.656 137.065 552.28ZM156.704 591.976H152.896V554.349C152.896 552.115 151.08 550.299 148.851 550.299C146.621 550.299 144.8 552.12 144.8 554.349V591.976H140.992V554.349C140.992 550.015 144.516 546.496 148.845 546.496C152.994 546.496 156.364 549.731 156.652 553.808C156.601 553.983 156.544 554.159 156.544 554.355C156.544 554.644 156.606 554.912 156.709 555.165V591.976H156.704ZM160.837 556.414H164.64V591.976H160.837V556.414ZM168.773 526.563V512.75H176.549V570.227V578.163V586.104V591.976H168.773V526.563ZM335.317 591.976H180.683V588.173H335.323V591.976H335.317ZM347.227 591.976H339.451V586.104V578.163V570.227V512.75H347.227V526.563V554.349V591.976ZM410.731 524.494H404.859H396.918H388.982H381.04H373.104H365.168H357.227H351.355V512.75H410.731V524.494ZM351.36 556.414H355.163V591.976H351.36V556.414ZM375.013 591.976H371.205V554.349C371.205 552.115 369.384 550.299 367.155 550.299C364.926 550.299 363.109 552.12 363.109 554.349V591.976H359.301V554.349C359.301 550.015 362.831 546.496 367.16 546.496C371.489 546.496 375.013 550.02 375.013 554.349V591.976ZM379.141 556.414H382.944V591.976H379.141V556.414ZM383.156 552.28H378.935C377.949 546.656 373.058 542.358 367.155 542.358C361.252 542.358 356.355 546.656 355.369 552.28H351.355V528.627H355.158V534.504C355.158 535.645 356.086 536.568 357.222 536.568C358.357 536.568 359.286 535.639 359.286 534.504V528.627H363.094V534.504C363.094 535.645 364.023 536.568 365.158 536.568C366.293 536.568 367.222 535.639 367.222 534.504V528.627H371.025V534.504C371.025 535.645 371.953 536.568 373.089 536.568C374.224 536.568 375.153 535.639 375.153 534.504V528.627H378.956V534.504C378.956 535.645 379.884 536.568 381.02 536.568C382.155 536.568 383.084 535.639 383.084 534.504V528.627H386.892V534.504C386.892 535.645 387.82 536.568 388.956 536.568C390.091 536.568 391.02 535.639 391.02 534.504V528.627H394.823V534.504C394.823 535.645 395.751 536.568 396.887 536.568C398.022 536.568 398.951 535.639 398.951 534.504V528.627H402.759V534.504C402.759 535.645 403.688 536.568 404.823 536.568C405.958 536.568 406.887 535.639 406.887 534.504V528.627H410.69V552.28H406.675C405.69 546.656 400.793 542.358 394.89 542.358C389.033 542.358 384.141 546.656 383.156 552.28ZM402.795 591.976H398.987V554.349C398.987 552.115 397.17 550.299 394.941 550.299C392.712 550.299 390.891 552.12 390.891 554.349V591.976H387.083V554.349C387.083 550.015 390.607 546.496 394.936 546.496C399.085 546.496 402.454 549.731 402.743 553.808C402.692 553.983 402.635 554.159 402.635 554.355C402.635 554.644 402.697 554.912 402.8 555.165V591.976H402.795ZM406.928 556.414H410.731V591.976H406.928V556.414ZM422.64 591.976H414.864V526.563V512.75H422.64V591.976ZM412.8 508.616H349.291H339.451V504.814H349.291H373.104H388.982H412.8H422.64V508.616H412.8Z" fill="#35B2F9"/>
<circle cx="367" cy="49" r="47" fill="#A9DBF7" fill-opacity="0.56"/>
<circle cx="283.637" cy="214.637" r="24.6371" fill="#A9DBF7" fill-opacity="0.56"/>
<circle cx="84.6371" cy="24.6371" r="24.6371" fill="#A9DBF7" fill-opacity="0.56"/>
<circle cx="472.611" cy="386.611" r="36.6105" fill="#A9DBF7" fill-opacity="0.56"/>
<circle cx="211" cy="96" r="47" fill="#A9DBF7" fill-opacity="0.56"/>
</svg>
