<svg xmlns="http://www.w3.org/2000/svg" xmlns:xlink="http://www.w3.org/1999/xlink" xml:space="preserve" version="1.1" style="shape-rendering:geometricPrecision;text-rendering:geometricPrecision;image-rendering:optimizeQuality;" viewBox="0 0 333 416.25" x="0px" y="0px" fill-rule="evenodd" clip-rule="evenodd"><defs><style type="text/css">
   
    .fil0 {fill:black;fill-rule:nonzero}
   
  </style></defs><g><path class="fil0" d="M278 91c-3,8 -15,4 -12,-3l3 -13 -59 52c-1,1 -3,2 -5,2l-74 -17 -76 46c-3,2 -7,1 -9,-2 -2,-3 -1,-7 2,-8l79 -48c2,-1 3,-1 5,-1l72 17 60 -52 -16 1c-8,0 -9,-12 -1,-13l34 -2c4,0 7,2 7,6 0,3 -9,30 -10,35zm-25 15l47 0 0 177 -47 0 0 -177zm-74 49l48 0 0 128 -48 0 0 -128zm-72 -14l47 0 0 142 -47 0 0 -142zm-74 38l48 0 0 104 -48 0 0 -104z"/></g><text x="0" y="348" fill="#000000" font-size="5px" font-weight="bold" font-family="'Helvetica Neue', Helvetica, Arial-Unicode, Arial, Sans-serif">Created by Enshia</text><text x="0" y="353" fill="#000000" font-size="5px" font-weight="bold" font-family="'Helvetica Neue', Helvetica, Arial-Unicode, Arial, Sans-serif">from the Noun Project</text></svg>