<svg viewBox="0 0 138 173" fill="none" xmlns="http://www.w3.org/2000/svg">
<path d="M67.1026 33.1198C66.7625 33.1647 66.4293 33.2516 66.1107 33.3786L9.53072 55.4586C8.75265 55.7607 8.08405 56.2909 7.61261 56.9797C7.14118 57.6684 6.88892 58.4836 6.88892 59.3183C6.88892 60.1529 7.14118 60.9681 7.61261 61.6569C8.08405 62.3456 8.75265 62.8758 9.53072 63.1779L28.9801 70.7679V89.6998C28.9801 92.9721 31.0112 95.5311 33.3357 97.2898C35.6602 99.0485 38.548 100.338 41.9607 101.43C48.7862 103.614 57.7352 104.88 67.6201 104.88C77.505 104.88 86.454 103.614 93.2795 101.43C96.6922 100.338 99.5799 99.0485 101.904 97.2898C104.229 95.5311 106.26 92.9721 106.26 89.6998V70.7679L120.06 65.3773V92.5029C118.405 93.7634 117.3 95.7387 117.3 97.9798C117.3 101.791 120.389 104.88 124.2 104.88C128.011 104.88 131.1 101.791 131.1 97.9798C131.1 95.7387 129.995 93.7634 128.34 92.5029V59.3398C128.345 58.5028 128.097 57.6838 127.627 56.9909C127.157 56.2981 126.489 55.7638 125.709 55.4586L69.1295 33.3786C68.4861 33.1243 67.7892 33.0354 67.1026 33.1198V33.1198ZM67.6201 41.7017L112.815 59.3398L67.6201 76.9348L22.4251 59.3398L67.6201 41.7017ZM37.2601 74.0023L66.1107 85.2579C67.0811 85.6378 68.1591 85.6378 69.1295 85.2579L97.9801 74.0023V89.6567C97.9504 89.6973 97.7773 90.0296 96.902 90.6917C95.7349 91.5748 93.5656 92.6752 90.7351 93.5811C85.074 95.3926 76.789 96.5998 67.6201 96.5998C58.4512 96.5998 50.1662 95.3926 44.5051 93.5811C41.6745 92.6752 39.5053 91.5748 38.3382 90.6917C37.5303 90.0804 37.3104 89.7816 37.2601 89.6998V74.0023Z" fill="#59C3FF"/>
</svg>
