<svg width="126" height="126" viewBox="0 0 126 126" fill="none" xmlns="http://www.w3.org/2000/svg">
<path d="M68.9641 86.6546C68.1409 94.769 67.3345 102.883 66.5113 110.998C66.3769 112.409 66.1921 113.82 66.0577 115.231C66.0073 115.752 65.8561 115.971 65.2849 115.971C57.7417 116.004 42.6385 116.155 42.6385 116.155L41.4961 112.93C41.2441 112.207 41.1769 111.435 41.2945 110.679C41.8993 106.949 43.7977 95.4578 43.9321 94.8194C44.2513 93.341 44.5369 90.317 44.5369 90.317C44.5369 90.317 44.5873 87.7802 44.5033 86.5202C44.4025 85.2938 44.2009 84.437 43.6129 83.3786C42.7729 81.8498 41.6809 80.3714 40.7569 78.8762C38.7409 75.6338 36.7249 72.3746 34.6921 69.149C30.6433 62.6978 26.5609 56.2802 22.4281 49.8962C20.9665 47.6282 20.8825 45.4274 21.9241 43.0586C22.8817 40.8746 24.3937 39.077 25.8217 37.2122C30.3073 31.349 35.4145 25.973 39.8329 20.0426C40.8241 18.7154 41.7481 18.5474 43.2265 19.3034C50.3329 22.9826 57.4225 26.6954 64.5289 30.3578C66.0745 31.1474 66.8977 32.3906 67.1497 34.037C67.7545 38.0522 66.6289 41.681 64.5457 45.0746C63.6385 46.553 62.5801 47.9306 61.5385 49.325C61.3369 49.5938 60.9673 49.6778 60.6649 49.5434C57.2545 47.897 53.8441 46.2506 50.4337 44.6042C50.3833 44.5874 50.3665 44.5034 50.2657 44.369C51.4081 44.1002 52.5169 43.949 53.6257 43.9658C55.6249 44.0162 57.5401 43.529 59.4889 43.1762C59.9761 43.0922 60.0937 42.7562 60.0433 42.3698C59.9593 41.8658 59.6065 42.2018 59.3881 42.2354C55.6249 43.0586 52.3657 42.017 49.4593 39.6314C48.1489 38.5394 46.9729 37.313 45.8305 36.053C45.6457 35.8514 45.5281 35.5826 45.1585 35.4986C45.5617 37.6154 45.9145 39.7154 46.3849 41.7818C46.5865 42.6386 46.3681 42.9914 45.5617 43.2434C44.2177 43.6634 42.9241 44.2178 41.4289 44.7722C42.8737 45.4106 44.1337 45.9818 45.3937 46.553C47.3425 47.4266 49.1737 48.5186 50.9545 49.6946C52.0801 50.4506 52.8529 51.5258 53.5585 52.6682C58.5481 60.7322 63.3529 68.9138 68.2081 77.0618C68.5105 77.5658 68.7793 78.0866 68.9809 78.641C69.7537 80.657 69.2161 82.1018 67.3177 83.1434C66.7465 83.4458 65.8897 83.6978 65.9737 84.353C66.0409 84.8066 66.9649 84.7058 67.5193 84.8066C68.3593 84.9578 69.0985 85.109 69.0985 85.109C69.0985 85.109 69.0313 85.8986 68.9641 86.6546ZM104.362 45.9146C104.227 45.5618 104.059 45.2426 103.891 44.9066C102.53 42.269 100.666 40.0178 98.7337 37.8002C97.3561 36.221 97.3393 36.2378 95.8441 37.733C95.6257 37.9514 95.4073 38.1698 95.1889 38.3882C89.3761 44.5538 83.5633 50.7194 77.7337 56.8514C77.2633 57.3554 77.3473 57.5738 77.8009 57.9938C80.0353 59.993 82.2361 62.0258 84.4537 64.0418C84.7393 64.2938 85.0081 64.4786 84.6217 64.9322C84.2521 65.3522 84.0337 65.285 83.6473 64.9994C82.7569 64.3274 81.8833 63.6554 81.1105 62.849C75.6337 57.053 69.1321 53.0714 61.2025 51.6098C59.7913 51.3578 58.3801 51.089 56.8345 51.3074C63.1345 62.7818 75.7681 85.7642 75.7681 85.7642L71.6185 85.2938C71.6185 85.2938 70.9633 92.4842 70.6777 95.6258C70.0897 102.127 69.5185 108.612 68.8801 115.114C68.8129 115.87 69.0313 115.971 69.7033 115.971C74.3065 115.903 78.9097 115.853 83.5297 115.836C84.2353 115.836 84.3865 115.584 84.3865 114.912C84.4705 107.89 84.5209 100.884 84.8401 93.8618C84.9745 90.8378 86.2177 88.4858 88.1833 86.369C89.9137 84.5042 91.4929 82.5554 92.6857 80.2874C94.5673 76.7258 95.6089 72.8954 96.4321 68.9978C97.2217 65.2514 98.1625 61.5386 98.2129 57.6746C98.2297 56.633 98.2129 56.633 97.2889 57.1034C95.1049 58.1954 93.1057 59.6234 91.0057 60.8498C90.6025 61.085 90.1825 61.4546 89.6449 60.9506C89.8297 60.7826 89.9809 60.6314 90.1321 60.497C94.5001 56.9186 98.8849 53.3234 103.27 49.745C104.916 48.3842 105.101 47.8634 104.362 45.9146ZM65.6041 47.9978C64.4785 49.409 64.5121 49.4426 65.9401 50.585C68.4601 52.5842 71.4001 53.8274 74.2225 55.2722C74.5921 55.457 74.9953 55.4738 75.3985 55.4906C76.6081 55.5242 77.2801 54.6842 77.9857 53.9114C80.6905 50.9378 83.3617 47.9306 86.0497 44.957C88.6369 42.0842 91.2409 39.2282 93.8113 36.3386C94.8025 35.2298 94.8193 34.4066 93.8953 33.4994C90.8377 30.5594 87.7633 27.653 84.7057 24.7298C84.3697 24.4106 84.2017 24.3938 83.9329 24.797C83.3953 25.5866 82.7905 26.3426 82.2025 27.0986C76.6921 34.0538 71.1313 41.009 65.6041 47.9978ZM61.7569 23.8058C61.1353 24.8306 61.2193 25.133 62.2273 25.7546C63.3361 26.4434 64.4449 27.0986 65.5705 27.7202C66.8305 28.4258 67.9729 29.2658 68.7457 30.4922C70.1737 32.7266 70.1065 35.2802 69.7201 37.8674C70.2073 37.2962 70.5601 36.8762 70.9129 36.4562C74.5249 32.105 78.1369 27.7706 81.7657 23.4194C82.2193 22.865 82.5049 22.361 81.8833 21.7394C78.2545 18.161 74.6257 14.5826 71.0137 10.9874C70.6105 10.5842 70.5265 10.8362 70.3081 11.1554C69.3673 12.6002 68.3929 14.0282 67.4353 15.473C65.5873 18.2786 63.4873 20.9162 61.7569 23.8058ZM44.2513 17.489C48.2833 19.421 52.2145 21.5714 56.3305 23.3354C57.9433 24.0242 58.9177 23.6882 59.8585 22.2098C61.8577 19.0514 63.8737 15.9098 65.8729 12.7514C66.4273 11.861 66.9817 10.9706 67.6705 9.86182C59.6233 12.3818 51.8281 14.8178 43.9825 17.2538C44.1169 17.3546 44.1673 17.4386 44.2513 17.489Z" fill="#59C3FF"/>
</svg>
