<svg width="148" height="120" viewBox="0 0 148 120" fill="none" xmlns="http://www.w3.org/2000/svg">
<g clip-path="url(#clip0)">
<path d="M114.541 40.7017L121.78 48.0297L117.837 52.9445L109.685 44.7041L114.541 40.7017Z" fill="#59C3FF"/>
<path d="M123.252 46.1757L116.307 39.2597L118.926 37.1113C118.632 36.2284 118.426 35.2572 118.367 34.2566C118.043 28.4884 121.369 22.9261 126.519 20.3657C129.756 18.7471 133.111 18.7177 136.643 18.8942C140.056 19.0708 144.03 19.0708 146.59 16.5104C146.796 16.4516 147.12 16.5693 147.149 16.7459C146.766 23.2793 145.001 29.7833 141.763 35.4926C139.056 40.2897 134.288 44.351 128.461 44.1156C127.372 44.0567 126.313 43.8507 125.342 43.527L123.252 46.1757Z" fill="#59C3FF"/>
<path d="M134.671 47.2351C134.641 46.7937 134.582 46.3228 134.524 45.8813C132.728 46.7937 130.757 47.3823 128.667 47.5294C128.667 47.5883 128.696 47.6766 128.696 47.7354C128.991 51.0316 126.548 53.9451 123.252 54.2394C122.192 54.3277 121.192 54.1217 120.309 53.7391C114.188 61.2143 107.831 68.5129 101.121 75.4289C100.208 76.3706 99.2961 77.2829 98.3838 78.1953C99.3255 79.1665 99.9436 80.4319 100.061 81.874C100.356 85.1701 97.9129 88.0837 94.6168 88.378C92.645 88.5546 90.8203 87.7305 89.5843 86.3473C86.9356 88.6428 84.2869 90.9384 81.8442 93.4399C86.0821 94.4111 90.5555 94.7348 95.1465 94.3522C119.014 92.2627 136.731 71.1615 134.671 47.2351ZM115.953 77.2535C112.657 77.5478 109.744 75.1051 109.449 71.809C109.155 68.5129 111.598 65.5993 114.923 65.305C118.219 65.0107 121.133 67.4534 121.427 70.779C121.692 74.0457 119.25 76.9592 115.953 77.2535Z" fill="#59C3FF"/>
<path d="M68.0712 1.58948C67.4826 0.736012 66.5409 0.176845 65.5108 0.0296965C64.8928 -0.0585929 64.2748 0.0296965 63.7156 0.235705C63.333 0.382854 62.9504 0.588863 62.6267 0.853731C55.593 6.73969 48.883 11.3602 34.845 16.6575C20.807 21.9549 12.6843 22.9261 3.50223 23.1321C3.09021 23.1321 2.6782 23.2204 2.26618 23.3675C1.70701 23.5735 1.17728 23.9267 0.765259 24.3976C0.0883733 25.1922 -0.264784 26.2222 -0.147065 27.2523C0.61811 34.1388 1.91302 41.3786 4.59113 48.4417C16.9516 81.2559 40.8781 102.593 63.8922 93.9402C86.9063 85.2878 90.8205 53.4448 78.4599 20.6306C75.8113 13.5674 72.0148 7.26943 68.0712 1.58948ZM19.5415 48.118C19.1883 44.9984 22.6905 42.0554 27.3109 41.5551C31.9608 41.0548 36.287 46.0873 36.6402 49.2069C36.9933 52.3264 32.9615 50.4135 28.341 50.9433C23.6911 51.4436 19.8652 51.2375 19.5415 48.118ZM59.6837 82.7274C50.2662 86.259 40.2012 82.6097 36.6402 73.1922C36.1693 71.9561 35.9044 70.7201 35.7279 69.484C35.6984 69.1309 35.8161 68.8071 36.081 68.5717C36.3459 68.3657 36.699 68.3068 37.0228 68.3951C41.2901 69.896 48.3238 71.809 54.6512 69.4252C60.9786 67.0413 65.0105 60.9788 67.2177 57.0352C67.3943 56.7409 67.6886 56.5349 68.0418 56.5349C68.3949 56.5349 68.7187 56.6821 68.8952 56.9764C69.6016 58.0064 70.1902 59.1247 70.661 60.3608C74.2515 69.7783 69.1013 79.1959 59.6837 82.7274ZM62.1264 37.8176C58.2711 40.4368 56.4464 44.4981 54.6807 41.8789C52.9149 39.289 52.9737 32.6085 56.829 29.9892C60.6843 27.37 65.2459 27.3406 67.0117 29.9598C68.7775 32.5791 65.9817 35.1983 62.1264 37.8176Z" fill="#59C3FF"/>
<path d="M108.155 46.1167C104.152 49.972 96.5886 57.3 89.084 64.8929C87.2299 78.254 81.0497 88.7605 70.1606 93.7047C70.2489 93.8224 70.3667 93.9107 70.4549 94.0284C71.1613 94.7053 72.515 95.8236 73.4568 96.1179C77.3121 97.2951 106.83 64.4809 116.365 54.4453L108.155 46.1167Z" fill="#59C3FF"/>
<path d="M87.8775 8.0642C83.4042 8.74108 80.2552 9.82998 78.0774 11.1838C79.8432 14.3622 81.4618 17.6877 82.7862 21.2193C87.9069 34.8159 90.2319 48.2359 89.555 59.9195C92.9983 56.7117 96.5299 53.5921 99.9143 50.296C104.653 45.6755 109.42 41.0844 114.835 37.288C114.747 36.7582 114.688 36.2285 114.659 35.6693C114.6 34.6393 114.629 33.6093 114.776 32.5792C114.07 32.9618 113.305 33.1972 112.451 33.2855C109.155 33.5798 106.242 31.1372 105.947 27.841C105.653 24.5449 108.096 21.6313 111.421 21.337C114.099 21.1016 116.513 22.6614 117.484 25.0158C118.72 23.0734 120.28 21.337 122.163 19.9538C113.334 11.066 101.003 6.0924 87.8775 8.0642ZM92.704 24.898C89.349 24.4566 86.9652 21.3665 87.4066 18.0115C87.8481 14.6565 90.9382 12.2727 94.2932 12.7141C97.6482 13.1556 100.032 16.2457 99.5906 19.6007C99.1491 22.9851 96.059 25.3689 92.704 24.898Z" fill="#59C3FF"/>
</g>
<defs>
<clipPath id="clip0">
<rect width="147.149" height="120" fill="white"/>
</clipPath>
</defs>
</svg>
