<svg width="155" height="193" viewBox="0 0 155 193" fill="none" xmlns="http://www.w3.org/2000/svg">
<g clip-path="url(#clip0)">
<path d="M90.324 67.0096L91.7136 68.5536L92.4856 65.7744L91.4048 64.5392L88.6256 64.3848L90.324 67.0096ZM88.008 59.5984L89.552 61.4512L90.0152 60.216L90.9416 60.988L90.0152 61.76L89.8608 63.1496L91.4048 63.9216L94.3384 63.4584L96.3456 65.4656L97.1176 64.2304L98.3528 65.9288L100.823 67.4728L101.132 65.9288L100.051 65.1568L100.36 63.4584L96.3456 61.6056L94.956 62.0688L93.2576 61.76L92.4856 59.1352L92.9488 56.5104L94.8016 55.4296L95.728 52.496L94.6472 50.18L95.1104 48.7904L94.8016 48.0184L93.8752 48.9448L91.868 47.864H90.0152L88.9344 50.952L88.6256 56.2016L87.3904 55.1208L87.5448 58.2088L88.008 59.5984ZM13.2784 54.812L15.44 53.1136L16.8296 55.8928L17.4472 60.0616L18.528 63.9216L19.7632 65.62L19.4544 69.1712L20.5352 71.024L19.6088 73.4944L19.9176 75.8104L18.9912 78.8984L18.528 81.06L19.1456 82.9128L19.6088 81.06C20.6896 82.1408 21.7704 83.2216 22.8512 84.4568L23.4688 86.0008L24.704 87.236L25.476 88.6256L25.1672 90.9416L26.248 92.64L26.7112 95.2648L28.564 97.4264L28.8728 98.9704L32.5784 101.441L35.512 103.757L37.828 103.602V102.522L36.5928 99.7424L35.512 98.6616L35.3576 96.8088L34.8944 95.728L35.2032 94.3384L35.0488 92.1768L33.6592 90.0152L31.9608 88.008L31.1888 87.6992L29.4904 86.0008L27.6376 85.692L25.9392 83.8392L25.3216 81.06L24.0864 78.1264L22.0792 77.972L21.9248 75.656C22.8512 73.1856 23.7776 70.5608 24.704 68.0904L25.0128 64.5392H27.792L27.3288 67.164H30.108L32.8872 68.708L34.4312 72.1048L35.6664 73.8032L38.2912 74.2664L40.6072 76.1192L39.6808 78.2808L40.7616 80.288L44.776 77.3544L47.4008 74.7296L51.1064 72.7224L53.7312 70.5608L54.1944 64.848L52.496 58.5176L50.6432 55.8928L47.7096 53.8856C45.8568 51.2608 44.1584 48.636 42.3056 46.0112L43.0776 43.6952L45.7024 40.4528L49.8712 37.5192L46.6288 36.5928L45.0848 35.2032L45.548 33.196L42.6144 32.5784L41.0704 31.3432L38.6 33.196L35.512 33.6592H33.0416L31.3432 34.4312L29.6448 34.8944L30.108 38.7544L28.4096 38.6L28.1008 37.828L27.9464 36.4384L25.6304 37.3648L24.2408 36.7472L21.9248 35.512L22.8512 32.7328L20.844 32.1152L20.072 28.8728L16.6752 29.4904L16.984 25.3216L19.9176 22.388L20.072 19.4544L19.9176 16.6752L18.528 15.7488L17.756 13.896L15.9032 14.2048L16.212 15.5944L15.1312 16.212L15.44 18.3736L13.124 17.756L8.9552 20.2264L9.1096 22.2336L7.4112 25.1672L7.2568 26.8656L5.8672 29.7992L3.3968 29.0272L3.088 32.424L2.316 33.6592L2.6248 35.0488L1.0808 35.8208V38.2912L0 37.828L0.1544 40.6072L2.4704 43.3864L4.3232 43.8496L3.86 45.0848L6.3304 48.9448L6.948 52.0328L5.8672 56.2016L7.8744 56.9736L9.7272 57.128L13.2784 54.812ZM84.6112 75.656L86.7728 73.9576L86.1552 71.3328L84.4568 74.5752L82.604 76.7368L80.288 78.744L78.744 81.06L82.9128 77.972L84.6112 75.656ZM97.1176 72.8768L96.8088 74.884L96.0368 75.8104L95.4192 76.7368L97.4264 78.8984L98.3528 77.972L99.2792 75.9648L100.36 74.884L100.669 71.796L98.3528 74.884L98.816 72.7224L97.1176 72.8768ZM105.146 78.8984L102.83 79.0528L102.367 80.4424L99.8968 81.3688L98.816 79.8248L97.1176 81.06L95.1104 81.9864L93.8752 84.6112L94.3384 85.5376L96.6544 83.6848L98.1984 83.8392L99.1248 82.4496L101.132 83.9936L100.206 85.5376L101.132 87.8536L104.838 89.7064L105.764 88.1624L104.683 85.8464L106.227 84.3024L107.308 87.5448L108.389 84.6112C108.234 82.2952 107.771 80.1336 107.462 77.972L104.838 76.428L105.146 78.8984ZM103.294 71.1784L101.441 70.8696L101.904 72.8768L102.83 73.0312L102.985 75.3472L104.529 74.5752L103.757 72.568V71.4872L106.227 72.4136L105.301 68.8624L104.374 67.6272H101.286L103.294 70.0976V71.1784ZM107.308 119.042L109.47 119.66L110.705 118.579L109.933 117.498L106.69 117.653L107.308 119.042ZM93.7208 69.6344L94.184 71.1784L94.0296 72.8768L94.184 74.4208L96.1912 73.4944L97.7352 72.1048V70.7152H95.728L93.7208 69.6344ZM42.9232 121.204L43.6952 117.19L42.1512 115.182L39.8352 114.874L38.7544 113.175L38.2912 111.014L37.056 110.859L35.2032 109.778L36.4384 107.154L33.968 105.764L32.1152 103.139L29.4904 100.978H26.248L23.3144 97.5808L21.616 96.1912L19.1456 94.0296L16.3664 90.9416C14.0504 90.6328 11.7344 90.324 9.4184 90.1696L9.7272 91.7136L12.9696 95.2648L15.2856 97.1176L16.984 99.8968L19.9176 101.904L21.1528 104.374L22.0792 107.154L24.8584 109.778L27.3288 114.256L28.8728 116.572L31.3432 119.197L32.7328 121.05L36.7472 123.674L39.372 126.299H42.9232V121.204ZM87.3904 137.262L84.4568 137.879L88.6256 140.195H90.0152L90.1696 139.269L89.0888 138.342L87.3904 137.262ZM108.852 134.174L106.536 134.328L103.757 135.1L103.448 135.872L100.36 137.107L98.9704 139.114L98.6616 140.195L98.9704 140.658L101.75 139.886L103.757 137.416C105.764 136.644 107.771 135.872 109.778 135.1L111.014 134.174L109.778 133.71L108.852 134.174ZM117.498 116.418L113.638 116.572L112.712 118.27L114.874 118.425L116.726 118.27L119.351 118.579L121.976 119.814L120.895 117.344L117.498 116.418ZM114.256 109.933L113.021 108.234L113.484 106.382L115.182 106.69L115.337 103.911L115.028 102.676L113.175 102.367L113.021 100.669L111.94 101.75L111.168 104.374L112.094 108.389L113.33 110.396L114.256 109.933ZM65.4656 131.703L64.3848 129.696L58.5176 128.152L57.7456 129.542L51.724 129.233L51.2608 128.152L49.8712 127.843L47.2464 126.608L43.3864 126.454L41.2248 129.542L44.1584 129.85L44.776 131.24L50.4888 132.63L51.8784 132.166L54.1944 132.475L57.9 133.71L60.8336 134.328L64.076 134.637L67.0096 134.482L70.5608 135.718L74.112 134.482L70.252 132.63L65.4656 131.703ZM154.4 126.145V115.8L151.003 115.182C149.305 114.41 147.606 113.638 145.908 112.866H143.129L139.423 114.719L136.798 118.116L133.556 116.263L132.63 111.168L132.166 109.933L127.071 108.698L125.373 109.778L121.05 110.55L122.439 112.094L125.218 112.712L126.454 114.565H131.086L131.394 115.337H129.078L125.682 116.418L128.152 117.962V119.351L128.924 120.586L130.159 120.278L131.086 118.734L135.872 121.667L138.497 121.976L144.673 124.601L146.217 127.226L146.989 130.622L144.982 131.549L143.592 134.328L147.606 134.174L148.378 133.247L151.621 133.865L154.4 136.49V126.145ZM133.093 125.836L132.475 126.917L132.784 129.387L134.482 127.226V125.682L133.71 124.755L133.093 125.836ZM90.7872 111.94L88.008 109.161L88.4712 106.69L91.2504 106.227L96.5 106.073L99.588 106.69L101.904 106.073L104.374 102.985L103.757 102.213L100.669 104.529L96.9632 104.683L92.9488 104.22L90.6328 103.448L88.008 105.764L87.3904 106.999L85.8464 111.786L85.3832 114.256L84.148 116.263L85.0744 118.425H86.464L86.9272 121.513L86.0008 124.446L87.3904 125.373L89.3976 124.91C89.2432 122.13 89.2432 119.351 88.9344 116.726L91.096 115.8L90.7872 118.888L93.1032 120.741L92.4856 121.976L93.2576 122.902L96.3456 121.667L94.8016 124.292L96.0368 125.373L97.7352 124.446V122.285L94.956 118.579L95.5736 117.498L92.64 113.484L95.4192 112.249L96.8088 110.396L98.1984 110.859L98.5072 109.47L92.64 110.55L90.7872 111.94ZM79.8248 107.154L80.9056 104.992L84.6112 104.683L81.06 101.75L81.6776 100.36L79.2072 97.272L81.06 94.3384L83.376 93.2576L82.7584 91.7136L84.92 91.5592L85.0744 90.324C83.5304 89.7064 81.832 89.2432 80.288 88.4712V87.0816L78.5896 85.5376H77.3544L75.8104 88.008L73.34 90.1696L70.7152 91.868L69.48 93.1032L67.936 95.1104L65.62 97.5808L61.76 98.3528L60.3704 98.9704L59.7528 101.595L57.2824 102.213L54.9664 101.132L53.1136 103.294L52.8048 106.227L53.268 109.006L54.812 111.786L56.356 112.712L56.8192 117.035L59.444 117.344L61.4512 117.19L62.532 118.734L66.2376 117.653L67.7816 118.734L70.0976 118.888L71.3328 120.895L74.884 119.506L75.3472 120.586L76.5824 115.8L76.7368 112.712L79.8248 110.55V107.154ZM84.148 133.865L82.1408 134.174L81.06 133.247L80.288 134.482H78.5896L77.5088 136.335H79.2072C81.2144 135.872 83.0672 135.563 85.0744 135.254L84.148 133.865ZM92.0224 134.637L90.0152 133.71L87.5448 134.328V135.563L91.7136 136.026L96.5 135.1L96.9632 133.247L94.184 134.482L92.0224 134.637Z" fill="#59C3FF"/>
</g>
<defs>
<clipPath id="clip0">
<rect width="154.4" height="193" fill="white"/>
</clipPath>
</defs>
</svg>
