<svg width="145" height="182" viewBox="0 0 145 182" fill="none" xmlns="http://www.w3.org/2000/svg">
<g clip-path="url(#clip0)">
<path d="M109.04 115.855L107.735 114.55L107.88 113.39L109.185 113.245L111.65 113.1L113.1 113.39L114.26 113.1L115.42 111.65L115.13 111.36L113.68 112.375H111.94L110.055 112.23L108.895 111.795L107.59 112.81L107.3 113.535L106.575 115.71L106.43 116.87L105.85 117.885L106.285 118.9H106.865L107.155 120.35L106.72 121.655L107.3 122.09L108.17 121.945C108.17 120.64 108.025 119.335 108.025 118.175L109.04 117.74L108.895 119.19L109.91 120.06L109.765 120.64L110.2 121.075L111.65 120.495L110.925 121.655L111.505 122.235L112.23 121.8V120.785L110.925 118.9L111.215 118.465L109.765 116.58L111.07 116L111.65 115.13L112.23 115.275L112.375 114.55L109.62 114.985L109.04 115.855ZM109.62 126.295L108.75 125.86L107.445 126.15V126.73L109.33 126.875L111.505 126.44L111.65 125.57L110.49 126.15L109.62 126.295ZM109.33 79.4602L110.2 76.8502L110.49 75.8352L109.765 75.4002L108.605 76.5602L107.735 78.3002L107.88 79.4602L108.605 80.7652L109.33 79.4602ZM115.71 95.8452L115.275 95.2652H113.825L114.695 96.4252V97.0052L113.825 96.8602L114.115 97.7302L114.55 97.8752V98.8902L115.275 98.6002L114.985 97.7302V97.2952L116.145 97.7302L115.71 95.8452ZM107.445 90.9152L107.735 91.6402L108.46 92.5102L108.605 91.9302L109.04 92.2202L108.605 92.6552L108.46 93.2352L109.185 93.5252L110.49 93.2352L111.36 94.1052L111.795 93.5252L112.375 94.2502L113.535 94.9752L113.68 94.2502H113.245L113.39 93.3802L111.505 92.5102L110.925 92.8002L110.2 92.5102L109.765 91.3502L110.055 90.1902L110.925 89.7552L111.36 88.4502L110.925 87.2902L111.215 86.7102L111.07 86.2752L110.635 86.7102L109.765 86.2752H108.895L108.46 87.7252L108.315 90.0452L107.735 89.6102L107.445 90.9152ZM105.995 125.86L105.125 126.005L104.545 125.57L104.11 126.15H103.24L102.805 127.02H103.53C104.4 126.875 105.27 126.73 106.285 126.585L105.995 125.86ZM86.855 120.06L87.29 118.175L86.565 117.305L85.55 117.16L84.97 116.29L84.68 115.275H84.1L83.23 114.695L83.81 113.535L82.65 112.81L82.07 111.65L80.91 110.635H79.46L78.01 109.04L77.14 108.46L75.98 107.445L74.675 105.995C73.66 105.85 72.5 105.705 71.485 105.705L71.63 106.43L73.225 108.025L74.385 108.895L75.11 110.2L76.415 111.07L76.995 112.23L77.43 113.535L78.735 114.695L79.895 116.725L80.62 117.885L81.78 119.045L82.36 119.915L84.245 121.075L85.405 122.235H87L86.855 120.06ZM112.665 101.065L111.94 101.5L111.07 101.935L110.49 103.24L110.78 103.675L111.795 102.805H112.52L112.955 102.225L113.825 102.95L113.39 103.675L113.825 104.69L115.565 105.56L116 104.835L115.565 103.82L116.29 103.095L116.87 104.545L117.305 103.24C117.16 102.225 117.015 101.21 116.87 100.195L115.71 99.4702L115.855 100.63H114.84L114.55 101.355L113.39 101.79L112.665 101.065ZM97.295 124.845L96.715 123.83L94.105 123.25L93.815 123.83L91.06 123.685L90.77 123.25L90.19 123.105L89.03 122.525L87.29 122.38L86.275 123.83L87.58 123.975L87.87 124.555L90.48 125.135L91.06 124.99L92.075 125.135L93.815 125.715L95.12 126.005L96.57 126.15H97.875L99.47 126.73L101.21 126.15L99.47 125.28L97.295 124.845ZM106.14 99.0352L107.155 98.1652L106.865 97.0052L106.14 98.4552L105.27 99.4702L104.255 100.34L103.53 101.5L105.415 100.05L106.14 99.0352ZM50.315 100.195L49.3 99.3252L48.575 101.79L48.865 103.965L49.59 105.125L50.895 104.835L51.475 104.4L51.765 102.805L51.04 101.21L50.315 100.195ZM103.965 113.68L104.4 112.665L106.14 112.52L104.545 111.215L104.835 110.49L103.82 109.04L104.69 107.735L105.705 107.3L105.415 106.575L106.43 106.43L106.575 105.85C105.85 105.56 105.125 105.27 104.4 104.98V104.4L103.675 103.675H103.095L102.37 104.835L100.92 105.85L99.615 106.72L99.035 107.3L98.31 108.17L97.295 109.33L95.555 109.62L94.975 109.91L94.685 111.215L93.525 111.505L92.51 111.07L91.64 112.085L91.495 113.1L91.64 114.405L92.365 115.71L93.09 116.145L93.38 118.175L94.54 118.32L95.555 118.175L96.135 118.9L97.875 118.32L98.6 118.755L99.615 118.9L100.195 119.77L101.79 119.045L101.935 119.625L102.515 117.45V116L103.965 114.985V113.68ZM93.815 84.9702L94.395 84.2452L94.105 83.6652H93.235L91.64 84.1002L90.915 84.8252V86.1302L92.075 86.5652L93.38 85.8402L93.815 84.9702ZM107.445 127.455L106.14 127.745L108.025 128.76H108.605L108.75 128.325L108.17 127.89L107.445 127.455ZM127.02 62.0602L127.745 61.6252L128.325 62.2052L129.195 61.1902L129.05 60.4652L128.035 60.0302L127.31 60.9002L126.44 60.7552L125.57 61.7702V62.6402L126.585 63.0752L127.02 62.0602ZM138.33 117.595L136.735 117.305C136.01 116.87 135.14 116.58 134.415 116.29H133.11L131.37 117.16L130.21 118.755L128.76 117.885L128.325 115.565L128.035 114.985L125.715 114.405L124.99 114.84L122.96 115.13L123.54 115.855L124.845 116.145L125.425 117.015H127.6L127.745 117.45H126.73L125.135 118.03L126.295 118.755V119.335L126.585 119.915L127.165 119.77L127.6 118.9L129.775 120.205L130.935 120.35L133.835 121.655L134.56 122.96L134.995 124.555L134.125 124.99L133.4 126.15H135.285L135.575 125.715L137.025 126.005L138.33 127.165C138.33 123.975 138.33 120.785 138.33 117.595ZM121.365 117.885H119.625L119.335 118.755H120.35L121.22 118.61L122.38 118.755L123.685 119.335L123.105 118.175L121.365 117.885ZM128.47 122.235L128.18 122.815L128.325 123.975L129.05 122.96V122.235L128.905 121.8L128.47 122.235ZM137.315 47.5602L136.735 48.7202L137.025 50.8952L136.155 53.2152C135.14 54.0852 134.125 54.9552 133.11 55.8252L132.095 54.9552L130.5 58.1452L129.05 57.7102L126.15 58.2902L124.99 59.4502L123.54 60.3202L122.815 61.4802L121.365 62.0602L121.945 63.2202L122.815 63.6552L122.525 65.2502L123.25 65.9752L124.265 65.2502L125.28 62.3502L123.83 61.0452H125.57L127.31 60.1752L129.92 59.7402V61.0452L130.935 61.7702L132.965 59.7402L135.575 59.5952L137.46 58.7252L138.185 57.4202L137.75 56.5502L138.33 55.1002V53.2152L139.635 51.3302V49.7352L138.765 47.1252L137.315 47.5602ZM144.71 41.1802L143.695 42.0502L142.68 41.6152L141.52 40.8902L139.78 38.7152L139.345 40.3102L138.91 43.0652L137.315 43.2102L136.59 44.8052L136.735 46.8352H138.33L139.055 44.6602L141.375 45.9652L142.68 43.9352L144.855 43.3552L144.71 41.1802ZM119.915 114.84L119.335 114.115L119.625 113.245L120.35 113.39L120.495 112.085L120.35 111.505L119.48 111.36L119.335 110.49L118.9 111.07L118.61 112.23L119.045 114.115L119.625 114.985L119.915 114.84ZM108.895 94.9752L109.475 95.7002L109.91 94.3952L109.33 93.8152H108.025L108.895 94.9752ZM116.725 119.045L117.74 119.335L118.32 118.9L117.885 118.465H116.435L116.725 119.045ZM111.94 97.7302L111.795 98.6002L111.36 99.0352L111.07 99.4702L111.94 100.485L112.375 100.05L112.81 99.1802L113.39 98.7452L113.535 97.2952L112.52 98.7452L112.81 97.7302H111.94ZM110.345 96.2802L110.635 97.0052L110.49 97.7302V98.4552L111.36 98.0202L112.085 97.4402V96.8602H111.215L110.345 96.2802ZM120.93 58.8702L121.51 57.8552V55.8252L121.22 54.6652L119.915 52.4902L119.045 51.6202L118.465 51.3302L118.61 51.1852V50.3152L119.19 49.7352L120.205 49.4452L120.785 48.8652L121.075 48.5752L121.8 48.1402V46.6902L122.235 45.9652L122.815 45.2402L123.395 45.3852L123.25 45.0952C123.25 44.8052 123.25 44.3702 123.25 44.0802H123.975L124.12 41.7602L123.685 40.0202L124.99 39.2952L126.73 39.7302L127.745 37.7002L128.18 35.3802L128.76 34.6552L129.485 32.6252L127.02 33.2052L125.715 34.0752H123.54L123.105 31.9002L121.365 30.3052L118.755 29.5802L118.175 27.4052L117.595 25.9552L117.015 24.9402L116.145 22.4752L114.84 21.6052L112.665 20.8802H110.78L108.895 21.3152L107.735 22.4752L108.75 23.2002V24.5052L107.88 25.2302L106.575 27.6952V28.7102L104.545 30.1602L102.805 29.2902L101.065 29.4352L100.34 28.7102L99.47 28.4202L97.295 30.0152L95.265 30.4502L93.96 31.0302L92.075 30.5952H90.77L89.9 29.4352L88.45 28.2752L87 27.9852L85.115 28.2752L83.665 28.7102L81.635 27.6952L81.345 26.1002L79.605 25.5202L78.3 25.2302L76.705 24.2152L75.255 26.6802L75.835 27.9852L74.385 29.5802L72.21 29.0002L70.76 28.8552L69.745 27.8402H68.15L66.845 27.1152L64.67 28.1302L61.915 30.0152C61.19 30.1602 60.465 30.3052 59.74 30.5952L59.015 29.1452L57.13 29.4352L56.55 28.7102L55.535 28.2752L54.81 26.9702L53.94 26.5352L51.765 27.1152L49.735 25.8102L49.01 26.9702L45.675 20.8802L43.79 18.9952L44.37 18.2702L40.745 20.5902L39.295 20.7352L39.44 19.4302L37.7 18.5602L36.105 19.1402L35.67 16.5302L33.06 15.9502L31.755 16.9652L28.13 17.8352L27.405 18.4152L21.895 19.2852L21.17 20.3002L22.185 22.0402L20.735 22.6202L21.025 23.3452L19.575 24.5052L21.895 26.1002L21.75 27.1152L19.72 26.9702L19.285 27.6952L17.4 26.5352H15.08L13.485 27.5502C11.89 26.6802 10.15 25.8102 8.555 24.9402H6.235L3.19 27.5502L3.045 29.2902L1.595 27.9852L0.435 30.4502L0.87 30.8852L0 32.6252L1.305 34.0752H2.32L3.19 35.5252L3.045 36.6852L3.77 36.9752L5.075 36.5402L6.815 35.6702L8.12 36.2502L9.57 36.1052L9.86 37.4102L9.57 39.4402L8.265 39.1502L6.96 39.4402V40.8902L5.51 40.7452V41.4702L6.38 42.0502L7.105 43.9352L8.845 44.6602L9.135 45.3852L8.7 45.8202L8.845 46.4002L9.28 47.7052L9.425 46.2552L10.585 45.8202L11.02 46.9802L12.035 48.1402L10.73 48.7202L9.28 48.2852L8.99 49.8802H10.15L9.715 51.1852L10.875 51.7652L10.73 53.6502L10.875 55.1002L12.18 54.8102L13.195 53.6502H14.21L14.79 53.3602L15.805 53.5052L17.4 54.3752L18.56 54.5202L20.3 56.1152H21.46L21.605 57.7102C21.315 58.8702 21.025 60.0302 20.59 61.1902L21.17 61.4802L20.59 62.4952L21.025 63.9452L21.17 65.1052L22.33 65.3952L22.475 66.5552L21.17 68.1502L21.895 69.0202L22.475 70.0352L23.925 70.7602V72.2102L24.65 72.5002L24.795 73.2252L22.62 73.9502L22.04 75.8352L24.07 75.5452H26.39L29.145 75.2552L30.305 76.4152L30.74 77.5752L31.755 78.0102L33.495 79.3152L33.93 79.8952L33.205 80.4752L35.09 82.3602L36.105 82.5052L38.28 81.6352L38.57 83.0852V84.9702C39.005 86.5652 39.295 88.3052 39.585 89.9002L40.89 91.9302L41.18 92.9452L41.615 94.8302L42.34 96.2802L42.92 97.0052C43.355 98.1652 43.79 99.3252 44.225 100.63L45.675 102.08L46.255 101.645L46.69 100.63L47.995 100.195L47.56 99.7602L48.285 98.6002H49.01V96.1352L49.59 94.6852L49.445 93.3802L49.155 91.3502L49.59 90.1902L50.315 90.0452L51.62 89.4652L52.345 89.0302V88.3052L53.795 87.2902L54.955 86.2752L56.55 84.3902L58.725 83.3752L59.45 82.5052L59.305 81.3452L61.045 81.0552H62.06L62.205 80.4752L62.785 80.6202L63.22 80.7652L63.365 80.4752L63.945 80.7652L64.38 79.8952L64.235 79.1702H65.54L66.12 80.0402L66.7 81.2002L66.845 82.0702L67.28 82.9402L68.15 84.1002L69.02 84.2452L68.875 84.8252L70.035 86.5652L70.325 88.0152L69.89 89.9002L70.76 90.1902L71.63 90.3352L73.225 89.3202L74.24 88.5952L74.82 89.9002L75.11 91.7852L75.545 93.5252L76.125 94.2502L75.98 95.8452L76.415 96.7152L75.98 97.8752L76.125 99.0352L75.69 100.485V101.5L75.98 102.37L76.27 101.5C76.85 101.935 77.285 102.515 77.72 103.095L78.01 103.82L78.59 104.4L78.88 104.98L78.735 105.995L79.315 106.865L79.46 108.025L80.33 109.04L80.475 109.765L82.215 110.925L83.665 111.94L84.68 111.795V111.36L84.1 110.055L83.52 109.62L83.375 108.75L83.23 108.315L83.375 107.59L83.23 106.575L82.65 105.705L81.78 104.835L81.49 104.69L80.765 103.965L79.895 103.82L79.025 102.95L78.735 101.645L78.155 100.34H77.14L76.995 99.3252C77.43 98.1652 77.865 97.0052 78.3 95.8452L78.445 94.2502H79.75L79.605 95.4102H80.91L82.215 96.1352L82.94 97.7302L83.52 98.4552L84.68 98.6002L85.695 99.4702L85.26 100.485L85.84 101.5L87.725 100.05L88.885 98.7452L90.625 97.7302L91.785 96.7152L91.93 94.1052L91.35 91.2052L90.48 89.9002L89.175 89.0302C88.305 87.8702 87.58 86.5652 86.71 85.4052L87 84.3902L88.16 82.9402L90.045 81.6352L90.77 81.3452L92.8 81.7802L92.51 82.3602L92.945 83.5202L93.815 83.3752L94.25 81.7802L95.845 81.4902L97.875 80.7652L98.745 80.0402L99.18 80.6202L100.05 79.8952L101.645 79.7502C103.095 78.8802 104.4 77.8652 105.705 76.9952L107.01 75.1102C107.735 73.8052 108.46 72.5002 109.33 71.1952L110.2 71.0502L110.635 69.7452L110.925 68.4402L110.055 67.8602L109.765 66.9902L110.635 66.5552V65.2502L109.62 63.9452L108.75 62.3502L108.17 60.6102L106.575 59.5952L107.3 58.2902L108.75 57.4202L109.475 56.4052L111.505 55.8252L111.215 54.8102H110.2L108.75 53.7952L107.155 55.1002L105.995 54.5202V53.6502L104.835 53.3602L103.965 52.2002L104.69 51.3302L106.14 51.1852L107.01 50.0252L108.605 48.7202L109.91 47.9952L110.635 49.0102L109.475 50.3152L109.765 51.0402L109.04 51.9102L110.635 51.3302L111.65 50.4602L113.68 49.8802L114.405 50.4602L115.275 50.6052L115.42 50.8952L114.985 51.9102L115.13 52.2002L114.84 52.4902L114.55 53.3602L114.985 53.6502L115.42 53.7952V54.0852L115.855 53.9402L116 53.6502L116.725 53.9402L117.74 55.5352L116.725 55.8252L117.305 57.7102L117.015 59.0152L117.16 60.0302L118.465 59.8852L119.625 59.1602L120.93 58.8702ZM117.305 126.15H116.29L114.985 126.44L114.84 126.73L113.39 127.31L112.81 128.18L112.665 128.615L112.81 128.76L114.115 128.47L115.13 127.31C116 127.02 117.015 126.585 117.885 126.295L118.465 125.86L117.885 125.715L117.305 126.15Z" fill="#59C3FF"/>
</g>
<defs>
<clipPath id="clip0">
<rect width="145" height="181.25" fill="white"/>
</clipPath>
</defs>
</svg>
