<svg viewBox="0 0 129 161" fill="none" xmlns="http://www.w3.org/2000/svg">
<path d="M107.026 35.0334C105.871 38.1133 101.251 36.5733 102.406 33.8785L103.561 28.8736L80.8469 48.8929C80.4619 49.2779 79.692 49.6628 78.922 49.6628L50.4331 43.1181L21.1743 60.8274C20.0193 61.5974 18.4794 61.2124 17.7094 60.0574C16.9394 58.9025 17.3244 57.3625 18.4794 56.9776L48.8932 38.4983C49.6631 38.1133 50.0481 38.1133 50.8181 38.1133L78.537 44.658L101.636 24.6388L95.4764 25.0238C92.3965 25.0238 92.0115 20.404 95.0914 20.019L108.181 19.249C109.721 19.249 110.876 20.019 110.876 21.5589C110.876 22.7139 107.411 33.1085 107.026 35.0334ZM97.4013 40.8082H115.496V108.951H97.4013V40.8082ZM68.9124 59.6724H87.3917V108.951H68.9124V59.6724ZM41.1935 54.2827H59.2878V108.951H41.1935V54.2827ZM12.7046 68.9121H31.1839V108.951H12.7046V68.9121Z" fill="#59C3FF"/>
</svg>
