<svg width="167" height="209" viewBox="0 0 167 209" fill="none" xmlns="http://www.w3.org/2000/svg">
<path d="M83.5 48.8267C64.3811 48.8267 48.8267 64.3811 48.8267 83.5C48.8267 94.5765 54.0193 104.81 62.8354 111.346C62.8494 111.285 62.8667 111.224 62.8814 111.162C62.9137 111.026 62.9483 110.891 62.9832 110.756C63.0279 110.583 63.0742 110.41 63.1231 110.238C63.1619 110.102 63.202 109.967 63.2435 109.832C63.295 109.664 63.3488 109.497 63.4043 109.331C63.4493 109.197 63.4946 109.063 63.5419 108.93C63.6006 108.766 63.6619 108.603 63.7246 108.441C63.7751 108.31 63.825 108.179 63.8782 108.049C63.9444 107.887 64.0139 107.727 64.0837 107.567C64.1388 107.441 64.1929 107.314 64.2507 107.189C64.3254 107.027 64.4046 106.867 64.4832 106.707C64.5416 106.589 64.598 106.469 64.6584 106.352C64.7468 106.18 64.8404 106.012 64.933 105.843C64.9891 105.741 65.0429 105.637 65.101 105.537C65.2517 105.273 65.4076 105.013 65.5694 104.758C65.6173 104.682 65.6689 104.608 65.7181 104.533C65.8365 104.351 65.9549 104.169 66.0785 103.991C66.1526 103.885 66.2302 103.781 66.3059 103.677C66.4096 103.533 66.5124 103.389 66.6193 103.248C66.7035 103.138 66.7909 103.03 66.8773 102.921C66.9811 102.79 67.0848 102.659 67.1914 102.531C67.2828 102.422 67.3764 102.314 67.47 102.207C67.577 102.084 67.684 101.961 67.7936 101.84C67.8904 101.733 67.9896 101.629 68.0887 101.523C68.1996 101.407 68.3115 101.29 68.425 101.176C68.5271 101.073 68.6302 100.971 68.7339 100.871C68.8497 100.758 68.9668 100.648 69.0849 100.539C69.1909 100.44 69.2975 100.343 69.4055 100.247C69.5268 100.139 69.6501 100.034 69.7737 99.9287C69.8827 99.8364 69.9916 99.7444 70.1029 99.654C70.231 99.55 70.3615 99.4482 70.492 99.3474C70.6025 99.2616 70.7128 99.1752 70.825 99.0917C70.9623 98.9896 71.1026 98.8914 71.2422 98.7926C71.3518 98.715 71.4604 98.6364 71.5716 98.5607C71.7259 98.456 71.8837 98.3559 72.041 98.2551C72.1414 98.1908 72.2396 98.1246 72.341 98.062C72.5837 97.9123 72.83 97.7678 73.0792 97.6278C73.1509 97.5874 73.2243 97.5492 73.2967 97.5098C73.5084 97.3943 73.7214 97.2798 73.9373 97.1712C74.044 97.1177 74.1526 97.0685 74.2602 97.0166C74.4305 96.9344 74.6008 96.8519 74.7736 96.7746C74.893 96.7208 75.0143 96.6712 75.1347 96.6196C75.2991 96.5495 75.4632 96.4791 75.6298 96.4132C75.7561 96.3633 75.8836 96.3163 76.0108 96.2687C76.1745 96.2074 76.3386 96.1464 76.5046 96.089C76.6357 96.0436 76.7679 96.0006 76.8996 95.9578C77.0653 95.9044 77.2313 95.8518 77.3987 95.8019C77.5324 95.7621 77.6668 95.7243 77.8018 95.6868C77.9708 95.6398 78.1404 95.5958 78.3106 95.5534C78.4463 95.5195 78.5823 95.4865 78.719 95.4552C78.8922 95.4158 79.0667 95.3792 79.2415 95.3437C79.3775 95.3163 79.5132 95.2885 79.6496 95.2638C79.8293 95.2311 80.0103 95.2024 80.1917 95.1744C80.3257 95.1538 80.4595 95.132 80.5942 95.1134C80.7847 95.0876 80.9764 95.0667 81.1686 95.0459C81.2961 95.0322 81.423 95.0162 81.5508 95.0048C81.7648 94.9852 81.9804 94.9721 82.1963 94.9591C82.3043 94.9526 82.4113 94.9431 82.5196 94.9386C82.8444 94.9239 83.1709 94.9157 83.4994 94.9157C83.8278 94.9157 84.1543 94.9239 84.4792 94.9386C84.5875 94.9434 84.6948 94.9529 84.8028 94.9591C85.018 94.9721 85.2336 94.9852 85.4479 95.0048C85.5764 95.0162 85.703 95.0322 85.8309 95.0459C86.0226 95.0667 86.2144 95.0876 86.4046 95.1134C86.5396 95.132 86.6734 95.1535 86.8077 95.1747C86.9888 95.2028 87.1695 95.2315 87.3492 95.2638C87.4862 95.2885 87.6219 95.3163 87.7579 95.3437C87.9324 95.3789 88.1066 95.4158 88.2798 95.4552C88.4171 95.4865 88.5531 95.5195 88.6891 95.5534C88.859 95.5958 89.0283 95.6402 89.197 95.6865C89.332 95.7237 89.467 95.7618 89.6011 95.8019C89.7681 95.8512 89.9338 95.9037 90.0985 95.9575C90.2309 96.0006 90.3637 96.0436 90.4951 96.089C90.6602 96.146 90.8239 96.2067 90.9873 96.268C91.1155 96.3157 91.2434 96.3629 91.3699 96.4132C91.5359 96.4787 91.6993 96.5485 91.8631 96.6183C91.9844 96.6702 92.1064 96.7204 92.2264 96.7746C92.3983 96.8516 92.5676 96.9334 92.7369 97.015C92.8452 97.0672 92.9551 97.1171 93.0621 97.1709C93.2761 97.2785 93.4868 97.3917 93.6962 97.5059C93.7748 97.5489 93.8537 97.5903 93.932 97.6344C94.1769 97.7723 94.4193 97.9142 94.6584 98.0617C94.7605 98.1246 94.8596 98.1915 94.9607 98.2564C95.1173 98.3565 95.2745 98.456 95.4281 98.5604C95.54 98.636 95.6486 98.7156 95.7589 98.7933C95.8985 98.8918 96.0378 98.9899 96.1748 99.0914C96.2876 99.1755 96.3982 99.262 96.5087 99.3481C96.6389 99.4489 96.7694 99.55 96.8969 99.654C97.0081 99.744 97.1174 99.837 97.2263 99.9293C97.3503 100.034 97.4732 100.14 97.5946 100.247C97.7025 100.343 97.8092 100.441 97.9152 100.539C98.0333 100.648 98.1507 100.759 98.2662 100.871C98.3699 100.972 98.473 101.073 98.5747 101.176C98.6886 101.291 98.8004 101.407 98.9117 101.524C99.0108 101.629 99.1093 101.734 99.2062 101.84C99.3161 101.961 99.4231 102.084 99.5301 102.208C99.6234 102.315 99.717 102.422 99.808 102.531C99.915 102.66 100.019 102.791 100.123 102.922C100.209 103.031 100.296 103.138 100.38 103.249C100.488 103.39 100.591 103.534 100.695 103.678C100.77 103.782 100.847 103.885 100.921 103.991C101.045 104.169 101.164 104.352 101.283 104.535C101.331 104.609 101.382 104.682 101.43 104.758C101.592 105.014 101.748 105.274 101.899 105.537C101.956 105.638 102.009 105.74 102.065 105.842C102.159 106.011 102.252 106.18 102.341 106.352C102.402 106.469 102.458 106.589 102.516 106.707C102.595 106.867 102.674 107.027 102.749 107.19C102.807 107.315 102.861 107.441 102.916 107.568C102.986 107.727 103.056 107.887 103.122 108.049C103.175 108.179 103.225 108.311 103.276 108.442C103.338 108.604 103.399 108.766 103.458 108.93C103.505 109.063 103.551 109.197 103.596 109.332C103.652 109.498 103.705 109.664 103.756 109.832C103.798 109.967 103.838 110.103 103.877 110.24C103.926 110.41 103.972 110.582 104.016 110.754C104.051 110.891 104.086 111.027 104.119 111.165C104.133 111.226 104.151 111.286 104.165 111.347C112.98 104.811 118.173 94.5772 118.173 83.5007C118.174 64.3811 102.619 48.8267 83.5 48.8267ZM83.5 89.2433C76.9707 89.2433 71.6587 83.9312 71.6587 77.4019C71.6587 70.8726 76.9707 65.5606 83.5 65.5606C90.0297 65.5606 95.3417 70.8726 95.3417 77.4019C95.3417 83.9312 90.0297 89.2433 83.5 89.2433Z" fill="#59C3FF"/>
<path d="M83.5 68.8223C78.7692 68.8223 74.9204 72.6711 74.9204 77.4019C74.9204 82.1327 78.7692 85.9815 83.5 85.9815C88.2312 85.9815 92.08 82.1327 92.08 77.4019C92.08 72.6711 88.2312 68.8223 83.5 68.8223Z" fill="#59C3FF"/>
<path d="M101.086 112.557C101.054 112.397 101.017 112.238 100.981 112.08C100.956 111.969 100.933 111.857 100.906 111.747C100.864 111.579 100.817 111.413 100.771 111.247C100.744 111.149 100.719 111.049 100.69 110.952C100.632 110.756 100.568 110.563 100.504 110.37C100.482 110.305 100.463 110.238 100.44 110.173C100.351 109.915 100.256 109.661 100.155 109.409C100.136 109.362 100.115 109.317 100.096 109.27C100.012 109.067 99.9276 108.864 99.8373 108.664C99.7988 108.58 99.757 108.497 99.7176 108.414C99.6422 108.254 99.5675 108.095 99.4879 107.938C99.4397 107.843 99.3875 107.751 99.3376 107.657C99.2619 107.514 99.1869 107.372 99.1076 107.231C99.0518 107.133 98.9925 107.037 98.9354 106.94C98.8571 106.808 98.7792 106.675 98.6976 106.545C98.6356 106.446 98.5698 106.349 98.5058 106.252C98.424 106.127 98.3431 106.002 98.2583 105.88C98.1907 105.782 98.1203 105.687 98.0508 105.591C97.9647 105.472 97.8792 105.353 97.7905 105.235C97.7178 105.14 97.6431 105.047 97.5684 104.954C97.4784 104.84 97.388 104.726 97.2954 104.614C97.2181 104.522 97.1388 104.431 97.0596 104.34C96.9653 104.231 96.8711 104.123 96.7742 104.017C96.692 103.927 96.6078 103.839 96.524 103.751C96.4262 103.648 96.328 103.545 96.2275 103.444C96.1411 103.357 96.053 103.272 95.9643 103.187C95.8622 103.089 95.7601 102.991 95.6561 102.895C95.5657 102.812 95.4737 102.731 95.3818 102.65C95.2758 102.556 95.1688 102.463 95.0605 102.372C94.9665 102.293 94.871 102.215 94.7751 102.138C94.6652 102.05 94.5546 101.962 94.4424 101.876C94.3445 101.801 94.2457 101.727 94.1465 101.654C94.0327 101.57 93.9179 101.488 93.8021 101.407C93.7007 101.336 93.5989 101.266 93.4962 101.198C93.3787 101.119 93.2597 101.042 93.1403 100.966C93.0363 100.9 92.9309 100.835 92.8252 100.77C92.7042 100.697 92.5819 100.626 92.4589 100.555C92.3513 100.494 92.2437 100.432 92.1347 100.373C92.0101 100.304 91.8842 100.239 91.758 100.174C91.6477 100.116 91.5372 100.06 91.4256 100.005C91.2974 99.9426 91.1679 99.8823 91.0381 99.8223C90.9253 99.7704 90.8131 99.7186 90.6989 99.669C90.5671 99.6116 90.4337 99.5571 90.3 99.5026C90.1852 99.456 90.071 99.409 89.9549 99.3647C89.8192 99.3128 89.6822 99.2642 89.5452 99.2156C89.4288 99.1742 89.312 99.1321 89.1946 99.093C89.0557 99.047 88.9157 99.0046 88.7751 98.9622C88.6567 98.9263 88.5383 98.8888 88.4186 98.8552C88.2758 98.8147 88.1313 98.7789 87.9874 98.7417C87.8684 98.7114 87.7497 98.6797 87.6299 98.6517C87.4815 98.6171 87.3312 98.5871 87.1811 98.5561C87.0634 98.5316 86.946 98.5055 86.8272 98.483C86.672 98.4543 86.5154 98.4308 86.3589 98.4061C86.2434 98.3875 86.1279 98.3669 86.0115 98.3506C85.8468 98.3281 85.6804 98.3108 85.5144 98.2922C85.4045 98.2802 85.2952 98.2651 85.1846 98.255C85.0007 98.2381 84.8144 98.2273 84.6288 98.2159C84.5346 98.21 84.4413 98.2012 84.3467 98.1967C84.0662 98.1846 83.7841 98.1777 83.5 98.1777C83.2159 98.1777 82.9337 98.1846 82.6526 98.1976C82.5577 98.2022 82.464 98.211 82.3695 98.2169C82.1842 98.2283 81.9986 98.2391 81.8146 98.256C81.7037 98.2661 81.5941 98.2811 81.4836 98.2932C81.3179 98.3118 81.1519 98.3287 80.9875 98.3516C80.8707 98.3679 80.7552 98.3888 80.6388 98.407C80.4829 98.4318 80.3263 98.4553 80.172 98.484C80.0527 98.5062 79.9349 98.5326 79.8165 98.5571C79.6671 98.5881 79.5174 98.6184 79.3693 98.6526C79.249 98.6807 79.1299 98.713 79.0105 98.743C78.867 98.7798 78.7229 98.8157 78.5806 98.8558C78.4603 98.8898 78.3416 98.9273 78.2225 98.9635C78.0829 99.0062 77.9433 99.0483 77.8053 99.0939C77.6866 99.1331 77.5695 99.1755 77.4521 99.2172C77.3161 99.2655 77.1801 99.3138 77.0453 99.3653C76.9286 99.41 76.8131 99.4573 76.6973 99.5046C76.5649 99.5584 76.4321 99.6126 76.3013 99.6696C76.1865 99.7192 76.0734 99.7717 75.9598 99.8239C75.8307 99.8836 75.7018 99.9433 75.5746 100.006C75.4621 100.061 75.3509 100.118 75.24 100.176C75.1144 100.24 74.9895 100.305 74.8662 100.373C74.7563 100.433 74.6473 100.495 74.539 100.557C74.4171 100.627 74.2957 100.698 74.1757 100.77C74.0687 100.835 73.963 100.901 73.8577 100.968C73.7393 101.043 73.6215 101.119 73.5051 101.197C73.4014 101.266 73.2989 101.337 73.1968 101.408C73.0817 101.488 72.9679 101.57 72.855 101.653C72.7549 101.727 72.6554 101.801 72.5566 101.877C72.4453 101.962 72.3358 102.049 72.2265 102.137C72.1299 102.215 72.0337 102.293 71.9385 102.373C71.8312 102.463 71.7252 102.555 71.6201 102.648C71.5272 102.73 71.4345 102.812 71.3432 102.896C71.2398 102.991 71.1384 103.088 71.0373 103.185C70.9482 103.272 70.8592 103.357 70.7721 103.445C70.6726 103.545 70.5751 103.647 70.4782 103.749C70.3937 103.838 70.3086 103.927 70.2257 104.018C70.1299 104.123 70.0362 104.231 69.943 104.338C69.863 104.43 69.7828 104.522 69.7052 104.615C69.6129 104.726 69.5238 104.839 69.4341 104.952C69.3591 105.046 69.2831 105.141 69.21 105.237C69.122 105.352 69.0375 105.471 68.952 105.588C68.8819 105.686 68.8105 105.782 68.7423 105.881C68.6582 106.002 68.5779 106.126 68.497 106.25C68.4321 106.348 68.3662 106.446 68.3033 106.546C68.2224 106.675 68.1458 106.806 68.0681 106.937C68.0097 107.035 67.9497 107.133 67.893 107.232C67.8147 107.37 67.741 107.511 67.666 107.652C67.6151 107.748 67.5619 107.842 67.5127 107.939C67.434 108.093 67.3603 108.251 67.286 108.408C67.2455 108.494 67.2028 108.578 67.1636 108.664C67.0736 108.863 66.9888 109.065 66.906 109.268C66.8864 109.316 66.8652 109.362 66.846 109.409C66.7455 109.661 66.6506 109.915 66.5612 110.172C66.5377 110.24 66.5178 110.309 66.495 110.378C66.4314 110.568 66.3681 110.759 66.3107 110.952C66.2817 111.05 66.2566 111.15 66.2292 111.249C66.1832 111.414 66.1362 111.579 66.0945 111.747C66.0671 111.858 66.0439 111.971 66.0185 112.082C65.9826 112.24 65.9454 112.398 65.9138 112.557C65.8903 112.675 65.871 112.795 65.8498 112.915C65.8263 113.046 65.8025 113.177 65.782 113.31C71.1299 116.496 77.2332 118.174 83.5003 118.174C89.7677 118.174 95.8707 116.496 101.219 113.31C101.198 113.177 101.174 113.046 101.15 112.915C101.129 112.795 101.11 112.675 101.086 112.557Z" fill="#59C3FF"/>
<path d="M160.118 83.1805C160.109 83.1322 160.09 83.0875 160.077 83.0409C160.06 82.9858 160.048 82.9297 160.025 82.8762C160.003 82.8211 159.972 82.7712 159.943 82.7193C159.92 82.6782 159.902 82.6351 159.876 82.5957C159.816 82.506 159.748 82.4222 159.672 82.3462L149.887 72.5613C149.251 71.9246 148.218 71.9246 147.581 72.5613C146.944 73.1983 146.944 74.231 147.581 74.8677L154.582 81.869H137.292C136.884 68.2591 131.4 55.9041 122.671 46.6349L134.916 34.3901V44.2914C134.916 45.1919 135.646 45.9222 136.547 45.9222C137.448 45.9222 138.178 45.1919 138.178 44.2914V30.4529C138.178 30.3459 138.167 30.2389 138.146 30.1335C138.136 30.0853 138.118 30.0406 138.104 29.9939C138.088 29.9388 138.075 29.8827 138.053 29.8292C138.03 29.7741 137.999 29.7242 137.97 29.6723C137.948 29.6312 137.93 29.5882 137.903 29.5487C137.784 29.37 137.63 29.216 137.451 29.0966C137.411 29.0699 137.368 29.0516 137.326 29.0288C137.275 29.0004 137.225 28.9694 137.17 28.9469C137.118 28.9251 137.063 28.9127 137.008 28.8967C136.961 28.8827 136.915 28.8641 136.866 28.8543C136.765 28.8344 136.664 28.8246 136.562 28.8236C136.557 28.8236 136.552 28.822 136.546 28.822H122.708C121.807 28.822 121.077 29.5523 121.077 30.4529C121.077 31.3534 121.807 32.0837 122.708 32.0837H132.609L120.364 44.3285C111.095 35.6002 98.7407 30.1156 85.1309 29.7085V12.4175L92.1321 19.4185C92.4502 19.7371 92.868 19.8963 93.2852 19.8963C93.7023 19.8963 94.1202 19.7371 94.4382 19.4188C95.0752 18.7818 95.0752 17.7491 94.4382 17.1124L84.6537 7.32794C84.578 7.25194 84.4942 7.1841 84.4045 7.12408C84.3631 7.09636 84.318 7.07711 84.275 7.05363C84.2251 7.02656 84.1771 6.99622 84.1243 6.97437C84.0688 6.95154 84.0111 6.93816 83.9544 6.92153C83.9093 6.90816 83.8663 6.89087 83.8196 6.88141C83.6089 6.83966 83.3914 6.83966 83.1807 6.88141C83.134 6.89054 83.0913 6.90816 83.046 6.9212C82.9889 6.93784 82.9312 6.95121 82.8757 6.97404C82.8238 6.99557 82.7765 7.02558 82.7273 7.052C82.6829 7.07581 82.6373 7.0957 82.5949 7.12408C82.5104 7.18051 82.4321 7.24509 82.3597 7.31587C82.3555 7.32011 82.3506 7.32272 82.3463 7.32663L72.5612 17.1118C71.9242 17.7488 71.9242 18.7815 72.5612 19.4182C73.1982 20.0548 74.2305 20.0548 74.8675 19.4182L81.8691 12.4175V29.7082C68.2593 30.1156 55.9046 35.5999 46.6351 44.3282L34.3903 32.0834H44.2912C45.1918 32.0834 45.9221 31.3531 45.9221 30.4525C45.9221 29.552 45.1918 28.8217 44.2912 28.8217H30.453C30.4475 28.8217 30.4426 28.8233 30.4371 28.8233C30.3353 28.8243 30.2338 28.8341 30.134 28.854C30.0845 28.8638 30.0388 28.882 29.9908 28.8964C29.9367 28.9124 29.8822 28.9248 29.8294 28.9466C29.7749 28.9691 29.7257 29.0001 29.6745 29.0282C29.6324 29.051 29.5887 29.0696 29.5486 29.0963C29.4638 29.1531 29.3852 29.218 29.3127 29.2891C29.3088 29.293 29.3039 29.2956 29.3 29.2995C29.2958 29.3038 29.2932 29.3087 29.2893 29.3126C29.2185 29.385 29.1536 29.4633 29.0971 29.5477C29.0691 29.5898 29.0495 29.6352 29.026 29.6789C28.999 29.7284 28.9693 29.7761 28.9474 29.8283C28.9246 29.8834 28.9115 29.9408 28.8949 29.9975C28.8815 30.0429 28.8643 30.0859 28.8548 30.1329C28.8339 30.2383 28.8225 30.3456 28.8225 30.4529V44.2907C28.8225 45.1913 29.5528 45.9216 30.4534 45.9216C31.3539 45.9216 32.0842 45.1913 32.0842 44.2907V34.3898L44.329 46.6346C35.6004 55.9044 30.1158 68.2591 29.7087 81.869H12.4177L19.4186 74.868C20.0557 74.231 20.0557 73.1983 19.4186 72.5617C18.7816 71.925 17.7493 71.925 17.1123 72.5617L7.32712 82.3468C7.32288 82.3511 7.32027 82.3559 7.31636 82.3599C7.24558 82.4323 7.18067 82.5105 7.12424 82.595C7.09619 82.6371 7.07662 82.6824 7.05314 82.7262C7.02607 82.7757 6.99638 82.8233 6.97453 82.8755C6.9517 82.9307 6.93865 82.9881 6.92202 83.0448C6.90864 83.0902 6.89136 83.1332 6.8819 83.1802C6.84015 83.3909 6.84015 83.6084 6.8819 83.8192C6.89136 83.8668 6.9093 83.9108 6.92267 83.9568C6.93898 84.0129 6.95202 84.0693 6.97453 84.1235C6.99704 84.1779 7.02802 84.2272 7.05607 84.2787C7.07891 84.3208 7.09717 84.3642 7.12392 84.4043C7.18393 84.494 7.25178 84.5778 7.32777 84.6538L17.1123 94.4383C17.4309 94.7567 17.8481 94.9158 18.2656 94.9158C18.6831 94.9158 19.1003 94.7567 19.419 94.438C20.056 93.8013 20.056 92.7686 19.419 92.132L12.4177 85.1307H29.7084C30.1158 98.7405 35.6 111.095 44.3284 120.364L32.0836 132.609V122.708C32.0836 121.807 31.3533 121.077 30.4527 121.077C29.5521 121.077 28.8218 121.807 28.8218 122.708V136.546C28.8218 136.653 28.8329 136.761 28.8541 136.866C28.8636 136.914 28.8815 136.958 28.8949 137.004C28.9112 137.06 28.9243 137.116 28.9468 137.17C28.9693 137.225 29.0003 137.274 29.0283 137.326C29.0511 137.368 29.0694 137.411 29.0962 137.451C29.2159 137.63 29.3695 137.784 29.5482 137.904C29.5877 137.93 29.6301 137.948 29.6709 137.97C29.7231 137.999 29.7733 138.03 29.8287 138.053C29.8822 138.075 29.938 138.088 29.9931 138.104C30.0401 138.118 30.0848 138.136 30.1331 138.146C30.2384 138.167 30.3454 138.178 30.4524 138.178H44.2909C45.1914 138.178 45.9217 137.448 45.9217 136.547C45.9217 135.646 45.1914 134.916 44.2909 134.916H34.3896L46.6344 122.671C55.9036 131.4 68.2586 136.884 81.8685 137.292V154.582L74.8675 147.582C74.2305 146.944 73.1982 146.944 72.5612 147.582C71.9242 148.218 71.9242 149.251 72.5612 149.888L82.346 159.672C82.422 159.748 82.5058 159.816 82.5955 159.876C82.635 159.902 82.6774 159.92 82.7182 159.943C82.7703 159.971 82.8206 160.003 82.876 160.026C82.9295 160.048 82.9853 160.061 83.0404 160.077C83.0874 160.091 83.1321 160.109 83.1803 160.118C83.2857 160.139 83.3927 160.151 83.4997 160.151C83.6067 160.151 83.7136 160.139 83.819 160.118C83.8679 160.108 83.9136 160.09 83.9605 160.076C84.015 160.06 84.0705 160.047 84.1233 160.026C84.1797 160.002 84.231 159.97 84.2838 159.941C84.3236 159.919 84.3653 159.902 84.4035 159.876C84.4938 159.816 84.578 159.747 84.6543 159.671L94.4378 149.888C95.0749 149.251 95.0749 148.218 94.4378 147.582C93.8015 146.944 92.7682 146.944 92.1318 147.582L85.1309 154.582V137.291C98.7407 136.884 111.095 131.4 120.365 122.671L132.61 134.916H122.708C121.808 134.916 121.078 135.646 121.078 136.547C121.078 137.448 121.808 138.178 122.708 138.178H136.547C136.654 138.178 136.761 138.167 136.866 138.145C136.915 138.136 136.961 138.117 137.008 138.103C137.063 138.087 137.118 138.075 137.171 138.053C137.227 138.03 137.279 137.998 137.331 137.968C137.371 137.946 137.413 137.929 137.451 137.903C137.631 137.784 137.784 137.63 137.904 137.451C137.929 137.413 137.946 137.372 137.968 137.333C137.998 137.279 138.03 137.227 138.054 137.17C138.075 137.118 138.087 137.062 138.104 137.008C138.118 136.96 138.136 136.915 138.146 136.866C138.167 136.761 138.178 136.654 138.178 136.546V122.708C138.178 121.807 137.448 121.077 136.547 121.077C135.646 121.077 134.916 121.807 134.916 122.708V132.609L122.672 120.364C131.4 111.095 136.885 98.7399 137.292 85.1304H154.583L147.582 92.1316C146.945 92.7683 146.945 93.801 147.582 94.4377C147.899 94.7567 148.317 94.9158 148.734 94.9158C149.152 94.9158 149.569 94.7567 149.887 94.438L159.671 84.6545C159.747 84.5785 159.816 84.494 159.876 84.4037C159.901 84.3658 159.918 84.325 159.94 84.2856C159.97 84.2321 160.002 84.1802 160.026 84.1231C160.047 84.0706 160.06 84.0155 160.076 83.961C160.09 83.9134 160.108 83.8684 160.118 83.8192C160.139 83.7138 160.15 83.6071 160.15 83.5002V83.4998C160.15 83.3928 160.139 83.2859 160.118 83.1805ZM103.848 115.52C97.77 119.39 90.7342 121.435 83.5 121.435C76.2658 121.435 69.23 119.39 63.1527 115.52C52.1399 108.508 45.5649 96.5379 45.5649 83.4998C45.5649 62.5824 62.5826 45.5647 83.5 45.5647C104.418 45.5647 121.435 62.5824 121.435 83.4998C121.435 96.5379 114.86 108.508 103.848 115.52Z" fill="#59C3FF"/>
</svg>
