<svg width="171" height="214" viewBox="0 0 171 214" fill="none" xmlns="http://www.w3.org/2000/svg">
<path fill-rule="evenodd" clip-rule="evenodd" d="M112.467 111.707C111.637 110.724 111.6 109.021 110.516 107.694C103.876 99.5596 104.035 96.9929 103.6 86.6782C102.988 72.0269 103.696 78.6001 105.394 79.1644C106.998 79.6962 108.211 74.8039 106.706 74.4619C102.964 73.6138 94.3049 74.6192 93.5764 68.6479C92.9813 63.7642 89.428 57.0917 84.6041 55.3219C84.1099 55.1423 85.1478 53.9453 84.6622 53.7487C72.6734 48.8752 83.4413 63.1503 70.3734 55.0979C67.9435 53.6016 68.607 48.7828 65.9497 47.2592C60.2554 43.9966 60.3392 39.0718 51.6199 41.3136C50.8128 41.5222 51.1719 42.8987 50.534 43.4374C46.1308 47.1566 25.5697 39.0666 19.4428 33.9332C18.4715 33.1192 9.69409 33.3313 8.52958 33.7348C8.51248 33.7417 13.5296 49.92 15.8381 51.8831C18.6921 54.3096 22.9671 57.7176 19.6292 61.1119C19.1059 61.6438 23.6682 62.9964 18.8734 61.89C11.9923 60.3031 19.8036 65.2672 21.5273 66.7002C22.5242 67.5279 23.0595 67.1431 25.0345 67.0303C25.6655 66.9943 25.8673 69.6927 27.7158 70.9479C32.1601 73.966 28.0869 77.6049 31.9224 81.5789C33.8376 83.5625 36.3975 85.0673 38.4563 87.0133C39.6858 88.1778 38.364 90.4025 39.9337 91.1823C43.2768 92.8461 44.1574 88.5147 39.272 82.9572C38.9026 82.5365 38.8359 84.8177 38.4443 84.4175C35.1252 81.0403 35.8075 70.8504 32.1002 68.0374C32.1002 68.0374 32.6474 72.6527 31.0691 68.3213C28.9709 62.5672 23.463 55.5767 19.9626 49.9234C18.1415 46.9805 18.0731 38.3159 18.1723 38.0321C18.174 38.0269 24.5489 41.2896 24.7113 41.4914C25.4415 42.4011 26.8129 41.5393 27.5055 42.8115C29.2291 45.9682 26.618 50.5544 35.4723 61.3291C36.5035 62.5825 37.7501 61.4762 38.4375 62.904C38.812 63.6838 38.3298 65.6383 39.7559 66.6865C40.669 67.3569 46.6267 71.7687 45.7751 72.899C45.4741 73.2957 42.403 71.8627 43.812 75.4588C43.8171 75.4708 48.3743 77.463 50.4212 80.623C52.4868 83.8105 52.952 81.6268 56.0077 86.2011C57.7246 88.7746 59.6381 92.4682 62.0013 94.7511C62.2869 95.0281 64.214 98.7679 63.371 103.676C63.3556 103.766 64.7048 104.204 64.3748 105.262C63.9558 106.608 59.5816 104.406 64.8587 110.517C66.4404 112.349 70.9514 114.45 72.0937 115.565C78.4378 121.771 79.6775 118.571 82.7111 120.264C86.7125 122.499 87.8924 125.637 95.7139 127.417C102.056 128.859 111.73 136.217 119.338 129.515C124.543 124.933 135.203 138.012 136.267 137.619C137.005 137.345 135.473 130.314 138.373 128.891C140.041 128.074 143.813 130.133 145.282 128.301C146.757 126.466 143.267 125.151 141.527 123.633C140.868 123.06 138.806 122.699 140.171 122.174C145.022 120.307 138.291 117.06 141.701 117.886C158.507 121.957 155.489 106.931 157.476 113.344C158.951 118.103 159.553 109.645 159.297 109.407C155.347 105.721 165.85 99.3595 161.301 95.671C159.817 94.4672 146.646 98.443 145.123 99.4245C141.593 101.706 144.254 103.749 143.255 106.856C142.123 110.382 139.724 109.811 139.168 112.846C138.363 117.258 134.777 115.362 134.789 115.032C134.87 112.918 127.987 117.311 132.127 116.827C135.654 116.417 134.63 118.804 129.539 118.655C128.737 118.633 130.275 116.449 129.497 116.254C126.253 115.434 124.734 120.254 122.361 118.17C115.743 112.352 120.663 121.413 112.467 111.707Z" fill="#59C3FF"/>
</svg>
