<svg width="150" height="188" viewBox="0 0 150 188" fill="none" xmlns="http://www.w3.org/2000/svg">
<path d="M119.824 42.7734C119.824 48.7646 119.824 54.7705 119.824 60.7617C119.824 61.5967 119.824 62.4463 119.824 63.2812C120.806 62.2998 121.772 61.333 122.754 60.3516C118.52 60.3516 114.287 60.3516 110.054 60.3516C103.315 60.3516 96.5771 60.3516 89.8535 60.3516C88.3154 60.3516 86.792 60.3516 85.2539 60.3516C83.6719 60.3516 82.3242 61.6992 82.3242 63.2812C82.3242 65.8301 82.3242 68.3936 82.3242 70.9424C82.3242 77.0801 82.3242 83.2031 82.3242 89.3408C82.3242 96.7676 82.3242 104.18 82.3242 111.606C82.3242 118.022 82.3242 124.438 82.3242 130.854C82.3242 133.96 82.1924 137.109 82.3242 140.215C82.3242 140.259 82.3242 140.303 82.3242 140.347C83.3057 139.365 84.2725 138.398 85.2539 137.417C79.2627 137.417 73.2568 137.417 67.2656 137.417C66.4307 137.417 65.5811 137.417 64.7461 137.417C65.7275 138.398 66.6943 139.365 67.6758 140.347C67.6758 137.798 67.6758 135.234 67.6758 132.686C67.6758 126.548 67.6758 120.425 67.6758 114.287C67.6758 106.86 67.6758 99.4482 67.6758 92.0215C67.6758 85.6055 67.6758 79.1895 67.6758 72.7734C67.6758 69.6533 67.749 66.5332 67.6758 63.4131C67.6758 63.3691 67.6758 63.3252 67.6758 63.2812C67.6758 61.6992 66.3281 60.3516 64.7461 60.3516C60.5127 60.3516 56.2793 60.3516 52.0459 60.3516C45.3076 60.3516 38.5693 60.3516 31.8457 60.3516C30.3076 60.3516 28.7842 60.3516 27.2461 60.3516C28.2275 61.333 29.1943 62.2998 30.1758 63.2812C30.1758 57.29 30.1758 51.2842 30.1758 45.293C30.1758 44.458 30.1758 43.6084 30.1758 42.7734C29.1943 43.7549 28.2275 44.7217 27.2461 45.7031C31.4795 45.7031 35.7129 45.7031 39.9463 45.7031C46.6846 45.7031 53.4228 45.7031 60.1465 45.7031C61.6846 45.7031 63.208 45.7031 64.7461 45.7031C66.3281 45.7031 67.6758 44.3555 67.6758 42.7734C67.6758 39.0527 67.6758 35.3467 67.6758 31.626C67.6758 25.6787 67.6758 19.7168 67.6758 13.7695C67.6758 12.4072 67.6758 11.0449 67.6758 9.68262C66.6943 10.6641 65.7275 11.6309 64.7461 12.6123C70.7373 12.6123 76.7432 12.6123 82.7344 12.6123C83.5693 12.6123 84.4189 12.6123 85.2539 12.6123C84.2725 11.6309 83.3057 10.6641 82.3242 9.68262C82.3242 13.4033 82.3242 17.1094 82.3242 20.8301C82.3242 26.7773 82.3242 32.7393 82.3242 38.6865C82.3242 40.0488 82.3242 41.4111 82.3242 42.7734C82.3242 44.3555 83.6719 45.7031 85.2539 45.7031C89.4873 45.7031 93.7207 45.7031 97.9541 45.7031C104.692 45.7031 111.431 45.7031 118.154 45.7031C119.692 45.7031 121.216 45.7031 122.754 45.7031C124.292 45.7031 125.757 44.3555 125.684 42.7734C125.61 41.1914 124.395 39.8437 122.754 39.8437C118.52 39.8437 114.287 39.8437 110.054 39.8437C103.315 39.8437 96.5771 39.8437 89.8535 39.8437C88.3154 39.8437 86.792 39.8437 85.2539 39.8437C86.2353 40.8252 87.2021 41.792 88.1836 42.7734C88.1836 39.0527 88.1836 35.3467 88.1836 31.626C88.1836 25.6787 88.1836 19.7168 88.1836 13.7695C88.1836 12.4072 88.1836 11.0449 88.1836 9.68262C88.1836 8.10059 86.8359 6.75293 85.2539 6.75293C79.2627 6.75293 73.2568 6.75293 67.2656 6.75293C66.4307 6.75293 65.5811 6.75293 64.7461 6.75293C63.1641 6.75293 61.8164 8.10059 61.8164 9.68262C61.8164 13.4033 61.8164 17.1094 61.8164 20.8301C61.8164 26.7773 61.8164 32.7393 61.8164 38.6865C61.8164 40.0488 61.8164 41.4111 61.8164 42.7734C62.7978 41.792 63.7646 40.8252 64.7461 39.8437C60.5127 39.8437 56.2793 39.8437 52.0459 39.8437C45.3076 39.8437 38.5693 39.8437 31.8457 39.8437C30.3076 39.8437 28.7842 39.8437 27.2461 39.8437C25.6641 39.8437 24.3164 41.1914 24.3164 42.7734C24.3164 48.7646 24.3164 54.7705 24.3164 60.7617C24.3164 61.5967 24.3164 62.4463 24.3164 63.2812C24.3164 64.8633 25.6641 66.2109 27.2461 66.2109C31.4795 66.2109 35.7129 66.2109 39.9463 66.2109C46.6846 66.2109 53.4228 66.2109 60.1465 66.2109C61.6846 66.2109 63.208 66.2109 64.7461 66.2109C63.7646 65.2295 62.7978 64.2627 61.8164 63.2812C61.8164 65.8301 61.8164 68.3936 61.8164 70.9424C61.8164 77.0801 61.8164 83.2031 61.8164 89.3408C61.8164 96.7676 61.8164 104.18 61.8164 111.606C61.8164 118.022 61.8164 124.438 61.8164 130.854C61.8164 133.975 61.7432 137.095 61.8164 140.215C61.8164 140.259 61.8164 140.303 61.8164 140.347C61.8164 141.929 63.1641 143.276 64.7461 143.276C70.7373 143.276 76.7432 143.276 82.7344 143.276C83.5693 143.276 84.4189 143.276 85.2539 143.276C86.8359 143.276 88.1836 141.929 88.1836 140.347C88.1836 137.798 88.1836 135.234 88.1836 132.686C88.1836 126.548 88.1836 120.425 88.1836 114.287C88.1836 106.86 88.1836 99.4482 88.1836 92.0215C88.1836 85.6055 88.1836 79.1895 88.1836 72.7734C88.1836 69.668 88.3154 66.5186 88.1836 63.4131C88.1836 63.3691 88.1836 63.3252 88.1836 63.2812C87.2021 64.2627 86.2353 65.2295 85.2539 66.2109C89.4873 66.2109 93.7207 66.2109 97.9541 66.2109C104.692 66.2109 111.431 66.2109 118.154 66.2109C119.692 66.2109 121.216 66.2109 122.754 66.2109C124.336 66.2109 125.684 64.8633 125.684 63.2812C125.684 57.29 125.684 51.2842 125.684 45.293C125.684 44.458 125.684 43.6084 125.684 42.7734C125.684 41.2354 124.336 39.7705 122.754 39.8437C121.172 39.917 119.824 41.1328 119.824 42.7734Z" fill="#59C3FF"/>
</svg>
