<svg width="132" height="165" viewBox="0 0 132 165" fill="none" xmlns="http://www.w3.org/2000/svg">
<path d="M4.14356 103.502C4.16006 104.523 4.24875 105.524 4.38281 106.51C4.40344 106.662 4.42819 106.811 4.45294 106.963C4.60556 107.937 4.80769 108.89 5.06962 109.822C5.07994 109.857 5.08613 109.892 5.09644 109.929C5.67806 111.957 6.51338 113.871 7.56113 115.649C7.62713 115.762 7.69725 115.873 7.76738 115.987C8.24588 116.768 8.7615 117.521 9.32044 118.243C9.39469 118.34 9.46481 118.441 9.54113 118.538C10.1681 119.324 10.8364 120.073 11.5541 120.776C11.6634 120.883 11.7831 120.98 11.8944 121.085C12.4926 121.65 13.1175 122.183 13.7672 122.688C13.9899 122.861 14.2168 123.03 14.4458 123.195C15.0068 123.599 15.5843 123.975 16.1783 124.332C16.2071 124.35 16.2298 124.377 16.2608 124.396C16.3453 124.445 16.4299 124.495 16.5165 124.544C16.6238 124.614 16.731 124.682 16.8424 124.746C16.8486 124.75 16.8548 124.754 16.8609 124.759C16.8651 124.761 16.8692 124.761 16.8754 124.765C16.8981 124.777 16.9208 124.785 16.9434 124.798C17.8613 125.305 18.8224 125.742 19.8062 126.132C19.8969 126.167 19.9877 126.198 20.0784 126.233C20.8704 126.536 21.681 126.796 22.5081 127.017C22.7019 127.069 22.8979 127.12 23.0938 127.168C23.8343 127.345 24.5891 127.487 25.3543 127.597C25.5709 127.628 25.7854 127.671 26.004 127.696C26.9466 127.805 27.9015 127.875 28.875 127.875C29.8629 127.875 30.8323 127.801 31.7914 127.687C31.8636 127.679 31.9378 127.663 32.0121 127.654C32.9608 127.533 33.891 127.353 34.8026 127.128C34.8294 127.122 34.8563 127.12 34.881 127.114C34.8954 127.11 34.9058 127.102 34.9181 127.1C42.8897 125.087 49.3185 119.213 52.107 111.577C52.1132 111.559 52.1276 111.544 52.1338 111.526C52.1503 111.478 52.1627 111.429 52.1792 111.381C52.3813 110.812 52.5649 110.234 52.7258 109.647C52.7711 109.482 52.8124 109.317 52.8536 109.152C52.9836 108.634 53.1053 108.112 53.2022 107.582C53.262 107.26 53.3033 106.937 53.3507 106.613C53.4064 106.215 53.4724 105.823 53.5095 105.419C53.5817 104.653 53.625 103.89 53.625 103.125C53.625 102.319 53.5817 101.516 53.5033 100.716C53.46 100.275 53.3816 99.8436 53.3156 99.4104C53.2641 99.0722 53.2269 98.7319 53.1609 98.3957C53.0475 97.8099 52.8969 97.2386 52.7423 96.6673C52.6948 96.4941 52.6598 96.3167 52.6082 96.1434C52.4246 95.5206 52.2081 94.9142 51.9771 94.314C51.9358 94.2088 51.909 94.0995 51.8678 93.9943C51.8636 93.9819 51.8533 93.9716 51.8471 93.9593C49.368 87.7656 44.4675 82.7991 38.3089 80.2498C38.2944 80.2436 38.2841 80.2333 38.2718 80.2292C38.1748 80.19 38.0717 80.1652 37.9748 80.1281C37.2343 79.8332 36.4774 79.5754 35.7039 79.3526C35.5348 79.3052 35.3636 79.266 35.1945 79.2206C34.4376 79.0206 33.6683 78.8556 32.8845 78.7277C32.7649 78.7091 32.6453 78.6906 32.5256 78.672C31.6614 78.5441 30.7849 78.4596 29.8959 78.4245C29.8691 78.4224 29.8423 78.4204 29.8134 78.4204C29.4979 78.4101 29.1906 78.375 28.875 78.375C25.2223 78.375 21.7614 79.1918 18.6368 80.619C18.6244 80.6252 18.612 80.6314 18.5996 80.6355C17.7808 81.0109 16.9888 81.4316 16.2216 81.8916C16.1659 81.9246 16.1061 81.9493 16.0504 81.9823C16.0318 81.9926 16.0215 82.0133 16.0029 82.0236C8.89556 86.3796 4.125 94.1964 4.125 103.125C4.125 103.228 4.13944 103.327 4.1415 103.43C4.1415 103.434 4.13944 103.436 4.13944 103.441C4.13944 103.461 4.14356 103.48 4.14356 103.502ZM20.0021 84.5336C20.4703 84.3088 20.9426 84.1005 21.4253 83.9128C21.4913 83.8881 21.5573 83.8654 21.6233 83.8406C23.6569 83.0754 25.8019 82.6464 27.9593 82.5454C28.1449 82.5371 28.3305 82.5206 28.5161 82.5165C28.8791 82.5082 29.2421 82.5227 29.6051 82.5351C29.9124 82.5454 30.2198 82.5578 30.5229 82.5825C30.8406 82.6073 31.1561 82.6423 31.4717 82.6815C31.812 82.7248 32.1482 82.7764 32.4823 82.8362C32.7752 82.8877 33.0681 82.9393 33.3589 83.0053C33.4517 83.0259 33.5404 83.0548 33.6332 83.0754L28.0211 88.6875H21.8996L19.8578 84.6038C19.9052 84.5811 19.9547 84.5584 20.0021 84.5336ZM45.0533 106.295L49.203 99.7714C49.2401 99.9962 49.2773 100.221 49.3061 100.448C49.3412 100.708 49.3804 100.966 49.4031 101.225C49.4608 101.852 49.5 102.484 49.5 103.125C49.5 104.045 49.4216 104.963 49.2938 105.878C49.2731 106.029 49.2484 106.18 49.2236 106.33C49.0772 107.238 48.8833 108.141 48.6131 109.036L42.0111 110.356L44.9625 106.425C44.9687 106.419 44.9687 106.409 44.9728 106.402L45.0533 106.295ZM32.67 123.379C31.8244 123.542 30.9891 123.628 30.1599 123.686C29.9331 123.701 29.7041 123.715 29.4752 123.721C28.8358 123.742 28.2026 123.725 27.5736 123.686C27.3446 123.672 27.1116 123.674 26.8826 123.651C26.0638 123.571 25.2533 123.443 24.453 123.263C24.3169 123.234 24.1869 123.193 24.0529 123.16C23.3083 122.977 22.5699 122.758 21.8439 122.492C21.7965 122.475 21.7511 122.457 21.7037 122.44L27.7283 117.42L34.3798 116.09L32.67 123.379ZM35.9473 111.569L28.4295 113.072L27.3776 107.811L27.027 106.058L33.1279 101.483L40.2909 105.779L35.9473 111.569ZM24.75 102.609L19.1153 98.3833L21.8996 92.8125H27.6004L30.3868 98.3833L24.75 102.609ZM16.2154 101.366L22.8814 106.365L24.5499 114.702L17.6818 120.423C17.6385 120.396 17.5931 120.372 17.5519 120.345C16.2896 119.514 15.1346 118.553 14.1013 117.486C14.0023 117.385 13.9116 117.276 13.8167 117.173C13.3939 116.719 12.9896 116.251 12.6101 115.762C12.5214 115.649 12.4369 115.531 12.3503 115.413C11.9666 114.896 11.6036 114.364 11.2716 113.815C11.22 113.732 11.1705 113.65 11.121 113.565C9.56588 110.921 8.5965 107.935 8.33869 104.81C8.33663 104.787 8.33663 104.767 8.33456 104.744L16.2154 101.366ZM37.2405 121.96L38.8286 115.199L46.5795 113.65C44.4036 117.296 41.1469 120.217 37.2405 121.96ZM47.6211 94.5739L42.6546 102.387L34.5758 97.5398L31.383 91.1563L37.9211 84.6182C42.1946 86.7158 45.6349 90.2385 47.6211 94.5739ZM16.3371 86.7859L18.3191 90.75L14.9923 97.4016L8.48306 100.19C9.26475 94.7492 12.1667 89.9931 16.3371 86.7859Z" fill="#59C3FF"/>
<path d="M8.07881 52.3442L58.8617 87.0643C58.7132 87.4397 58.5997 87.8213 58.4801 88.2028C58.4719 88.2317 58.4616 88.2585 58.4533 88.2853C58.2491 88.9494 58.0882 89.6198 57.9769 90.3004C57.9604 90.3932 57.9377 90.486 57.9232 90.5788C57.8181 91.3048 57.75 92.0349 57.75 92.7754C57.75 92.7836 57.7521 92.7898 57.7521 92.7981C57.7521 92.8022 57.75 92.8063 57.75 92.8125C57.75 96.5518 59.1669 100.198 61.8482 103.472C61.7616 103.56 61.6832 103.655 61.5986 103.746C61.5594 103.789 61.5141 103.824 61.4749 103.868C61.4646 103.88 61.4604 103.896 61.4501 103.907C59.1587 106.456 57.75 109.814 57.75 113.501C57.75 117.15 59.1277 120.477 61.3759 123.014C61.3862 123.026 61.3882 123.043 61.4006 123.055C61.4481 123.109 61.5017 123.152 61.5491 123.206C61.8049 123.484 62.0709 123.752 62.3473 124.01C62.436 124.092 62.5268 124.175 62.6175 124.255C62.9021 124.509 63.1991 124.748 63.5044 124.977C63.591 125.041 63.6756 125.107 63.7622 125.171C64.0881 125.406 64.4263 125.625 64.7707 125.831C64.8429 125.874 64.9151 125.922 64.9894 125.963C65.3627 126.178 65.7484 126.374 66.1403 126.555C66.1918 126.578 66.2413 126.607 66.2929 126.629C66.7116 126.817 67.1406 126.982 67.5799 127.128C67.6108 127.139 67.6418 127.153 67.6727 127.163C68.1203 127.31 68.5761 127.434 69.0422 127.535C69.0669 127.541 69.0938 127.549 69.1185 127.555C69.564 127.65 70.0177 127.722 70.4756 127.774C70.521 127.78 70.5664 127.79 70.6118 127.795C71.1088 127.846 71.6121 127.875 72.1236 127.875C74.6976 127.875 77.1107 127.186 79.2041 125.994C79.2124 125.99 79.2186 125.986 79.2268 125.982C79.6352 125.749 80.0312 125.495 80.4148 125.223C80.4664 125.186 80.5159 125.146 80.5674 125.109C80.9036 124.864 81.2295 124.606 81.543 124.334C81.6173 124.27 81.6874 124.202 81.7596 124.136C82.0483 123.874 82.3247 123.604 82.5908 123.321C82.6238 123.286 82.6629 123.255 82.6959 123.218C82.7063 123.206 82.7104 123.189 82.7207 123.177C84.7275 120.982 86.0702 118.173 86.4084 115.061C88.5638 115.323 90.7108 115.5 92.8125 115.5C95.2999 115.5 97.7233 115.327 100.064 115.005L109.399 120.823C109.981 124.808 113.421 127.875 117.563 127.875C122.112 127.875 125.813 124.175 125.813 119.625C125.813 115.075 122.112 111.375 117.563 111.375H116.156L114.838 110.441C116.841 109.391 118.649 108.199 120.254 106.893C120.347 106.838 120.448 106.805 120.535 106.732C123.142 104.556 125.056 102.139 126.285 99.5713C126.295 99.5507 126.303 99.528 126.314 99.5074C126.615 98.8721 126.871 98.2266 127.085 97.5728C127.126 97.4469 127.168 97.3211 127.207 97.1933C127.376 96.624 127.512 96.0506 127.615 95.4711C127.646 95.3061 127.683 95.1452 127.708 94.9802C127.809 94.2645 127.875 93.5426 127.875 92.8125C127.875 92.0824 127.809 91.3605 127.706 90.6428C127.681 90.4778 127.642 90.3148 127.613 90.1519C127.51 89.5723 127.376 88.9989 127.205 88.4297C127.166 88.3018 127.124 88.176 127.083 88.0502C126.871 87.3964 126.613 86.7508 126.312 86.1156C126.301 86.0949 126.293 86.0723 126.283 86.0516C125.054 83.4838 123.14 81.0666 120.533 78.8906C120.45 78.8226 120.353 78.7937 120.264 78.7401C116.488 75.6608 111.511 73.2353 105.788 71.7544C105.926 71.7008 106.06 71.6389 106.196 71.5832C106.353 71.5193 106.508 71.4533 106.664 71.3873C111.738 69.2051 116.267 65.8329 119.852 61.4873C119.856 61.4811 119.86 61.4769 119.866 61.4708C120.574 60.6107 121.256 59.7259 121.888 58.7916C121.914 58.7524 121.925 58.7091 121.947 58.6678C125.687 53.0908 127.875 46.3918 127.875 39.1875C127.875 38.3274 127.821 37.422 127.737 36.4733C127.687 35.838 127.619 35.211 127.537 34.5861C127.533 34.5593 127.533 34.5386 127.529 34.5139C127.526 34.5056 127.522 34.4974 127.522 34.4891C125.749 21.3324 116.669 10.4919 104.497 6.171C104.476 6.16275 104.459 6.14831 104.439 6.14006C104.387 6.1215 104.334 6.11119 104.282 6.09263C103.502 5.82244 102.713 5.58319 101.91 5.36663C101.661 5.29856 101.411 5.23669 101.162 5.17275C100.462 5.00156 99.759 4.84275 99.0454 4.71281C98.5751 4.62619 98.1049 4.56431 97.6346 4.49625C97.0984 4.422 96.5663 4.33744 96.0238 4.28794C94.9554 4.18688 93.885 4.125 92.8125 4.125C91.7565 4.125 90.7088 4.18894 89.6693 4.28381C89.3207 4.31475 88.9742 4.35806 88.6277 4.39931C87.9326 4.48387 87.2438 4.59112 86.559 4.71694C86.1774 4.78706 85.7938 4.84687 85.4164 4.92731C84.5398 5.11912 83.6715 5.33981 82.8176 5.59763C82.2938 5.75438 81.7843 5.94 81.2708 6.11944C80.8748 6.25969 80.4808 6.39994 80.091 6.55256C79.5383 6.76913 78.9896 6.99394 78.4513 7.23938C78.1543 7.37344 77.8635 7.52194 77.5706 7.66425C76.4981 8.18194 75.4607 8.74913 74.4563 9.372C74.2418 9.504 74.0211 9.62775 73.8086 9.76594C73.293 10.1001 72.7959 10.4528 72.2989 10.8137C72.006 11.0261 71.7173 11.2427 71.4306 11.4634C70.9624 11.8243 70.4983 12.1894 70.0487 12.573C69.7579 12.8226 69.4794 13.0886 69.1969 13.3485C68.4709 14.0126 67.7758 14.7036 67.1076 15.4254C66.8126 15.7451 66.5136 16.0607 66.2289 16.3907C65.8701 16.8073 65.5277 17.2363 65.1894 17.6715C64.9275 18.0077 64.6738 18.348 64.4242 18.6945C64.0942 19.1524 63.7643 19.6082 63.4549 20.0805C63.2693 20.3651 63.1001 20.6642 62.9227 20.955C62.3184 21.9409 61.7657 22.9556 61.2604 24.0013C61.1593 24.2117 61.0438 24.4138 60.9448 24.6283C60.9386 24.6428 60.9407 24.6613 60.9345 24.6758C58.9091 29.1019 57.75 34.0065 57.75 39.1875C57.75 39.9898 57.8181 40.7756 57.8696 41.5656C57.8696 41.5718 57.8676 41.58 57.8676 41.5862C57.8676 41.6006 57.8717 41.613 57.8717 41.6274C57.948 42.7206 58.0759 43.7951 58.2491 44.8594C58.2594 44.9192 58.2656 44.979 58.2759 45.0368C58.4533 46.0804 58.6761 47.1054 58.9421 48.1161C58.9607 48.1903 58.9793 48.2625 58.9999 48.3368C59.2701 49.335 59.5836 50.3126 59.9383 51.2717C59.9672 51.348 59.994 51.4264 60.0229 51.5027C60.3817 52.4556 60.7819 53.3878 61.2191 54.2994C61.2542 54.3737 61.2913 54.45 61.3264 54.5243C61.7719 55.4338 62.2524 56.3186 62.7722 57.1828C62.8114 57.2488 62.8526 57.3148 62.8918 57.3808C63.2342 57.9398 63.5683 58.5028 63.9396 59.0411C63.9561 59.0679 63.9643 59.0989 63.9829 59.1257C64.4923 59.8599 65.0347 60.5633 65.5916 61.2521C65.7339 61.4254 65.8783 61.5966 66.0227 61.7678C66.6394 62.4999 67.2767 63.2115 67.947 63.8859C67.9821 63.921 68.0151 63.9581 68.0501 63.9932C68.7555 64.6965 69.4939 65.3565 70.2529 65.9959C70.4282 66.1423 70.6014 66.2888 70.7788 66.4331C71.5275 67.0395 72.2948 67.6191 73.0868 68.1594C73.2497 68.2708 73.4209 68.3719 73.5859 68.4812C74.2603 68.9246 74.9513 69.3433 75.6546 69.7393C75.8897 69.8713 76.1207 70.0095 76.3599 70.1374C77.154 70.5602 77.9666 70.95 78.7937 71.3109C79.0886 71.4409 79.3877 71.5605 79.6868 71.6822C79.7445 71.7049 79.8002 71.7296 79.8579 71.7523C76.4342 72.6371 73.2621 73.8478 70.4674 75.3473L20.7116 35.3389C18.4161 33.4929 15.5409 32.6968 12.6266 33.099C9.70818 33.4991 7.15687 35.0398 5.44499 37.4385C3.77643 39.7753 3.13293 42.6195 3.63412 45.4472C4.13118 48.2728 5.71106 50.7231 8.07881 52.3442ZM77.9811 121.888C77.7872 122.024 77.5789 122.133 77.3768 122.253C77.0839 122.43 76.7848 122.595 76.4754 122.744C76.1496 122.892 75.8175 123.026 75.4772 123.14C75.3287 123.191 75.1761 123.234 75.0255 123.28C73.0703 123.833 70.9479 123.814 68.9947 123.21C68.9287 123.189 68.8607 123.17 68.7967 123.148C68.3966 123.014 68.0068 122.847 67.6252 122.663C67.4066 122.556 67.1942 122.438 66.9838 122.315C66.7074 122.156 66.4311 121.995 66.1691 121.807C66.1176 121.77 66.0743 121.725 66.0227 121.685C69.5021 119.161 74.6089 119.186 78.1028 121.789C78.0574 121.82 78.0244 121.859 77.9811 121.888ZM71.9936 115.628C68.8359 115.628 65.7793 116.7 63.2878 118.604C62.4133 117.096 61.875 115.368 61.875 113.501C61.875 111.606 62.4277 109.853 63.327 108.329C65.8329 110.278 68.9246 111.375 72.1236 111.375C75.3184 111.375 78.4059 110.28 80.9098 108.337C80.9593 108.422 81.015 108.504 81.0624 108.593C81.1821 108.809 81.312 109.018 81.4172 109.244C81.5863 109.614 81.7142 110.006 81.84 110.397C81.9143 110.626 81.9968 110.853 82.0545 111.088C82.1535 111.497 82.2071 111.92 82.2546 112.344C82.2979 112.73 82.3721 113.105 82.3721 113.501C82.3721 115.424 81.807 117.206 80.8809 118.744C78.3606 116.752 75.2359 115.628 71.9936 115.628ZM66.1609 105.202C66.5796 104.901 67.0251 104.653 67.4747 104.42C67.5324 104.389 67.5881 104.356 67.6479 104.325C67.9717 104.173 68.3038 104.043 68.6421 103.925C68.8029 103.865 68.9659 103.812 69.1309 103.76C71.1129 103.181 73.2662 103.185 75.24 103.789C75.2813 103.802 75.3225 103.814 75.3617 103.826C75.7618 103.954 76.1496 104.121 76.5311 104.299C76.6611 104.36 76.7869 104.429 76.9148 104.497C77.0138 104.55 77.1148 104.602 77.2118 104.657C77.451 104.792 77.6861 104.932 77.913 105.086C77.9934 105.142 78.0677 105.21 78.1461 105.27C74.6584 107.815 69.5681 107.813 66.0846 105.262C66.1114 105.245 66.1341 105.221 66.1609 105.202ZM68.1285 99.7013C68.112 99.7054 68.0976 99.7136 68.0811 99.7178C67.7098 99.8271 67.3489 99.9549 66.9921 100.093C66.8931 100.13 66.792 100.161 66.6951 100.202C66.5651 100.256 66.4373 100.314 66.3094 100.37C66.3073 100.37 66.3052 100.372 66.3032 100.372C65.9072 100.549 65.5174 100.739 65.1399 100.949C63.0011 98.3936 61.8812 95.601 61.875 92.7919C61.875 92.2082 61.9307 91.6307 62.0214 91.0594C62.0462 90.9088 62.0792 90.7644 62.1101 90.618C62.1906 90.2117 62.2937 89.8095 62.4174 89.4115C62.4793 89.2135 62.5412 89.0134 62.6134 88.8216C62.7289 88.5081 62.8712 88.2008 63.0114 87.8935C63.0878 87.7326 63.1537 87.5635 63.2342 87.4067C63.2548 87.3737 63.2899 87.3531 63.3084 87.318C63.6384 86.691 64.0489 86.0516 64.5624 85.3628C64.5872 85.3277 64.5954 85.2864 64.614 85.2493C64.812 84.9894 65.0162 84.744 65.2245 84.5027C65.4204 84.2717 65.6597 84.0304 65.8989 83.7849C65.8989 83.7849 65.8989 83.7849 65.901 83.7849L65.9175 83.7685C66.0557 83.6241 66.2083 83.4983 66.3506 83.3559C68.8236 86.2249 70.125 89.4486 70.125 92.7754C70.125 95.1473 69.4526 97.4738 68.1285 99.7013ZM86.2517 110.927C86.1795 110.527 86.0867 110.138 85.9815 109.75C85.9733 109.719 85.965 109.686 85.9568 109.655C85.8557 109.294 85.7402 108.939 85.6123 108.591C85.5896 108.529 85.569 108.467 85.5443 108.407C85.4184 108.075 85.2803 107.751 85.1318 107.432C85.0988 107.361 85.0637 107.291 85.0307 107.221C84.8781 106.91 84.7193 106.604 84.546 106.305C84.5068 106.239 84.4676 106.175 84.4284 106.109C84.2469 105.808 84.0613 105.513 83.8592 105.229C83.8303 105.19 83.7994 105.152 83.7726 105.111C83.4694 104.69 83.1435 104.29 82.797 103.905C82.7867 103.892 82.7826 103.876 82.7723 103.865C82.7331 103.822 82.6877 103.785 82.6485 103.744C82.3845 103.459 82.1123 103.189 81.8256 102.927C81.7472 102.855 81.6709 102.785 81.5904 102.715C81.2893 102.449 80.9758 102.199 80.652 101.96C80.5943 101.916 80.5365 101.869 80.4788 101.828C80.4313 101.793 80.3839 101.758 80.3364 101.725C80.1054 101.562 79.8641 101.413 79.6228 101.265C79.4908 101.182 79.3588 101.1 79.2227 101.021C78.9979 100.893 78.7669 100.774 78.5338 100.656C78.3688 100.574 78.2059 100.493 78.0368 100.417C78.0058 100.403 77.9749 100.386 77.9419 100.372C77.9398 100.372 77.9378 100.37 77.9357 100.37C77.748 100.287 77.5562 100.211 77.3644 100.134C77.1705 100.058 76.9766 99.9879 76.7786 99.9199C76.5641 99.8456 76.3496 99.7735 76.131 99.7116C75.9041 99.6456 75.6731 99.5899 75.4421 99.5342C75.2441 99.4868 75.0461 99.4373 74.844 99.3981C74.5656 99.3445 74.283 99.3073 73.9984 99.2681C73.8767 99.2516 73.7571 99.2248 73.6354 99.2124C73.6313 99.2124 73.6271 99.2104 73.623 99.2104C73.5838 99.2063 73.5426 99.2042 73.5034 99.2001C73.3157 99.1815 73.1259 99.1774 72.9383 99.1671C73.7798 97.0943 74.25 94.9616 74.25 92.7754C74.25 88.4565 72.6144 84.3356 69.5145 80.7263C69.6692 80.6211 69.8053 80.52 69.9683 80.4107C70.3952 80.1261 70.8221 79.8435 71.2779 79.5774C71.3872 79.5135 71.4801 79.431 71.5749 79.3506C77.1231 76.1991 84.5873 74.25 92.8125 74.25C102.141 74.25 110.501 76.7518 116.177 80.6829C113.033 84.3088 111.375 88.4606 111.375 92.8125C111.375 97.1644 113.033 101.316 116.177 104.942C114.45 106.138 112.487 107.205 110.309 108.106C110.208 108.131 110.105 108.147 110.006 108.186C107.023 109.401 103.725 110.284 100.202 110.812C100.19 110.814 100.18 110.82 100.167 110.822C97.8038 111.171 95.3514 111.375 92.8125 111.375C90.6634 111.375 88.4648 111.224 86.2517 110.927ZM89.4836 69.9291C89.1474 69.8919 88.8195 69.8342 88.4874 69.7868C88.4854 69.7868 88.4854 69.7868 88.4833 69.7868C87.7202 69.6774 86.9612 69.5454 86.2125 69.3825C85.8804 69.3103 85.5525 69.2299 85.2246 69.1453C85.1565 69.1288 85.0884 69.1103 85.0204 69.0917C84.3418 68.9143 83.6715 68.7081 83.0074 68.4853C82.7537 68.4008 82.5 68.3203 82.2484 68.2275C82.0834 68.1677 81.9163 68.1099 81.7534 68.046C81.0129 67.7614 80.289 67.4438 79.5754 67.1034C79.5465 67.089 79.5156 67.0787 79.4867 67.0643C79.2784 66.9653 79.0701 66.8683 78.8638 66.7652C78.5173 66.5878 78.1853 66.3878 77.847 66.198C77.3685 65.9319 76.89 65.6679 76.4259 65.3771C75.9062 65.0492 75.4029 64.6965 74.9038 64.3397C74.5738 64.1046 74.25 63.8653 73.9283 63.6158C73.4023 63.2074 72.8826 62.7908 72.3834 62.3494C72.1586 62.1514 71.9441 61.9369 71.7255 61.7306C71.2223 61.2583 70.719 60.786 70.2488 60.2828C70.2405 60.2724 70.2323 60.2642 70.2219 60.2539C69.6094 59.5959 69.0257 58.9112 68.4709 58.2038C68.4606 58.1914 68.4482 58.179 68.4379 58.1666C68.3059 57.9975 68.1924 57.8119 68.0625 57.6386C68.4028 56.8961 68.7823 56.1701 69.1989 55.4751C70.6592 53.0248 72.4783 49.9785 75.7742 48.7307C80.1818 47.0559 84.8265 49.6794 90.1973 52.7196C92.3897 53.9612 94.6584 55.2441 97.053 56.3042C102.618 58.7668 108.861 59.994 115.71 59.9177C115.488 60.1631 115.271 60.4148 115.04 60.654C114.782 60.9201 114.52 61.1799 114.256 61.4378C113.784 61.8936 113.301 62.3349 112.8 62.7598C112.518 62.9991 112.227 63.2301 111.936 63.459C111.433 63.8571 110.921 64.2469 110.393 64.614C110.059 64.845 109.717 65.0574 109.374 65.274C108.865 65.5999 108.353 65.9216 107.823 66.2186C107.411 66.4476 106.986 66.6518 106.563 66.8621C106.079 67.1034 105.596 67.353 105.097 67.5696C104.577 67.7944 104.043 67.9841 103.511 68.1801C103.08 68.3409 102.655 68.5142 102.213 68.6565C101.574 68.8607 100.92 69.0195 100.266 69.1804C99.9054 69.2711 99.5528 69.3825 99.1877 69.4588C98.4246 69.6197 97.647 69.7269 96.8674 69.8301C96.591 69.8672 96.3208 69.927 96.0403 69.9559C94.9761 70.0652 93.8994 70.125 92.8125 70.125C91.6926 70.125 90.5829 70.0487 89.4836 69.9291ZM122.958 88.6978C123.069 88.9824 123.158 89.2794 123.249 89.5764C123.338 89.8776 123.416 90.1787 123.48 90.4839C123.525 90.6964 123.575 90.9068 123.608 91.1254C123.692 91.6823 123.75 92.2433 123.75 92.8125C123.75 93.3818 123.692 93.9428 123.608 94.4996C123.575 94.7183 123.525 94.9286 123.48 95.1411C123.416 95.4463 123.338 95.7474 123.249 96.0486C123.158 96.3456 123.069 96.6426 122.958 96.9272C122.931 96.9973 122.896 97.0633 122.869 97.1335C122.028 99.1753 120.689 100.904 119.312 102.275C116.812 99.396 115.5 96.1558 115.5 92.8125C115.5 89.4692 116.812 86.229 119.312 83.3518C120.689 84.7213 122.028 86.4497 122.869 88.4936C122.896 88.5617 122.931 88.6298 122.958 88.6978ZM110.498 112.423L114.308 115.121C114.656 115.368 115.073 115.5 115.5 115.5H117.563C119.837 115.5 121.688 117.35 121.688 119.625C121.688 121.9 119.837 123.75 117.563 123.75C115.288 123.75 113.438 121.9 113.438 119.625C113.438 118.913 113.07 118.251 112.466 117.874L105.994 113.84C106.081 113.817 106.159 113.784 106.244 113.761C107.477 113.429 108.669 113.05 109.826 112.633C110.045 112.557 110.282 112.503 110.498 112.423ZM118.963 55.6442C111.425 56.1722 104.612 55.1389 98.7236 52.5319C96.5126 51.5522 94.3367 50.3209 92.2288 49.1288C86.4827 45.8783 80.5406 42.5102 74.3119 44.8738C69.6713 46.6311 67.2561 50.6798 65.6556 53.361C65.6019 53.4497 65.5586 53.5466 65.505 53.6374C63.7333 50.3003 62.5453 46.6001 62.1039 42.669C71.0985 38.3089 80.652 35.4936 90.519 34.2911C101.609 32.9423 112.73 33.6621 123.599 36.4258C123.61 36.5289 123.614 36.6218 123.622 36.7228C123.69 37.5396 123.75 38.3563 123.75 39.1875C123.75 45.2389 121.978 50.8716 118.963 55.6442ZM122.88 32.0265C112.066 29.4896 101.032 28.8564 90.0261 30.1971C80.2911 31.3809 70.8572 34.0808 61.9266 38.2078C62.04 34.584 62.7742 31.119 64.0365 27.9098C65.9711 28.3346 67.8542 28.5533 69.6774 28.5533C71.7379 28.5533 73.722 28.281 75.6154 27.7365C79.6084 26.5898 82.1081 24.5623 85.2741 21.9986C86.9715 20.6229 88.8979 19.0637 91.4492 17.2961C95.3226 14.6149 99.495 12.2781 103.847 10.3187C113.287 13.9404 120.5 22.044 122.88 32.0265ZM66.924 22.2998C67.1942 21.8852 67.485 21.4871 67.7758 21.0891C67.9841 20.8024 68.1945 20.5178 68.4111 20.2393C68.7081 19.8578 69.0071 19.4783 69.3206 19.1111C69.5702 18.8203 69.8321 18.5439 70.092 18.2614C70.6344 17.6715 71.1975 17.1043 71.7833 16.5619C72.0266 16.335 72.27 16.1102 72.5216 15.8895C72.9053 15.5554 73.293 15.2274 73.6931 14.9119C73.9138 14.7386 74.1428 14.5757 74.3676 14.4066C75.1121 13.8518 75.8794 13.3299 76.6693 12.8432C76.9044 12.6988 77.1354 12.5524 77.3747 12.4142C77.8326 12.1481 78.2987 11.8944 78.7689 11.6531C79.0329 11.5191 79.3011 11.3953 79.5692 11.2674C80.3241 10.9086 81.0934 10.5806 81.8751 10.2816C82.2443 10.1413 82.6114 9.999 82.9868 9.87319C83.4034 9.73294 83.8262 9.60094 84.2511 9.47925C84.7956 9.3225 85.3442 9.18225 85.9011 9.05438C86.2785 8.96775 86.658 8.88113 87.0396 8.80894C87.7656 8.67075 88.4978 8.55731 89.2403 8.47275C89.5104 8.44181 89.7827 8.41294 90.0549 8.39025C90.9666 8.30981 91.8823 8.25 92.8125 8.25C93.753 8.25 94.6791 8.30775 95.5969 8.39025C96.0527 8.43356 96.5064 8.4975 96.9602 8.56144C97.2242 8.5965 97.4861 8.63981 97.7481 8.68106C94.7492 10.2506 91.8555 11.9976 89.1 13.9054C86.4208 15.7596 84.4305 17.3724 82.6753 18.7935C79.6558 21.2396 77.6614 22.8566 74.4728 23.7724C71.7915 24.5417 68.9514 24.6469 65.8453 24.0756C66.1753 23.4898 66.5239 22.9164 66.8869 22.3575C66.9013 22.3389 66.9116 22.3183 66.924 22.2998ZM8.80068 39.8372C9.84637 38.3728 11.4056 37.4303 13.1876 37.1869C13.4887 37.1436 13.7899 37.125 14.0889 37.125C15.5533 37.125 16.962 37.6179 18.1273 38.5543L66.726 77.6243C66.3032 77.9254 65.8969 78.2348 65.5029 78.5524C65.4885 78.5627 65.4741 78.573 65.4596 78.5854L65.4534 78.5895L65.2307 78.7751C65.1874 78.8061 65.1337 78.8184 65.0925 78.8535C64.0757 79.7012 63.1826 80.5943 62.3721 81.51C62.3329 81.5533 62.2875 81.5966 62.2483 81.642C61.8069 81.9864 61.4625 82.4361 61.1841 82.9785C61.0727 83.127 60.9531 83.2735 60.8479 83.424L10.4094 48.9411C8.96362 47.9511 8.00043 46.4558 7.69518 44.7294C7.38787 43.0011 7.78181 41.2644 8.80068 39.8372Z" fill="#59C3FF"/>
<path d="M98.9999 89.0917V92.8125H103.125V89.8384C104.228 90.0756 105.406 90.3458 106.743 90.6861L107.757 86.6889C106.035 86.2517 104.511 85.9031 103.123 85.6226V80.4375H98.9979V84.9338C97.5252 84.7461 96.1867 84.6491 94.8729 84.6017V80.4375H90.7479V84.5996C89.2299 84.6491 87.8686 84.7522 86.6229 84.8966V80.4375H82.4979V85.5752C81.116 85.866 79.8125 86.1919 78.4966 86.5281L77.8655 86.6889L78.8802 90.6861L79.5155 90.5252C80.5261 90.2674 81.5017 90.0199 82.4979 89.793V92.8125H86.6229V89.0546C87.8624 88.8958 89.2092 88.7783 90.7479 88.7246V92.8125H94.8729V88.7288C96.1846 88.7783 97.5129 88.8855 98.9999 89.0917Z" fill="#59C3FF"/>
</svg>
