<svg width="170" height="213" viewBox="0 0 170 213" fill="none" xmlns="http://www.w3.org/2000/svg">
<path d="M75.665 55.7345C75.665 41.1476 63.7974 29.2799 49.2104 29.2799C34.6235 29.2799 22.7559 41.1476 22.7559 55.7345C22.7559 65.2165 27.9546 73.9755 36.033 78.6438C28.9142 82.1219 24.2176 89.4083 24.2176 97.5588V151.3C24.2176 152.239 24.9788 153 25.9176 153H144.937C145.876 153 146.637 152.239 146.637 151.3V85.2496C146.637 77.0999 141.94 69.8135 134.821 66.3355C142.9 61.6671 148.098 52.9081 148.098 43.4261C148.098 28.8383 136.231 16.9707 121.644 16.9707C107.057 16.9707 95.1893 28.8383 95.1893 43.4261C95.1893 52.9081 100.388 61.6663 108.466 66.3355C101.818 69.5838 97.2849 76.1545 96.7147 83.6475C93.2916 81.5263 89.2722 80.2799 84.9578 80.2799C79.4353 80.2799 74.3814 82.2974 70.4706 85.6215C68.4091 82.6446 65.6168 80.234 62.3821 78.6472C70.4638 73.9796 75.665 65.219 75.665 55.7345ZM100.051 85.2496C100.051 77.2302 105.475 70.2086 113.241 68.1732C113.956 67.9865 114.467 67.3589 114.508 66.6218C114.548 65.8839 114.108 65.2049 113.418 64.9409C104.548 61.5467 98.5893 52.9006 98.5893 43.4261C98.5893 30.7135 108.931 20.3707 121.644 20.3707C134.357 20.3707 144.698 30.7135 144.698 43.4261C144.698 52.9006 138.739 61.5467 129.87 64.9409C129.18 65.2049 128.739 65.8839 128.78 66.6218C128.821 67.3589 129.332 67.9865 130.047 68.1732C137.813 70.2086 143.237 77.2302 143.237 85.2496V149.6H106.147V137.688C106.147 130.935 102.355 124.882 96.5606 121.843C103.154 117.828 107.371 110.554 107.371 102.693C107.371 96.1512 104.536 90.2738 100.051 86.1726V85.2496V85.2496ZM103.971 102.693C103.971 110.506 99.0566 117.637 91.742 120.436C91.0522 120.7 90.6114 121.379 90.6521 122.117C90.6928 122.854 91.2041 123.481 91.9188 123.668C98.2946 125.338 102.747 131.104 102.747 137.688V149.6H67.1684V137.688C67.1684 131.104 71.6217 125.339 77.9976 123.668C78.7123 123.481 79.2236 122.854 79.2643 122.117C79.3049 121.379 78.8642 120.7 78.1744 120.436C70.8597 117.637 65.9448 110.506 65.9448 102.693C65.9448 92.209 74.4739 83.6799 84.9578 83.6799C95.4417 83.6799 103.971 92.209 103.971 102.693ZM57.4365 77.2493C56.7467 77.5133 56.3068 78.1923 56.3466 78.9302C56.3873 79.6673 56.8986 80.2949 57.6133 80.4816C61.9015 81.6059 65.6218 84.3508 68.0095 88.0703C64.6143 91.9999 62.5448 97.1047 62.5448 102.693C62.5448 110.554 66.7625 117.828 73.3558 121.843C67.561 124.882 63.7684 130.935 63.7684 137.688V149.6H27.6176V97.5588C27.6176 89.5386 33.0414 82.517 40.8076 80.4816C41.5223 80.2949 42.0336 79.6673 42.0743 78.9302C42.1149 78.1923 41.6742 77.5133 40.9844 77.2493C32.115 73.8551 26.1559 65.209 26.1559 55.7345C26.1559 43.0219 36.4978 32.6799 49.2104 32.6799C61.9231 32.6799 72.265 43.0219 72.265 55.7345C72.265 65.209 66.3059 73.8551 57.4365 77.2493Z" fill="#59C3FF"/>
<path d="M85 113.882C87.8015 113.882 90.4926 112.684 92.3819 110.594C93.0119 109.898 92.9579 108.822 92.2615 108.193C91.5651 107.564 90.4885 107.617 89.8601 108.313C88.6141 109.692 86.8428 110.482 85 110.482C83.1572 110.482 81.3858 109.692 80.1399 108.313C79.5107 107.617 78.4357 107.564 77.7385 108.193C77.042 108.822 76.9881 109.898 77.6181 110.594C79.5074 112.684 82.1985 113.882 85 113.882Z" fill="#59C3FF"/>
<path d="M53.6447 63.7294C52.3987 65.1073 50.6265 65.8976 48.7846 65.8976C46.9418 65.8976 45.1704 65.1073 43.9245 63.7302C43.2961 63.0321 42.2195 62.979 41.5239 63.609C40.8266 64.2382 40.7727 65.3132 41.4027 66.0104C43.2911 68.0989 45.9822 69.2976 48.7846 69.2976C51.5861 69.2976 54.2764 68.0998 56.1665 66.0104C56.7965 65.314 56.7425 64.2391 56.0461 63.609C55.3497 62.9807 54.2739 63.0321 53.6447 63.7294Z" fill="#59C3FF"/>
<path d="M128.597 54.11C129.227 53.4127 129.174 52.3378 128.476 51.7086C127.781 51.0794 126.705 51.1325 126.076 51.8298C124.83 53.2069 123.058 53.9971 121.216 53.9971C119.374 53.9971 117.601 53.2069 116.355 51.829C115.725 51.1325 114.65 51.0794 113.954 51.7086C113.258 52.3386 113.204 53.4136 113.834 54.11C115.724 56.1993 118.414 57.3971 121.216 57.3971C124.018 57.3971 126.709 56.1985 128.597 54.11Z" fill="#59C3FF"/>
</svg>
