<svg width="143" height="178" viewBox="0 0 143 178" fill="none" xmlns="http://www.w3.org/2000/svg">
<g clip-path="url(#clip0)">
<path d="M71.3426 40.1572C54.1122 40.1572 40.157 54.1124 40.157 71.2004C40.157 88.2884 54.1122 102.386 71.3426 102.386C88.573 102.386 102.386 88.4308 102.386 71.2004C102.386 53.97 88.4306 40.1572 71.3426 40.1572ZM76.8962 55.9636C75.045 56.2484 73.1938 56.3908 71.3426 56.3908C69.4914 56.3908 67.6402 56.2484 65.789 55.9636C67.3554 49.2708 69.7762 45.426 71.3426 45.426C72.909 45.426 75.3298 49.2708 76.8962 55.9636ZM79.317 46.85C82.7346 47.9892 85.8674 49.8404 88.4306 52.1188C86.5794 53.258 84.4434 54.1124 82.0226 54.8244C81.453 51.834 80.4562 49.1284 79.317 46.85ZM64.2226 68.4948C64.365 65.9316 64.5074 63.5108 64.7922 61.2324C66.9282 61.5172 69.0642 61.6596 71.3426 61.6596C73.621 61.6596 75.757 61.5172 77.893 61.2324C78.1778 63.3684 78.4626 65.7892 78.4626 68.4948H64.2226ZM78.4626 73.906C78.3202 76.4692 78.1778 78.89 77.893 81.026C75.757 80.7412 73.621 80.5988 71.3426 80.5988C69.2066 80.5988 66.9282 80.7412 64.7922 81.026C64.5074 78.89 64.2226 76.4692 64.2226 73.906H78.4626ZM60.5202 54.8244C58.2418 54.1124 56.1058 53.258 54.1122 52.1188C56.6754 49.698 59.8082 47.9892 63.2258 46.85C62.0866 49.1284 61.2322 51.834 60.5202 54.8244ZM59.5234 60.2356C59.0962 62.9412 58.9538 65.7892 58.8114 68.6372H45.7106C46.1378 64.0804 47.8466 59.8084 50.4098 56.2484C53.1154 57.9572 56.2482 59.2388 59.5234 60.2356ZM58.8114 73.906C58.9538 76.754 59.0962 79.602 59.5234 82.3076C56.2482 83.3044 53.1154 84.586 50.4098 86.2948C47.8466 82.7348 46.1378 78.6052 45.7106 73.906H58.8114V73.906ZM60.5202 87.5764C61.2322 90.5668 62.0866 93.4148 63.2258 95.6932C59.8082 94.554 56.6754 92.7028 54.1122 90.4244C56.1058 89.1428 58.0994 88.2884 60.5202 87.5764ZM65.789 86.4372C67.6402 86.1524 69.4914 86.01 71.3426 86.01C73.1938 86.01 75.045 86.1524 76.8962 86.4372C75.3298 93.13 72.909 96.9748 71.3426 96.9748C69.7762 96.9748 67.3554 93.13 65.789 86.4372ZM82.165 87.5764C84.4434 88.2884 86.5794 89.1428 88.573 90.282C86.0098 92.7028 82.877 94.4116 79.4594 95.5508C80.4562 93.4148 81.453 90.5668 82.165 87.5764ZM83.0194 82.3076C83.4466 79.602 83.589 76.754 83.7314 73.906H96.8322C96.405 78.4628 94.6962 82.7348 92.133 86.2948C89.4274 84.586 86.437 83.162 83.0194 82.3076ZM83.7314 68.4948C83.589 65.6468 83.4466 62.7988 83.0194 60.0932C86.2946 59.0964 89.4274 57.8148 92.133 56.106C94.6962 59.666 96.405 63.7956 96.8322 68.4948H83.7314V68.4948Z" fill="#59C3FF"/>
<path d="M71.3426 17.5153C75.1962 17.5153 78.3202 14.3913 78.3202 10.5377C78.3202 6.68404 75.1962 3.56006 71.3426 3.56006C67.489 3.56006 64.365 6.68404 64.365 10.5377C64.365 14.3913 67.489 17.5153 71.3426 17.5153Z" fill="#59C3FF"/>
<path d="M62.3711 32.6094C65.2191 33.179 68.2095 33.4638 71.3423 33.4638C74.4751 33.4638 77.4655 33.179 80.3135 32.6094C81.3103 32.467 82.0223 31.4702 81.8799 30.331L81.1679 24.7774C80.8831 22.499 79.6015 20.5054 77.7503 19.3662C75.8991 20.6478 73.7631 21.5022 71.3423 21.5022C68.9215 21.5022 66.6431 20.6478 64.9343 19.3662C63.0831 20.5054 61.8015 22.499 61.5167 24.7774L60.8047 30.331C60.5199 31.3278 61.2319 32.3246 62.3711 32.6094Z" fill="#59C3FF"/>
<path d="M33.2571 33.1477C35.982 30.4228 35.982 26.0049 33.2571 23.28C30.5323 20.5551 26.1143 20.5551 23.3894 23.28C20.6645 26.0049 20.6645 30.4228 23.3894 33.1477C26.1143 35.8726 30.5323 35.8726 33.2571 33.1477Z" fill="#59C3FF"/>
<path d="M31.4704 45.2828L34.888 49.6973C35.6 50.5517 36.7392 50.694 37.5936 50.1244C40.0144 48.558 42.2928 46.5644 44.5712 44.4284C46.8496 42.15 48.7008 39.8716 50.2672 37.4508C50.8368 36.5964 50.6944 35.3148 49.84 34.7452L45.4256 31.3276C43.5744 29.9036 41.296 29.4764 39.16 29.9036C38.8752 32.182 37.8784 34.318 36.1696 36.0268C34.4608 37.7356 32.3248 38.7324 30.0464 39.0172C29.4768 41.1532 30.0464 43.4316 31.4704 45.2828Z" fill="#59C3FF"/>
<path d="M10.5377 78.0353C14.3913 78.0353 17.5153 74.9113 17.5153 71.0577C17.5153 67.2041 14.3913 64.0801 10.5377 64.0801C6.68404 64.0801 3.56006 67.2041 3.56006 71.0577C3.56006 74.9113 6.68404 78.0353 10.5377 78.0353Z" fill="#59C3FF"/>
<path d="M30.3313 81.7379C31.3281 81.8803 32.3249 81.1683 32.6097 80.1715C33.1793 77.3235 33.4641 74.3331 33.4641 71.2003C33.4641 68.0675 33.1793 65.0771 32.6097 62.2291C32.4673 61.2323 31.4705 60.5203 30.3313 60.6627L24.7777 61.2323C22.4993 61.5171 20.5057 62.7987 19.3665 64.6499C20.6481 66.5011 21.5025 68.6371 21.5025 71.0579C21.5025 73.4787 20.6481 75.7571 19.3665 77.4659C20.5057 79.3171 22.4993 80.5987 24.7777 80.8835L30.3313 81.7379Z" fill="#59C3FF"/>
<path d="M33.1461 119.01C35.871 116.285 35.871 111.867 33.1461 109.142C30.4212 106.417 26.0032 106.417 23.2783 109.142C20.5534 111.867 20.5534 116.285 23.2783 119.01C26.0032 121.735 30.4212 121.735 33.1461 119.01Z" fill="#59C3FF"/>
<path d="M44.4289 97.8288C42.1505 95.5504 39.8721 93.6992 37.4513 92.1328C36.5969 91.5632 35.3153 91.7056 34.7457 92.56L31.3281 96.9744C29.9041 98.8256 29.4769 101.104 29.9041 103.24C32.1825 103.525 34.3185 104.664 36.0273 106.23C37.7361 107.939 38.7329 110.075 39.0177 112.354C41.1537 112.923 43.4321 112.354 45.2833 110.93L49.6977 107.512C50.5521 106.8 50.6945 105.661 50.1249 104.806C48.5585 102.386 46.7073 100.107 44.4289 97.8288Z" fill="#59C3FF"/>
<path d="M71.0577 138.84C74.9113 138.84 78.0353 135.716 78.0353 131.862C78.0353 128.009 74.9113 124.885 71.0577 124.885C67.2041 124.885 64.0801 128.009 64.0801 131.862C64.0801 135.716 67.2041 138.84 71.0577 138.84Z" fill="#59C3FF"/>
<path d="M80.0289 109.79C77.1809 109.221 74.1905 108.936 71.0577 108.936C67.9249 108.936 64.9345 109.221 62.0865 109.79C61.0897 109.933 60.3777 110.93 60.5201 112.069L61.2321 117.622C61.5169 119.901 62.7985 121.894 64.6497 123.034C66.5009 121.752 68.6369 120.898 71.0577 120.898C73.4785 120.898 75.7569 121.752 77.4657 123.034C79.3169 121.894 80.5985 119.901 80.8833 117.622L81.5953 112.069C81.8801 111.072 81.1681 110.075 80.0289 109.79Z" fill="#59C3FF"/>
<path d="M119.009 119.121C121.734 116.396 121.734 111.978 119.009 109.253C116.284 106.528 111.866 106.528 109.141 109.253C106.416 111.978 106.416 116.396 109.141 119.121C111.866 121.846 116.284 121.846 119.009 119.121Z" fill="#59C3FF"/>
<path d="M110.93 97.1169L107.512 92.7025C106.8 91.8481 105.661 91.7058 104.806 92.2754C102.386 93.8418 100.107 95.8354 97.8288 97.9714C95.5504 100.25 93.6992 102.528 92.1328 104.949C91.5632 105.803 91.7056 107.085 92.56 107.655L96.9744 111.072C98.8256 112.496 101.104 112.923 103.24 112.496C103.525 110.218 104.664 108.082 106.23 106.373C107.939 104.664 110.075 103.667 112.354 103.383C112.923 101.247 112.354 98.9681 110.93 97.1169Z" fill="#59C3FF"/>
<path d="M131.862 78.3204C135.716 78.3204 138.84 75.1965 138.84 71.3428C138.84 67.4892 135.716 64.3652 131.862 64.3652C128.009 64.3652 124.885 67.4892 124.885 71.3428C124.885 75.1965 128.009 78.3204 131.862 78.3204Z" fill="#59C3FF"/>
<path d="M117.622 61.3747L112.069 60.6627C111.072 60.5203 110.075 61.2323 109.79 62.2291C109.221 65.0771 108.936 68.0675 108.936 71.2003C108.936 74.3331 109.221 77.3235 109.79 80.1715C109.933 81.1683 110.93 81.8803 112.069 81.7379L117.622 81.0259C119.901 80.7411 121.894 79.4595 123.034 77.6083C121.752 75.7571 120.898 73.6211 120.898 71.2003C120.898 68.7795 121.752 66.5011 123.034 64.7923C121.894 62.9411 119.901 61.6595 117.622 61.3747Z" fill="#59C3FF"/>
<path d="M119.12 33.2581C121.845 30.5332 121.845 26.1153 119.12 23.3904C116.395 20.6655 111.977 20.6655 109.252 23.3904C106.527 26.1153 106.527 30.5332 109.252 33.2581C111.977 35.983 116.395 35.983 119.12 33.2581Z" fill="#59C3FF"/>
<path d="M97.9714 44.5712C100.25 46.8496 102.528 48.7008 104.949 50.2672C105.803 50.8368 107.085 50.6944 107.655 49.84L111.072 45.4256C112.496 43.5744 112.923 41.296 112.496 39.16C110.218 38.8752 108.082 37.736 106.373 36.1696C104.664 34.4608 103.667 32.3248 103.383 30.0464C101.247 29.4768 98.9681 30.0464 97.1169 31.4704L92.7025 34.888C91.8481 35.6 91.7058 36.7392 92.2754 37.5936C93.8418 40.0144 95.693 42.2928 97.9714 44.5712Z" fill="#59C3FF"/>
</g>
<defs>
<clipPath id="clip0">
<rect width="142.4" height="178" fill="white"/>
</clipPath>
</defs>
</svg>
