<svg width="130" height="163" viewBox="0 0 130 163" fill="none" xmlns="http://www.w3.org/2000/svg">
<path d="M125.046 20.6618C124.771 20.4755 124.454 20.3595 124.123 20.3241C123.793 20.2887 123.459 20.3349 123.151 20.4586L113.36 24.3749H105.625C105.198 24.3748 104.783 24.5089 104.437 24.7583C104.091 25.0077 103.832 25.3596 103.697 25.7643L101.95 31.0069L97.0551 33.1824L67.1958 46.4586C65.183 45.2946 62.9513 44.5591 60.6408 44.2984C58.3303 44.0376 55.9908 44.2572 53.7692 44.9433L52.8125 44.86V41.8802L59.8142 38.3905C60.0092 38.2917 60.1874 38.1628 60.3423 38.0086L81.8147 16.5261L82.2209 16.1199L93.7686 14.1943C94.0422 14.1486 94.3036 14.0474 94.5366 13.8968C94.7697 13.7462 94.9694 13.5495 95.1234 13.3188L99.1859 7.22505C99.3909 6.91938 99.509 6.56376 99.5276 6.19619C99.5462 5.82861 99.4646 5.4629 99.2914 5.13812C99.1183 4.81334 98.8602 4.5417 98.5446 4.35223C98.2291 4.16276 97.868 4.06258 97.5 4.06239H81.3597C79.4721 4.06066 77.6534 4.7716 76.2673 6.05302L74.5408 7.64755L52.0183 28.4374H51.9167C52.3188 27.893 52.6594 27.3057 52.9323 26.6865L54.4944 22.9957L55.3069 21.0782C55.9649 19.5258 56.176 17.8204 55.9162 16.1544C57.1124 16.3525 58.3405 16.1893 59.4434 15.6856C60.5464 15.182 61.4739 14.3607 62.1075 13.327C62.7411 12.2932 63.0519 11.0939 63.0002 9.88253C62.9485 8.67115 62.5365 7.50275 61.8171 6.52678C61.0976 5.55081 60.1034 4.81164 58.9616 4.40384C57.8197 3.99604 56.5822 3.93814 55.4072 4.23754C54.2323 4.53695 53.1734 5.18005 52.366 6.08458C51.5585 6.98911 51.0393 8.11395 50.8747 9.3152C50.7345 9.24817 50.6127 9.15473 50.4684 9.09583C49.9663 8.88769 49.4461 8.72587 48.9145 8.61239C48.7926 8.58598 48.6728 8.55552 48.553 8.53114C48.0835 8.44651 47.608 8.39897 47.1311 8.38895C46.9544 8.38895 46.7797 8.38895 46.605 8.39911C46.2245 8.41119 45.8453 8.44783 45.4695 8.5088C45.2441 8.54536 45.0247 8.59005 44.8053 8.64286C44.4718 8.7221 44.1429 8.81975 43.8202 8.93536C43.6272 9.00442 43.4362 9.07348 43.2494 9.15473C42.8717 9.31786 42.5053 9.50582 42.1525 9.71739L42.1281 9.73973C40.5039 10.7242 39.2294 12.1934 38.4841 13.9404L36.1075 19.5507C36.0628 19.6543 36.0466 19.766 36.008 19.8696L27.7002 7.40989C27.0158 6.37823 26.0863 5.53241 24.9948 4.94821C23.9033 4.364 22.6839 4.05964 21.4459 4.06239H6.09375C5.7719 4.06231 5.45463 4.13872 5.1681 4.28531C4.88156 4.43191 4.63397 4.64449 4.44571 4.90555C4.25746 5.16661 4.13393 5.46867 4.08532 5.78683C4.0367 6.10499 4.06439 6.43015 4.1661 6.73552L6.19735 12.8293C6.3141 13.1794 6.52405 13.4911 6.80462 13.7309C7.0852 13.9706 7.42581 14.1294 7.78984 14.1902L19.0023 16.059L30.2656 36.6965L29.9325 37.5293C28.8805 40.2046 28.8253 43.169 29.7769 45.8817C30.7285 48.5944 32.6235 50.8747 35.1162 52.3066L40.6677 61.561L42.9934 97.6299L44.6976 124.036C44.7306 124.55 44.9577 125.033 45.333 125.386C45.7082 125.739 46.2036 125.936 46.7187 125.937H52.8125C53.2808 125.937 53.7347 125.776 54.0974 125.48C54.4602 125.184 54.7095 124.771 54.8031 124.312L56.7572 114.55L60.5962 108.792C60.8189 108.458 60.9378 108.066 60.9378 107.664C60.9378 107.263 60.8189 106.871 60.5962 106.537L56.9116 101.01L57.1147 97.6279L58.8412 68.2763L103.831 43.4443L116.689 36.3491L124.814 32.2866C125.152 32.1179 125.436 31.8584 125.634 31.5373C125.833 31.2162 125.938 30.8461 125.937 30.4686V22.3436C125.938 22.0118 125.856 21.685 125.701 21.3918C125.545 21.0986 125.32 20.8479 125.046 20.6618V20.6618ZM79.0156 9.03895C79.6531 8.44859 80.4908 8.12194 81.3597 8.12489H93.7036L92.235 10.3288L80.9148 12.2158C80.8703 12.2217 80.8262 12.2305 80.7828 12.2422L78.6439 9.39848L79.0156 9.03895ZM46.3917 12.5043C46.6758 12.4664 46.9625 12.4528 47.2489 12.4636C47.3606 12.4636 47.4723 12.4819 47.5861 12.4982C48.024 12.5518 48.453 12.6632 48.8617 12.8293H48.8759C49.4901 13.0887 50.0467 13.4676 50.5132 13.9439C50.9798 14.4202 51.3471 14.9845 51.5937 15.604C51.7107 15.8964 51.8005 16.199 51.8619 16.5079C51.8822 16.6094 51.8862 16.711 51.9005 16.8166C51.9313 17.0185 51.9503 17.2219 51.9573 17.426C51.9573 17.5458 51.9573 17.6657 51.9411 17.7855C51.9309 17.9767 51.9106 18.1673 51.8802 18.3563C51.8578 18.4782 51.8294 18.6 51.7989 18.7219C51.7766 18.8093 51.7441 18.8946 51.7177 18.9799L51.0453 18.4843C48.9512 16.8982 47.2227 14.8802 45.9773 12.5672C46.1094 12.5388 46.2516 12.5185 46.3917 12.5043ZM56.875 8.12489C57.2767 8.12489 57.6695 8.24402 58.0035 8.46722C58.3375 8.69041 58.5979 9.00765 58.7516 9.37882C58.9054 9.74998 58.9456 10.1584 58.8672 10.5524C58.7888 10.9464 58.5954 11.3084 58.3113 11.5925C58.0272 11.8765 57.6653 12.07 57.2713 12.1484C56.8772 12.2267 56.4688 12.1865 56.0977 12.0328C55.7265 11.879 55.4093 11.6187 55.1861 11.2846C54.9629 10.9506 54.8437 10.5579 54.8437 10.1561C54.8437 9.61742 55.0577 9.10076 55.4387 8.71983C55.8196 8.3389 56.3363 8.12489 56.875 8.12489V8.12489ZM39.8389 21.1249L42.2175 15.5146C42.3342 15.2861 42.4701 15.068 42.6237 14.8625C44.1241 17.5407 46.1613 19.8801 48.6078 21.7343L50.1333 22.8779L49.1887 25.1122C48.6601 26.35 47.663 27.3281 46.4153 27.8328C45.1676 28.3375 43.7708 28.3278 42.5303 27.8057V27.8057C41.2909 27.2796 40.3112 26.2829 39.8065 25.0347C39.3018 23.7865 39.3134 22.3889 39.8389 21.1493V21.1249ZM8.91109 8.12489H21.4459C22.0269 8.12444 22.5986 8.27119 23.1075 8.55145L19.6158 12.0432L9.66266 10.3857L8.91109 8.12489ZM53.1537 112.623C53.0068 112.844 52.9047 113.091 52.8531 113.352L51.1469 121.875H48.6241L47.1819 99.5311H52.9283L52.8125 101.443C52.7862 101.884 52.9045 102.322 53.1497 102.69L56.4687 107.656L53.1537 112.623ZM55.8939 65.2538C55.5939 65.4194 55.3406 65.6582 55.1577 65.948C54.9748 66.2378 54.8682 66.5692 54.8478 66.9113L53.168 95.4686H46.9219L44.6875 60.8074C44.6666 60.4835 44.5684 60.1694 44.4011 59.8913L38.3073 49.735C38.1088 49.4038 37.8199 49.1361 37.4745 48.9632C35.7229 48.0756 34.3655 46.5664 33.6679 44.7308C32.9702 42.8952 32.9826 40.8654 33.7025 39.0385L34.3911 37.316C34.502 37.0383 34.5502 36.7396 34.5323 36.4411C34.5143 36.1427 34.4308 35.8518 34.2875 35.5894L22.8231 14.5802L25.6852 11.7202L38.935 31.596C39.1205 31.8741 39.3719 32.1021 39.6667 32.2598C39.9615 32.4175 40.2907 32.4999 40.625 32.4999H52.8125C53.3229 32.4999 53.8145 32.3077 54.1897 31.9616L75.6417 12.159L77.6973 14.8991L57.7037 34.8927L49.8733 38.8069C49.5356 38.9757 49.2517 39.2351 49.0532 39.5563C48.8548 39.8774 48.7498 40.2474 48.75 40.6249V46.7186C48.748 47.2278 48.9373 47.7191 49.2804 48.0953C49.6235 48.4715 50.0953 48.7051 50.6025 48.7499L53.8098 49.0343C54.0877 49.0588 54.3676 49.0263 54.6325 48.9388C56.5013 48.3098 58.4896 48.1188 60.444 48.3805C62.3983 48.6422 64.2664 49.3496 65.9039 50.448C66.1888 50.6381 66.5172 50.7531 66.8585 50.7822C67.1998 50.8113 67.5429 50.7537 67.8559 50.6146L97.2278 37.5597L97.6889 38.1691L99.8237 41.0129L55.8939 65.2538ZM121.875 29.2133L114.8 32.7538L103.425 39.0344L101.045 35.8596L104.427 34.3565C104.685 34.2414 104.917 34.0735 105.107 33.8636C105.297 33.6537 105.441 33.4065 105.53 33.1377L107.09 28.4374H113.75C114.009 28.4373 114.265 28.3884 114.506 28.2932L121.875 25.3438V29.2133Z" fill="#59C3FF"/>
</svg>
