<svg width="124" height="155" viewBox="0 0 124 155" fill="none" xmlns="http://www.w3.org/2000/svg">
<g clip-path="url(#clip0)">
<path d="M90.0549 -0.000266767C83.8058 -0.0990296 77.5962 1.00608 71.7649 3.25473C65.4962 5.76162 58.5036 5.76162 52.2349 3.25473C46.4036 1.00608 40.194 -0.0990296 33.9449 -0.000266767C29.5777 0.0246328 25.2711 1.02306 21.3385 2.92233C17.4059 4.8216 13.9463 7.57391 11.2116 10.9789C7.55874 15.6427 4.97191 21.0501 3.63299 26.8208C2.29407 32.5916 2.23556 38.5856 3.46157 44.3814C7.5949 68.0964 30.3024 124 39.0341 124C42.8832 124 44.7174 118.833 48.0241 109.585C51.3307 100.336 55.9807 87.2389 61.9999 85.2497C68.0191 87.1614 72.7982 100.543 75.9757 109.507C79.1532 118.471 81.1166 124 84.9657 124C93.6974 124 116.405 68.0964 120.667 44.3814C121.876 38.5763 121.796 32.5768 120.435 26.8057C119.074 21.0346 116.463 15.6321 112.788 10.9789C110.054 7.57391 106.594 4.8216 102.661 2.92233C98.7287 1.02306 94.4221 0.0246328 90.0549 -0.000266767V-0.000266767ZM115.578 43.4514C110.696 70.6539 90.8816 112.22 85.0949 118.368C83.4326 115.032 82.0166 111.578 80.8582 108.035C76.7507 96.5131 71.6357 82.2014 62.5166 80.3156L61.9999 80.0831H61.4832C52.3641 81.9431 47.2491 96.2806 43.1416 107.802C41.9832 111.345 40.5672 114.799 38.9049 118.136C33.1182 112.039 13.3041 70.4731 8.42157 43.2189C7.37833 38.1999 7.4411 33.014 8.6055 28.0217C9.76991 23.0295 12.008 18.3509 15.1641 14.3114C17.4193 11.4884 20.2748 9.20307 23.5233 7.62125C26.7719 6.03943 30.3319 5.20085 33.9449 5.1664C39.5371 5.07057 45.0962 6.04385 50.3232 8.0339C57.7839 11.0287 66.1125 11.0287 73.5732 8.0339C78.8326 6.03083 84.428 5.05734 90.0549 5.1664C93.6679 5.20085 97.2279 6.03943 100.476 7.62125C103.725 9.20307 106.581 11.4884 108.836 14.3114C112.025 18.3784 114.282 23.0964 115.447 28.1317C116.612 33.1671 116.657 38.3968 115.578 43.4514V43.4514Z" fill="#59C3FF"/>
</g>
<defs>
<clipPath id="clip0">
<rect width="124" height="155" fill="white"/>
</clipPath>
</defs>
</svg>
