<svg width="160" height="200" viewBox="0 0 160 200" fill="none" xmlns="http://www.w3.org/2000/svg">
<path d="M152.8 44.4799H142.4V32.9599C142.4 31.9999 141.92 31.0399 141.28 30.5599C140.48 29.9199 139.52 29.7599 138.56 29.9199L80 41.2799L21.44 29.7599C20.48 29.5999 19.52 29.7599 18.72 30.3999C18.08 31.0399 17.6 31.9999 17.6 32.9599V44.4799H7.2C5.44 44.4799 4 45.9199 4 47.6799V127.04C4 128.8 5.44 130.24 7.2 130.24H152.8C154.56 130.24 156 128.8 156 127.04V47.6799C156 45.9199 154.56 44.4799 152.8 44.4799ZM83.2 123.2V47.1999L136 36.7999V112.8L83.2 123.2ZM24 36.7999L76.8 47.1999V123.2L24 112.8V36.7999ZM10.4 50.8799H17.6V115.52C17.6 117.12 18.72 118.4 20.16 118.72L47.2 124H10.4V50.8799ZM149.6 123.84H112.8L139.84 118.56C141.28 118.24 142.4 116.96 142.4 115.36V50.8799H149.6V123.84Z" fill="#59C3FF"/>
<path d="M34.24 56.6399L65.44 62.7199C65.6 62.7199 65.92 62.7199 66.08 62.7199C67.52 62.7199 68.96 61.5999 69.28 60.1599C69.6 58.3999 68.48 56.7999 66.72 56.4799L35.52 50.3999C33.76 50.0799 32 51.1999 31.68 52.7999C31.36 54.5599 32.48 56.3199 34.24 56.6399Z" fill="#59C3FF"/>
<path d="M66.56 72.1594L35.36 66.0794C33.6 65.7594 32 66.8794 31.68 68.6394C31.36 70.3994 32.48 71.9994 34.24 72.3194L65.44 78.3994C65.6 78.3994 65.92 78.3994 66.08 78.3994C67.52 78.3994 68.96 77.2794 69.28 75.8394C69.44 74.0794 68.32 72.4794 66.56 72.1594Z" fill="#59C3FF"/>
<path d="M66.56 87.6799L35.36 81.5999C33.6 81.2799 32 82.3999 31.68 84.1599C31.36 85.9199 32.48 87.5199 34.24 87.8399L65.44 93.9199C65.6 93.9199 65.92 93.9199 66.08 93.9199C67.52 93.9199 68.96 92.7999 69.28 91.3599C69.44 89.7599 68.32 88.1599 66.56 87.6799Z" fill="#59C3FF"/>
<path d="M66.56 103.36L35.36 97.2796C33.6 96.9596 32 98.0796 31.68 99.8396C31.36 101.6 32.48 103.2 34.24 103.52L65.44 109.6C65.6 109.6 65.92 109.6 66.08 109.6C67.52 109.6 68.96 108.48 69.28 107.04C69.44 105.44 68.32 103.68 66.56 103.36Z" fill="#59C3FF"/>
<path d="M124.64 50.3997L93.4399 56.4797C91.6799 56.7997 90.5599 58.5597 90.8799 60.1597C91.1999 61.7597 92.4799 62.7197 94.0799 62.7197C94.2399 62.7197 94.5599 62.7197 94.7199 62.7197L125.92 56.6397C127.68 56.3197 128.8 54.5597 128.48 52.9597C128 51.1997 126.4 50.0797 124.64 50.3997Z" fill="#59C3FF"/>
<path d="M124.64 65.9197L93.4399 71.9997C91.6799 72.3197 90.5599 74.0797 90.8799 75.6797C91.1999 77.2797 92.4799 78.2397 94.0799 78.2397C94.2399 78.2397 94.5599 78.2397 94.7199 78.2397L125.92 72.1597C127.68 71.8397 128.8 70.0797 128.48 68.4797C128 66.7197 126.4 65.5997 124.64 65.9197Z" fill="#59C3FF"/>
<path d="M124.64 81.5999L93.4399 87.6799C91.6799 87.9999 90.5599 89.7599 90.8799 91.3599C91.1999 92.9599 92.4799 93.9199 94.0799 93.9199C94.2399 93.9199 94.5599 93.9199 94.7199 93.9199L125.92 87.8399C127.68 87.5199 128.8 85.7599 128.48 84.1599C128 82.3999 126.4 81.2799 124.64 81.5999Z" fill="#59C3FF"/>
<path d="M124.64 97.2796L93.4399 103.36C91.6799 103.68 90.5599 105.44 90.8799 107.04C91.1999 108.64 92.4799 109.6 94.0799 109.6C94.2399 109.6 94.5599 109.6 94.7199 109.6L125.92 103.52C127.68 103.2 128.8 101.44 128.48 99.8396C128 98.0796 126.4 96.9596 124.64 97.2796Z" fill="#59C3FF"/>
</svg>
