<svg width="142" height="178" viewBox="0 0 142 178" fill="none" xmlns="http://www.w3.org/2000/svg">
<path d="M138.988 50.5604L132.964 46.4725C132.964 43.6756 132.749 40.8786 132.318 38.0816L137.697 33.1331C138.343 32.4877 138.558 31.4119 138.127 30.5513L132.749 20.2241C132.318 19.3635 131.458 18.9331 130.382 19.1483L123.282 20.6544C121.346 18.5028 119.194 16.7816 116.827 15.2756L117.043 7.96042C117.043 7.09982 116.397 6.23921 115.536 5.80891L104.133 2.15133C103.273 1.93618 102.197 2.15133 101.767 3.01194L97.6789 9.03618C94.8819 9.03618 92.085 9.25133 89.0728 9.68163L84.1243 4.30285C83.4789 3.65739 82.4031 3.44224 81.5425 3.87254L71.2152 9.25133C70.3546 9.68164 69.9243 10.5422 70.1395 11.618L71.6456 18.718C69.494 20.6544 67.7728 22.8059 66.0516 25.1725L58.7365 24.9574C57.6607 24.9574 57.0152 25.6028 56.5849 26.4635L53.1425 37.6513C52.9274 38.5119 53.1425 39.5877 54.0031 40.018L60.0274 44.1059C60.0274 46.9028 60.2425 49.915 60.6728 52.7119L55.294 57.6604C54.6486 58.3059 54.4334 59.3816 54.8637 60.2422V60.4574L43.0304 73.5816V72.5059C42.8152 71.6453 41.9546 70.9998 41.094 70.9998H32.0577C31.1971 70.9998 30.3365 71.6453 30.1213 72.5059L28.6152 77.6695C26.6789 78.315 24.7425 78.9604 22.8062 80.0362L18.0728 77.4544C17.2122 77.0241 16.1365 77.2392 15.491 77.8847L9.03646 84.3392C8.39101 84.9847 8.17585 86.0604 8.60616 86.921L11.188 91.6544C10.1122 93.3756 9.46676 95.3119 8.82131 97.4635L3.65767 98.9695C2.79707 99.1847 2.15161 100.045 2.15161 100.906V109.942C2.15161 110.803 2.79707 111.663 3.65767 111.879L8.82131 113.385C9.46676 115.321 10.1122 117.257 11.188 119.194L8.60616 124.142C8.17585 125.003 8.39101 126.079 9.03646 126.724L15.491 133.179C16.1365 133.609 17.2122 133.824 17.8577 133.394L22.591 130.812C24.3122 131.888 26.2486 132.533 28.4001 133.179L29.9062 138.342C30.1213 139.203 30.9819 139.848 31.8425 139.848H40.8789C41.7395 139.848 42.6001 139.203 42.8152 138.342L44.3213 133.179C46.2577 132.533 48.194 131.888 50.1304 130.812L54.8637 133.394C55.7243 133.824 56.8001 133.609 57.4456 132.963L63.9001 126.509C64.5456 125.863 64.7607 124.788 64.3304 123.927L61.7486 119.194C62.8243 117.257 63.4698 115.321 64.1152 113.385L69.2789 111.879C70.1395 111.663 70.785 110.803 70.785 109.942V100.906C70.785 100.045 70.1395 99.1847 69.2789 98.9695L68.2031 98.5392L81.5425 86.4907L88.8577 88.8574C89.7183 89.0725 90.794 88.8574 91.2243 87.9968L95.3122 81.9725C98.1092 81.9725 101.121 81.7574 103.918 81.3271L108.867 86.7059C109.512 87.3513 110.588 87.5665 111.449 87.1362L121.776 81.7574C122.636 81.3271 123.067 80.4665 122.852 79.3907L121.346 72.2907C123.497 70.3544 125.218 68.2029 126.724 65.8362L134.039 66.0513C134.9 66.0513 135.761 65.4059 136.191 64.5453L139.633 53.3574C140.064 52.0665 139.633 51.2059 138.988 50.5604ZM85.2001 33.9938C88.2122 30.9816 92.085 29.2604 96.6031 29.2604C105.424 29.2604 112.739 36.5756 112.739 45.3968C112.739 54.218 105.424 61.5332 96.6031 61.5332C87.7819 61.5332 80.4668 54.218 80.4668 45.3968C80.2516 38.0816 84.9849 34.2089 85.2001 33.9938ZM96.6031 65.8362C97.2486 65.8362 97.6789 65.8362 98.3243 65.8362L80.6819 81.7574L80.8971 74.8725C80.8971 74.2271 80.4668 73.3665 79.8213 72.9362C77.0243 71.215 74.4425 69.0635 72.5062 66.6968C72.0759 66.0513 71.2152 65.8362 70.5698 66.0513L63.6849 67.3422L60.2425 61.1028L76.1637 43.6756C76.1637 44.321 76.1637 44.7513 76.1637 45.3968C76.1637 56.5847 85.2001 65.8362 96.6031 65.8362ZM60.6728 70.7847C61.1031 71.6453 61.9637 72.0756 63.0395 71.8604L70.1395 70.3544C72.0759 72.5059 74.2274 74.2271 76.594 75.9483L76.3789 83.2635C76.3789 83.9089 76.594 84.5544 77.2395 84.9847L63.9001 96.818C63.2546 95.0968 62.6092 93.3756 61.7486 91.6544L64.3304 86.921C64.7607 86.0604 64.5456 84.9847 63.9001 84.3392L57.4456 77.8847C56.8001 77.2392 55.7243 77.0241 54.8637 77.4544L50.1304 80.0362C48.4092 79.1756 46.688 78.315 44.7516 77.8847L57.0153 64.3301L60.6728 70.7847ZM36.5759 93.1604C43.2456 93.1604 48.6243 98.5392 48.6243 105.209C48.6243 111.879 43.2456 117.257 36.5759 117.257C29.9062 117.257 24.5274 111.879 24.5274 105.209C24.5274 98.5392 29.9062 93.1604 36.5759 93.1604ZM36.5759 89.0726C35.9304 89.0726 35.5001 89.0726 34.8546 89.0726L41.9546 81.3271C42.1698 81.3271 42.1698 81.5422 42.3849 81.5422C44.7516 82.1877 47.1183 83.0483 49.2698 84.3392C49.9152 84.7695 50.7759 84.7695 51.4213 84.3392L55.9395 81.9725L60.2425 86.2756L57.8759 90.7938C57.4456 91.4392 57.4456 92.2998 57.8759 92.9453C59.1668 95.0968 60.0274 97.4635 60.6728 99.8301C60.6728 100.045 60.6728 100.045 60.888 100.26L53.1425 107.36C53.1425 106.93 53.1425 106.285 53.1425 105.639C52.9274 96.3877 45.6122 89.0726 36.5759 89.0726ZM66.6971 102.412V108.436L61.7486 109.942C61.1031 110.157 60.4577 110.803 60.2425 111.448C59.5971 113.815 58.7365 116.182 57.4456 118.333C57.0153 118.979 57.0153 119.839 57.4456 120.485L59.8122 125.003L55.5092 129.306L50.991 126.939C50.3456 126.509 49.4849 126.509 48.8395 126.939C46.688 128.23 44.3213 129.091 41.9546 129.736C41.3092 129.951 40.6637 130.382 40.4486 131.242L39.1577 136.191H33.1334L31.6274 131.242C31.4122 130.597 30.7668 129.951 30.1213 129.736C27.7546 129.091 25.388 128.23 23.2365 126.939C22.591 126.509 21.7304 126.509 21.0849 126.939L17.2122 128.876L12.9092 124.573L15.2759 120.054C15.7062 119.409 15.7062 118.548 15.2759 117.903C13.9849 115.751 13.1243 113.385 12.4789 111.018C12.2637 110.373 11.8334 109.727 10.9728 109.512L6.02434 108.006V101.982L11.188 101.121C11.8334 100.906 12.4789 100.26 12.694 99.615C13.3395 97.2483 14.2001 94.8816 15.491 92.7301C15.9213 92.0847 15.9213 91.2241 15.491 90.5786L13.1243 86.0604L17.4274 81.7574L21.9456 84.1241C22.591 84.5544 23.4516 84.5544 24.0971 84.1241C26.2486 82.8331 28.6152 81.9725 30.9819 81.3271C31.6274 81.1119 32.2728 80.6816 32.488 79.821L33.994 74.8725H40.0183L40.6637 76.8089L25.6031 93.3756C21.9456 96.818 20.2243 100.906 20.2243 105.424C20.2243 114.46 27.5395 121.776 36.5759 121.776C41.094 121.776 45.1819 120.054 47.9789 117.042L64.5456 101.982L66.6971 102.412ZM132.749 61.318L125.864 61.1028C125.003 61.1028 124.358 61.5332 123.927 62.1786C122.206 64.9756 120.055 67.3422 117.688 69.4938C117.043 69.9241 116.827 70.7847 117.043 71.4301L118.333 78.315L110.803 82.1877L106.07 77.2392C105.639 76.5938 104.779 76.3786 104.133 76.5938C100.906 77.4544 97.6789 77.6695 94.4516 77.4544C93.591 77.4544 92.9456 77.6695 92.5153 78.315L88.6425 84.1241L85.2001 83.0483L110.803 59.8119C114.461 56.1544 116.827 50.9907 116.827 45.3968C116.827 34.2089 107.791 24.9574 96.388 24.9574C90.794 24.9574 85.6304 27.3241 81.9728 30.9816L64.5456 50.1301C64.1153 47.9786 64.1152 45.6119 64.3304 43.4604C64.3304 42.815 64.1153 41.9544 63.4698 41.5241L57.6607 37.6513L60.2425 29.4756L67.1274 29.6907C67.7728 29.6907 68.6334 29.2604 69.0637 28.615C70.7849 25.818 72.9365 23.2362 75.3031 21.2998C75.9486 20.8695 76.1637 20.0089 75.9486 19.3635L74.6577 12.4786L82.188 8.60588L86.9213 13.5544C87.3516 14.1998 88.2122 14.415 88.8577 14.1998C92.0849 13.3392 95.3122 13.1241 98.5395 13.3392C99.1849 13.3392 100.046 13.1241 100.476 12.4786L104.349 6.66951L112.524 9.25133L112.309 16.1362C112.309 16.7816 112.739 17.6422 113.385 18.0725C116.182 19.7938 118.549 21.9453 120.7 24.3119C121.13 24.9574 121.991 25.1725 122.636 24.9574L129.521 23.6665L133.394 31.1968L128.446 35.9301C127.8 36.3604 127.585 37.221 127.8 37.8665C128.661 41.0938 128.876 44.321 128.661 47.5483C128.661 48.1938 128.876 49.0544 129.521 49.4847L135.33 53.3574L132.749 61.318Z" fill="#59C3FF"/>
<path d="M96.6031 53.1423C100.906 53.1423 104.349 49.6999 104.349 45.3968C104.349 41.0938 100.906 37.6514 96.6031 37.6514C92.3001 37.6514 88.8577 41.0938 88.8577 45.3968C88.6425 49.6999 92.3001 53.1423 96.6031 53.1423ZM96.6031 41.7392C98.5395 41.7392 100.261 43.4605 100.261 45.3968C100.261 47.3332 98.5395 49.0544 96.6031 49.0544C94.6668 49.0544 92.9455 47.3332 92.9455 45.3968C92.9455 43.4605 94.4516 41.7392 96.6031 41.7392Z" fill="#59C3FF"/>
<path d="M36.5758 112.309C40.4485 112.309 43.4606 109.297 43.4606 105.424C43.4606 101.552 40.4485 98.5396 36.5758 98.5396C32.703 98.5396 29.6909 101.552 29.6909 105.424C29.6909 109.297 32.703 112.309 36.5758 112.309ZM36.5758 102.627C38.0818 102.627 39.3727 103.918 39.3727 105.424C39.3727 106.93 38.0818 108.221 36.5758 108.221C35.0697 108.221 33.7788 106.93 33.7788 105.424C33.7788 103.918 35.0697 102.627 36.5758 102.627Z" fill="#59C3FF"/>
</svg>
