<svg width="134" height="167" viewBox="0 0 134 167" fill="none" xmlns="http://www.w3.org/2000/svg">
<path d="M59.5077 126.002C59.4465 126.002 59.3852 126.002 59.3129 125.991C44.9898 125 33.1551 119.182 24.1371 108.695C9.43554 91.5774 2.97264 62.7365 5.92297 27.4884C6.04544 25.9798 7.26454 24.7329 8.8566 24.9444C28.6739 26.1023 50.3895 37.6587 65.5364 55.1046C79.325 70.9752 86.0941 89.5567 84.6245 107.454C84.4965 108.973 83.2106 110.075 81.6185 109.997C80.0877 109.869 78.9465 108.517 79.069 106.997C80.4161 90.6144 74.1146 73.4802 61.328 58.7508C47.8344 43.2031 28.8799 32.6542 11.2503 30.7282C9.02917 62.7755 15.2026 89.7627 28.3455 105.071C36.3504 114.39 46.8992 119.567 59.6803 120.435C61.2111 120.546 62.369 121.871 62.2688 123.402C62.1908 124.872 60.9662 126.002 59.5077 126.002V126.002Z" fill="#59C3FF"/>
<path d="M74.0979 130.933C72.8231 130.933 71.6764 130.054 71.3869 128.757C64.6735 98.8695 32.6095 60.0086 19.0157 46.8824C17.908 45.8247 17.8746 44.0656 18.9378 42.9523C20.0066 41.8501 21.7768 41.8223 22.8734 42.8744C36.8458 56.3847 69.8227 96.4257 76.8089 127.532C77.1484 129.041 76.2021 130.51 74.7047 130.872C74.5043 130.917 74.2983 130.933 74.0979 130.933V130.933Z" fill="#59C3FF"/>
<path d="M82.1249 101.408C80.8335 101.408 79.6812 100.507 79.4028 99.1928C79.0855 97.6898 80.0541 96.2146 81.5571 95.8973C123.485 87.1243 123.769 29.9824 122.327 8.46171C98.1124 11.0892 72.862 29.6484 61.467 53.5294C60.8046 54.9211 59.1346 55.5 57.7541 54.8432C56.368 54.1807 55.7779 52.5219 56.4403 51.1358C69.0822 24.6329 97.8007 4.25331 124.727 2.67794C126.207 2.53321 127.543 3.72448 127.66 5.22191C132.136 58.584 115.325 94.5168 82.6927 101.353C82.4979 101.386 82.3142 101.408 82.1249 101.408Z" fill="#59C3FF"/>
<path d="M74.0923 75.3896C73.6135 75.3896 73.1292 75.2727 72.6895 75.0111C71.3646 74.2262 70.9193 72.5339 71.6986 71.1923C84.5019 49.3432 102.154 28.8467 110.899 20.3854C112.012 19.3333 113.771 19.3444 114.835 20.4633C115.898 21.5544 115.876 23.3357 114.768 24.3989C106.245 32.632 89.0221 52.6442 76.4971 74.0258C75.9738 74.8886 75.0442 75.3896 74.0923 75.3896V75.3896Z" fill="#59C3FF"/>
</svg>
