<svg width="153" height="191" viewBox="0 0 153 191" fill="none" xmlns="http://www.w3.org/2000/svg">
<path d="M61.12 43.7009C61.5784 44.4649 62.0368 45.2289 62.648 45.8401C63.412 46.9097 64.4816 47.8265 65.5512 48.7433C65.8568 49.0489 66.1624 49.2017 66.468 49.3545L66.6208 49.2017C74.5664 41.2561 82.6648 33.1577 90.6104 25.2121C89.0824 23.0729 87.2488 21.2393 84.9568 19.8641C77.7752 26.8929 62.0368 42.7841 61.12 43.7009ZM95.8056 23.6841C99.0144 21.2393 102.987 19.7113 107.266 19.4057C107.418 19.4057 107.418 19.4057 107.571 19.4057C107.571 19.4057 107.571 19.4057 107.724 19.4057C107.877 19.4057 107.877 19.4057 108.03 19.4057C116.281 19.7113 123.921 25.2121 126.213 33.3105C128.352 41.2561 125.449 49.9657 118.573 54.7025C111.85 59.2865 102.529 59.1337 96.1112 54.0913C94.736 53.0217 93.5136 51.7993 92.444 50.4241C88.4712 54.5497 82.9704 57.1473 77.164 57.3001C70.7464 57.4529 64.4816 55.0081 59.8976 50.4241C58.6752 51.9521 57.1472 53.4801 55.4664 54.5497C48.7432 59.1337 39.4224 58.9809 33.0048 53.9385C26.5872 49.0489 23.5312 40.0337 26.2816 32.3937C29.1848 24.7537 36.0608 19.7113 44.1592 19.2529C44.312 19.2529 44.312 19.2529 44.4648 19.2529C44.4648 19.2529 44.4648 19.2529 44.6176 19.2529C44.7704 19.2529 44.7704 19.2529 44.9232 19.2529C49.2016 19.4057 53.1744 20.9337 56.536 23.3785C60.6616 16.8081 67.8432 12.6825 75.7888 12.2241C75.9416 12.2241 76.0944 12.2241 76.0944 12.2241H76.2472H76.4C84.04 12.3769 91.2216 16.3497 95.1944 22.9201C95.5 23.2257 95.6528 23.5313 95.8056 23.6841ZM71.052 51.4937C76.0944 53.0217 81.748 52.2577 86.1792 49.0489C87.5544 48.1321 88.624 47.0625 89.6936 45.8401C90.3048 44.9233 90.916 44.0065 91.5272 43.0897C92.5968 41.1033 93.208 38.9641 93.5136 36.8249C93.8192 34.8385 93.6664 32.6993 93.208 30.5601C93.208 30.2545 93.0552 29.9489 92.9024 29.6433C91.5272 31.0185 77.0112 45.5345 71.052 51.4937ZM80.0672 17.8777C78.8448 17.5721 77.4696 17.4193 76.0944 17.4193C69.524 17.5721 63.1064 21.5449 60.356 27.5041C60.2032 27.9625 60.0504 28.2681 59.8976 28.7265C59.592 29.3377 59.4392 30.1017 59.2864 30.7129C58.6752 33.4633 58.6752 36.2137 59.2864 38.8113C59.8976 38.0473 74.5664 23.3785 80.0672 17.8777ZM56.536 46.2985C53.48 40.9505 52.716 34.5329 54.3968 28.7265C51.7992 26.2817 48.4376 24.7537 44.6176 24.7537C44.0064 24.7537 43.548 24.7537 42.9368 24.9065C35.4496 26.2817 29.796 32.6993 30.56 40.3393C31.324 47.8265 38.0472 53.6329 45.5344 53.0217C50.1184 52.5633 54.244 49.9657 56.536 46.2985Z" fill="#59C3FF"/>
<path d="M64.4817 134.769C66.6209 132.63 98.2505 101.001 106.196 93.0549C106.349 92.9021 106.349 92.9021 106.502 92.7493C105.279 90.3045 104.057 88.0125 102.529 85.7205C97.9449 90.3045 57.6057 130.644 55.1609 133.089C58.2169 133.853 61.4257 134.311 64.4817 134.769ZM65.0929 139.965C61.5785 139.506 57.9113 138.895 54.5497 138.131C47.9793 136.45 40.7977 133.394 37.5889 127.435C34.3801 127.129 31.1713 126.671 28.1153 126.06C19.8641 124.226 10.6961 119.948 10.3905 110.321C10.2377 101.153 12.2241 91.8325 16.3497 83.5813C19.7113 77.0109 24.4481 71.0517 30.5601 66.9261C34.5329 64.1757 39.2697 61.8837 44.3121 61.8837C49.3545 61.7309 54.7025 63.7173 58.6753 66.6205C59.2865 67.0789 60.0505 67.6901 60.6617 68.1485C64.9401 65.3981 69.6769 63.4117 74.7193 62.9533C77.7753 62.8005 80.6785 63.1061 83.5817 64.0229C86.4849 64.9397 89.3881 66.3149 91.9857 67.9957C92.4441 67.6901 93.0553 67.2317 93.5137 66.9261C97.4865 64.1757 102.223 61.8837 107.266 61.8837C112.308 61.7309 117.656 63.7173 121.629 66.6205C127.741 71.0517 132.783 76.7053 136.298 83.4285C140.423 91.5269 142.41 100.389 142.41 109.557V110.169C142.41 112.002 141.951 113.683 141.34 115.211C140.729 116.739 139.659 119.184 138.284 120.253C132.019 125.449 123.463 126.824 115.67 127.588C115.517 127.588 115.364 127.588 115.211 127.588C114.295 129.421 113.225 131.255 111.697 132.477C108.641 134.922 104.974 136.603 101.154 137.673C95.1945 139.353 88.7769 140.27 82.5121 140.576C81.2897 140.576 80.0673 140.729 78.8449 140.729C74.2609 140.576 69.6769 140.423 65.0929 139.965ZM42.7841 102.987C43.3953 102.376 44.0065 101.765 44.6177 101.153C51.6465 94.1245 75.0249 70.7461 77.9281 67.8429C75.3305 67.8429 72.5801 67.9957 69.8297 68.9125C68.1489 69.5237 66.4681 70.2877 64.9401 71.2045C64.1761 71.6629 63.4121 72.1213 62.8009 72.5797C62.0369 73.0381 61.4257 73.6493 60.6617 74.1077C51.4937 81.2893 45.5345 92.1381 42.7841 102.987ZM70.8993 135.228C74.5665 135.381 78.0809 135.533 81.7481 135.381C84.8041 132.325 105.738 111.391 110.933 106.196C110.322 103.293 109.558 100.389 108.641 97.6389C106.96 99.3197 105.279 101.001 103.751 102.529C97.9449 108.029 74.8721 131.255 70.8993 135.228ZM99.7785 81.7477C98.2505 79.7613 96.4169 77.9277 94.5833 76.2469C94.5833 76.2469 94.4305 76.2469 94.4305 76.0941C90.7633 79.7613 46.2985 124.226 45.5345 124.99C44.9233 125.601 44.3121 126.213 43.7009 126.824C43.8537 127.129 44.1593 127.282 44.4649 127.588C45.5345 128.657 46.7569 129.574 48.2849 130.338C48.8961 130.644 49.6601 130.949 50.4241 131.255C51.4937 129.88 92.7497 88.6237 99.7785 81.7477ZM112.155 119.337C112.155 116.892 112.003 114.447 111.697 112.002C108.335 115.517 91.6801 132.019 89.2353 134.617C91.0689 134.311 92.9025 134.005 94.7361 133.7C98.2505 132.936 101.918 132.172 104.974 130.491C106.043 129.88 107.266 129.269 108.183 128.505C108.488 128.199 108.794 127.893 109.099 127.588C109.558 127.129 109.863 126.518 110.169 125.907C110.322 125.601 110.475 125.296 110.627 124.99C111.086 124.226 111.391 123.309 111.697 122.393C112.003 121.476 112.155 120.406 112.155 119.337ZM90.4577 73.1909L90.1521 72.8853C89.3881 72.4269 88.6241 71.9685 87.8601 71.5101C86.3321 70.5933 84.8041 69.9821 83.2761 69.3709C81.4425 71.2045 50.1185 102.529 41.2561 111.544C40.9505 114.447 40.6449 117.35 40.9505 120.101C40.9505 120.865 41.1033 121.781 41.4089 122.545C46.6041 117.045 88.9297 74.7189 90.4577 73.1909ZM52.4105 74.7189C53.6329 73.4965 55.0081 72.2741 56.3833 71.0517C53.6329 69.0653 50.4241 67.5373 47.0625 67.0789C43.0897 66.4677 39.1169 67.6901 35.6025 69.6765C30.2545 72.8853 25.8233 77.4693 22.6145 82.6645C18.0305 90.1517 15.7385 98.8613 15.4329 107.724C15.4329 110.016 15.4329 112.461 16.8081 114.447C18.0305 116.281 19.7113 117.503 21.5449 118.42C24.7537 119.948 28.4209 120.865 32.0881 121.476C33.3105 121.629 34.5329 121.934 35.9081 122.087C35.2969 117.961 35.7553 113.53 36.3665 109.405C36.5193 108.793 36.5193 108.335 36.6721 107.724C37.4361 103.293 38.5057 99.0141 40.0337 94.7357C42.7841 87.2485 46.9097 80.3725 52.4105 74.7189Z" fill="#59C3FF"/>
</svg>
