<svg width="174" height="218" viewBox="0 0 174 218" fill="none" xmlns="http://www.w3.org/2000/svg">
<path d="M66.4679 139.896L66.8159 137.982C66.8159 137.634 66.8159 137.286 66.4679 137.112C66.1199 136.938 65.7719 136.938 65.5979 137.112L63.8579 137.982L62.1179 137.112C61.7699 136.938 61.4219 136.938 61.2479 137.112C60.8999 137.286 60.8999 137.634 60.8999 137.982L61.2479 139.896L59.8559 141.288C59.6819 141.462 59.5079 141.81 59.6819 142.158C59.8559 142.506 60.0299 142.68 60.3779 142.68L62.2919 143.028L63.1619 144.768C63.3359 145.116 63.6839 145.29 63.8579 145.29C64.0319 145.29 64.5539 145.116 64.5539 144.768L65.4239 143.028L67.3379 142.68C67.6859 142.68 67.8599 142.332 68.0339 142.158C68.2079 141.984 68.0339 141.462 67.8599 141.288L66.4679 139.896Z" fill="#59C3FF"/>
<path d="M78.474 139.896L78.822 137.982C78.822 137.634 78.822 137.286 78.474 137.112C78.126 136.938 77.778 136.938 77.604 137.112L75.864 137.982L74.124 137.112C73.776 136.938 73.428 136.938 73.254 137.112C72.906 137.286 72.906 137.634 72.906 137.982L73.254 139.896L71.862 141.288C71.688 141.462 71.514 141.81 71.688 142.158C71.862 142.506 72.036 142.68 72.384 142.68L74.298 143.028L75.168 144.768C75.342 145.116 75.69 145.29 75.864 145.29C76.038 145.29 76.56 145.116 76.56 144.768L77.43 143.028L79.344 142.68C79.692 142.68 79.866 142.332 80.04 142.158C80.214 141.984 80.04 141.462 79.866 141.288L78.474 139.896Z" fill="#59C3FF"/>
<path d="M90.3061 139.896L90.6541 137.982C90.6541 137.634 90.6541 137.286 90.3061 137.112C89.9581 136.938 89.6101 136.938 89.4361 137.112L87.6961 137.982L85.9561 137.112C85.6081 136.938 85.2601 136.938 85.0861 137.112C84.7381 137.286 84.7381 137.634 84.7381 137.982L85.0861 139.896L83.6941 141.288C83.5201 141.462 83.3461 141.81 83.5201 142.158C83.6941 142.506 83.8681 142.68 84.2161 142.68L86.1301 143.028L87.0001 144.768C87.1741 145.116 87.5221 145.29 87.6961 145.29C87.8701 145.29 88.3921 145.116 88.3921 144.768L89.2621 143.028L91.1761 142.68C91.5241 142.68 91.6981 142.332 91.8721 142.158C92.0461 141.984 91.8721 141.462 91.6981 141.288L90.3061 139.896Z" fill="#59C3FF"/>
<path d="M102.312 139.896L102.66 137.982C102.66 137.634 102.66 137.286 102.312 137.112C101.964 136.938 101.616 136.938 101.442 137.112L99.7019 137.982L97.9619 137.112C97.6139 136.938 97.2659 136.938 97.0919 137.112C96.7439 137.286 96.7439 137.634 96.7439 137.982L97.0919 139.896L95.6999 141.288C95.5259 141.462 95.3519 141.81 95.5259 142.158C95.6999 142.506 95.6999 142.68 96.0479 142.68L97.9619 143.028L98.8319 144.768C99.0059 145.116 99.3539 145.29 99.5279 145.29C99.7019 145.29 100.224 145.116 100.224 144.768L101.094 143.028L103.008 142.68C103.356 142.68 103.53 142.332 103.704 142.158C103.878 141.984 103.704 141.462 103.53 141.288L102.312 139.896Z" fill="#59C3FF"/>
<path d="M114.144 139.896L114.492 137.982C114.492 137.634 114.492 137.286 114.144 137.112C113.796 136.938 113.448 136.938 113.274 137.112L111.534 137.982L109.794 137.112C109.446 136.938 109.098 136.938 108.924 137.112C108.576 137.286 108.576 137.634 108.576 137.982L108.924 139.896L107.532 141.288C107.358 141.462 107.184 141.81 107.358 142.158C107.532 142.506 107.706 142.68 108.054 142.68L109.968 143.028L110.838 144.768C111.012 145.116 111.36 145.29 111.534 145.29C111.708 145.29 112.23 145.116 112.23 144.768L113.1 143.028L115.014 142.68C115.362 142.68 115.536 142.332 115.71 142.158C115.884 141.984 115.71 141.462 115.536 141.288L114.144 139.896Z" fill="#59C3FF"/>
<path d="M44.022 87.6958H74.82C75.864 87.6958 76.56 86.9998 76.56 85.9558C76.56 84.9118 75.864 84.2158 74.82 84.2158H44.022C42.978 84.2158 42.282 84.9118 42.282 85.9558C42.282 86.9998 42.978 87.6958 44.022 87.6958Z" fill="#59C3FF"/>
<path d="M44.022 99.7017H74.82C75.864 99.7017 76.56 99.0057 76.56 97.9617C76.56 96.9177 75.864 96.2217 74.82 96.2217H44.022C42.978 96.2217 42.282 96.9177 42.282 97.9617C42.282 99.0057 42.978 99.7017 44.022 99.7017Z" fill="#59C3FF"/>
<path d="M44.022 111.534H74.82C75.864 111.534 76.56 110.838 76.56 109.794C76.56 108.75 75.864 108.054 74.82 108.054H44.022C42.978 108.054 42.282 108.75 42.282 109.794C42.282 110.838 42.978 111.534 44.022 111.534Z" fill="#59C3FF"/>
<path d="M44.022 123.54H74.82C75.864 123.54 76.56 122.844 76.56 121.8C76.56 120.756 75.864 120.06 74.82 120.06H44.022C42.978 120.06 42.282 120.756 42.282 121.8C42.282 122.844 42.978 123.54 44.022 123.54Z" fill="#59C3FF"/>
<path d="M100.224 123.54H131.022C132.066 123.54 132.762 122.844 132.762 121.8V85.9558C132.762 84.9118 132.066 84.2158 131.022 84.2158H100.224C99.1799 84.2158 98.4839 84.9118 98.4839 85.9558V121.8C98.4839 122.67 99.3539 123.54 100.224 123.54ZM101.964 87.6958H129.282V120.06H127.368C127.194 115.014 123.888 110.664 119.19 109.272C121.626 108.054 123.366 105.444 123.366 102.486C123.366 98.3098 119.886 94.8298 115.71 94.8298C111.534 94.8298 108.054 98.3098 108.054 102.486C108.054 105.444 109.794 108.054 112.23 109.272C107.532 110.664 104.226 115.014 104.052 120.06H102.138V87.6958H101.964Z" fill="#59C3FF"/>
<path d="M143.202 74.6457H100.572V65.4237L141.462 24.5337C141.984 24.0117 142.158 23.3157 141.81 22.6197C141.462 21.9237 140.94 21.5757 140.244 21.5757H125.802C125.28 21.5757 124.932 21.7497 124.584 22.0977L87.0001 59.6817L49.5901 22.2717C49.2421 21.9237 48.8941 21.7497 48.3721 21.7497H33.9301C33.2341 21.7497 32.5381 22.0977 32.3641 22.7937C32.0161 23.4897 32.1901 24.1857 32.7121 24.7077L73.9501 65.9457V74.8197H30.7981C29.7541 74.8197 29.0581 75.5157 29.0581 76.5597V150.684C29.0581 151.728 29.7541 152.424 30.7981 152.424H143.202C144.246 152.424 144.942 151.728 144.942 150.684V76.3857C144.942 75.5157 144.072 74.6457 143.202 74.6457ZM141.462 129.63H89.4361V78.1257H141.462V129.63ZM126.498 25.2297H136.068L97.6141 63.5097H91.0021L89.6101 62.1177L126.498 25.2297ZM47.6761 25.2297L86.1301 63.6837H76.5601L38.1061 25.2297H47.6761ZM77.2561 66.9897H97.0921V74.6457H77.2561V66.9897ZM85.9561 78.1257V129.456H32.5381V78.1257H85.9561ZM32.5381 148.77V133.11H141.462V148.77H32.5381Z" fill="#59C3FF"/>
</svg>
