<svg width="146" height="182" viewBox="0 0 146 182" fill="none" xmlns="http://www.w3.org/2000/svg">
<path d="M50.2321 37.274L43.8257 56.7844L57.6577 51.6884C57.3665 51.106 57.3665 50.378 57.6577 49.7956L64.0641 30.2852L50.2321 35.3812C50.5233 35.9636 50.5233 36.546 50.2321 37.274Z" fill="#59C3FF"/>
<path d="M90.2722 22.5684L83.7202 42.0788L97.5522 36.9828C97.261 36.4004 97.261 35.6724 97.5522 35.09L104.104 15.5796L90.2722 20.6756C90.4178 21.258 90.4178 21.986 90.2722 22.5684Z" fill="#59C3FF"/>
<path d="M70.3249 29.8486L63.7729 49.5046L77.605 44.4086C77.3138 43.8262 77.3138 43.0982 77.605 42.5158L84.157 23.0054L70.3249 28.1014C70.4705 28.5382 70.4705 29.2662 70.3249 29.8486Z" fill="#59C3FF"/>
<path d="M30.2848 44.5537L23.8784 64.0641C24.024 64.0641 24.024 64.0641 24.1696 64.0641L37.7104 59.1136C37.4192 58.5312 37.4192 57.8032 37.7104 57.2208L44.2624 37.7104L30.4304 42.8064C30.4304 43.2432 30.4304 43.9713 30.2848 44.5537Z" fill="#59C3FF"/>
<path d="M17.9089 47.1742C15.8705 47.9022 14.8513 50.2318 15.5793 52.2702L18.7825 61.0062L24.1697 44.9902L17.9089 47.1742Z" fill="#59C3FF"/>
<path d="M110.219 15.288L103.667 34.7984L120.848 28.5376C122.886 27.8096 123.906 25.48 123.178 23.4416L119.683 14.1232C118.955 12.0848 116.626 11.0656 114.587 11.7936L110.219 13.3952C110.365 13.9776 110.51 14.56 110.219 15.288Z" fill="#59C3FF"/>
<path d="M90.8544 80.954L71.9264 66.5396C71.1984 65.9572 70.7616 65.0836 70.7616 64.21H51.2512L73.2368 80.954H90.8544Z" fill="#59C3FF"/>
<path d="M125.944 64.21H105.56L127.546 80.954H130.312V68.578C130.312 66.2484 128.419 64.21 125.944 64.21Z" fill="#59C3FF"/>
<path d="M117.936 80.954L99.0081 66.5396C98.2801 65.9572 97.8433 65.0836 97.8433 64.21H78.4785L100.464 80.954H117.936Z" fill="#59C3FF"/>
<path d="M19.365 86.7778V129.73C19.365 132.059 21.2578 134.098 23.733 134.098H126.09C128.419 134.098 130.458 132.205 130.458 129.73V86.7778H19.365Z" fill="#59C3FF"/>
<path d="M19.365 68.5776V80.9536H36.5458L19.365 67.8496C19.365 68.1408 19.365 68.432 19.365 68.5776Z" fill="#59C3FF"/>
<path d="M63.6273 80.954L44.6993 66.5396C43.9713 65.9572 43.5345 65.0836 43.5345 64.21H24.1697L46.1553 80.954H63.6273Z" fill="#59C3FF"/>
</svg>
