<svg width="138" height="173" viewBox="0 0 138 173" fill="none" xmlns="http://www.w3.org/2000/svg">
<path fill-rule="evenodd" clip-rule="evenodd" d="M11.385 8.28005C9.77732 8.25728 8.28003 9.72898 8.28003 11.3419C8.28003 12.9549 9.77732 14.4266 11.385 14.4038H38.4675V37.0444C38.4675 37.933 38.9086 38.8039 39.5888 39.3732C37.2345 43.8497 35.7938 48.9296 35.7938 54.3808C35.7938 63.3309 38.8156 70.6727 43.5563 75.9432C25.7315 83.6767 11.8034 100.633 11.5575 126.011C11.5788 128.524 13.1515 129.698 14.9643 129.72H121.311C122.904 129.72 124.372 128.3 124.373 126.701C124.373 100.942 110.269 83.7452 92.2875 75.9001C97.0046 70.6329 100.007 63.3051 100.007 54.3808C100.007 48.9402 98.6731 43.8114 96.2982 39.33C96.9662 38.771 97.3606 37.917 97.3763 37.0444V14.4038H116.222V53.4751C112.039 53.9574 108.761 57.5254 108.761 61.8414V76.2451C108.777 78.8866 109.954 79.9005 111.909 79.9107H126.701C128.768 79.9107 129.729 77.824 129.72 76.2019V61.8414C129.72 57.5421 126.463 53.9798 122.303 53.4751V11.9025C122.302 9.30421 120.909 8.29046 118.594 8.28005H11.385V8.28005ZM46.1868 40.1063H89.7C92.3942 44.1801 93.9263 49.0396 93.9263 54.3808C93.9263 63.1933 90.7239 69.4619 85.905 73.7008C81.0861 77.9395 74.5202 80.0832 67.9218 80.0832C61.3239 80.0832 54.7576 77.9395 49.9388 73.7008C45.1199 69.4619 41.9175 63.1933 41.9175 54.3808C41.9175 49.0846 43.5252 44.22 46.1868 40.1063V40.1063ZM117.214 59.5126H121.311C122.616 59.5126 123.639 60.5319 123.639 61.8414V73.7871H114.842V61.8414C114.842 60.5319 115.908 59.5126 117.214 59.5126Z" fill="#59C3FF"/>
</svg>
