<svg width="146" height="183" viewBox="0 0 146 183" fill="none" xmlns="http://www.w3.org/2000/svg">
<path d="M74.2064 75.2324C80.2755 74.5662 84.6554 69.1061 83.9892 63.037C83.323 56.9679 77.8629 52.5879 71.7938 53.2542C65.7247 53.9204 61.3448 59.3805 62.011 65.4496C62.6772 71.5187 68.1373 75.8987 74.2064 75.2324Z" fill="#59C3FF"/>
<path d="M110.423 129.912C110.419 129.803 110.411 129.692 110.403 129.58C110.391 129.443 110.379 129.305 110.359 129.168C110.342 129.041 110.322 128.924 110.302 128.807C110.279 128.683 110.254 128.56 110.225 128.438C110.195 128.311 110.161 128.186 110.126 128.062C110.095 127.957 110.06 127.845 110.023 127.736C109.977 127.602 109.93 127.474 109.879 127.347C109.842 127.253 109.799 127.154 109.754 127.055C109.695 126.924 109.635 126.8 109.572 126.677C109.521 126.578 109.471 126.487 109.419 126.397C109.347 126.273 109.278 126.158 109.206 126.046C109.144 125.951 109.08 125.855 109.014 125.762C108.976 125.71 108.935 125.658 108.896 125.605C108.23 125.104 104.962 122.81 99.6769 121.788L99.6769 121.787L85.6706 119.08H60.3296L46.3232 121.787L46.3233 121.788C40.9882 122.82 37.7647 125.101 37.1071 125.601C37.0666 125.655 37.0256 125.708 36.9859 125.763C36.9202 125.855 36.8565 125.951 36.7939 126.047C36.7223 126.158 36.6528 126.273 36.5865 126.389C36.5292 126.487 36.4795 126.578 36.4314 126.673C36.3651 126.8 36.3052 126.924 36.2484 127.05C36.2014 127.154 36.1586 127.253 36.118 127.355C36.0704 127.474 36.0228 127.602 35.979 127.73C35.9399 127.845 35.9057 127.957 35.873 128.068C35.8388 128.185 35.8057 128.311 35.7763 128.436C35.7463 128.561 35.7217 128.684 35.6992 128.808C35.6773 128.925 35.658 129.039 35.6425 129.157C35.6217 129.306 35.6089 129.444 35.5976 129.582C35.5891 129.692 35.5816 129.803 35.5773 129.918C35.5719 130.059 35.573 130.206 35.5757 130.355C35.5762 130.38 35.5752 130.51 35.5746 130.535L35.5896 130.708C35.5982 130.83 35.612 130.964 35.6287 131.1C35.6452 131.242 35.6634 131.378 35.6864 131.511C35.6912 131.539 35.7067 131.649 35.7099 131.678L35.7516 131.835C35.7848 131.986 35.819 132.132 35.8591 132.275C35.8896 132.384 35.9217 132.485 35.9549 132.586C35.9998 132.722 36.0468 132.858 36.0987 132.989C36.1442 133.106 36.187 133.207 36.2319 133.308C36.287 133.432 36.3437 133.552 36.403 133.67C36.4592 133.78 36.5159 133.885 36.5747 133.986C36.6399 134.102 36.702 134.204 36.7661 134.306C36.8378 134.419 36.9095 134.524 36.9838 134.629C37.048 134.72 37.1169 134.813 37.1891 134.905C37.2694 135.007 37.3523 135.108 37.4384 135.208C37.5175 135.3 37.5977 135.387 37.6801 135.475C37.7646 135.564 37.8528 135.652 37.9432 135.738C38.0304 135.822 38.1229 135.905 38.2176 135.986C38.3042 136.061 38.3924 136.136 38.4828 136.208C38.5898 136.291 38.6978 136.372 38.8085 136.451C38.8973 136.514 38.9834 136.573 39.0711 136.629C39.1935 136.707 39.3144 136.781 39.4379 136.853C39.5294 136.905 39.6182 136.952 39.708 136.999C39.831 137.063 39.961 137.127 40.0925 137.185C40.1877 137.228 40.2802 137.268 40.3727 137.305C40.5161 137.363 40.6466 137.411 40.7786 137.456C40.8814 137.49 40.9915 137.524 41.1022 137.558C41.2204 137.592 41.3498 137.625 41.4808 137.657C41.6086 137.687 41.7333 137.711 41.8584 137.735C41.9525 137.752 42.0723 137.773 42.1942 137.789C42.3386 137.808 42.4788 137.822 42.6188 137.834C42.7269 137.842 42.8403 137.85 42.9553 137.854C43.0926 137.858 43.2451 137.858 43.398 137.855C43.4205 137.855 43.5467 137.856 43.5681 137.856L72.8113 134.472C72.9364 134.457 73.0638 134.457 73.1889 134.472L102.523 137.866C102.522 137.864 102.56 137.862 102.615 137.862C102.676 137.862 102.772 137.865 102.844 137.869C103.021 137.867 103.264 137.852 103.503 137.829C103.519 137.827 103.647 137.809 103.663 137.807C103.845 137.786 104.019 137.763 104.192 137.73L104.352 137.694C104.586 137.641 104.726 137.608 104.864 137.569C104.961 137.542 105.055 137.511 105.149 137.48C105.275 137.438 105.396 137.396 105.514 137.351C105.607 137.315 105.708 137.274 105.808 137.23C105.927 137.178 106.039 137.126 106.15 137.071C106.239 137.027 106.337 136.978 106.432 136.927C106.531 136.872 106.638 136.809 106.744 136.743C106.847 136.682 106.928 136.633 107.007 136.58C107.123 136.503 107.226 136.426 107.33 136.349L107.555 136.182C107.693 136.072 107.82 135.959 107.946 135.843C107.958 135.832 108.032 135.765 108.044 135.755C108.408 135.41 108.716 135.056 108.988 134.68L109.054 134.58C109.157 134.432 109.263 134.273 109.361 134.107L109.415 134.009C109.419 134.002 109.47 133.908 109.474 133.901C109.545 133.771 109.617 133.642 109.681 133.506L109.766 133.316C109.767 133.312 109.807 133.217 109.809 133.215C109.861 133.092 109.908 132.982 109.951 132.868C109.99 132.763 110.025 132.653 110.06 132.542C110.099 132.42 110.134 132.308 110.165 132.194C110.195 132.082 110.222 131.963 110.249 131.841C110.253 131.819 110.284 131.695 110.289 131.674C110.293 131.645 110.31 131.529 110.315 131.501C110.338 131.366 110.358 131.227 110.374 131.085C110.389 130.956 110.402 130.83 110.411 130.705C110.412 130.677 110.423 130.564 110.427 130.536L110.425 130.356C110.427 130.206 110.428 130.059 110.423 129.912Z" fill="#59C3FF"/>
<path d="M110.487 115.692C110.278 115.656 110.078 115.579 109.898 115.466C107.735 114.11 102.464 109.1 99.638 106.104C99.5118 105.971 99.4091 105.818 99.3343 105.65C98.7171 104.278 97.5839 100.672 96.2753 96.4526C91.6558 81.5598 90.1482 77.2666 86.1919 77.2666H73.3527C73.2869 77.2666 73.2222 77.273 73.1575 77.2773C73.0767 77.2847 72.9612 77.2858 72.8804 77.2805C72.7783 77.273 72.7136 77.2666 72.6478 77.2666H59.8087C55.8523 77.2666 54.3447 81.5598 49.7252 96.4526C48.4166 100.672 47.2834 104.278 46.6663 105.65C46.5914 105.818 46.4887 105.971 46.3625 106.104C43.5361 109.1 38.2653 114.11 36.102 115.466C35.9224 115.579 35.7224 115.656 35.5132 115.692C34.1271 115.935 33.041 116.981 32.7463 118.358C32.3494 120.21 33.5335 122.041 35.386 122.438C35.5066 122.464 35.6427 122.489 35.7894 122.51C36.9463 121.73 39.176 120.424 42.3538 119.415C42.362 119.408 42.3662 119.398 42.3746 119.392C44.949 117.357 48.1022 114.336 51.7457 110.412C51.8884 110.258 53.2506 108.538 57.3133 95.5574C57.539 94.8365 58.2273 94.3722 58.9824 94.4086C59.737 94.4546 60.3621 95.0097 60.4974 95.7542C61.3023 100.168 61.4333 106.558 61.5296 111.223C61.5652 112.96 61.6004 114.62 61.665 115.794H84.3355C84.4001 114.62 84.4353 112.96 84.4709 111.223C84.5672 106.558 84.6982 100.168 85.503 95.7542C85.6383 95.0097 86.2635 94.4546 87.0181 94.4086C87.7737 94.369 88.4615 94.8365 88.6872 95.5574C92.7516 108.543 94.1131 110.259 94.2554 110.412C97.8946 114.332 101.047 117.353 103.626 119.392C103.634 119.398 103.639 119.408 103.647 119.415C106.824 120.424 109.054 121.73 110.211 122.51C110.357 122.489 110.493 122.464 110.612 122.439C112.467 122.041 113.651 120.21 113.254 118.358C112.96 116.981 111.873 115.935 110.487 115.692Z" fill="#59C3FF"/>
<path d="M117.062 34.0182C108.367 20.0707 91.4833 11.4062 73.0001 11.4062C54.5169 11.4062 37.6332 20.0707 28.9378 34.0182C28.3545 34.9536 28.6401 36.1848 29.5756 36.7682C30.511 37.351 31.7424 37.0659 32.3254 36.1302C40.2979 23.3424 55.8835 15.3984 73.0001 15.3984C90.1167 15.3984 105.702 23.3424 113.675 36.1302C114.053 36.7373 114.704 37.0706 115.371 37.0706C115.731 37.0706 116.096 36.9728 116.425 36.7682C117.36 36.1848 117.646 34.9536 117.062 34.0182Z" fill="#59C3FF"/>
<path d="M100.295 44.5067C100.674 45.1137 101.325 45.4471 101.991 45.4471C102.352 45.4471 102.717 45.3493 103.045 45.1446C103.981 44.5612 104.266 43.3301 103.683 42.3947C97.6195 32.6685 85.8625 26.6265 73.0002 26.6265C60.138 26.6265 48.381 32.6685 42.3174 42.3947C41.7341 43.3301 42.0197 44.5612 42.9553 45.1446C43.8906 45.7275 45.122 45.4423 45.705 44.5067C51.0457 35.9403 61.5046 30.6187 73.0002 30.6187C84.4959 30.6187 94.9548 35.9403 100.295 44.5067Z" fill="#59C3FF"/>
<path d="M90.0069 53.6738C90.3853 54.2808 91.0364 54.6142 91.7026 54.6142C92.0631 54.6142 92.4282 54.5164 92.7568 54.3117C93.6922 53.7283 93.9778 52.4972 93.3945 51.5618C89.3546 45.0818 81.5398 41.0562 73.0001 41.0562C64.4605 41.0562 56.6457 45.0818 52.6057 51.5618C52.0225 52.4972 52.3081 53.7283 53.2434 54.3117C54.179 54.8946 55.4104 54.6094 55.9934 53.6738C59.3104 48.3535 65.8271 45.0483 73.0001 45.0483C80.1732 45.0483 86.6899 48.3535 90.0069 53.6738Z" fill="#59C3FF"/>
</svg>
