<svg width="156" height="195" viewBox="0 0 156 195" fill="none" xmlns="http://www.w3.org/2000/svg">
<path d="M127.423 19.7817C127.096 19.6159 126.745 19.5038 126.355 19.5038L49.5201 19.1382C39.2241 19.1382 28.8014 26.4507 28.8014 40.4176L29.2353 112.124H17.2915C15.946 112.124 14.854 113.216 14.854 114.561C14.854 120.416 20.0264 136.499 36.6696 136.499H94.8381C95.7205 136.655 96.6224 136.738 97.5535 136.738C108.542 136.738 117.478 128.138 117.478 117.545L116.746 38.9892C116.834 38.9941 116.912 38.9989 117 38.9989H136.905C138.25 38.9989 139.342 37.9069 139.342 36.5614C139.342 26.8261 134.906 20.7469 127.423 19.7817ZM36.6648 131.624C25.3499 131.624 21.2061 121.957 20.08 116.999H31.6874H31.702H78.8481C79.4429 122.381 81.9438 127.826 85.7853 131.624H36.6648ZM98.4895 131.834C98.1921 131.702 97.8509 131.624 97.4999 131.624H95.3354C88.4811 130.137 83.5915 121.957 83.5915 114.561C83.5915 113.216 82.4995 112.124 81.154 112.124H34.1103L33.6764 40.3834C33.6764 29.1271 41.8908 24.0034 49.5104 24.0034L115.942 24.3252C113.388 27.5573 111.867 32.2276 111.867 37.8192L112.598 117.569C112.598 125.15 106.348 131.37 98.4895 131.834ZM117.034 34.1239C117.882 28.9906 120.554 24.4617 125.326 24.4617C130.743 24.4617 133.775 27.7133 134.365 34.1239H117.034Z" fill="#59C3FF"/>
<path d="M41.4375 60.0208C41.8323 60.5424 42.4173 60.9275 43.0657 61.0153L46.3856 61.4979V82.6261C46.3856 83.5475 46.9023 84.386 47.7213 84.8004C48.0675 84.9759 48.4428 85.0685 48.8231 85.0685C49.3301 85.0685 49.842 84.9076 50.2661 84.5908L56.6816 79.8766L62.9021 84.5713C63.6333 85.1319 64.6278 85.2245 65.4517 84.8101C66.2805 84.3958 66.8021 83.5524 66.8021 82.6261V61.9366L69.654 61.7221C70.3072 61.6734 70.9117 61.3663 71.3358 60.869C71.7551 60.3669 71.9598 59.7234 71.9013 59.0701L71.2822 52.2793L75.1286 46.6486C75.4942 46.1075 75.6356 45.4445 75.504 44.801C75.3821 44.1624 74.997 43.5969 74.4558 43.2361L68.757 39.4824L66.7533 32.9694C66.5632 32.3454 66.1293 31.8238 65.5492 31.5215C64.9691 31.2241 64.2963 31.1705 63.6675 31.3655L57.1837 33.4764L50.8462 30.9901C50.2417 30.7561 49.5641 30.7659 48.9645 31.034C48.3648 31.2973 47.9017 31.7945 47.6726 32.4039L45.279 38.795L39.3705 42.1978C38.805 42.5244 38.3955 43.0655 38.2297 43.6993C38.0688 44.333 38.1615 45.0058 38.4978 45.5664L41.9981 51.4213L40.9792 58.178C40.8817 58.8215 41.0475 59.4991 41.4375 60.0208ZM58.1685 74.8944C57.3153 74.2509 56.1307 74.2314 55.2581 74.8749L51.2606 77.8145V63.6039L54.4537 67.1578C54.9022 67.6355 55.5165 68.2498 56.1697 68.2498C56.1941 68.2498 56.2185 68.2498 56.2428 68.2498C56.8717 68.2498 57.4762 67.694 57.9296 67.265L61.932 63.1798V77.7365L58.1685 74.8944ZM48.4721 42.578C48.9645 42.2953 49.3398 41.8516 49.5348 41.3203L51.3678 36.4355L56.2233 38.3465C56.7401 38.5513 57.3251 38.5659 57.8711 38.3953L62.8338 36.7768L64.3646 41.759C64.5303 42.3001 64.8765 42.7681 65.3493 43.0801L69.7125 45.9515L66.768 50.261C66.4511 50.729 66.3 51.2945 66.3536 51.86L66.8313 57.0519L61.6297 57.4419C61.0691 57.4809 60.5328 57.7198 60.1233 58.1098L56.355 61.7173L52.8108 57.8904C52.4257 57.476 51.9041 57.2079 51.3435 57.1299L46.1711 56.4328L46.9511 51.2701C47.0388 50.7095 46.9218 50.1391 46.6342 49.6516L43.9578 45.1861L48.4721 42.578Z" fill="#59C3FF"/>
<path d="M102.375 92.625H43.875C42.5295 92.625 41.4375 93.717 41.4375 95.0625C41.4375 96.408 42.5295 97.5 43.875 97.5H102.375C103.72 97.5 104.812 96.408 104.812 95.0625C104.812 93.717 103.72 92.625 102.375 92.625Z" fill="#59C3FF"/>
<path d="M102.375 78H82.875C81.5295 78 80.4375 79.092 80.4375 80.4375C80.4375 81.783 81.5295 82.875 82.875 82.875H102.375C103.72 82.875 104.812 81.783 104.812 80.4375C104.812 79.092 103.72 78 102.375 78Z" fill="#59C3FF"/>
<path d="M102.375 63.375H82.875C81.5295 63.375 80.4375 64.467 80.4375 65.8125C80.4375 67.158 81.5295 68.25 82.875 68.25H102.375C103.72 68.25 104.812 67.158 104.812 65.8125C104.812 64.467 103.72 63.375 102.375 63.375Z" fill="#59C3FF"/>
<path d="M102.375 48.75H82.875C81.5295 48.75 80.4375 49.842 80.4375 51.1875C80.4375 52.533 81.5295 53.625 82.875 53.625H102.375C103.72 53.625 104.812 52.533 104.812 51.1875C104.812 49.842 103.72 48.75 102.375 48.75Z" fill="#59C3FF"/>
<path d="M102.375 34.125H82.875C81.5295 34.125 80.4375 35.217 80.4375 36.5625C80.4375 37.908 81.5295 39 82.875 39H102.375C103.72 39 104.812 37.908 104.812 36.5625C104.812 35.217 103.72 34.125 102.375 34.125Z" fill="#59C3FF"/>
</svg>
