<svg width="140" height="175" viewBox="0 0 140 175" fill="none" xmlns="http://www.w3.org/2000/svg">
<path d="M123.73 72.1459C123.73 73.6635 123.676 75.1811 123.553 76.685C123.498 77.437 123.416 78.1752 123.334 78.9135C123.32 79.0776 123.334 79.351 123.266 79.5014C123.293 79.4467 123.389 78.6674 123.293 79.2963C123.225 79.7202 123.17 80.144 123.102 80.5678C122.623 83.4526 121.926 86.31 121.01 89.0854C120.777 89.769 120.545 90.4526 120.299 91.1362C120.053 91.7924 119.861 92.6811 119.465 93.2553C119.506 93.2006 119.779 92.517 119.547 93.0639C119.492 93.2006 119.424 93.3374 119.369 93.4741C119.219 93.8159 119.055 94.1577 118.904 94.4995C118.59 95.1831 118.248 95.8666 117.906 96.5366C116.566 99.1206 115.035 101.609 113.326 103.974C113.107 104.275 112.889 104.562 112.67 104.863C112.547 105.027 112.232 105.519 112.684 104.849C112.588 104.986 112.479 105.109 112.383 105.232C111.877 105.874 111.357 106.503 110.811 107.119C109.799 108.294 108.732 109.429 107.625 110.509C106.641 111.466 105.629 112.396 104.59 113.285C104.098 113.695 103.605 114.105 103.1 114.501C103.031 114.556 102.457 114.953 102.936 114.624C103.414 114.31 102.84 114.693 102.771 114.748C102.484 114.966 102.197 115.171 101.91 115.39C99.7227 116.99 97.4121 118.425 95.0195 119.697C93.8164 120.339 92.5859 120.927 91.3418 121.488C91.1777 121.556 90.8906 121.624 90.7539 121.748C90.7949 121.706 91.5195 121.433 90.9727 121.652C90.6719 121.775 90.3711 121.898 90.0703 122.021C89.4004 122.281 88.7168 122.54 88.0332 122.773C85.4082 123.689 82.7149 124.414 79.9941 124.947C79.2969 125.083 78.6133 125.206 77.916 125.302C77.6426 125.343 77.3008 125.33 77.0274 125.425C77.7383 125.152 77.4922 125.357 77.1641 125.412C76.9043 125.439 76.6445 125.48 76.3848 125.507C74.9629 125.671 73.5274 125.767 72.0918 125.822C69.207 125.917 66.3223 125.808 63.4649 125.48C63.3145 125.466 63.1641 125.439 63.0137 125.425C62.9316 125.412 62.1934 125.316 62.7949 125.398C63.4102 125.48 62.6719 125.384 62.5898 125.371C62.4395 125.343 62.2891 125.33 62.1523 125.302C61.4141 125.193 60.6895 125.056 59.9648 124.919C58.5977 124.646 57.2305 124.331 55.8906 123.962C54.5508 123.593 53.2383 123.183 51.9258 122.732C51.3106 122.513 50.6953 122.294 50.0938 122.048C49.752 121.912 49.4238 121.775 49.0957 121.638C48.7949 121.515 48.8496 121.378 49.3145 121.734C49.1641 121.611 48.9043 121.556 48.7129 121.474C46.2246 120.38 43.8047 119.095 41.4941 117.646C40.3184 116.908 39.1699 116.128 38.0488 115.308C37.7891 115.117 37.5293 114.925 37.2832 114.734C37.1738 114.652 37.0645 114.542 36.9414 114.474C37.666 114.898 37.2422 114.706 37.0508 114.542C36.4902 114.105 35.9434 113.654 35.3965 113.189C33.168 111.289 31.0898 109.21 29.1758 106.996C28.6699 106.408 28.1777 105.806 27.6855 105.205C27.6035 105.095 27.4805 104.89 27.3848 104.822C27.8086 105.123 27.6582 105.177 27.4668 104.931C27.166 104.535 26.8789 104.152 26.5918 103.742C25.7305 102.539 24.9102 101.308 24.1445 100.05C23.4063 98.8334 22.709 97.5893 22.0527 96.3042C21.7383 95.7026 21.4512 95.0874 21.1641 94.4721C21.0273 94.1577 20.877 93.8569 20.7402 93.5424C20.6582 93.3647 20.5898 93.2006 20.5078 93.0229C20.2344 92.394 20.7812 93.6928 20.4941 93.0092C19.4004 90.3159 18.4844 87.5678 17.8008 84.7377C17.459 83.3022 17.1582 81.8666 16.9258 80.4038C16.8574 80.0209 16.8027 79.6381 16.748 79.2416C16.7207 79.0366 16.707 78.5991 16.7754 79.4467C16.7617 79.2963 16.7344 79.1323 16.7207 78.9819C16.625 78.2026 16.543 77.4096 16.4883 76.6303C16.3652 75.1127 16.3105 73.6088 16.3105 72.0913C15.1758 73.226 14.0273 74.3745 12.8926 75.5092C13.918 75.5092 14.9297 75.5092 15.9551 75.5092C18.7305 75.5092 21.5059 75.5092 24.2813 75.5092C28.3828 75.5092 32.4844 75.5092 36.5859 75.5092C41.5898 75.5092 46.5938 75.5092 51.6113 75.5092C57.0664 75.5092 62.5352 75.5092 67.9902 75.5092C73.5274 75.5092 79.0645 75.5092 84.5879 75.5092C89.7422 75.5092 94.9102 75.5092 100.064 75.5092C104.426 75.5092 108.787 75.5092 113.148 75.5092C116.279 75.5092 119.41 75.5092 122.555 75.5092C124.031 75.5092 125.508 75.5366 126.998 75.5092C127.066 75.5092 127.121 75.5092 127.189 75.5092C128.98 75.5092 130.689 73.937 130.607 72.0913C130.525 70.2456 129.104 68.6733 127.189 68.6733C126.164 68.6733 125.152 68.6733 124.127 68.6733C121.352 68.6733 118.576 68.6733 115.801 68.6733C111.699 68.6733 107.598 68.6733 103.496 68.6733C98.4922 68.6733 93.4883 68.6733 88.4707 68.6733C83.0156 68.6733 77.5469 68.6733 72.0918 68.6733C66.5547 68.6733 61.0176 68.6733 55.4941 68.6733C50.3398 68.6733 45.1719 68.6733 40.0176 68.6733C35.6563 68.6733 31.2949 68.6733 26.9336 68.6733C23.8027 68.6733 20.6719 68.6733 17.5273 68.6733C16.0508 68.6733 14.5742 68.6459 13.084 68.6733C13.0156 68.6733 12.9609 68.6733 12.8926 68.6733C11.0469 68.6733 9.47461 70.2456 9.47461 72.0913C9.50195 84.6967 13.4531 97.2749 20.9043 107.474C28.2051 117.578 38.3359 125.193 50.0801 129.335C61.5234 133.369 74.2656 133.751 85.9688 130.566C97.4531 127.435 108.022 120.804 115.787 111.767C124.264 101.91 129.377 89.6323 130.389 76.6713C130.512 75.1538 130.566 73.6498 130.566 72.1323C130.566 70.3413 128.994 68.6323 127.148 68.7143C125.289 68.81 123.73 70.2182 123.73 72.1459Z" fill="#59C3FF"/>
<path d="M89.6191 72.1455C89.6191 77.9697 89.2773 83.7939 88.5254 89.5635C88.5254 89.5908 88.5117 89.9736 88.4707 90.0147C88.6211 89.8232 88.5664 89.3311 88.498 89.7822C88.4434 90.124 88.4023 90.4658 88.3477 90.7939C88.2383 91.5049 88.1289 92.2021 88.0195 92.9131C87.8008 94.2119 87.5684 95.5107 87.3086 96.8096C86.8164 99.2568 86.2285 101.69 85.5449 104.097C84.916 106.298 84.2051 108.485 83.3848 110.632C83.207 111.083 83.0293 111.521 82.8516 111.972C82.7969 112.108 82.7422 112.245 82.6875 112.382C82.5234 112.806 83.0566 111.534 82.7969 112.136C82.6875 112.396 82.5645 112.669 82.4551 112.929C82.0586 113.817 81.6348 114.692 81.1836 115.567C80.3359 117.194 79.4063 118.767 78.3398 120.257C78.2168 120.435 78.0938 120.599 77.9707 120.776C77.5195 121.378 78.3945 120.243 78.0801 120.64C77.8066 120.968 77.5469 121.31 77.2598 121.624C76.7539 122.198 76.2207 122.759 75.6602 123.278C75.4141 123.511 75.1543 123.743 74.8809 123.962C74.7441 124.071 74.1973 124.509 74.7715 124.058C75.3457 123.606 74.7305 124.071 74.6074 124.167C74.0742 124.536 73.5273 124.878 72.9531 125.179C72.7891 125.261 72.625 125.329 72.4746 125.411C71.873 125.698 73.1719 125.151 72.8027 125.274C72.502 125.384 72.2148 125.493 71.9141 125.589C71.6133 125.685 71.3262 125.753 71.0254 125.821C70.8887 125.849 70.752 125.876 70.6289 125.89C69.9453 126.013 71.627 125.794 70.9297 125.849C70.3145 125.89 69.7129 125.89 69.0977 125.849C68.4141 125.794 70.0547 126.013 69.4531 125.903C69.3027 125.876 69.1523 125.849 69.002 125.821C68.7012 125.753 68.4004 125.685 68.1133 125.589C67.8125 125.493 67.5254 125.384 67.2246 125.274C66.7734 125.11 68.168 125.698 67.5527 125.411C67.3887 125.329 67.2246 125.261 67.0742 125.179C66.4863 124.878 65.9121 124.522 65.3652 124.14C65.2422 124.044 65.1191 123.948 64.9961 123.866C66.0488 124.618 65.3652 124.153 65.1328 123.962C64.8594 123.729 64.5859 123.483 64.3125 123.237C63.752 122.718 63.2188 122.157 62.7129 121.569C62.4668 121.282 62.2207 120.981 61.9883 120.681C61.5508 120.147 62.5352 121.405 62.0566 120.763C61.9199 120.571 61.7695 120.38 61.6328 120.188C61.1133 119.464 60.6348 118.726 60.1699 117.96C59.1582 116.292 58.2832 114.542 57.4902 112.765C57.3945 112.56 57.2988 112.341 57.2168 112.122C56.998 111.63 57.3535 112.437 57.3535 112.45C57.2988 112.313 57.2441 112.177 57.1895 112.04C56.9707 111.507 56.7656 110.987 56.5605 110.454C56.1641 109.401 55.7812 108.349 55.4395 107.282C53.8945 102.565 52.7871 97.7119 51.9805 92.8174C51.8711 92.1885 51.7754 91.5596 51.6797 90.9307C51.625 90.5889 51.584 90.2607 51.5293 89.9189C51.5156 89.7686 51.3789 89.3037 51.5156 89.8096C51.666 90.3701 51.4883 89.5908 51.4746 89.4678C51.2969 88.0732 51.1465 86.6787 51.0098 85.2842C50.7363 82.4268 50.5586 79.5557 50.4766 76.6709C50.4355 75.167 50.4082 73.6631 50.4082 72.1592C49.2734 73.2939 48.125 74.4424 46.9902 75.5771C52.1992 75.5771 57.4219 75.5771 62.6309 75.5771C70.8887 75.5771 79.1328 75.5771 87.3906 75.5771C89.2773 75.5771 91.1777 75.5771 93.0645 75.5771C94.8555 75.5771 96.5645 74.0049 96.4824 72.1592C96.4004 70.3135 94.9785 68.7412 93.0645 68.7412C87.8555 68.7412 82.6328 68.7412 77.4238 68.7412C69.166 68.7412 60.9219 68.7412 52.6641 68.7412C50.7773 68.7412 48.877 68.7412 46.9902 68.7412C45.1445 68.7412 43.5723 70.3135 43.5723 72.1592C43.5859 83.6572 44.8164 95.3467 48.0293 106.421C49.3418 110.933 51.0098 115.39 53.2246 119.532C54.9473 122.772 57.1074 125.958 59.8691 128.405C62.5215 130.757 65.5703 132.343 69.125 132.685C72.2012 132.985 75.4277 131.919 77.957 130.183C84.7383 125.507 88.457 117.317 91 109.771C94.582 99.1748 96.0723 87.8272 96.4277 76.6846C96.4688 75.1807 96.4961 73.6768 96.4961 72.1729C96.4961 70.3818 94.9238 68.6729 93.0781 68.7549C91.1914 68.8096 89.6191 70.2178 89.6191 72.1455Z" fill="#59C3FF"/>
<path d="M107.242 110.865C106.244 111.822 105.219 112.752 104.152 113.641C103.906 113.846 103.66 114.051 103.414 114.242C103.277 114.352 103.141 114.461 103.004 114.57C102.799 114.734 102.389 114.926 103.113 114.502C102.512 114.857 101.965 115.363 101.391 115.773C99.1484 117.373 96.7969 118.795 94.3496 120.053C93.7481 120.367 93.1328 120.668 92.5176 120.955C92.2578 121.078 91.9981 121.201 91.7383 121.31C91.5469 121.393 91.3418 121.488 91.1504 121.57C90.8906 121.68 90.3027 121.762 91.1777 121.57C90.5762 121.707 89.9473 122.076 89.3594 122.295C88.6758 122.555 87.9922 122.801 87.3086 123.019C84.6016 123.935 81.8125 124.633 78.9961 125.125C78.3809 125.234 77.6016 125.221 77.0137 125.439C77.6426 125.207 77.5469 125.371 77.2598 125.412C77.0684 125.439 76.8906 125.453 76.6992 125.48C76.2891 125.521 75.8789 125.576 75.4688 125.617C74.0332 125.754 72.5977 125.836 71.1621 125.863C69.6719 125.891 68.1953 125.863 66.7051 125.781C65.9941 125.74 65.2695 125.685 64.5586 125.617C64.2168 125.59 63.8887 125.549 63.5469 125.508C63.3008 125.48 61.9199 125.275 63.0137 125.453C60.2109 124.988 57.4356 124.469 54.7012 123.662C53.3477 123.266 51.9941 122.814 50.6816 122.309C50.0801 122.076 49.4785 121.83 48.8633 121.584C49.8477 121.967 48.7129 121.516 48.4941 121.42C48.166 121.269 47.8379 121.119 47.5098 120.969C44.7207 119.67 42.041 118.125 39.5117 116.389C38.8691 115.951 38.2266 115.486 37.5977 115.021C37.4609 114.912 37.3105 114.803 37.1738 114.707C36.5586 114.242 37.4473 114.926 37.1875 114.721C36.8867 114.475 36.5723 114.228 36.2715 113.982C35.0547 112.998 33.8926 111.959 32.7715 110.865C32.7715 112.478 32.7715 114.092 32.7715 115.705C33.7422 114.775 34.7402 113.873 35.7793 112.998C36.2852 112.574 36.8184 112.191 37.3105 111.768C36.627 112.369 37.3379 111.74 37.543 111.603C37.8574 111.371 38.1582 111.139 38.4727 110.92C40.6738 109.334 42.9844 107.912 45.3906 106.668C46.6074 106.039 47.8379 105.451 49.082 104.918C49.1914 104.863 49.6836 104.685 49.2188 104.863C48.7539 105.041 49.2324 104.863 49.3555 104.809C49.6836 104.672 50.0117 104.549 50.3398 104.412C51.0234 104.152 51.6934 103.906 52.3906 103.66C55.125 102.717 57.9414 101.992 60.7852 101.486C61.4414 101.363 62.1113 101.268 62.7676 101.172C63.3965 101.076 62.6992 101.199 62.6035 101.185C62.7539 101.185 62.9453 101.144 63.1094 101.117C63.5332 101.062 63.9434 101.021 64.3672 100.98C65.8984 100.83 67.4297 100.748 68.9746 100.721C70.4375 100.693 71.9004 100.721 73.3633 100.803C74.0879 100.844 74.8125 100.898 75.5234 100.967C75.9063 101.008 76.2754 101.049 76.6582 101.09C76.8223 101.103 77 101.131 77.1641 101.144C77.834 101.227 76.6992 101.076 77.1367 101.144C80.0215 101.582 82.8652 102.17 85.6543 103.018C87.0215 103.428 88.3613 103.893 89.6875 104.412C89.9746 104.521 90.2754 104.644 90.5625 104.754C90.6856 104.809 90.877 104.863 91 104.932C90.3711 104.549 90.6172 104.768 90.8359 104.863C91.4785 105.15 92.1211 105.424 92.75 105.725C95.5117 107.037 98.1777 108.568 100.707 110.318C101.309 110.728 101.91 111.166 102.498 111.603C102.621 111.699 102.744 111.795 102.867 111.877C103.455 112.328 102.375 111.48 102.908 111.904C103.209 112.15 103.51 112.383 103.811 112.629C105 113.613 106.148 114.639 107.27 115.705C108.555 116.949 110.838 117.086 112.109 115.705C113.34 114.365 113.49 112.191 112.109 110.865C103.564 102.662 92.6406 96.9199 80.9649 94.8554C68.3594 92.6269 55.4121 94.3222 43.8457 99.8183C37.9941 102.594 32.6211 106.394 27.959 110.865C26.6465 112.123 26.6465 114.434 27.959 115.705C36.5313 123.935 47.5098 129.691 59.2402 131.742C71.6816 133.916 84.4375 132.262 95.8945 126.916C101.869 124.127 107.365 120.271 112.123 115.705C113.422 114.461 113.463 112.109 112.123 110.865C110.688 109.594 108.623 109.539 107.242 110.865Z" fill="#59C3FF"/>
<path d="M36.1073 53.7988C36.1073 54.6738 36.1073 55.5352 36.1073 56.4102C36.1073 56.8613 36.08 57.3262 36.1073 57.7773C36.1347 58.2148 36.1484 57.5039 36.1757 57.3945C36.2987 56.916 36.7773 56.2734 37.2011 56.0273C37.4609 55.877 37.7206 55.8086 38.0077 55.7676C41.9316 55.1934 38.3495 55.7402 38.3222 55.7266C38.1718 55.6309 37.6249 55.7266 37.4472 55.7266C36.7499 55.7266 36.039 55.7266 35.3417 55.7266C30.8027 55.7266 26.2636 55.7266 21.7382 55.7266C19.9335 55.7266 18.1288 55.7266 16.3241 55.7266C15.9413 55.7266 15.5312 55.6855 15.162 55.7266C15.1484 55.7266 15.0937 55.7129 15.08 55.7266C15.0527 55.7402 9.99406 54.9883 15.3944 55.7676C16.3515 55.9043 17.1445 56.6973 17.2675 57.6816C17.3495 58.3652 17.2948 57.2988 17.2948 57.1484C17.2948 56.0957 17.2948 55.043 17.2948 54.0039C17.2948 53.8945 17.2948 53.7852 17.2948 53.6758C17.2948 53.375 17.3222 53.0742 17.3495 52.7734C17.3632 52.6914 17.3905 52.2402 17.3495 52.7188C17.3085 53.2109 17.3769 52.6641 17.3905 52.5547C17.4999 52.0488 17.6366 51.543 17.8144 51.0645C17.8417 50.9688 17.8827 50.8867 17.9237 50.791C18.0741 50.3809 17.6093 51.4609 17.8007 51.0781C17.8964 50.8867 17.9921 50.6816 18.1015 50.4902C18.2929 50.1348 18.5116 49.7793 18.7577 49.4512C19.1816 48.8496 18.3612 49.9023 18.7441 49.4648C18.8945 49.3008 19.0312 49.1367 19.1816 48.9727C19.4687 48.6719 19.7694 48.4121 20.0702 48.1387C20.5077 47.7559 19.4003 48.6172 20.0429 48.1523C20.2206 48.0293 20.412 47.9063 20.5898 47.7832C20.9452 47.5645 21.3007 47.373 21.6698 47.1953C22.3398 46.8809 21.0819 47.4004 21.6425 47.209C21.8612 47.1406 22.0663 47.0586 22.2851 46.9902C22.6952 46.8672 23.1054 46.7852 23.5155 46.7031C24.1171 46.5938 22.7226 46.7852 23.4882 46.7168C23.7206 46.7031 23.953 46.6895 24.1855 46.6758C25.9902 46.6348 27.8222 46.5937 29.6269 46.6895C29.7636 46.7031 30.5566 46.7715 30.037 46.7168C29.5585 46.6621 29.9687 46.7168 30.0644 46.7305C30.2284 46.7715 30.3788 46.7988 30.5429 46.8262C31.0624 46.9492 31.5546 47.1543 32.0741 47.3184C32.1015 47.3184 31.3905 47.0039 31.7187 47.168C31.8007 47.209 31.8964 47.25 31.9921 47.291C32.1972 47.4004 32.4023 47.5098 32.6073 47.6191C32.7714 47.7148 32.9491 47.8242 33.1132 47.9336C33.1952 47.9883 33.2773 48.043 33.3593 48.0977C33.9335 48.4805 32.9081 47.7148 33.2226 47.9746C33.5507 48.2617 33.8652 48.5352 34.1659 48.8359C34.3027 48.9727 34.4394 49.123 34.5624 49.2734C34.6445 49.3691 34.7265 49.4922 34.8085 49.5742C34.7128 49.4785 34.371 48.9727 34.6308 49.3555C34.8769 49.7109 35.1093 50.0664 35.3144 50.4492C35.4101 50.627 35.5058 50.8047 35.5878 50.9824C35.9296 51.707 35.3691 50.3535 35.6288 51.0918C35.8066 51.5977 35.9296 52.1035 36.0527 52.623C36.203 53.2656 36.0253 52.0488 36.08 52.7188C36.08 53.1152 36.0937 53.457 36.1073 53.7988C36.1347 55.5898 37.6659 57.2988 39.5253 57.2168C41.3573 57.1348 42.9706 55.7129 42.9433 53.7988C42.8749 48.7129 40.0448 43.75 35.4374 41.4395C33.3456 40.4004 31.1308 39.8672 28.7929 39.8672C27.6445 39.8672 26.496 39.8672 25.3476 39.8672C23.8573 39.8672 22.3808 39.9355 20.9316 40.3047C18.662 40.8652 16.5839 42.0684 14.8749 43.627C13.1523 45.1992 11.9218 47.25 11.1562 49.4375C10.5546 51.1602 10.4452 52.9785 10.4452 54.7832C10.4452 55.8359 10.4042 56.8887 10.4452 57.9277C10.5409 60.5664 12.537 62.4805 15.1484 62.5625C16.5019 62.6035 17.8554 62.5625 19.2089 62.5625C24.1855 62.5625 29.1757 62.5625 34.1523 62.5625C35.5058 62.5625 36.8456 62.6035 38.1991 62.5625C40.8241 62.4941 42.8202 60.5801 42.9159 57.9277C42.9569 56.875 42.9159 55.8223 42.9159 54.7832C42.9159 54.4551 42.9159 54.127 42.9159 53.8125C42.9159 52.0215 41.3437 50.3125 39.498 50.3945C37.6659 50.4629 36.1073 51.8848 36.1073 53.7988Z" fill="#59C3FF"/>
<path d="M79.3515 23.4744C79.3515 23.7888 79.3379 24.1033 79.3105 24.4314C79.2968 24.6091 79.2558 24.8142 79.2558 24.9919C79.2558 24.9509 79.4062 24.0896 79.2968 24.6365C79.1738 25.2654 79.0371 25.8943 78.8457 26.5095C78.791 26.6736 78.4082 27.6169 78.6679 27.0427C78.9277 26.4685 78.5449 27.3025 78.4629 27.4529C78.1621 28.0408 77.834 28.6013 77.4511 29.1345C77.3828 29.2302 77.3007 29.3259 77.2461 29.4216C77.7656 28.5876 77.5058 29.0798 77.3418 29.2849C77.164 29.49 76.9863 29.6814 76.8086 29.8865C76.6035 30.1052 76.3847 30.3103 76.166 30.5017C75.9199 30.7205 75.0312 31.2947 75.9609 30.7068C75.455 31.0212 74.9902 31.3904 74.457 31.6775C74.1972 31.8279 73.9238 31.9646 73.6504 32.0876C73.541 32.1423 73.4316 32.1833 73.3222 32.238C74.2246 31.7732 73.7187 32.074 73.459 32.156C72.8847 32.3611 72.2968 32.5388 71.6953 32.6619C71.5449 32.6892 71.3945 32.7166 71.2441 32.7439C70.9433 32.7986 70.5742 32.7302 71.5039 32.7166C71.1347 32.7166 70.7519 32.7849 70.3691 32.7986C69.7675 32.8123 69.166 32.7712 68.5644 32.7302C68.0996 32.6892 69.4941 32.8806 68.8242 32.7576C68.7011 32.7302 68.5781 32.7166 68.455 32.6892C68.0996 32.6208 67.7304 32.5388 67.375 32.4294C67.0879 32.3474 66.7871 32.2517 66.5136 32.1423C66.4043 32.1013 66.2812 32.0466 66.1718 32.0193C67.0742 32.238 66.6093 32.2107 66.3222 32.074C65.7754 31.8279 65.2558 31.5271 64.75 31.199C64.5039 31.0349 64.2715 30.8435 64.0117 30.6794C64.9414 31.2537 64.0937 30.7341 63.875 30.5291C63.4101 30.1052 62.9863 29.654 62.5761 29.1892C62.3984 28.9841 62.2343 28.615 62.7265 29.3943C62.6582 29.2986 62.5898 29.2029 62.5215 29.1072C62.3437 28.8611 62.1797 28.615 62.0293 28.3552C61.8789 28.0955 61.7285 27.8357 61.5918 27.5759C61.5234 27.4392 61.455 27.3025 61.3867 27.1658C61.25 26.865 61.1679 26.2908 61.4004 27.2341C61.2636 26.6736 61.0039 26.1404 60.8672 25.5798C60.7988 25.3064 60.7441 25.033 60.6894 24.7595C60.6484 24.4998 60.6347 23.8572 60.7031 24.9236C60.6894 24.7322 60.6621 24.5544 60.6484 24.363C60.6074 23.7341 60.6074 23.0915 60.6484 22.4626C60.6621 22.3396 60.6757 22.2165 60.6757 22.0935C60.7441 21.3826 60.5254 22.9548 60.6484 22.2576C60.7031 21.9568 60.7578 21.656 60.8261 21.3552C60.9629 20.7673 61.2363 20.2068 61.373 19.6189C61.1679 20.4529 61.1406 20.1384 61.2773 19.8513C61.3457 19.7146 61.4004 19.5779 61.4687 19.4412C61.6191 19.1404 61.7695 18.8533 61.9472 18.5798C62.0976 18.3201 62.2617 18.074 62.4394 17.8279C62.5215 17.7048 62.6172 17.5955 62.6992 17.4724C62.2207 18.2244 62.3437 17.9236 62.4941 17.7458C62.9179 17.2537 63.3554 16.7751 63.8476 16.3376C64.08 16.1326 64.914 15.613 63.9843 16.1873C64.2168 16.0505 64.4218 15.8728 64.6406 15.7224C65.1601 15.3806 65.7207 15.0662 66.2812 14.8064C66.3769 14.7654 66.9375 14.5056 66.3632 14.7654C65.789 15.0251 66.3496 14.779 66.459 14.738C66.7461 14.6287 67.0332 14.533 67.3203 14.4509C67.6211 14.3689 67.9082 14.2869 68.209 14.2322C68.332 14.2048 68.455 14.1775 68.5781 14.1638C68.7011 14.1365 68.8242 14.1228 68.9472 14.1091C68.7695 14.1365 68.5918 14.1638 68.414 14.1775C69.0429 14.1912 69.6718 14.0818 70.3144 14.0955C70.6289 14.1091 70.9433 14.1365 71.2578 14.1638C71.9414 14.2185 70.5332 14.0408 70.998 14.1228C71.2168 14.1638 71.4218 14.1912 71.6406 14.2322C72.2968 14.3689 72.9394 14.574 73.5683 14.7927C74.1836 15.0115 72.9394 14.4919 73.3359 14.6833C73.5273 14.779 73.7187 14.8611 73.9101 14.9568C74.1836 15.0935 74.4433 15.2302 74.7031 15.3806C75.0175 15.5583 75.3047 15.7634 75.6054 15.9685C75.6875 16.0369 76.1797 16.3923 75.6875 16.0232C75.1679 15.6404 75.7968 16.1326 75.8925 16.2146C76.3847 16.6384 76.8496 17.1169 77.2734 17.6091C77.3418 17.6912 77.7109 18.1697 77.3418 17.6775C76.959 17.158 77.4238 17.8142 77.4922 17.9099C77.6836 18.1833 77.8613 18.4568 78.0254 18.7439C78.1894 19.031 78.3398 19.3181 78.4902 19.6189C78.5586 19.7556 78.6132 19.8923 78.6816 20.029C78.791 20.2751 78.7363 20.1384 78.5175 19.6326C78.5586 19.7419 78.5996 19.8513 78.6406 19.9744C78.873 20.6033 79.0507 21.2595 79.1738 21.9158C79.2011 22.0662 79.2285 22.2165 79.2558 22.3669C79.2968 22.6404 79.2832 22.49 79.2011 21.9158C79.2148 22.0388 79.2285 22.1619 79.2422 22.2849C79.3379 22.7224 79.3515 23.1052 79.3515 23.4744C79.3652 25.2654 80.9101 26.9744 82.7695 26.8923C84.6152 26.8103 86.2011 25.3884 86.1875 23.4744C86.1328 16.5564 81.7441 10.5408 75.291 8.1892C69.2207 5.97436 61.8242 7.97045 57.7226 12.9607C55.4668 15.7087 54.1543 18.8806 53.8672 22.4353C53.6074 25.6755 54.4687 29.0935 56.1504 31.8552C57.7773 34.5076 60.2109 36.8044 63.0547 38.0896C66.3359 39.5662 69.7949 40.0037 73.3496 39.3201C80.7871 37.8845 86.1328 30.9529 86.1875 23.488C86.2011 21.697 84.6015 19.988 82.7695 20.0701C80.8965 20.1521 79.3652 21.5603 79.3515 23.4744Z" fill="#59C3FF"/>
<path d="M85.0937 51.4338C85.0937 52.7463 85.0937 54.0588 85.0937 55.3713C85.0937 56.0139 85.0527 56.6565 85.0937 57.2854C85.0937 57.3264 85.0801 57.3811 85.0937 57.4221C85.0801 57.3811 85.2578 56.6155 85.1621 56.9572C85.1484 56.9846 85.1484 57.0119 85.1347 57.0393C85.2304 56.6838 85.4082 56.3694 85.6816 56.1233C85.3125 56.4924 85.9687 55.9319 85.9961 55.9182C85.9414 55.9455 85.9004 55.9729 85.8457 56.0002C86.1738 55.7951 86.5156 55.6994 86.8984 55.7131C86.8574 55.7131 86.8164 55.7131 86.7754 55.7131C85.3125 55.6447 83.8222 55.7131 82.3594 55.7131C75.6191 55.7131 68.8789 55.7131 62.1523 55.7131C59.623 55.7131 57.1074 55.7131 54.5781 55.7131C54.1269 55.7131 53.6758 55.6858 53.2246 55.7131H53.2109C53.1699 55.7131 53.1425 55.7131 53.1015 55.7131C53.3886 55.6858 53.6621 55.7541 53.9082 55.8908C53.9902 55.9319 54.0722 55.9592 54.1543 56.0002C53.8535 55.8225 53.9492 55.9045 54.4277 56.2463C55.0293 56.8615 54.7695 56.7795 54.6465 56.5334C54.7148 56.6975 54.7832 56.8752 54.8515 57.0393C54.7695 56.6838 54.7832 56.8205 54.8926 57.4221C54.8926 57.3947 54.8926 57.3537 54.8926 57.3264C54.9472 56.7248 54.8926 56.0959 54.8926 55.4944C54.8926 54.1408 54.8789 52.7873 54.8926 51.4338C54.8926 51.1057 54.9062 50.7639 54.9199 50.4358C54.9336 50.2307 54.9609 50.0256 54.9746 49.8205C55.0019 49.301 54.8242 50.6819 54.9609 49.8889C55.0976 49.0959 55.2754 48.3303 55.5351 47.5647C55.6445 47.2502 55.7676 46.9358 55.8769 46.6213C55.5078 47.674 55.8906 46.635 56 46.3889C56.2871 45.8283 56.6015 45.2815 56.9433 44.7483C57.1211 44.4885 57.3125 44.2424 57.4902 43.9826C56.8476 44.8987 57.5039 43.9963 57.6679 43.8049C58.0781 43.3401 58.5293 42.8889 58.9941 42.4787C59.2265 42.2737 60.0742 41.7131 59.1718 42.301C59.4316 42.1369 59.6777 41.9319 59.9375 41.7541C60.457 41.3987 61.0039 41.0842 61.5781 40.7971C61.7422 40.7151 61.9199 40.633 62.0976 40.551C62.3301 40.4416 62.6035 40.4416 61.8105 40.674C62.1113 40.592 62.4121 40.4416 62.7129 40.3459C63.3281 40.1408 63.957 39.9768 64.5859 39.8537C64.7773 39.8127 64.9687 39.7854 65.1601 39.7444C65.4336 39.6897 65.6386 39.799 64.832 39.7854C65.1601 39.799 65.5019 39.717 65.8301 39.7033C66.1445 39.6897 66.459 39.676 66.7597 39.676C68.25 39.676 69.7402 39.676 71.2304 39.676C71.8594 39.676 72.4883 39.676 73.1172 39.676C73.3769 39.676 73.6367 39.676 73.8965 39.6897C74.2246 39.7033 74.5664 39.7307 74.8945 39.758C75.1543 39.7717 75.4277 39.9221 74.5801 39.7033C74.7715 39.7444 74.9765 39.758 75.1679 39.799C75.8105 39.9221 76.4394 40.0725 77.0547 40.2776C77.3554 40.3733 77.6562 40.4963 77.957 40.6057C78.2031 40.7014 78.3672 40.8928 77.6699 40.4826C77.834 40.5783 78.0254 40.6467 78.1894 40.7287C78.7637 41.0022 79.3105 41.3166 79.8437 41.6584C80.1035 41.8362 80.3633 42.0139 80.623 42.1916C80.8418 42.3557 80.8828 42.5471 80.3769 42.0002C80.5 42.1369 80.6777 42.2463 80.8144 42.3557C81.2929 42.7658 81.7441 43.2033 82.1543 43.6682C82.3594 43.9006 82.5371 44.1877 82.7695 44.3928C82.7422 44.3655 82.2636 43.6955 82.5781 44.1467C82.6875 44.2971 82.7969 44.4475 82.9062 44.6115C83.2617 45.1311 83.5898 45.678 83.8769 46.2385C84.0136 46.5119 84.123 46.8401 84.2871 47.0998C84.2597 47.0588 83.9726 46.2932 84.164 46.8127C84.2324 46.9904 84.3008 47.1682 84.3691 47.3596C84.6289 48.1115 84.834 48.8908 84.9707 49.6701C84.9843 49.7795 85.0664 50.0256 85.0527 50.1487C85.039 50.0119 85.0117 49.8615 84.998 49.7248C85.0117 49.8889 85.039 50.0529 85.039 50.217C85.0801 50.6135 85.0937 51.0237 85.0937 51.4338C85.1074 53.2248 86.6523 54.9338 88.5117 54.8518C90.3574 54.7697 91.9433 53.3479 91.9297 51.4338C91.875 44.6936 88.1562 38.2541 82.1679 35.0686C79.4336 33.6194 76.3984 32.8537 73.3086 32.8264C71.8183 32.8127 70.3418 32.8264 68.8515 32.8264C66.9375 32.8264 65.0781 32.8401 63.1777 33.1682C60.0605 33.7014 57.2031 35.1779 54.7695 37.1604C52.2812 39.1701 50.4902 41.8635 49.3008 44.8166C48.3437 47.2092 48.0703 49.7658 48.0703 52.3225C48.0703 53.9494 48.0566 55.5627 48.0703 57.1897C48.084 60.2112 50.2851 62.4944 53.3203 62.5627C55.207 62.6037 57.1074 62.5627 58.9941 62.5627C66.1718 62.5627 73.3359 62.5627 80.5137 62.5627C82.5371 62.5627 84.5605 62.5764 86.5703 62.5627C89.5234 62.549 91.8476 60.3752 91.9297 57.3947C91.9707 55.8908 91.9297 54.3733 91.9297 52.8694C91.9297 52.3908 91.9297 51.9123 91.9297 51.4338C91.9297 49.6428 90.3574 47.9338 88.5117 48.0158C86.666 48.0979 85.0937 49.5197 85.0937 51.4338Z" fill="#59C3FF"/>
<path d="M118.727 34.439C118.727 34.6577 118.713 34.8901 118.699 35.1089C118.686 35.2046 118.672 35.3003 118.672 35.396C118.672 35.437 118.809 34.5894 118.727 34.9585C118.645 35.3823 118.563 35.8062 118.426 36.2163C118.371 36.4077 118.248 36.6128 118.207 36.8179C118.207 36.8316 118.549 36.1343 118.371 36.4214C118.33 36.4898 118.289 36.5855 118.248 36.6675C118.043 37.0777 117.811 37.4468 117.551 37.8296C117.496 37.898 117.441 37.9663 117.387 38.0484C117.387 38.062 117.893 37.4878 117.647 37.7066C117.496 37.8433 117.373 38.021 117.236 38.1714C117.113 38.2944 116.99 38.4312 116.854 38.5405C116.772 38.6226 116.676 38.6909 116.58 38.773C116.252 39.0874 116.772 38.6226 116.854 38.5679C116.512 38.7593 116.211 39.0191 115.883 39.2105C115.705 39.3198 115.514 39.4019 115.322 39.4976C114.844 39.7437 116.074 39.2241 115.391 39.4702C115.008 39.6069 114.639 39.7163 114.242 39.7984C114.078 39.8394 113.34 39.9487 113.955 39.8667C114.57 39.771 113.818 39.8667 113.654 39.8667C113.23 39.8804 112.738 39.771 112.314 39.8257C112.273 39.8257 113.121 39.9624 112.752 39.8804C112.656 39.8667 112.574 39.853 112.479 39.8257C112.232 39.7847 112 39.7163 111.754 39.6616C111.576 39.6069 111.398 39.5523 111.234 39.4976C111.139 39.4566 111.002 39.3882 110.893 39.3745C110.865 39.3745 111.59 39.7163 111.289 39.5386C110.92 39.3335 110.537 39.1558 110.182 38.937C110.004 38.8276 109.84 38.6773 109.662 38.5816C109.635 38.5679 110.236 39.0874 110.004 38.8413C109.949 38.773 109.867 38.7319 109.799 38.6636C109.484 38.3901 109.211 38.0757 108.924 37.7749C108.555 37.3784 109.375 38.4312 108.965 37.8296C108.842 37.6519 108.732 37.4878 108.623 37.3101C108.527 37.1597 108.445 36.9956 108.363 36.8452C108.322 36.7632 108.281 36.6812 108.24 36.5991C107.98 36.1069 108.281 36.6265 108.322 36.8316C108.254 36.4487 108.049 36.0796 107.953 35.6968C107.912 35.5191 107.871 35.3413 107.83 35.1499C107.693 34.3706 107.885 35.9019 107.83 35.1226C107.803 34.7124 107.803 34.2886 107.816 33.8784C107.816 33.7827 107.83 33.687 107.844 33.5913C107.871 33.1538 107.707 34.3706 107.789 33.9468C107.83 33.728 107.871 33.523 107.912 33.3042C108.008 32.9077 108.145 32.5523 108.268 32.1694C108.391 31.773 107.939 32.853 108.131 32.4839C108.172 32.4019 108.213 32.3198 108.254 32.2378C108.363 32.0191 108.473 31.814 108.596 31.6089C108.691 31.4585 108.787 31.3081 108.883 31.1577C108.938 31.0894 108.992 31.0073 109.033 30.939C109.266 30.5972 108.541 31.5132 108.828 31.2124C109.115 30.9116 109.375 30.5972 109.689 30.3101C109.799 30.2144 110.291 29.8179 109.826 30.1734C109.334 30.5425 109.949 30.105 110.059 30.023C110.414 29.7905 110.783 29.5991 111.152 29.4077C111.645 29.148 110.346 29.6948 111.084 29.4351C111.262 29.3804 111.426 29.312 111.604 29.2573C111.809 29.2027 112.014 29.148 112.232 29.0933C112.383 29.0659 113.135 28.9429 112.52 29.0249C111.877 29.1206 112.67 29.0249 112.82 29.0249C113.039 29.0112 113.272 29.0112 113.49 29.0249C113.682 29.0249 113.873 29.0523 114.064 29.0659C114.434 29.0796 113.586 28.9976 113.627 28.9976C113.777 29.0386 113.941 29.0523 114.092 29.0796C114.543 29.1753 114.98 29.312 115.418 29.4624C115.527 29.5034 115.842 29.6401 115.35 29.4214C114.789 29.189 115.309 29.4077 115.432 29.4761C115.623 29.5718 115.801 29.6675 115.979 29.7769C116.184 29.8999 116.389 30.0366 116.58 30.1597C117.182 30.5698 116.047 29.6675 116.594 30.1734C116.922 30.4741 117.223 30.8023 117.537 31.1304C117.619 31.2124 117.811 31.4859 117.496 31.062C117.127 30.5698 117.496 31.062 117.551 31.1441C117.674 31.3218 117.783 31.4995 117.893 31.6773C118.016 31.8823 118.125 32.1011 118.234 32.3062C118.576 32.9487 118.029 31.7319 118.207 32.2378C118.371 32.7027 118.508 33.1675 118.604 33.646C118.617 33.7417 118.631 33.8237 118.658 33.9194C118.74 34.3296 118.59 33.1402 118.604 33.564C118.699 33.8648 118.727 34.1519 118.727 34.439C118.74 36.23 120.285 37.939 122.145 37.8569C123.977 37.7749 125.576 36.353 125.563 34.439C125.508 29.1753 122.199 24.6909 117.318 22.8589C112.752 21.1499 107.133 22.6948 104.043 26.4273C100.721 30.4468 100.051 36.189 102.785 40.728C105.52 45.2534 110.77 47.3999 115.91 46.4155C121.529 45.3355 125.508 40.0444 125.576 34.439C125.59 32.648 123.99 30.939 122.158 31.021C120.272 31.103 118.74 32.5112 118.727 34.439Z" fill="#59C3FF"/>
<path d="M122.705 53.799C122.705 54.6877 122.705 55.5764 122.705 56.4787C122.705 56.9162 122.678 57.3674 122.705 57.8186C122.705 57.8459 122.691 57.928 122.705 57.9416C122.541 57.7639 123.033 56.9709 123.074 56.8752C123.348 56.3967 123.525 56.1369 124.045 55.9182C124.168 55.8635 124.824 55.6037 124.934 55.7131H124.92C124.701 55.6174 124.223 55.7131 123.99 55.7131C123.279 55.7131 122.555 55.7131 121.844 55.7131C117.236 55.7131 112.629 55.7131 108.021 55.7131C106.271 55.7131 104.508 55.7131 102.758 55.7131C102.443 55.7131 102.02 55.6311 101.705 55.7131C102.648 55.4807 104.084 57.0666 103.893 57.8869C103.975 57.5315 103.893 57.0803 103.893 56.7248C103.893 55.7541 103.893 54.7834 103.893 53.8127C103.893 53.4162 103.92 53.0334 103.961 52.6369C103.988 52.2405 103.934 52.9104 103.92 52.924C103.947 52.9104 103.975 52.5959 103.988 52.5549C104.057 52.2268 104.139 51.9123 104.234 51.5979C104.303 51.3518 104.398 51.1194 104.48 50.8869C104.686 50.3264 104.166 51.5432 104.439 51.01C104.645 50.6135 104.85 50.2307 105.082 49.8479C105.205 49.6565 105.328 49.4924 105.451 49.301C105.656 49.0002 105.178 49.6428 105.205 49.6155C105.287 49.5471 105.383 49.3967 105.451 49.3283C105.738 49.0002 106.053 48.6858 106.367 48.385C106.504 48.2619 106.668 48.1526 106.791 48.0158C106.764 48.0432 106.094 48.5217 106.545 48.2072C106.627 48.1526 106.695 48.0979 106.777 48.0432C107.146 47.7971 107.516 47.5647 107.912 47.3733C108.103 47.2776 108.322 47.1955 108.514 47.0862C108.541 47.0725 107.789 47.3596 108.145 47.2502C108.24 47.2229 108.322 47.1819 108.418 47.1545C108.842 47.0041 109.279 46.8811 109.717 46.7854C109.84 46.758 110.66 46.635 110.031 46.717C109.402 46.799 110.236 46.7033 110.373 46.7033C110.605 46.6897 110.824 46.6897 111.057 46.6897C112.041 46.6897 113.025 46.6897 114.01 46.6897C114.475 46.6897 114.939 46.6897 115.404 46.6897C115.5 46.6897 115.596 46.6897 115.678 46.6897C115.91 46.6897 116.143 46.7033 116.375 46.717C116.471 46.7307 116.566 46.7444 116.676 46.7444C117.113 46.7717 115.924 46.6076 116.348 46.7033C116.758 46.7854 117.168 46.8674 117.578 46.9768C117.797 47.0451 118.002 47.1135 118.221 47.1819C118.945 47.4416 117.578 46.8674 118.289 47.1955C118.658 47.3733 119.027 47.5647 119.369 47.7834C119.533 47.8791 119.684 47.9885 119.848 48.0979C119.943 48.1662 120.053 48.2483 120.148 48.3166C120.053 48.2619 119.561 47.8381 119.902 48.1389C120.203 48.4123 120.504 48.6858 120.791 48.9729C120.941 49.1369 121.078 49.301 121.228 49.4651C121.584 49.8615 120.791 48.8498 121.215 49.4514C121.447 49.7795 121.666 50.135 121.871 50.4904C121.98 50.6819 122.062 50.8869 122.172 51.0783C122.336 51.3928 122.008 50.6682 122.021 50.6955C122.062 50.8459 122.145 50.9963 122.199 51.1467C122.377 51.6526 122.5 52.1584 122.623 52.6779C122.773 53.3205 122.596 52.1037 122.65 52.7737C122.691 53.1155 122.705 53.4572 122.705 53.799C122.732 55.5901 124.264 57.299 126.123 57.217C127.955 57.135 129.568 55.7131 129.541 53.799C129.486 48.7815 126.752 43.9553 122.281 41.5627C120.217 40.4553 117.934 39.8811 115.596 39.8537C114.584 39.8401 113.572 39.8537 112.561 39.8537C111.152 39.8537 109.799 39.8811 108.391 40.1135C106.025 40.4963 103.879 41.6447 102.033 43.135C98.6289 45.883 97.0429 50.1076 97.0429 54.4006C97.0429 55.5354 97.0293 56.6565 97.0429 57.7912C97.084 60.4436 99.0254 62.4944 101.705 62.5627C102.99 62.5901 104.275 62.5627 105.547 62.5627C110.564 62.5627 115.582 62.5627 120.6 62.5627C121.994 62.5627 123.402 62.5901 124.797 62.5627C127.422 62.4944 129.432 60.594 129.527 57.9416C129.568 56.9162 129.527 55.8772 129.527 54.8381C129.527 54.4963 129.527 54.1408 129.527 53.799C129.527 52.008 127.955 50.299 126.109 50.3811C124.277 50.4631 122.705 51.885 122.705 53.799Z" fill="#59C3FF"/>
<path d="M32.129 34.4392C32.129 34.6306 32.129 34.822 32.1154 35.0134C32.088 35.3279 31.8966 35.7927 32.1564 34.8494C32.0607 35.2048 32.0196 35.574 31.9239 35.9294C31.8693 36.1072 31.8146 36.2849 31.7599 36.449C31.6505 36.7634 31.3634 37.0642 31.8419 36.3123C31.6232 36.6677 31.4728 37.0642 31.2404 37.4197C31.1446 37.5701 31.0353 37.7205 30.9396 37.8709C30.5568 38.4314 31.4864 37.242 31.0353 37.7478C30.7892 38.0076 30.5568 38.281 30.297 38.5271C30.1739 38.6502 30.0099 38.7459 29.8868 38.8826C30.4337 38.2537 30.297 38.5818 30.0099 38.7732C29.6681 39.0056 29.2989 39.2244 28.9298 39.4158C28.629 39.5662 28.2052 39.5798 29.0802 39.3611C28.9025 39.4021 28.7384 39.4978 28.5607 39.5525C28.2052 39.6619 27.8497 39.7576 27.4943 39.8259C27.1251 39.8943 26.797 39.7576 27.6583 39.8123C27.4806 39.7986 27.2755 39.8533 27.0841 39.8533C26.6466 39.8669 26.1818 39.7849 25.7443 39.8123C26.6056 39.7576 26.2911 39.8943 25.9083 39.8259C25.7306 39.7849 25.5529 39.7439 25.3614 39.7029C25.006 39.6072 24.6642 39.4431 24.3224 39.3611C25.1974 39.5798 24.7736 39.5525 24.4728 39.4158C24.3087 39.3337 24.1583 39.2517 23.9943 39.156C23.8439 39.0603 23.6798 38.9783 23.5294 38.8689C23.4337 38.8005 23.338 38.7322 23.2286 38.6638C22.9415 38.4587 23.0372 38.5271 23.4884 38.8689C23.256 38.6091 22.9415 38.3904 22.6954 38.1443C22.5724 38.0212 22.463 37.8845 22.34 37.7478C21.8888 37.2556 22.8048 38.4314 22.4357 37.8709C22.2306 37.5701 22.0392 37.283 21.8614 36.9548C21.7794 36.7908 21.6974 36.6267 21.6154 36.4763C21.3419 35.9568 21.9161 37.3103 21.6154 36.449C21.4923 36.1072 21.3966 35.7517 21.3146 35.3826C21.2736 35.2048 21.2599 35.0134 21.2189 34.8357C21.4786 35.7791 21.2872 35.3142 21.2599 34.9998C21.2325 34.5623 21.2599 34.1521 21.2736 33.7146C21.3009 32.908 21.0958 34.4802 21.2736 33.7009C21.3419 33.4002 21.4103 33.0857 21.4923 32.7849C21.5607 32.5525 21.629 32.2654 21.7521 32.0603C21.3146 32.7986 21.7247 32.1697 21.8068 32.0193C21.9161 31.8279 22.0255 31.6365 22.1349 31.4451C22.2169 31.322 22.4767 31.0486 22.504 30.9119C22.4083 31.0349 22.3126 31.158 22.2169 31.281C22.2989 31.1716 22.3946 31.0759 22.4767 30.9802C22.6134 30.8298 22.7501 30.6794 22.8868 30.5427C23.0372 30.406 23.1876 30.2693 23.338 30.1326C23.6114 29.9002 23.5431 29.9548 23.1193 30.283C23.2286 30.2009 23.338 30.1189 23.4474 30.0505C23.7892 29.8181 24.1446 29.6404 24.5001 29.4353C25.1427 29.0798 23.7345 29.6951 24.4318 29.449C24.6232 29.3806 24.8146 29.3123 25.0196 29.2439C25.3888 29.1345 25.8946 29.1345 26.2364 28.9705C26.0724 28.9978 25.9083 29.0115 25.7443 29.0388C25.8946 29.0252 26.045 29.0115 26.1954 28.9978C26.4279 28.9841 26.6603 28.9841 26.8927 28.9841C27.0021 28.9841 27.4669 29.0798 27.5489 29.0252C27.0021 28.9431 26.9064 28.9294 27.2755 28.9841C27.4122 29.0115 27.5489 29.0388 27.6993 29.0662C28.1505 29.1619 28.6564 29.4627 29.1075 29.5037C28.9571 29.449 28.8204 29.3806 28.67 29.3259C28.7931 29.3806 28.9161 29.449 29.0392 29.5037C29.2853 29.6267 29.5177 29.7634 29.7501 29.9138C29.9005 30.0095 30.0919 30.2146 30.256 30.2693C29.8321 29.9412 29.7638 29.8865 30.0372 30.1189C30.1466 30.2146 30.2423 30.2966 30.338 30.3923C30.4884 30.5291 30.6251 30.6794 30.7755 30.8298C30.8712 30.9255 30.9532 31.0349 31.0489 31.1443C30.7618 30.7478 30.7208 30.7068 30.9396 31.0076C31.0763 31.2263 31.2267 31.4314 31.3497 31.6502C31.4591 31.8279 31.8282 32.3064 31.8009 32.5252C31.7462 32.3884 31.6915 32.2654 31.6368 32.1287C31.6915 32.2654 31.7462 32.4158 31.7872 32.5525C31.8829 32.8396 31.965 33.1404 32.0333 33.4412C32.047 33.5232 32.0607 33.5916 32.0743 33.6736C32.1427 34.0564 32.129 33.9744 32.0607 33.4548C32.17 33.5369 32.1154 34.3162 32.129 34.4392C32.1564 36.2302 33.6876 37.9392 35.547 37.8572C37.379 37.7752 38.9923 36.3533 38.965 34.4392C38.8966 28.8748 35.0001 23.6521 29.4357 22.49C24.2404 21.3962 18.7853 23.6384 16.0919 28.2869C13.3986 32.9353 14.1368 38.7459 17.6642 42.7244C20.713 46.156 25.8263 47.5369 30.2013 46.197C35.3693 44.6248 38.9103 39.8259 38.965 34.4392C38.9786 32.6482 37.379 30.9392 35.547 31.0212C33.6739 31.1033 32.1427 32.5115 32.129 34.4392Z" fill="#59C3FF"/>
<path d="M36.1074 53.799C36.1074 54.6877 36.1074 55.5764 36.1074 56.4787C36.1074 56.9162 36.0801 57.3674 36.1074 57.8186C36.1074 57.8459 36.0937 57.928 36.1074 57.9416C35.9433 57.7639 36.4355 56.9709 36.4765 56.8752C36.75 56.3967 36.9277 56.1369 37.4472 55.9182C37.5703 55.8635 38.2265 55.6037 38.3359 55.7131H38.3222C38.1035 55.6174 37.625 55.7131 37.3926 55.7131C36.6816 55.7131 35.957 55.7131 35.2461 55.7131C30.6386 55.7131 26.0312 55.7131 21.4238 55.7131C19.6738 55.7131 17.9101 55.7131 16.1601 55.7131C15.8457 55.7131 15.4218 55.6311 15.1074 55.7131C16.0508 55.4807 17.4863 57.0666 17.2949 57.8869C17.3769 57.5315 17.2949 57.0803 17.2949 56.7248C17.2949 55.7541 17.2949 54.7834 17.2949 53.8127C17.2949 53.4162 17.3222 53.0334 17.3633 52.6369C17.3906 52.2405 17.3359 52.9104 17.3222 52.924C17.3496 52.9104 17.3769 52.5959 17.3906 52.5549C17.459 52.2268 17.541 51.9123 17.6367 51.5979C17.7051 51.3518 17.8008 51.1194 17.8828 50.8869C18.0879 50.3264 17.5683 51.5432 17.8418 51.01C18.0468 50.6135 18.2519 50.2307 18.4843 49.8479C18.6074 49.6565 18.7304 49.4924 18.8535 49.301C19.0586 49.0002 18.5801 49.6428 18.6074 49.6155C18.6894 49.5471 18.7851 49.3967 18.8535 49.3283C19.1406 49.0002 19.4551 48.6858 19.7695 48.385C19.9062 48.2619 20.0703 48.1526 20.1933 48.0158C20.166 48.0432 19.4961 48.5217 19.9472 48.2072C20.0293 48.1526 20.0976 48.0979 20.1797 48.0432C20.5488 47.7971 20.9179 47.5647 21.3144 47.3733C21.5058 47.2776 21.7246 47.1955 21.916 47.0862C21.9433 47.0725 21.1914 47.3596 21.5468 47.2502C21.6426 47.2229 21.7246 47.1819 21.8203 47.1545C22.2441 47.0041 22.6816 46.8811 23.1191 46.7854C23.2422 46.758 24.0625 46.635 23.4336 46.717C22.8047 46.799 23.6386 46.7033 23.7754 46.7033C24.0078 46.6897 24.2265 46.6897 24.459 46.6897C25.4433 46.6897 26.4277 46.6897 27.4121 46.6897C27.8769 46.6897 28.3418 46.6897 28.8066 46.6897C28.9023 46.6897 28.998 46.6897 29.0801 46.6897C29.3125 46.6897 29.5449 46.7033 29.7773 46.717C29.873 46.7307 29.9687 46.7444 30.0781 46.7444C30.5156 46.7717 29.3261 46.6076 29.75 46.7033C30.1601 46.7854 30.5703 46.8674 30.9804 46.9768C31.1992 47.0451 31.4043 47.1135 31.623 47.1819C32.3476 47.4416 30.9804 46.8674 31.6914 47.1955C32.0605 47.3733 32.4297 47.5647 32.7715 47.7834C32.9355 47.8791 33.0859 47.9885 33.25 48.0979C33.3457 48.1662 33.4551 48.2483 33.5508 48.3166C33.4551 48.2619 32.9629 47.8381 33.3047 48.1389C33.6054 48.4123 33.9062 48.6858 34.1933 48.9729C34.3437 49.1369 34.4804 49.301 34.6308 49.4651C34.9863 49.8615 34.1933 48.8498 34.6172 49.4514C34.8496 49.7795 35.0683 50.135 35.2734 50.4904C35.3828 50.6819 35.4648 50.8869 35.5742 51.0783C35.7383 51.3928 35.4101 50.6682 35.4238 50.6955C35.4648 50.8459 35.5468 50.9963 35.6015 51.1467C35.7793 51.6526 35.9023 52.1584 36.0254 52.6779C36.1758 53.3205 35.998 52.1037 36.0527 52.7737C36.0801 53.1155 36.0937 53.4572 36.1074 53.799C36.1347 55.5901 37.666 57.299 39.5254 57.217C41.3574 57.135 42.9707 55.7131 42.9433 53.799C42.8886 48.7815 40.1543 43.9553 35.6836 41.5627C33.6191 40.4553 31.3359 39.8811 28.998 39.8537C27.9863 39.8401 26.9746 39.8537 25.9629 39.8537C24.5547 39.8537 23.2011 39.8811 21.7929 40.1135C19.4277 40.4963 17.2812 41.6447 15.4355 43.135C12.0312 45.883 10.4453 50.1076 10.4453 54.4006C10.4453 55.5354 10.4316 56.6565 10.4453 57.7912C10.4863 60.4436 12.4277 62.4944 15.1074 62.5627C16.3926 62.5901 17.6777 62.5627 18.9492 62.5627C23.9668 62.5627 28.9843 62.5627 34.0019 62.5627C35.3965 62.5627 36.8047 62.5901 38.1992 62.5627C40.8242 62.4944 42.834 60.594 42.9297 57.9416C42.9707 56.9162 42.9297 55.8772 42.9297 54.8381C42.9297 54.4963 42.9297 54.1408 42.9297 53.799C42.9297 52.008 41.3574 50.299 39.5117 50.3811C37.666 50.4631 36.1074 51.885 36.1074 53.799Z" fill="#59C3FF"/>
</svg>
