<svg width="163" height="204" viewBox="0 0 163 204" fill="none" xmlns="http://www.w3.org/2000/svg">
<path d="M125.184 81.5004L146.211 46.2924H104.32L81.5001 8.15039L58.6801 46.2924H16.7891L37.8161 81.5004L16.7891 116.708H58.6801L81.5001 154.85L104.32 116.708H146.211L125.184 81.5004ZM128.444 56.3984L119.479 71.7204L110.351 56.3984H128.444ZM113.611 81.5004L98.6151 106.602H64.3851L49.3891 81.5004L64.3851 56.3984H98.6151L113.611 81.5004ZM81.5001 27.7104L92.5841 46.2924H70.4161L81.5001 27.7104ZM34.5561 56.3984H52.8121L43.6841 71.7204L34.5561 56.3984ZM34.5561 106.602L43.6841 91.2804L52.8121 106.602H34.5561ZM81.5001 135.29L70.4161 116.708H92.5841L81.5001 135.29ZM119.479 91.2804L128.607 106.602H110.351L119.479 91.2804Z" fill="#59C3FF"/>
</svg>
