<svg width="150" height="188" viewBox="0 0 150 188" fill="none" xmlns="http://www.w3.org/2000/svg">
<path d="M131.25 147.656H31.0289C22.9664 147.656 16.4062 141.096 16.4062 133.033V132.738C16.4062 124.675 22.9664 118.115 31.0289 118.115H131.25C132.546 118.115 133.594 119.163 133.594 120.459V145.312C133.594 146.608 132.546 147.656 131.25 147.656ZM31.0289 122.803C25.5492 122.803 21.0938 127.258 21.0938 132.738V133.033C21.0938 138.513 25.5492 142.968 31.0289 142.968H128.906V122.803H31.0289Z" fill="#59C3FF"/>
<path d="M18.75 135.082C17.4563 135.082 16.4062 134.034 16.4062 132.738V17.1141C16.4062 8.96953 23.1867 2.34375 31.5211 2.34375H131.25C132.546 2.34375 133.594 3.39141 133.594 4.6875V120.459C133.594 121.755 132.546 122.803 131.25 122.803H31.0289C29.7352 122.803 28.6852 121.755 28.6852 120.459C28.6852 119.163 29.7352 118.116 31.0289 118.116H128.906V7.03125H31.5211C25.7719 7.03125 21.0938 11.5547 21.0938 17.1141V132.738C21.0938 134.034 20.0437 135.082 18.75 135.082Z" fill="#59C3FF"/>
<path d="M113.662 135.394H38.1023C36.8085 135.394 35.7585 134.346 35.7585 133.05C35.7585 131.754 36.8085 130.706 38.1023 130.706H113.662C114.959 130.706 116.006 131.754 116.006 133.05C116.006 134.346 114.959 135.394 113.662 135.394Z" fill="#59C3FF"/>
<path d="M112.535 39.4805C112.111 39.4805 111.692 39.3656 111.314 39.1383L101.597 33.218L91.8798 39.1383C91.1556 39.5812 90.2509 39.5953 89.5126 39.1828C88.7743 38.768 88.3149 37.9852 88.3149 37.1391V4.6875C88.3149 3.39141 89.3626 2.34375 90.6587 2.34375C91.9548 2.34375 93.0024 3.39141 93.0024 4.6875V32.9625L100.376 28.4695C101.126 28.0125 102.066 28.0125 102.816 28.4695L110.189 32.9625V4.6875C110.189 3.39141 111.237 2.34375 112.533 2.34375C113.829 2.34375 114.877 3.39141 114.877 4.6875V37.1367C114.877 37.9828 114.42 38.7656 113.679 39.1805C113.327 39.3797 112.931 39.4805 112.535 39.4805Z" fill="#59C3FF"/>
</svg>
