<svg width="148" height="185" viewBox="0 0 148 185" fill="none" xmlns="http://www.w3.org/2000/svg">
<path fill-rule="evenodd" clip-rule="evenodd" d="M17.9798 7.40039C17.7653 7.40527 17.557 7.47308 17.3807 7.5954C17.2044 7.71771 17.068 7.88913 16.9883 8.08836L15.4014 12.0485C15.2999 12.3034 15.2978 12.5871 15.3956 12.8434L18.3007 20.5036C18.3951 20.755 18.5786 20.963 18.8164 21.0878C19.0542 21.2127 19.3296 21.2458 19.5902 21.1809C19.8508 21.1159 20.0784 20.9574 20.2297 20.7355C20.381 20.5136 20.4455 20.2438 20.4108 19.9775L19.4685 12.6816L19.8153 12.5659L20.8936 17.9541C20.9278 18.1288 21.0042 18.2925 21.1161 18.431L26.432 24.9552L25.5272 26.4034C25.4471 26.5316 25.3944 26.675 25.3724 26.8246C25.3504 26.9742 25.3597 27.1267 25.3996 27.2726C25.4396 27.4184 25.5093 27.5544 25.6044 27.672C25.6994 27.7895 25.8179 27.8861 25.9521 27.9556L33.6123 31.9187C33.753 31.9915 33.9079 32.0329 34.0661 32.0401L39.5959 32.2916L45.4321 35.8412C45.5734 35.9278 45.7325 35.9812 45.8975 35.9973L50.8028 36.4656L52.3956 40.102C52.4776 40.2901 52.6108 40.4514 52.78 40.5674L58.5931 44.5276C58.763 44.644 58.9624 44.7102 59.1683 44.7184L65.282 44.9438L65.4959 51.1616L59.6973 57.9719C59.5752 58.1152 59.4922 58.2877 59.4563 58.4725C59.4203 58.6573 59.4326 58.8483 59.4921 59.0269L60.3882 61.7181L59.0614 63.9266C58.9158 64.1697 58.8702 64.4598 58.9342 64.7359L59.7262 68.17C59.7709 68.3629 59.8671 68.54 60.0046 68.6826C60.142 68.8251 60.3155 68.9277 60.5067 68.9794L62.9464 69.6471L67.5974 78.7063L67.3632 81.2963C67.3435 81.5135 67.3891 81.7316 67.4942 81.9226C67.5993 82.1137 67.759 82.2691 67.9529 82.3687L77.1133 87.0718L76.8705 95.5529L73.9828 112.882L72.6675 118.661C72.6642 118.679 72.6613 118.697 72.6589 118.715L71.6009 124.792C71.5955 124.825 71.5916 124.859 71.5893 124.893L70.7944 135.195C70.7782 135.405 70.8227 135.615 70.9227 135.8C71.0226 135.985 71.1738 136.137 71.3581 136.238L79.0182 140.465C79.2244 140.578 79.4618 140.623 79.6952 140.591C79.9285 140.559 80.1454 140.453 80.3135 140.288C80.4817 140.123 80.5921 139.908 80.6286 139.675C80.665 139.443 80.6253 139.204 80.5156 138.996L78.2638 134.718L81.614 131.59C81.7864 131.429 81.9021 131.216 81.9438 130.984C81.9854 130.752 81.9509 130.512 81.8453 130.301L80.77 128.145L82.6402 127.295C82.7904 127.227 82.9232 127.126 83.0289 126.999C83.1345 126.872 83.2101 126.723 83.2501 126.564L84.363 122.112H86.9414C87.2112 122.112 87.4716 122.013 87.6728 121.833C87.8739 121.654 88.0015 121.406 88.0312 121.138L88.1815 119.779L92.9684 119.996C93.1288 120.003 93.2889 119.975 93.4373 119.914C93.5856 119.852 93.7187 119.759 93.8269 119.64L96.4689 116.735C96.6183 116.572 96.7146 116.367 96.745 116.148C96.7755 115.928 96.7387 115.705 96.6395 115.507L95.8706 113.975L98.5502 114.677C98.7223 114.722 98.9027 114.725 99.076 114.685C99.2493 114.644 99.4101 114.562 99.5446 114.446L107.471 107.581C107.619 107.452 107.73 107.285 107.792 107.098L109.774 101.152L115.628 97.7353L119.449 96.7178C119.655 96.6621 119.84 96.5475 119.981 96.3883L124.473 91.3702C124.596 91.233 124.683 91.0669 124.725 90.8874L127.02 80.9321L130.714 77.7322C130.852 77.6125 130.957 77.4605 131.021 77.2899L132.608 73.0638C132.654 72.9409 132.677 72.8106 132.677 72.6794V67.9243C132.677 67.7636 132.641 67.605 132.573 67.4596C132.504 67.3142 132.405 67.1857 132.281 67.0831L130.697 65.765C130.674 65.7447 130.649 65.7254 130.625 65.7072L125.341 62.0101C125.216 61.9233 125.076 61.8633 124.927 61.8337L121.1 61.0677L116.203 58.7466C116.175 58.7338 116.146 58.7222 116.117 58.7119L112.344 57.2984L111.48 55.1333L109.639 49.618C109.586 49.4607 109.499 49.3173 109.384 49.1986C109.268 49.0799 109.127 48.9891 108.971 48.9329L105.271 47.6119C105.123 47.5593 104.966 47.5392 104.809 47.5528C104.653 47.5664 104.502 47.6135 104.365 47.6908C104.229 47.7681 104.11 47.8739 104.018 48.0009C103.926 48.1279 103.862 48.2732 103.831 48.427L103.152 51.8148L98.345 53.7805L97.6454 53.4307L96.7175 49.9475C96.6828 49.8164 96.624 49.6929 96.5441 49.5833L94.8415 47.2448L97.1454 43.0996C97.222 42.9616 97.2678 42.8086 97.2797 42.6512C97.2917 42.4938 97.2694 42.3357 97.2145 42.1877C97.1596 42.0397 97.0733 41.9053 96.9616 41.7938C96.8498 41.6823 96.7153 41.5962 96.5672 41.5416L89.4361 38.8995C89.3852 38.8812 89.333 38.8667 89.28 38.8562L82.9408 37.5352C82.8865 37.5242 82.8314 37.5175 82.7761 37.5149L78.0239 37.249C77.8237 37.2377 77.6244 37.2817 77.4475 37.376C77.2706 37.4703 77.123 37.6113 77.0208 37.7837L76.8589 37.3935C76.7602 37.1572 76.5818 36.9631 76.3547 36.8447C76.1276 36.7264 75.8662 36.6915 75.616 36.746L69.5399 38.067C69.3287 38.113 69.1359 38.2204 68.9857 38.3757C68.8355 38.5311 68.7346 38.7274 68.6958 38.94L68.375 40.7091L63.9523 39.6569C63.8606 39.6342 63.7664 39.6235 63.6719 39.6251L60.9056 39.6916L58.7174 37.8358V31.4764C58.7174 31.1979 58.6113 30.9299 58.4207 30.7269C58.23 30.5239 57.9692 30.4012 57.6912 30.3837L49.9241 29.9126L49.7825 28.0684L51.6267 26.8398C51.7398 26.7642 51.8378 26.6681 51.9157 26.5566L53.7657 23.9145C53.8741 23.7596 53.9405 23.5792 53.9584 23.391C53.9764 23.2028 53.9453 23.0132 53.8681 22.8405C53.791 22.6679 53.6705 22.5182 53.5183 22.406C53.3661 22.2939 53.1874 22.223 52.9997 22.2004L46.3975 21.4084C46.1236 21.3751 45.8472 21.4466 45.6236 21.6085C45.4001 21.7703 45.246 22.0107 45.1921 22.2813L44.5533 25.4841L40.518 26.0594L38.4368 22.316L39.4138 17.428C39.4553 17.2227 39.4371 17.0098 39.3612 16.8146C39.2854 16.6194 39.1552 16.4501 38.986 16.3266L36.3439 14.4073L34.8755 10.4876C34.8202 10.3404 34.7338 10.2068 34.6222 10.096C34.5106 9.98521 34.3765 9.89974 34.2289 9.84543C34.0814 9.79112 33.9238 9.76924 33.767 9.78128C33.6102 9.79333 33.4579 9.83902 33.3203 9.91523L31.664 10.8345L28.8139 7.98719C28.6751 7.84821 28.5016 7.74911 28.3113 7.70029C28.1211 7.65147 27.9213 7.65471 27.7328 7.70969L23.5443 8.94109L18.3036 7.44375C18.1983 7.41416 18.0891 7.40052 17.9798 7.40328V7.40039Z" fill="#59C3FF"/>
<path fill-rule="evenodd" clip-rule="evenodd" d="M18.6531 9.81836L19.9907 10.2005L18.271 10.774L18.6531 9.81836Z" fill="#59C3FF"/>
<path fill-rule="evenodd" clip-rule="evenodd" d="M64.1026 17.9014V17.91C64.066 17.9082 64.0293 17.9082 63.9927 17.91L59.3099 18.3465C59.2474 18.3518 59.1855 18.3624 59.1249 18.3783L55.5029 19.3554C55.2319 19.4352 55.0022 19.6167 54.8619 19.8621C54.7216 20.1074 54.6817 20.3974 54.7504 20.6715C54.8191 20.9456 54.9912 21.1825 55.2306 21.3327C55.47 21.4828 55.7581 21.5346 56.0348 21.4771L58.9717 20.8007L64.909 23.5265L68.3229 26.1628C68.4777 26.2825 68.6618 26.3586 68.856 26.383C69.0502 26.4074 69.2474 26.3792 69.4271 26.3015L72.9421 24.7811C73.1281 24.7007 73.2881 24.5702 73.4043 24.4043C73.5206 24.2383 73.5885 24.0433 73.6005 23.8411C73.6125 23.6388 73.5681 23.4372 73.4722 23.2586C73.3764 23.0801 73.2329 22.9317 73.0577 22.8299L69.3317 20.659C69.325 20.6541 69.3183 20.6493 69.3115 20.6446L64.6258 18.0401C64.4657 17.9508 64.2858 17.9031 64.1026 17.9014Z" fill="#59C3FF"/>
<path fill-rule="evenodd" clip-rule="evenodd" d="M75.4077 23.4485C75.2499 23.4449 75.0931 23.4756 74.9482 23.5383C74.8033 23.601 74.6737 23.6943 74.5682 23.8119C74.4628 23.9294 74.384 24.0683 74.3373 24.2192C74.2906 24.37 74.2771 24.5292 74.2977 24.6857L74.4018 25.4835L72.8293 26.1397C72.5971 26.2372 72.4056 26.4117 72.2872 26.634C72.1687 26.8562 72.1304 27.1124 72.1789 27.3595L72.2859 27.903C72.3345 28.1518 72.468 28.376 72.6636 28.5373C72.8592 28.6987 73.1047 28.7871 73.3583 28.7875H77.0351L78.7175 29.6431C78.8582 29.715 79.0128 29.7556 79.1707 29.762C79.3286 29.7685 79.486 29.7407 79.6321 29.6805C79.7782 29.6204 79.9096 29.5293 80.0172 29.4136C80.1247 29.2978 80.206 29.1602 80.2553 29.0101L80.5184 28.2065L83.3801 28.4551C83.5714 28.4717 83.7637 28.4378 83.9377 28.3566C84.1118 28.2754 84.2614 28.1499 84.3716 27.9926C84.3716 27.9926 84.5651 27.7528 84.7069 27.348C84.7778 27.1457 84.9053 26.8631 84.73 26.3623C84.6424 26.1119 84.4239 25.8342 84.1692 25.6888C83.9145 25.5437 83.6694 25.5124 83.4726 25.5124C83.7406 25.5124 83.6672 25.542 83.5911 25.5124C83.515 25.4813 83.3826 25.4172 83.2298 25.3361C82.9241 25.1734 82.5296 24.9371 82.1487 24.7002C81.3869 24.2263 80.6802 23.7491 80.6802 23.7491C80.5062 23.6301 80.3014 23.5638 80.0905 23.5584L75.4077 23.4514V23.4485Z" fill="#59C3FF"/>
</svg>
