<svg width="140" height="187" viewBox="0 0 140 187" fill="none" xmlns="http://www.w3.org/2000/svg">
<path fill-rule="evenodd" clip-rule="evenodd" d="M47.4617 72.5043C43.8842 82.2828 34.5826 89.1993 23.6116 89.1993C12.6405 89.1993 3.57751 82.2828 0 72.5043H5.48552L21.4651 36.2521C22.1806 34.3441 25.2811 34.3441 25.9966 36.2521L41.9761 72.5043H47.4617ZM92.5383 72.5043C95.8773 82.2828 105.179 89.1993 116.15 89.1993C127.121 89.1993 136.422 82.2828 140 72.5043H134.514L118.535 36.2521C117.819 34.3441 114.719 34.3441 114.003 36.2521L98.0238 72.5043H92.5383ZM69.8807 148.825H104.463V142.862C104.463 139.761 102.078 137.138 98.7394 137.138H87.2913C86.8143 129.983 82.2828 124.02 75.6048 121.635V37.2061C78.9438 35.0596 80.8518 31.2436 80.3748 26.9506C89.1993 17.1721 101.363 26.7121 110.664 30.2896C111.38 32.6746 113.526 34.3441 116.15 34.3441C119.25 34.3441 121.874 31.7206 121.874 28.3816C121.874 25.2811 119.25 22.6576 116.15 22.6576C114.48 22.6576 113.049 23.3731 111.857 24.5656C100.886 19.7956 89.1993 11.448 77.7513 21.4651C76.5588 20.0341 74.8893 19.0801 73.2198 18.6031C75.3663 17.4106 76.7973 15.2641 76.7973 12.6405C76.7973 8.82453 70.1192 0.238501 69.8807 0C69.6422 0.238501 63.2027 8.82453 63.2027 12.6405C63.2027 15.2641 64.6337 17.4106 66.7802 18.6031C65.1107 19.0801 63.4412 20.0341 62.2487 21.4651C50.8007 11.448 39.1141 19.7956 27.9046 24.5656C26.9506 23.3731 25.5196 22.6576 23.8501 22.6576C20.5111 22.6576 17.8876 25.2811 17.8876 28.3816C17.8876 31.7206 20.5111 34.3441 23.8501 34.3441C26.4736 34.3441 28.6201 32.6746 29.3356 30.2896C38.6371 26.7121 50.8007 17.1721 59.6252 26.9506C59.1482 31.2436 61.0562 35.0596 64.1567 37.2061V121.635C57.7172 124.02 52.9472 129.983 52.7087 137.138H41.0221C37.9216 137.138 35.2981 139.761 35.2981 142.862V148.825H69.8807ZM103.032 72.5043L116.15 43.6457L129.267 72.5043H103.032ZM36.9676 72.5043L23.6116 43.6457L10.494 72.5043H36.9676Z" fill="#59C3FF"/>
</svg>
