<svg width="146" height="183" viewBox="0 0 146 183" fill="none" xmlns="http://www.w3.org/2000/svg">
<g clip-path="url(#clip0)">
<path d="M63.9262 35.7192C63.9262 26.6234 56.5254 19.2227 47.4296 19.2227C38.3338 19.2227 30.9331 26.6234 30.9331 35.7192C30.9331 44.815 38.3338 52.2157 47.4296 52.2157C56.5254 52.2143 63.9262 44.8135 63.9262 35.7192ZM35.3131 35.7192C35.3131 29.0382 40.7487 23.6027 47.4296 23.6027C54.1106 23.6027 59.5462 29.0382 59.5462 35.7192C59.5462 42.4002 54.1106 47.8357 47.4296 47.8357C40.7487 47.8357 35.3131 42.4002 35.3131 35.7192Z" fill="#59C3FF"/>
<path d="M53.2826 138.399C58.305 138.399 62.393 134.312 62.393 129.288V74.9879H76.9712V134.452C76.9712 135.663 77.9508 136.642 79.1612 136.642C80.3715 136.642 81.3512 135.663 81.3512 134.452V74.9192C88.9665 74.2316 94.9569 67.8193 94.9569 60.0272V55.8487H81.3512V41.037C86.3721 36.749 91.0718 38.6324 98.1455 42.0254C102.077 43.9118 106.308 45.9412 110.659 45.9412C113.912 45.9412 117.231 44.8067 120.542 41.6312C120.973 41.2181 121.215 40.6472 121.215 40.0501V13.4927C121.215 12.6152 120.691 11.8224 119.883 11.4779C119.076 11.1362 118.142 11.3056 117.508 11.9115C112.227 16.9777 107.428 15.0622 100.039 11.5173C93.1684 8.22206 85.3822 4.48883 77.6428 11.9115C77.2121 12.3247 76.9697 12.8955 76.9697 13.4927V16.9981V40.0501V55.8487H41.88C32.4528 55.8487 24.7834 63.5181 24.7834 72.9453V97.5025C24.7834 102.039 28.1166 105.811 32.463 106.5V129.285C32.463 134.309 36.5496 138.396 41.5734 138.396H53.2826V138.399ZM81.3512 14.4621C86.3736 10.1741 91.0718 12.075 98.1455 15.4666C103.92 18.2362 110.341 21.3153 116.835 17.8216V39.0792C111.814 43.3686 107.114 41.4692 100.041 38.0747C96.1088 36.1884 91.8777 34.159 87.5269 34.159C85.4888 34.159 83.4229 34.6043 81.3512 35.7182V16.9996V14.4621ZM36.843 129.287V102.233H33.8938C31.2848 102.233 29.1634 100.112 29.1634 97.5025V72.9453C29.1634 65.9329 34.8677 60.2287 41.88 60.2287H90.5754C90.4674 65.9709 85.7633 70.6079 79.9963 70.6079H58.013V129.287C58.013 131.896 55.8917 134.017 53.2826 134.017H41.5734C38.9644 134.019 36.843 131.896 36.843 129.287Z" fill="#59C3FF"/>
</g>
<defs>
<clipPath id="clip0">
<rect width="146" height="182.5" fill="white"/>
</clipPath>
</defs>
</svg>
