<svg width="141" height="177" viewBox="0 0 141 177" fill="none" xmlns="http://www.w3.org/2000/svg">
<path d="M134.391 4.40625H107.953C106.737 4.40625 105.75 5.39105 105.75 6.60938V15.4219C105.75 16.6402 106.737 17.625 107.953 17.625H113.65L92.6172 38.6604C86.3735 33.6043 78.5987 30.8438 70.5 30.8438C62.4013 30.8438 54.6265 33.6043 48.3828 38.6604L43.873 34.1484L47.8232 30.1982C48.6847 29.3368 48.6847 27.9444 47.8232 27.083L41.2139 20.4736C40.3524 19.6122 38.9601 19.6122 38.0986 20.4736L34.1484 24.4238L27.3496 17.625H33.0469C34.263 17.625 35.25 16.6402 35.25 15.4219V6.60938C35.25 5.39105 34.263 4.40625 33.0469 4.40625H6.60938C5.39325 4.40625 4.40625 5.39105 4.40625 6.60938V33.0469C4.40625 34.2652 5.39325 35.25 6.60938 35.25H15.4219C16.638 35.25 17.625 34.2652 17.625 33.0469V27.3496L24.4238 34.1484L20.4736 38.0986C19.6122 38.9601 19.6122 40.3524 20.4736 41.2139L27.083 47.8232C27.9444 48.6847 29.3368 48.6847 30.1982 47.8232L34.1484 43.873L39.5241 49.2487C36.7217 54.3885 35.25 60.1718 35.25 66.0938C35.25 83.0468 47.4333 97.6006 63.8906 100.709V112.359H57.2812C56.0651 112.359 55.0781 113.344 55.0781 114.562V123.375C55.0781 124.593 56.0651 125.578 57.2812 125.578H63.8906V134.391C63.8906 135.609 64.8776 136.594 66.0938 136.594H74.9062C76.1224 136.594 77.1094 135.609 77.1094 134.391V125.578H83.7188C84.9349 125.578 85.9219 124.593 85.9219 123.375V114.562C85.9219 113.344 84.9349 112.359 83.7188 112.359H77.1094V100.709C93.5667 97.6006 105.75 83.0468 105.75 66.0938C105.75 60.1718 104.278 54.3885 101.476 49.2487L123.375 27.3496V33.0469C123.375 34.2652 124.362 35.25 125.578 35.25H134.391C135.607 35.25 136.594 34.2652 136.594 33.0469V6.60938C136.594 5.39105 135.607 4.40625 134.391 4.40625ZM132.188 30.8438H127.781V22.0312C127.781 21.1412 127.244 20.3348 126.422 19.9956C125.596 19.6519 124.651 19.8435 124.021 20.4736L97.1644 47.3297C96.444 48.0502 96.3118 49.1693 96.8428 50.0374C99.7861 54.8468 101.344 60.3965 101.344 66.0938C101.344 81.498 89.8545 94.633 74.6176 96.6489C73.5227 96.7943 72.7031 97.7262 72.7031 98.8322V114.562C72.7031 115.781 73.6901 116.766 74.9062 116.766H81.5156V121.172H74.9062C73.6901 121.172 72.7031 122.157 72.7031 123.375V132.188H68.2969V123.375C68.2969 122.157 67.3099 121.172 66.0938 121.172H59.4844V116.766H66.0938C67.3099 116.766 68.2969 115.781 68.2969 114.562V98.8322C68.2969 97.7262 67.4773 96.7921 66.3824 96.6489C51.1455 94.633 39.6562 81.498 39.6562 66.0938C39.6562 60.3965 41.2139 54.8468 44.155 50.0396C44.6882 49.1693 44.556 48.0524 43.8334 47.3319L35.7038 39.2024C35.2941 38.786 34.7323 38.5547 34.1484 38.5547C33.5646 38.5547 33.0028 38.786 32.5908 39.2002L28.6406 43.1504L25.1465 39.6562L29.0967 35.706C29.9581 34.8446 29.9581 33.4523 29.0967 32.5908L16.9795 20.4736C16.3472 19.8435 15.402 19.6519 14.5781 19.9956C13.7563 20.3348 13.2188 21.1412 13.2188 22.0312V30.8438H8.8125V8.8125H30.8438V13.2188H22.0312C21.1412 13.2188 20.337 13.7541 19.9956 14.5781C19.6541 15.402 19.8435 16.3494 20.4736 16.9795L32.5908 29.0967C33.4523 29.9581 34.8446 29.9581 35.706 29.0967L39.6562 25.1465L43.1504 28.6406L39.2002 32.5908C38.3388 33.4523 38.3388 34.8446 39.2002 35.706L46.7129 43.2187C47.5456 44.0559 48.8851 44.0823 49.7554 43.287C55.4306 38.1053 62.7979 35.25 70.5 35.25C78.2021 35.25 85.5694 38.1053 91.2446 43.287C92.1149 44.0801 93.4544 44.0559 94.2871 43.2187L120.526 16.9795C121.156 16.3494 121.346 15.402 121.004 14.5781C120.663 13.7541 119.859 13.2188 118.969 13.2188H110.156V8.8125H132.188V30.8438Z" fill="#59C3FF"/>
<path d="M70.5 41.8594C57.138 41.8594 46.2656 52.7318 46.2656 66.0938C46.2656 79.4557 57.138 90.3281 70.5 90.3281C83.862 90.3281 94.7344 79.4557 94.7344 66.0938C94.7344 52.7318 83.862 41.8594 70.5 41.8594ZM70.5 85.9219C59.5681 85.9219 50.6719 77.0279 50.6719 66.0938C50.6719 55.1596 59.5681 46.2656 70.5 46.2656C81.4319 46.2656 90.3281 55.1596 90.3281 66.0938C90.3281 77.0279 81.4319 85.9219 70.5 85.9219Z" fill="#59C3FF"/>
</svg>
