<svg width="151" height="189" viewBox="0 0 151 189" fill="none" xmlns="http://www.w3.org/2000/svg">
<path d="M111.174 105.623C114.924 105.623 117.964 102.583 117.964 98.8325C117.964 95.0822 114.924 92.042 111.174 92.042C107.424 92.042 104.383 95.0822 104.383 98.8325C104.383 102.583 107.424 105.623 111.174 105.623Z" fill="#59C3FF"/>
<path d="M143.347 122.203L140.372 129.152C140.372 129.152 126.328 124.718 117.964 116.354C113.985 112.375 106.511 101.518 106.511 101.518L111.017 97.6855C111.017 97.6855 118.494 108.08 122.275 111.861C130.822 120.405 143.347 122.203 143.347 122.203Z" fill="#59C3FF"/>
<path d="M149.488 96.4897L148.679 103.679C148.679 103.679 138.582 111.825 126.369 108.68C116.592 106.163 109.538 99.8404 109.538 99.8404L112.311 94.6143C112.311 94.6143 117.92 100.532 127.676 103.052C137.63 105.624 149.488 96.4897 149.488 96.4897Z" fill="#59C3FF"/>
<path d="M69.4614 69.1321L46.292 9.33008L32.2988 13.6819L45.4283 95.8425L45.4298 95.8531L60.0179 95.7851L69.4614 69.1321Z" fill="#59C3FF"/>
<path d="M69.6624 95.7401L102.836 95.5861L115.672 15.2571L115.332 14.1729L100.327 9.19141L69.6624 95.7401Z" fill="#59C3FF"/>
<path d="M74.1076 56.0231L91.7142 6.33052L91.2265 6.16895C91.2265 6.16895 88.3228 10.7005 73.3421 10.7005C58.3613 10.7005 56.4603 6.16895 56.4603 6.16895L54.9729 6.631L74.1076 56.0231Z" fill="#59C3FF"/>
<path d="M56.7969 104.876L44.8226 104.932L38.4187 128.154C38.4187 128.154 41.0008 129.666 43.4772 129.666C45.9536 129.666 48.5493 128.154 48.5493 128.154L56.7969 104.876Z" fill="#59C3FF"/>
<path d="M120.045 29.2432L112.877 75.5065L118.032 88.9818H123.765L129.41 59.185L120.045 29.2432Z" fill="#59C3FF"/>
<path d="M27.6434 25.7891L0.551025 128.155C0.551025 128.155 2.65144 131.178 10.0746 131.178C17.4978 131.178 20.323 128.155 20.323 128.155L35.4637 76.2593L27.6434 25.7891Z" fill="#59C3FF"/>
<path d="M66.4397 104.83L58.177 128.153C58.177 128.153 62.778 131.176 83.3155 131.176C103.853 131.176 111.03 128.153 111.03 128.153L103.928 104.653L66.4397 104.83Z" fill="#59C3FF"/>
<path d="M128.234 88.9807L139.5 29.5063C139.5 29.5063 143.439 27.957 146.408 27.957C149.377 27.957 151 29.4368 151 29.4368L140.24 88.9807H128.234Z" fill="#59C3FF"/>
</svg>
