<svg width="169" height="212" viewBox="0 0 169 212" fill="none" xmlns="http://www.w3.org/2000/svg">
<path d="M1.77466 28.6516C1.77466 28.6516 11.2251 35.2967 45.2448 21.0872C45.2448 21.0872 80.1028 2.29438 70.0236 31.3996C70.0236 31.3996 72.5417 36.6724 78.4195 38.2745L79.2612 56.8341C79.2612 56.8341 67.0796 45.8389 51.748 58.8992C51.7547 58.8992 3.03202 45.8389 1.77466 28.6516Z" fill="#59C3FF"/>
<path d="M167.226 27.97C167.226 27.97 157.772 34.615 123.756 20.4089C123.756 20.4089 88.8976 1.61272 98.9768 30.7213C98.9768 30.7213 96.4553 35.9907 90.5775 37.5928L89.7358 56.1558C89.7358 56.1558 101.917 45.1573 117.249 58.221C117.246 58.2243 165.965 45.1573 167.226 27.97Z" fill="#59C3FF"/>
<path d="M94.3257 55.9952C116.63 58.9392 105.023 67.4973 99.852 70.6205C96.5396 68.7277 92.5106 67.4804 88.1031 67.0985L88.752 26.6703C92.2402 24.8553 94.6535 21.1305 94.6535 16.7872C94.6535 10.666 89.9046 5.71094 84.0403 5.71094C78.176 5.71094 73.4237 10.6694 73.4237 16.7872C73.4237 21.2826 76.0027 25.1358 79.6869 26.8731L81.7149 67.156C77.6792 67.6325 74.0017 68.8493 70.9192 70.6069C65.8728 67.6021 53.5933 58.8412 76.2258 55.8499C76.2258 55.8499 38.0385 50.6413 64.5073 76.0589C64.5512 76.0792 64.5817 76.0927 64.6256 76.113C62.9795 78.4249 61.9554 80.9937 61.9554 83.772C61.9554 89.7986 66.39 95.041 73.0012 98.0187C70.7299 100.013 69.3069 102.534 69.3069 105.313C69.3069 109.974 73.2007 113.915 78.7371 115.73C76.5604 117.15 75.1712 119.174 75.1712 121.439C75.1712 125.42 79.4063 128.669 84.8312 129.115L86.5483 163.293L87.1026 129.132C92.6323 128.756 96.9722 125.478 96.9722 121.442C96.9722 119.005 95.3701 116.862 92.9128 115.436C97.9659 113.503 101.434 109.727 101.434 105.316C101.434 102.538 100.011 100.016 97.7361 98.0221C104.347 95.0443 108.785 89.802 108.785 83.7754C108.785 81.0038 107.768 78.4283 106.118 76.1231C132.422 50.7968 94.3257 55.9952 94.3257 55.9952ZM72.0346 84.1067C72.0346 80.436 76.361 77.3737 82.1915 76.4949L82.9655 91.8502C76.7361 91.1404 72.0346 87.9497 72.0346 84.1067ZM77.3074 106.05C77.3074 103.822 79.9167 101.963 83.4421 101.416L83.9119 110.768C80.1499 110.319 77.3074 108.378 77.3074 106.05ZM80.4575 121.439C80.4575 119.722 82.0799 118.329 84.2702 117.853L84.6318 125.069C82.2624 124.684 80.4575 123.24 80.4575 121.439ZM87.1702 125.042L87.2851 117.846C89.4923 118.316 91.1417 119.715 91.1417 121.439C91.1417 123.19 89.4348 124.602 87.1702 125.042ZM87.3967 110.731L87.5521 101.395C91.1383 101.916 93.8051 103.792 93.8051 106.05C93.8051 108.335 91.0606 110.241 87.3967 110.731ZM87.7042 91.8773L87.9544 76.3563C94.275 77.0222 99.0813 80.2264 99.0813 84.1067C99.0813 88.0376 94.1465 91.2689 87.7042 91.8773Z" fill="#59C3FF"/>
</svg>
