<svg width="182" height="228" viewBox="0 0 182 228" fill="none" xmlns="http://www.w3.org/2000/svg">
<path d="M170.789 71.4892H136.045V25.0428C136.045 23.878 135.099 22.9316 133.934 22.9316H38.3293C37.1645 22.9316 36.2181 23.878 36.2181 25.0428V96.0228H11.2113C10.0465 96.0228 9.1001 96.9692 9.1001 98.134V156.956C9.1001 158.121 10.0465 159.068 11.2113 159.068H170.789C171.954 159.068 172.9 158.121 172.9 156.956V73.6004C172.9 72.4356 171.954 71.4892 170.789 71.4892ZM40.4405 27.1358H131.823V71.4892H71.9447L73.0913 70.3426C73.9103 69.5236 73.9103 68.1768 73.0913 67.3578C72.2723 66.5388 70.9255 66.5388 70.1065 67.3578L65.9933 71.4892H62.0803C60.9155 71.4892 59.9691 72.4356 59.9691 73.6004V75.3294L57.2755 72.6358C56.4565 71.7986 55.1097 71.7986 54.2907 72.6358C53.4717 73.4548 53.4717 74.7834 54.2907 75.6024L59.5687 80.8804C59.6961 81.0078 59.8235 81.117 59.9691 81.1898V96.0228H40.4405V27.1358ZM79.3703 154.863H13.3225V150.841L27.7915 136.354L35.3081 143.871C35.7085 144.271 36.2363 144.489 36.8005 144.489C37.3647 144.489 37.8925 144.271 38.2929 143.871L61.3523 120.811L79.3703 138.847V154.863ZM79.3703 132.878L62.8447 116.352C62.0075 115.515 60.6789 115.515 59.8599 116.352L36.8005 139.412L29.2839 131.895C28.5013 131.094 27.0999 131.094 26.2991 131.895L13.3225 144.872V100.227H79.3703V132.878ZM168.678 154.863H83.5927V98.134C83.5927 96.9692 82.6463 96.0228 81.4815 96.0228H64.1733V92.401H168.678V154.863ZM168.678 88.1786H64.1733V75.7116H168.678V88.1786Z" fill="#59C3FF"/>
<path d="M31.8064 125.437C26.9834 125.437 23.0613 121.515 23.0613 116.692C23.0613 111.869 26.9834 107.947 31.8064 107.947C36.6294 107.947 40.5515 111.869 40.5515 116.692C40.5497 121.514 36.6276 125.437 31.8064 125.437ZM31.8064 112.162C29.3093 112.162 27.2764 114.195 27.2764 116.692C27.2764 119.189 29.3093 121.222 31.8064 121.222C34.3034 121.222 36.3364 119.189 36.3364 116.692C36.3345 114.193 34.3034 112.162 31.8064 112.162Z" fill="#59C3FF"/>
<path d="M61.0573 58.643C60.4986 58.643 59.9617 58.421 59.5668 58.026L54.2942 52.7535C53.4716 51.9309 53.4716 50.595 54.2942 49.7723C55.1169 48.9497 56.4527 48.9497 57.2754 49.7723L61.0573 53.5543L70.1118 44.4998C70.9345 43.6772 72.2685 43.6772 73.093 44.4998C73.9156 45.3224 73.9156 46.6583 73.093 47.4809L62.5479 58.0279C62.1512 58.421 61.6161 58.643 61.0573 58.643Z" fill="#59C3FF"/>
<path d="M116.475 53.3714H84.6864C83.5216 53.3714 82.5789 52.4268 82.5789 51.2638C82.5789 50.099 83.5234 49.1562 84.6864 49.1562H116.475C117.639 49.1562 118.582 50.1008 118.582 51.2638C118.582 52.4286 117.639 53.3714 116.475 53.3714Z" fill="#59C3FF"/>
<path d="M109.262 139.289C108.925 139.289 108.587 139.209 108.279 139.045C107.587 138.681 107.154 137.962 107.154 137.182V111.225C107.154 110.442 107.587 109.725 108.279 109.361C108.971 108.997 109.808 109.045 110.454 109.487L129.417 122.465C129.99 122.858 130.334 123.508 130.334 124.205C130.334 124.902 129.99 125.552 129.417 125.945L110.454 138.923C110.095 139.166 109.68 139.289 109.262 139.289ZM111.371 115.222V133.183L124.493 124.203L111.371 115.222Z" fill="#59C3FF"/>
<path d="M71.5351 85.0215C73.2349 85.0215 74.6128 83.6436 74.6128 81.9438C74.6128 80.2441 73.2349 78.8662 71.5351 78.8662C69.8354 78.8662 68.4575 80.2441 68.4575 81.9438C68.4575 83.6436 69.8354 85.0215 71.5351 85.0215Z" fill="#59C3FF"/>
<path d="M80.9316 85.0215C82.6313 85.0215 84.0092 83.6436 84.0092 81.9438C84.0092 80.2441 82.6313 78.8662 80.9316 78.8662C79.2319 78.8662 77.854 80.2441 77.854 81.9438C77.854 83.6436 79.2319 85.0215 80.9316 85.0215Z" fill="#59C3FF"/>
<path d="M90.2612 85.0215C91.9609 85.0215 93.3388 83.6436 93.3388 81.9438C93.3388 80.2441 91.9609 78.8662 90.2612 78.8662C88.5615 78.8662 87.1836 80.2441 87.1836 81.9438C87.1836 83.6436 88.5615 85.0215 90.2612 85.0215Z" fill="#59C3FF"/>
</svg>
