<svg width="139" height="173" viewBox="0 0 139 173" fill="none" xmlns="http://www.w3.org/2000/svg">
<path d="M117.832 0H115.84C115.467 0.137859 115.094 0.318969 114.704 0.429797L98.683 4.99537L67.4998 13.9887C63.6397 15.0942 59.7796 16.1512 55.9196 17.2811C55.254 17.3689 54.6158 17.6015 54.0498 17.9625C53.4838 18.3235 53.0037 18.8041 52.6434 19.3706C52.1725 20.395 51.9193 21.506 51.9 22.6333V99.6156C51.5652 99.3242 51.1967 99.0737 50.8026 98.8695C48.8111 97.7158 46.7205 96.7424 44.5557 95.9609C40.339 94.7681 35.8565 94.9099 31.7237 96.3667C27.5908 97.8235 24.0103 100.524 21.4737 104.097C18.8738 107.64 17.4219 111.895 17.3137 116.288C17.2054 120.681 18.4459 125.002 20.8682 128.669C26.2501 136.278 33.6269 139.584 42.9094 138.022C48.1664 137.132 52.8746 134.241 56.0466 129.955C59.0876 125.995 60.55 121.1 60.55 116.121V43.3879C60.55 42.6337 60.9501 41.9282 61.707 41.8119C68.2756 39.9846 74.8198 38.1141 81.3641 36.2759L109.22 28.2801C110.258 27.9909 111.369 27.7395 112.45 27.4367V82.2101C112.09 82.0422 111.746 81.8432 111.42 81.6154C108.703 79.6719 105.548 78.428 102.236 77.9938C98.9231 77.5596 95.5545 77.9484 92.428 79.1259C88.9134 80.2597 85.7646 82.3101 83.3062 85.0659C80.8479 87.8217 79.1688 91.1832 78.442 94.804C77.6372 98.0041 77.6217 101.352 78.3967 104.559C79.1718 107.767 80.7142 110.738 82.8914 113.218C85.0806 115.842 87.8607 117.91 91.0037 119.253C94.1467 120.595 97.5631 121.173 100.973 120.94C104.383 120.707 107.688 119.669 110.619 117.911C113.55 116.154 116.023 113.726 117.835 110.828C120.127 107.044 121.37 102.657 121.1 98.2316V5.70089C121.1 3.09778 120.392 1.08125 117.832 0ZM112.393 17.792C112.31 17.9713 112.189 18.1307 112.039 18.2594C111.889 18.3881 111.713 18.4831 111.523 18.538C107.814 19.6193 104.108 20.6816 100.454 21.7466L84.5862 26.2879L61.6583 32.8457L60.55 33.0944V25.3337C60.55 25.0472 60.896 24.8282 61.188 24.739C67.3079 22.9766 73.4196 21.2385 79.5341 19.4814L94.7527 15.097L111.369 10.334C111.686 10.2905 112.001 10.2255 112.309 10.1394C112.437 12.7966 112.45 15.3024 112.393 17.792Z" fill="#59C3FF"/>
</svg>
