<svg width="138" height="172" viewBox="0 0 138 172" fill="none" xmlns="http://www.w3.org/2000/svg">
<path d="M113.036 110.177C113.944 109.85 114.629 111.025 113.923 111.684C106.919 118.205 98.2011 122.996 88.2705 125.232C57.8348 132.085 27.5724 112.375 20.6759 81.2071C13.7794 50.0407 32.8631 19.2183 63.2989 12.3658C73.2363 10.1284 83.1532 10.7284 92.2458 13.6304C93.1732 13.9262 93.0411 15.2733 92.0724 15.3669C63.7034 18.1216 43.9895 45.7834 50.3493 74.5252C56.7078 103.267 86.2052 119.841 113.036 110.177Z" fill="#59C3FF"/>
<path d="M98.2258 40.2414L104.268 53.1277L117.837 55.2027C118.308 55.2742 118.501 55.8508 118.167 56.192L108.328 66.2863L110.292 80.5142C110.358 80.9958 109.843 81.3453 109.421 81.1045L97.696 74.4213L85.967 81.1072C85.5445 81.348 85.0299 80.9985 85.096 80.5169L87.0609 66.2891L77.2225 56.1948C76.8895 55.8535 77.0821 55.277 77.5541 55.2054L91.1228 53.1304L97.1649 40.2442C97.3768 39.7915 98.0152 39.7915 98.2258 40.2414Z" fill="#59C3FF"/>
</svg>
