<svg width="176" height="220" viewBox="0 0 176 220" fill="none" xmlns="http://www.w3.org/2000/svg">
<g clip-path="url(#clip0)">
<path d="M169.95 42.4879C168.85 40.2879 166.925 36.8504 162.25 36.8504C160.187 36.9879 158.125 37.4004 156.2 38.2254C154 38.9129 152.212 40.8379 151.662 43.0379L150.287 48.6754C148.5 49.5004 146.575 50.0504 144.512 50.4629C140.112 51.1504 136.675 54.7254 135.987 59.1254C135.025 59.4004 134.2 59.8129 133.375 60.3629C133.375 58.3004 132.412 56.2379 130.9 55.0004L128.425 52.9379C127.737 49.7754 124.987 47.4379 121.687 47.4379H119.212C116.05 47.5754 112.887 48.1254 110 49.0879C109.862 48.8129 109.725 48.5379 109.45 48.2629C106.7 44.4129 101.062 43.7254 99.275 43.5879L57.2 40.1504C52.1125 38.7754 31.075 33.0004 23.65 33.0004C23.1 33.0004 22.4125 33.0004 21.8625 33.1379C20.9 30.6629 18.5625 29.1504 15.95 29.1504C10.725 29.1504 8.66246 35.0629 7.97496 37.1254C7.69996 37.9504 7.56246 38.7754 7.56246 39.6004L7.97496 50.8754L3.57496 58.9879C2.88746 60.2254 2.61246 61.4629 2.74996 62.8379L2.88746 66.0004L0.824962 69.4379C-0.275038 71.2254 -0.412538 73.4254 0.274962 75.3504L4.26246 85.6629L5.91246 100.375C6.18746 102.988 7.97496 105.188 10.45 106.15L14.7125 107.663L14.85 108.35C15.2625 110.688 16.9125 112.75 19.1125 113.575L46.475 124.438C47.3 124.713 48.125 124.988 49.0875 124.988C50.6 124.988 52.1125 124.438 53.35 123.475C53.625 123.888 53.9 124.163 54.0375 124.575C57.3375 131.038 61.6 134.063 67.1 134.063C67.7875 134.063 68.475 134.063 69.1625 133.925C69.4375 134.338 69.7125 134.888 69.9875 135.3C72.4625 139.15 76.0375 144.925 82.6375 146.575C83.7375 146.85 84.8375 146.988 85.9375 146.988C88 146.988 89.925 146.3 91.4375 144.788C93.0875 142.863 93.9125 140.25 93.6375 137.638C93.6375 137.088 93.6375 136.4 93.775 135.85C95.7 134.613 97.7625 133.513 99.825 132.688C102.85 133.238 106.012 133.513 109.037 133.513C112.612 133.513 117.562 133.1 120.175 129.525C120.45 129.113 120.725 128.7 120.862 128.288C121.55 128.7 122.1 129.113 122.65 129.525C123.887 130.763 125.537 131.45 127.187 131.45C127.875 131.45 128.7 131.313 129.387 131.038C129.387 131.313 129.525 131.45 129.525 131.725C130.762 136.263 132.137 138.875 139.425 144.1C141.487 145.475 144.1 145.75 146.3 144.788C153.312 141.488 156.337 135.438 154 129.25C152.625 126.088 150.837 123.338 148.637 120.725C147.537 119.35 145.337 116.6 145.337 115.775C145.887 113.988 150.425 107.8 158.125 99.8254C160.462 97.4879 160.737 93.7754 158.675 91.0254C157.712 89.7879 157.025 88.6879 156.475 87.7254C159.912 86.0754 160.875 81.8129 161.562 77.8254C162.937 76.7254 164.45 76.0379 166.1 75.6254C169.537 74.5254 171.6 72.6004 172.15 69.8504C172.562 67.3754 171.737 64.9004 169.812 63.1129C172.15 61.8754 175.037 60.2254 175.862 56.6504C176.687 52.9379 174.762 49.6379 172.562 46.6129C171.6 45.3754 170.775 44.0004 169.95 42.4879ZM163.487 60.5004C157.85 64.3504 172.15 67.9254 164.312 70.4004C156.475 72.8754 156.2 76.3129 156.2 76.3129C154.55 85.6629 153.862 81.9504 150.425 83.4629C147.537 84.7004 152.35 91.7129 154.275 94.3254C154.687 94.8754 154.55 95.5629 154.137 96.1129C151.25 99.1379 141.075 109.863 139.975 114.538C138.6 120.038 146.575 124.988 148.912 131.175C150.837 136.125 146.025 138.875 144.1 139.838C143.962 139.975 143.687 139.975 143.55 139.975C143.275 139.975 143 139.838 142.725 139.7C134.062 133.513 136.262 132.688 133.65 126.638C132.825 124.713 132 124.025 131.175 124.025C129.662 124.025 128.287 126.088 127.187 126.088C126.912 126.088 126.637 125.95 126.5 125.813C125.262 124.575 119.9 121.275 117.15 121.275C115.775 121.275 115.087 122.1 115.775 124.163C116.737 127.325 113.025 128.15 108.9 128.15C105.737 128.15 102.712 127.738 99.55 127.188C99.4125 127.188 99.4125 127.188 99.275 127.188C99.1375 127.188 99 127.188 99 127.188C95.975 128.15 93.0875 129.525 90.475 131.313C85.6625 134.475 90.3375 141.488 85.8 141.488C85.1125 141.488 84.425 141.35 83.875 141.213C76.3125 139.288 73.7 128.15 70.5375 128.15C70.4 128.15 70.4 128.15 70.2625 128.15C69.1625 128.425 68.0625 128.563 66.825 128.563C64.35 128.563 61.4625 127.463 58.7125 121.963C56.925 118.663 55 117.7 53.35 117.7C51.975 117.7 50.7375 118.25 49.775 119.075C49.5 119.213 49.225 119.35 48.95 119.35C48.8125 119.35 48.675 119.35 48.4 119.213L21.0375 108.35C20.625 108.213 20.2125 107.8 20.2125 107.25L19.8 104.5C19.6625 103.95 19.3875 103.675 18.975 103.4L12.375 101.063C11.825 100.925 11.55 100.513 11.55 99.9629L9.76246 84.5629C9.76246 84.4254 9.76246 84.2879 9.62496 84.2879L5.49996 73.4254C5.49996 73.0129 5.49996 72.6004 5.63746 72.1879L8.24996 67.6504C8.38746 67.3754 8.38746 67.1004 8.38746 66.8254L7.97496 62.0129C7.97496 61.7379 7.97496 61.4629 8.11246 61.1879L13.2 52.2504C13.3375 51.9754 13.3375 51.8379 13.3375 51.5629L12.925 39.0504C12.925 38.9129 12.925 38.7754 13.0625 38.5004C13.3375 37.5379 14.7125 34.2379 15.95 34.2379C16.5 34.2379 17.05 34.9254 17.4625 36.7129C18.2875 40.0129 19.1125 41.2504 19.9375 41.2504C20.625 41.2504 21.175 40.1504 21.5875 38.6379C21.725 38.2254 22.4125 38.0879 23.65 38.0879C30.8 38.0879 54.175 44.6879 56.1 45.2379C56.2375 45.2379 56.2375 45.2379 56.375 45.2379L99 48.8129C99 48.8129 106.7 49.2254 105.325 53.3504C104.775 54.8629 105.462 55.4129 106.425 55.4129C106.837 55.4129 107.112 55.4129 107.525 55.2754C111.375 54.3129 115.5 52.6629 119.487 52.6629H121.962C122.65 52.6629 123.337 53.2129 123.337 53.9004V54.8629C123.337 55.2754 123.475 55.5504 123.887 55.8254L127.737 58.9879C128.287 59.4004 128.425 60.0879 128.012 60.6379L126.912 62.8379C126.637 63.3879 126.775 63.9379 127.187 64.4879L130.762 68.2004C131.175 68.6129 131.175 69.1629 131.037 69.5754C130.762 70.2629 131.175 71.0879 131.862 71.3629C132 71.3629 132.137 71.5004 132.275 71.5004C132.55 71.5004 132.962 71.3629 133.237 71.0879L134.887 69.5754C135.162 69.3004 135.3 69.0254 135.3 68.6129C135.575 65.0379 137.225 64.0754 138.875 64.0754C139.287 64.0754 139.7 64.0754 140.112 64.2129C140.25 64.2129 140.25 64.2129 140.387 64.2129C141.075 64.2129 141.762 63.5254 141.762 62.8379V62.7004C141.487 60.2254 141.9 56.3754 146.025 55.6879C149.187 55.1379 152.212 54.0379 154.962 52.5254C155.237 52.3879 155.512 51.9754 155.512 51.7004L157.3 44.2754C157.437 43.8629 157.712 43.4504 158.125 43.3129C159.5 42.7629 160.875 42.4879 162.387 42.2129C164.725 42.2129 164.45 44.6879 168.3 49.9129C173.387 57.3379 169.125 56.6504 163.487 60.5004Z" fill="#59C3FF"/>
</g>
<defs>
<clipPath id="clip0">
<rect width="176" height="220" fill="white"/>
</clipPath>
</defs>
</svg>
