<svg width="186" height="241" viewBox="0 0 186 241" fill="none" xmlns="http://www.w3.org/2000/svg">
<path d="M74.3999 116.569C79.1978 119.779 84.6092 121.882 90.2649 122.734C95.9207 123.587 101.688 123.169 107.173 121.509C108.435 121.078 109.797 121.083 111.056 121.524C112.314 121.964 113.4 122.815 114.148 123.95L133.567 153.76L147.944 142.382L125.197 115.185C124.338 114.146 123.832 112.846 123.755 111.483C123.677 110.119 124.034 108.767 124.769 107.632C133.548 93.6204 132.451 73.2664 120.714 57.4099C106.28 37.9016 81.2819 32.5777 64.9139 45.5512C51.6521 56.0261 48.0809 75.2269 54.7955 92.5441" stroke="#59C3FF" stroke-width="5.8125" stroke-linecap="round" stroke-linejoin="round"/>
<path d="M80.6309 119.875L130.181 80.7236" stroke="#59C3FF" stroke-width="5.8125" stroke-linecap="round" stroke-linejoin="round"/>
<path d="M56.5441 130.638C66.7549 130.638 75.0325 122.085 75.0325 111.533C75.0325 100.982 66.7549 92.4287 56.5441 92.4287C46.3332 92.4287 38.0557 100.982 38.0557 111.533C38.0557 122.085 46.3332 130.638 56.5441 130.638Z" stroke="#59C3FF" stroke-width="5.8125" stroke-linecap="round" stroke-linejoin="round"/>
</svg>
