<svg width="161" height="201" viewBox="0 0 161 201" fill="none" xmlns="http://www.w3.org/2000/svg">
<path d="M107.427 86.6621V86.6669C106.554 86.6718 105.681 86.7071 104.811 86.7779C119.532 87.9694 130.872 100.168 130.885 114.823C130.885 130.377 118.178 142.986 102.504 142.986C87.7839 142.976 75.5133 131.803 74.2446 117.249C74.1722 118.07 74.1304 118.888 74.1191 119.708C74.1175 137.961 89.0285 152.759 107.424 152.759C107.424 152.759 107.426 152.759 107.427 152.759C125.821 152.759 140.735 137.964 140.735 119.711C140.735 119.711 140.735 119.711 140.735 119.708C140.734 101.457 125.821 86.6621 107.427 86.6621Z" fill="#59C3FF"/>
<path d="M56.489 90.4836L38.0179 97.3289L32.0732 81.2891L22.8384 84.7125L28.7832 100.752L11.0405 107.327L14.3723 116.319L32.1166 109.744L47.5196 151.306L56.756 147.883L41.3497 106.321L59.8224 99.4739L56.489 90.4836Z" fill="#59C3FF"/>
<path d="M133.757 47.2959C131.428 47.2959 129.544 49.1821 129.544 51.5089C129.544 51.5089 129.544 51.5089 129.544 51.5105C129.544 53.8356 131.428 55.7234 133.755 55.7234C136.082 55.7234 137.966 53.8372 137.966 51.5105C137.968 49.1837 136.083 47.2975 133.757 47.2959Z" fill="#59C3FF"/>
<path d="M119.954 21.8936C103.491 21.8936 90.1445 35.2383 90.1445 51.7027C90.1445 68.1638 103.491 81.5085 119.954 81.5085C136.413 81.5085 149.76 68.1638 149.76 51.7027C149.76 35.2416 136.416 21.8952 119.954 21.8936ZM110.362 51.5113C110.362 53.8365 108.476 55.7243 106.149 55.7243C103.824 55.7243 101.938 53.8381 101.938 51.5113C101.938 49.1845 103.821 47.2983 106.147 47.2967C106.149 47.2967 106.149 47.2967 106.149 47.2967C108.476 47.2967 110.362 49.1829 110.362 51.5113C110.362 51.5097 110.362 51.5097 110.362 51.5113ZM133.689 66.0219C125.234 65.8338 122.022 61.3716 120.081 55.6004C119.97 44.3461 115.348 37.7082 105.306 37.7082C100.945 37.7082 97.0573 40.2617 94.3334 44.2592C97.6442 32.8601 108.083 25.0163 119.954 25.0066C134.697 25.0066 146.651 36.9589 146.651 51.7043C146.645 53.3107 146.492 54.9106 146.198 56.4897C142.795 64.3689 137.934 66.0139 133.689 66.0219Z" fill="#59C3FF"/>
<path d="M14.7325 66.8108H37.0709L48.1435 85.9927L59.2178 66.8108H82.5933L70.9064 46.5677L82.0756 27.2203H59.7356L48.6629 8.04004L37.5886 27.2219H14.2131L25.9001 47.465L14.7325 66.8108ZM22.5876 62.2747L28.5195 51.9995L31.1791 56.6065L34.4498 62.2747H22.5876ZM48.1435 76.9187L42.3081 66.8092H48.6645H53.9838L48.1435 76.9187ZM74.7366 62.2747H61.8373L65.1112 56.6065L68.2886 51.1023L74.7366 62.2747ZM74.2189 31.7596L68.287 42.0332L65.6273 37.4278L62.355 31.7613H74.2189V31.7596ZM48.6629 17.114L54.4984 27.2235H48.1435H42.8275L48.6629 17.114ZM40.2065 31.7596H48.1435H57.1178L61.699 39.6935L65.6691 46.5677L61.1812 54.3392L56.6 62.2747H48.6629H39.6887L35.1075 54.3392L31.1389 47.4666L35.6253 39.6951L40.2065 31.7596ZM22.0698 31.7596H34.9692L31.6953 37.4262L28.5179 42.9288L22.0698 31.7596Z" fill="#59C3FF"/>
<path d="M95.6984 114.388L101.063 123.185L101.756 112.902L111.782 110.519L102.216 106.682L103.049 96.4121L96.4445 104.323L86.9316 100.358L92.4149 109.083L85.7063 116.904L95.6984 114.388Z" fill="#59C3FF"/>
</svg>
