<svg width="172" height="137" viewBox="0 0 172 137" fill="none" xmlns="http://www.w3.org/2000/svg">
<path d="M26.0606 13.0293C28.2384 11.3936 30.9454 10.4242 33.8788 10.4242H59.9394C67.1358 10.4242 72.9697 16.2581 72.9697 23.4545V31.2727H145.939V2.60606C145.939 1.16677 147.106 0 148.545 0H169.394C170.833 0 172 1.16677 172 2.60606V106.848C172 108.288 170.833 109.455 169.394 109.455H148.545C147.106 109.455 145.939 108.288 145.939 106.848V88.6061H114.667V106.848C114.667 108.288 113.5 109.455 112.061 109.455C110.621 109.455 109.455 108.288 109.455 106.848V88.6061H26.0606V106.848C26.0606 108.288 24.8938 109.455 23.4545 109.455H2.60606C1.16677 109.455 0 108.288 0 106.848V2.60606C0 1.16677 1.16677 0 2.60606 0H23.4545C24.8938 0 26.0606 1.16677 26.0606 2.60606V13.0293ZM5.21212 5.21212V104.242H20.8485V5.21212H5.21212ZM109.455 36.4848H26.0606V65.1506C28.2384 63.5148 30.9454 62.5455 33.8788 62.5455H59.9394C67.1358 62.5455 72.9697 68.3793 72.9697 75.5758V83.3939H109.455V36.4848ZM145.939 36.4848H114.667V57.3333H145.939V36.4848ZM145.939 62.5455H114.667V83.3939H145.939V62.5455ZM151.152 5.21212V104.242H166.788V5.21212H151.152ZM67.7576 83.3939V75.5758C67.7576 71.2579 64.2573 67.7576 59.9394 67.7576H33.8788C29.5609 67.7576 26.0606 71.2579 26.0606 75.5758V83.3939H67.7576ZM67.7576 31.2727V23.4545C67.7576 19.1367 64.2573 15.6364 59.9394 15.6364H33.8788C29.5609 15.6364 26.0606 19.1367 26.0606 23.4545V31.2727H67.7576Z" fill="#59C3FF"/>
</svg>
