<svg width="140" height="175" viewBox="0 0 140 175" fill="none" xmlns="http://www.w3.org/2000/svg">
<g clip-path="url(#clip0)">
<path d="M57.3998 70.5609C75.802 70.5609 90.7198 55.643 90.7198 37.2409C90.7198 18.8388 75.802 3.9209 57.3998 3.9209C38.9977 3.9209 24.0798 18.8388 24.0798 37.2409C24.0798 55.643 38.9977 70.5609 57.3998 70.5609Z" fill="#59C3FF"/>
<path d="M80.36 109.2C80.36 98.5598 85.4 89.3198 93.24 83.1598C87.36 78.3998 80.64 75.0398 73.36 72.7998C63 77.2798 51.52 77.5598 41.44 72.7998C17.36 79.7998 0 101.64 0 127.96V136.08H94.64C85.96 130.2 80.36 120.4 80.36 109.2Z" fill="#59C3FF"/>
<path d="M113.12 82.042C98.28 82.042 86.24 94.082 86.24 108.922C86.24 123.762 98.28 135.802 113.12 135.802C127.96 135.802 140 124.042 140 109.202C140 94.362 127.96 82.042 113.12 82.042ZM128.24 108.362C127.12 109.482 125.16 109.482 124.04 108.362L115.92 100.242V124.882C115.92 126.562 114.52 127.682 113.12 127.682C111.44 127.682 110.32 126.282 110.32 124.882V100.242L102.2 108.362C101.08 109.482 99.12 109.482 98 108.362C96.88 107.242 96.88 105.282 98 104.162L111.16 91.002C111.72 90.442 112.28 90.162 113.12 90.162C113.96 90.162 114.52 90.442 115.08 91.002L128.24 104.162C129.36 105.562 129.36 107.242 128.24 108.362Z" fill="#59C3FF"/>
</g>
<defs>
<clipPath id="clip0">
<rect width="140" height="175" fill="white"/>
</clipPath>
</defs>
</svg>
