<svg width="167" height="209" viewBox="0 0 167 209" fill="none" xmlns="http://www.w3.org/2000/svg">
<path d="M99.9877 65.9383L111.068 76.9352C112.127 77.979 113.827 77.974 114.877 76.9252L125.916 65.8865L136.953 54.8478C144.046 47.7536 144.291 36.3258 137.134 29.2133L136.985 29.0547C136.957 29.0246 136.928 28.9979 136.9 28.9695C133.596 25.6946 129.386 24.0062 125.103 23.8309C120.818 23.6555 116.461 24.6408 112.872 27.4181C105.674 21.9004 95.4253 21.71 88.8438 28.39H88.5098V29.0981C81.8298 36.2306 81.571 47.8338 88.7353 54.943L99.9877 65.9383Z" fill="#59C3FF"/>
<path d="M164.583 98.0528C162.927 94.1334 159.655 92.3364 157.107 91.964C154.56 91.5899 152.466 92.3114 152.466 92.3114C152.369 92.3414 152.271 92.3765 152.177 92.4166L123.396 105.777C123.431 105.419 123.511 104.983 123.511 104.619C123.511 98.5488 118.481 93.5205 112.388 93.5205H88.4014C88.2978 93.5205 88.1809 93.1714 88.0857 92.9994C87.6566 92.2245 87.1923 91.5231 86.693 90.7967C85.691 89.3455 84.552 88.0228 83.2945 86.7904C78.2595 81.8589 70.863 78.8345 63.1911 78.8345L33.3999 78.8579V75.6498C33.3999 74.1568 33.0542 73.4805 31.5613 73.4805H18.0543H4.54733C3.05435 73.4805 1.66992 74.1568 1.66992 75.6481V129.679C1.66992 131.174 3.05435 131.93 4.54733 131.93H18.0543H31.5613C33.0542 131.93 33.3999 131.174 33.3999 129.679V124.36L88.2962 142.438C88.3546 142.458 88.6302 142.473 88.692 142.49C94.4885 143.961 101.267 143.099 106.369 139.768L158.894 111.253C158.905 111.243 158.974 111.231 158.984 111.221L160.32 110.493C160.32 110.488 160.32 110.484 160.32 110.481C163.66 108.018 166.529 102.657 164.583 98.0528ZM157.596 105.79L156.33 106.506L103.872 135.01C103.804 135.048 103.735 135.092 103.67 135.137C100.113 137.527 94.5837 138.323 90.2584 137.238L34.1598 118.758C34.0512 118.722 33.3999 118.694 33.3999 118.674V84.2486L63.181 84.2386C69.4318 84.2386 75.2418 86.6985 79.2899 90.6664C80.3019 91.6584 81.3289 92.7406 82.1322 93.9046C82.533 94.4874 82.9622 95.0886 83.3045 95.7098C83.7287 96.4764 84.041 96.65 84.2698 97.1828L84.9912 98.5305H87.366H112.386C115.622 98.5305 118.106 101.283 118.106 104.412C118.106 106.695 116.756 108.754 114.782 109.633L114.53 109.82C113.869 110.075 113.321 110.269 112.548 110.269C112.548 110.269 85.1683 110.314 75.1483 110.314C73.4783 110.314 73.4783 115.229 75.1483 115.229C86.8383 115.229 112.376 115.229 112.376 115.229C113.465 115.229 114.5 115.264 115.499 114.973C115.858 114.938 116.205 114.955 116.523 114.786L116.596 114.815C116.698 114.773 116.791 114.751 116.892 114.708L154.219 97.4166C154.244 97.3899 155.16 97.1293 156.297 97.298C157.458 97.4683 158.56 97.789 159.558 100.152C160.45 102.255 159.654 104.619 157.596 105.79Z" fill="#59C3FF"/>
</svg>
