<svg width="164" height="205" viewBox="0 0 164 205" fill="none" xmlns="http://www.w3.org/2000/svg">
<g clip-path="url(#clip0)">
<path d="M33.4561 100.367C44.0533 100.367 52.6441 91.7765 52.6441 81.1792C52.6441 70.582 44.0533 61.9912 33.4561 61.9912C22.8588 61.9912 14.2681 70.582 14.2681 81.1792C14.2681 91.7765 22.8588 100.367 33.4561 100.367Z" fill="#59C3FF"/>
<path d="M40.6721 105.616H26.4041C16.0721 105.616 7.38007 113.324 6.23207 123.656L4.10007 140.056C3.77207 142.188 5.24807 144.156 7.38007 144.648C15.5801 146.452 24.4361 147.272 33.4561 147.272C37.2281 147.272 40.8361 147.108 44.2801 146.78L46.0841 132.02C47.0681 124.312 50.8401 117.752 56.4161 113.16C52.8081 108.568 46.9041 105.616 40.6721 105.616Z" fill="#59C3FF"/>
<path d="M130.544 100.367C141.141 100.367 149.732 91.7765 149.732 81.1792C149.732 70.582 141.141 61.9912 130.544 61.9912C119.947 61.9912 111.356 70.582 111.356 81.1792C111.356 91.7765 119.947 100.367 130.544 100.367Z" fill="#59C3FF"/>
<path d="M157.932 123.491C156.784 113.159 147.928 105.451 137.76 105.451H123.492C117.096 105.451 111.356 108.403 107.584 113.159C113.16 117.751 117.096 124.311 117.916 132.019L119.72 146.779C123.164 147.107 126.936 147.271 130.544 147.271C139.728 147.271 148.42 146.287 156.62 144.647C158.752 144.155 160.064 142.187 159.9 140.055L157.932 123.491Z" fill="#59C3FF"/>
<path d="M89.052 115.291H74.784C64.452 115.291 55.76 122.999 54.612 133.167L52.644 149.731C52.316 151.863 53.792 153.995 55.924 154.323C64.124 156.127 72.98 156.947 82 156.947C91.184 156.947 99.876 155.963 108.076 154.323C110.208 153.831 111.52 151.863 111.356 149.731L109.388 133.167C108.076 122.999 99.384 115.291 89.052 115.291Z" fill="#59C3FF"/>
<path d="M82 110.044C92.5973 110.044 101.188 101.453 101.188 90.856C101.188 80.2587 92.5973 71.668 82 71.668C71.4028 71.668 62.812 80.2587 62.812 90.856C62.812 101.453 71.4028 110.044 82 110.044Z" fill="#59C3FF"/>
<path d="M88.0681 51.6587C94.7921 55.1027 102.992 54.9387 109.88 51.3307L119.72 54.6107C121.852 55.2667 123.656 53.2987 123 51.3307L119.72 41.6547C124.312 32.6347 123 21.3187 115.456 13.7747C108.076 6.39473 96.9241 4.91873 88.0681 9.51073C99.0561 21.3187 99.0561 39.6867 88.0681 51.6587Z" fill="#59C3FF"/>
<path d="M44.4441 54.6117L54.2841 51.3317C63.1401 56.0877 74.4561 54.7757 82.0001 47.2317C91.1841 38.0477 91.1841 22.9597 82.0001 13.7757C72.8161 4.5917 57.7281 4.5917 48.5441 13.7757C41.0001 21.3197 39.6881 32.6357 44.4441 41.4917L41.1641 51.3317C40.3441 53.2997 42.3121 55.2677 44.4441 54.6117Z" fill="#59C3FF"/>
</g>
<defs>
<clipPath id="clip0">
<rect width="164" height="205" fill="white"/>
</clipPath>
</defs>
</svg>
