<svg width="184" height="230" viewBox="0 0 184 230" fill="none" xmlns="http://www.w3.org/2000/svg">
<path d="M104.328 87.4018C110.73 87.4018 115.92 82.2119 115.92 75.8098C115.92 69.4077 110.73 64.2178 104.328 64.2178C97.9258 64.2178 92.7358 69.4077 92.7358 75.8098C92.7358 82.2119 97.9258 87.4018 104.328 87.4018Z" fill="#59C3FF"/>
<path d="M129.904 124.2C129.72 122.912 127.328 111.136 125.488 106.536C125.304 105.984 125.12 105.432 124.752 104.696C122.912 99.7283 119.416 90.3442 110.768 90.3442H97.5201C89.2401 90.3442 83.3521 87.5842 81.5121 86.1122C80.4081 85.0082 76.9121 79.1202 74.3361 74.1522L78.7521 53.7283L96.4161 57.4083C96.6001 57.4083 96.9681 57.4083 97.1521 57.4083C97.8881 57.4083 98.4401 57.2243 98.9921 56.8563C99.7281 56.3043 100.28 55.5683 100.464 54.6483L108.376 17.1123C108.56 16.1923 108.376 15.2723 107.824 14.5363C107.272 13.8003 106.536 13.2482 105.616 13.0642L66.0561 4.60025C65.1361 4.41625 64.2161 4.60025 63.4801 5.15225C62.7441 5.70425 62.1921 6.44025 62.0081 7.36025L54.0961 44.8963C53.9121 45.8163 54.0961 46.7363 54.6481 47.4723C55.2001 48.2083 55.9361 48.7603 56.8561 48.9443L74.5201 52.6243L70.6561 70.8402C69.5521 70.6562 68.6321 70.8402 67.5281 71.3922C65.1361 72.6802 64.2161 75.6243 65.5041 78.0163C67.8961 82.6163 72.4961 90.8963 75.0721 93.2883C78.0161 96.0483 84.2721 98.9922 92.9201 99.9122L93.4721 127.328L87.9521 172.96C87.5841 176.088 89.7921 179.032 92.9201 179.4C96.0481 179.768 98.9921 177.56 99.3601 174.432L104.144 133.032L108.928 174.432C109.296 177.376 111.688 179.584 114.632 179.584C114.816 179.584 115 179.584 115.368 179.584C118.496 179.216 120.704 176.272 120.336 173.144L115 127.512L115.368 108.376C115.736 109.112 115.92 109.848 116.104 110.4C117.208 113.16 119.048 121.44 119.968 126.224C120.52 128.616 122.544 130.272 124.752 130.272C125.12 130.272 125.304 130.272 125.672 130.088C128.8 129.352 130.456 126.776 129.904 124.2ZM66.0561 9.20025L103.96 17.2962L96.4161 52.9923L58.5121 44.8963L66.0561 9.20025Z" fill="#59C3FF"/>
<path d="M84.088 17.8494C76.912 16.3774 69.736 20.9774 68.264 28.1534C66.792 35.3294 71.392 42.5054 78.568 43.9774C79.488 44.1614 80.408 44.3454 81.328 44.3454C87.584 44.3454 93.104 39.9294 94.392 33.6734C95.864 26.4974 91.264 19.5054 84.088 17.8494ZM79.304 39.9294C74.52 38.8254 71.392 34.0414 72.312 29.2574C72.68 27.6014 73.416 26.1294 74.52 25.0254L84.088 39.7454C82.616 40.1134 80.96 40.2974 79.304 39.9294ZM90.16 32.9374C89.792 34.5934 89.056 36.0654 87.952 37.1694L78.384 22.4494C79.304 22.0814 80.224 21.8974 81.328 21.8974C81.88 21.8974 82.616 21.8974 83.168 22.0814C87.952 23.1854 91.08 27.9694 90.16 32.9374Z" fill="#59C3FF"/>
</svg>
