<svg width="180" height="225" viewBox="0 0 180 225" fill="none" xmlns="http://www.w3.org/2000/svg">
<path d="M146.8 45.1992C145.4 45.1992 144 45.7992 142.8 46.7992L22.4001 80.9992C22.2001 80.7992 21.8001 80.5992 21.6001 80.5992C20.0001 80.5992 18.6001 84.5992 18.6001 89.5992C18.6001 94.5992 20.0001 98.5992 21.6001 98.5992C22.0001 98.5992 22.4001 98.3992 22.6001 97.9992L51.2001 106.199L48.0001 117.399C47.8001 118.199 47.8001 118.799 48.2001 119.599C48.6001 120.199 49.2001 120.799 49.8001 120.999L98.4001 134.799C98.6001 134.799 99.0001 134.999 99.2001 134.999C99.6001 134.999 100.2 134.799 100.6 134.599C101.2 134.199 101.8 133.599 102 132.999L105.2 121.999L142.8 132.799C144 133.799 145.4 134.399 146.6 134.399C154.8 134.399 161.4 114.599 161.4 89.9992C161.4 65.1992 154.8 45.1992 146.8 45.1992ZM97.4001 128.399L54.0001 116.199L56.4001 107.799L99.6001 120.199L97.4001 128.399Z" fill="#59C3FF"/>
</svg>
