<svg width="149" height="187" viewBox="0 0 149 187" fill="none" xmlns="http://www.w3.org/2000/svg">
<path d="M30.694 30.6943C19.072 42.4653 12.665 57.9613 12.665 74.5003C12.665 91.0393 19.072 106.535 30.843 118.306C42.912 130.375 58.706 136.335 74.649 136.335C90.592 136.335 106.386 130.375 118.455 118.306C130.077 106.684 136.633 91.0393 136.633 74.5003C136.633 57.9613 130.226 42.4653 118.455 30.6943C94.168 6.55632 54.832 6.55632 30.694 30.6943ZM92.827 49.7663C86.42 42.0183 82.993 32.1843 82.844 22.2013C92.082 23.6913 101.022 27.5653 108.621 33.9723L92.827 49.7663ZM86.569 56.1733L74.5 68.2423L40.379 34.1213C50.064 25.9263 61.984 21.7543 73.904 21.6053C73.904 34.2703 78.374 46.4883 86.569 56.1733ZM68.242 74.5003L56.173 86.5693C46.488 78.3743 34.27 73.9043 21.605 74.0533C21.754 61.6863 26.075 49.9153 34.121 40.5283L68.242 74.5003ZM56.173 99.2343C62.58 106.982 66.007 116.667 66.156 126.799C56.918 125.309 47.978 121.435 40.379 115.028L56.173 99.2343ZM62.431 92.8273L74.5 80.7583L108.621 114.879C98.936 123.074 87.016 127.246 75.096 127.395C75.096 114.73 70.626 102.512 62.431 92.8273ZM80.758 74.5003L92.678 62.5803C102.363 70.7753 114.432 75.0963 126.948 75.0963C127.097 75.0963 127.097 75.0963 127.246 75.0963C127.097 87.4633 122.776 99.2343 114.73 108.621L80.758 74.5003ZM99.234 56.1733L115.028 40.3793C121.286 47.8293 125.309 56.6203 126.799 66.1563C116.667 66.0073 106.982 62.5803 99.234 56.1733ZM22.201 82.8443C32.333 82.9933 42.018 86.4203 49.766 92.8273L34.121 108.621C27.714 101.171 23.691 92.3803 22.201 82.8443Z" fill="#59C3FF"/>
</svg>
