<svg width="105" height="182" viewBox="0 0 105 182" fill="none" xmlns="http://www.w3.org/2000/svg">
<g clip-path="url(#clip0)">
<path d="M24.0072 145.407C11.6059 143.712 1.85153 133.909 0.196766 121.479C-0.0655887 119.508 -0.0655887 116.175 0.196766 114.204C1.71893 102.77 10.1531 93.4381 21.3827 90.7623C25.2916 89.8309 30.2473 89.8309 34.1562 90.7623C40.1362 92.1872 45.6664 95.6862 49.5218 100.484C55.3724 107.765 57.1145 117.779 54.1022 126.813C52.7143 130.976 50.0058 135.133 46.6493 138.252C42.4389 142.165 37.1513 144.65 31.4068 145.414C29.5259 145.665 25.8653 145.661 24.0072 145.407V145.407ZM24.8729 138.175L27.2547 135.79L25.2692 133.786C24.1771 132.684 23.2836 131.706 23.2836 131.613C23.2836 131.485 25.9785 131.444 34.2693 131.444C40.3115 131.444 45.358 131.404 45.4839 131.356C45.6834 131.28 45.7128 130.844 45.7128 127.971C45.7128 125.098 45.6834 124.662 45.4839 124.586C45.358 124.538 40.3115 124.498 34.2693 124.498C25.9785 124.498 23.2836 124.457 23.2836 124.329C23.2836 124.236 24.1771 123.258 25.2692 122.156L27.2547 120.152L24.8729 117.767C23.5629 116.455 22.4242 115.382 22.3424 115.382C22.1093 115.382 9.82612 127.737 9.82612 127.971C9.82612 128.205 22.1093 140.56 22.3424 140.56C22.4242 140.56 23.5629 139.487 24.8729 138.175V138.175ZM39.309 113.899C42.7515 110.457 45.5681 107.575 45.5681 107.494C45.5681 107.293 33.2292 94.9784 33.0277 94.9784C32.8533 94.9784 28.2036 99.5535 28.2036 99.7251C28.2036 99.7828 29.0827 100.707 30.1571 101.78C31.2315 102.852 32.1106 103.811 32.1106 103.912C32.1106 104.058 29.8707 104.095 21.0697 104.095C12.6752 104.095 9.98709 104.136 9.85506 104.268C9.59014 104.533 9.61058 110.657 9.87713 110.878C10.0181 110.995 13.1572 111.041 21.0917 111.041C29.7489 111.041 32.1106 111.079 32.1106 111.22C32.1106 111.318 31.2161 112.295 30.1227 113.39L28.1348 115.382L30.519 117.769C31.8303 119.083 32.9362 120.157 32.9766 120.157C33.0169 120.157 35.8666 117.341 39.3091 113.899H39.309ZM46.2265 144.059C46.3021 143.993 46.9304 143.504 47.6226 142.971C54.3108 137.827 58.6544 130.25 59.9129 121.532C60.1553 119.853 60.1553 114.962 59.9129 113.284C58.7171 104.999 54.7663 97.7802 48.6161 92.6412C43.8151 88.6294 38.2981 86.1951 31.8936 85.2625C30.0608 84.9956 25.0544 85.0339 23.2172 85.3289C22.4246 85.4562 21.7569 85.5412 21.7335 85.5178C21.6748 85.4591 23.2548 83.1772 24.482 81.5482C27.6874 77.2933 32.1864 72.9876 36.2568 70.2791L37.4374 69.4935L38.9342 70.7474C45.257 76.0438 53.1653 78.4697 61.0877 77.543C67.0309 76.8477 72.1749 74.6232 76.8018 70.7474L78.2987 69.4935L79.4792 70.2791C80.1285 70.7112 81.4736 71.7151 82.4682 72.5101C94.6487 82.2459 102.68 98.4794 104.412 116.864C104.754 120.494 104.754 127.779 104.412 131.408C104.059 135.151 103.207 140.129 102.418 143.056L102.116 144.178H74.1025C58.6951 144.178 46.1509 144.124 46.2265 144.059V144.059ZM55.0463 65.4622C52.0756 65.0403 49.0227 64.1709 47.1599 63.2162C44.0961 61.646 42.4855 60.5136 40.3002 58.3929C37.348 55.5281 35.2057 52.0081 33.9031 47.882C32.8791 44.6383 32.5867 40.9874 33.0451 37.169C33.339 34.7201 33.4037 34.4575 33.6859 34.5651C33.8954 34.6449 39.9631 37.8736 44.6999 40.4258C45.6947 40.9618 48.4297 42.4278 50.7775 43.6835C53.1253 44.9392 55.6963 46.323 56.4907 46.7587L57.9352 47.5508L58.5889 47.1887C58.9485 46.9895 59.7311 46.5661 60.328 46.2478C60.9249 45.9295 62.7156 44.968 64.3074 44.1112C65.8991 43.2544 68.1647 42.0415 69.342 41.4159C70.5193 40.7903 71.8867 40.0591 72.3808 39.791C72.8748 39.5229 74.7767 38.5038 76.6072 37.5262C78.4378 36.5487 80.4225 35.4661 81.0177 35.1204C81.6129 34.7747 82.142 34.4919 82.1934 34.4919C82.4457 34.4919 82.8994 38.3983 82.8993 40.5695C82.8992 43.2642 82.5631 45.5689 81.8329 47.882C80.5303 52.0081 78.388 55.5281 75.4358 58.3929C73.2506 60.5136 71.6399 61.646 68.5761 63.2162C67.262 63.8897 64.6069 64.7544 62.7455 65.1152C60.6543 65.5206 56.709 65.6984 55.0463 65.4622V65.4622ZM56.7104 41.71C56.1135 41.3844 54.6483 40.5952 53.4545 39.9561C52.2607 39.3171 50.47 38.3567 49.4751 37.8221C45.7239 35.806 37.5638 31.4319 33.3768 29.1928C32.2427 28.5863 29.4915 27.1127 27.263 25.9182C25.0346 24.7237 22.788 23.5197 22.2707 23.2427C19.8049 21.922 18.6531 21.265 18.6531 21.1791C18.6531 21.089 20.0238 20.3122 22.4878 19.006C23.1245 18.6684 25.8268 17.2212 28.493 15.79C31.1592 14.3587 34.3173 12.6644 35.5112 12.0248C38.4916 10.428 40.9144 9.12857 45.4958 6.66979C47.6446 5.51651 49.8261 4.34708 50.3434 4.07104C50.8607 3.79501 52.2933 3.02739 53.5269 2.36522C54.7605 1.70306 56.2645 0.899996 56.8691 0.580642L57.9684 0L60.342 1.27688C61.6475 1.97916 63.6272 3.04209 64.7415 3.63895C65.8557 4.23581 67.5162 5.13123 68.4314 5.62879C69.3467 6.12635 71.5281 7.29812 73.279 8.23273C75.03 9.16733 77.3579 10.4114 78.4522 10.9974C79.5466 11.5833 81.3698 12.559 82.5039 13.1654C83.6381 13.7719 86.3893 15.2455 88.6177 16.44C90.8462 17.6345 93.0927 18.8385 93.61 19.1156C96.0759 20.4363 97.2276 21.0933 97.2276 21.1791C97.2276 21.2717 95.7932 22.0825 93.2483 23.4285C90.9187 24.6605 86.7543 26.9209 86.013 27.3557C85.6151 27.5891 84.5407 28.1581 83.6254 28.6202C82.7102 29.0822 81.2125 29.867 80.2972 30.364C79.382 30.861 77.6563 31.7903 76.4625 32.429C75.2687 33.0678 72.5338 34.5342 70.3849 35.6878C68.2361 36.8414 66.0547 38.0111 65.5373 38.287C65.02 38.563 63.6526 39.2952 62.4986 39.9142C61.3445 40.5332 59.8684 41.3245 59.2181 41.6728C58.5679 42.021 57.9819 42.305 57.9158 42.3039C57.8497 42.3028 57.3073 42.0355 56.7104 41.71V41.71Z" fill="#59C3FF"/>
</g>
<defs>
<clipPath id="clip0">
<rect width="104.668" height="182" fill="white"/>
</clipPath>
</defs>
</svg>
