<svg width="155" height="194" viewBox="0 0 155 194" fill="none" xmlns="http://www.w3.org/2000/svg">
<path d="M87.11 124.776C88.815 127.411 90.83 129.891 93.465 131.596C97.185 134.231 101.525 135.781 106.485 135.781C117.025 135.781 125.705 128.651 128.34 119.041C128.96 117.181 129.115 115.321 129.115 113.151C129.115 112.376 129.115 111.756 128.96 111.136C128.185 101.526 121.21 93.3107 111.91 91.1407C110.205 90.8307 108.345 90.3657 106.485 90.3657C105.71 90.3657 104.935 90.3657 104.005 90.5207C103.695 90.5207 103.23 90.5207 102.92 90.6757C92.07 92.2257 83.7 101.681 83.7 112.996C83.7 117.181 84.94 121.366 87.11 124.776ZM78.74 125.241C77.035 121.521 76.105 117.336 76.105 112.996C76.105 99.2007 85.405 87.7307 97.805 83.8557C98.58 83.7007 99.51 83.5457 100.285 83.2357C97.185 78.2757 93.62 74.4007 89.745 71.7657C87.73 70.2157 85.715 69.1307 83.7 68.3557C81.22 67.4257 79.05 66.8057 76.725 66.8057C74.865 66.8057 72.695 67.1157 70.68 67.8907C68.665 68.6657 66.495 69.5957 64.48 71.1457C54.87 77.5007 46.035 91.2957 46.035 110.206C46.035 111.911 46.345 113.461 46.965 114.701C47.585 116.251 48.515 117.336 49.6 118.421C50.995 119.506 52.7 120.746 54.715 121.521C60.76 124.311 69.905 125.551 78.74 125.241ZM141.98 101.371C141.98 106.331 139.965 110.516 136.71 113.771C136.71 113.771 136.71 113.926 136.555 113.926C135.935 130.201 122.76 143.221 106.33 143.221C97.185 143.221 89.125 139.191 83.7 132.991C68.82 134.386 51.925 131.596 44.33 124.156C43.555 123.381 42.935 122.606 42.315 121.831C32.55 121.211 23.25 118.576 18.29 113.771C14.88 110.361 13.02 106.176 13.02 101.371C13.02 91.1407 16.43 79.8257 22.165 71.1457C24.955 66.8057 28.21 63.3957 31.775 60.7607C32.395 60.1407 32.55 59.3657 32.705 58.7457C32.86 57.6607 32.55 56.2657 31.775 55.3357C28.365 51.6157 26.04 46.5007 26.04 40.7657C26.04 28.8307 35.65 19.2207 47.585 19.2207C53.01 19.2207 57.97 21.2357 61.69 24.6457C65.875 21.2357 70.99 19.3757 76.57 19.3757C82.615 19.3757 88.04 21.7007 92.225 25.2657C95.945 21.5457 101.37 19.2207 107.105 19.2207C119.04 19.2207 128.65 28.8307 128.65 40.7657C128.65 46.1907 126.635 51.3057 122.915 55.3357C122.14 56.4207 121.985 57.6607 121.985 58.7457C122.14 59.5207 122.295 60.2957 122.915 60.7607C126.48 63.3957 129.735 66.8057 132.525 71.1457C138.57 79.8257 141.98 91.1407 141.98 101.371ZM135.005 103.386C135.16 102.611 135.16 101.991 135.16 101.371C135.16 77.1907 118.885 62.3107 107.415 62.3107C103.85 62.3107 99.665 63.8607 95.635 66.4957C99.045 69.1307 102.3 72.6957 104.935 76.8807C106.33 78.7407 107.415 80.6007 108.345 82.9257C120.9 83.7007 131.285 92.0707 135.005 103.386ZM119.35 49.1357C121.055 46.6557 121.985 43.8657 121.985 40.6107C121.985 32.5507 115.32 25.8857 107.26 25.8857C103.075 25.8857 99.51 27.5907 96.875 30.2257C99.2 33.9457 100.595 38.2857 100.595 42.9357C100.595 46.3457 99.82 49.2907 98.735 52.3907C101.215 54.2507 104.16 55.1807 107.415 55.1807C111.6 55.1807 115.32 53.4757 117.955 50.6857C118.42 50.3757 118.73 49.7557 119.35 49.1357ZM92.69 42.6257C92.69 33.7907 85.56 26.5057 76.57 26.5057C67.58 26.5057 60.45 33.6357 60.45 42.6257C60.45 51.6157 67.58 58.7457 76.57 58.7457C85.56 58.7457 92.69 51.4607 92.69 42.6257ZM53.01 43.0907C53.01 37.9757 54.56 33.4807 57.195 29.6057C54.56 27.2807 51.305 26.0407 47.585 26.0407C39.525 26.0407 32.86 32.7057 32.86 40.7657C32.86 44.0207 33.79 46.8107 35.65 49.2907C36.27 49.9107 36.58 50.3757 37.045 50.9957C39.68 53.7857 43.4 55.4907 47.585 55.4907C50.375 55.4907 53.01 54.7157 55.18 53.1657C53.785 50.0657 53.01 46.6557 53.01 43.0907ZM48.67 76.7257C51.46 72.2307 54.87 68.6657 58.745 65.7207C55.18 63.3957 51.15 62.0007 47.74 62.0007C36.27 62.0007 19.995 76.8807 19.995 101.061C19.995 104.161 20.925 106.486 23.25 108.656C26.35 111.446 32.395 113.306 39.06 114.081C38.75 112.841 38.75 111.446 38.75 110.051C38.44 98.8907 42.315 86.3357 48.67 76.7257Z" fill="#59C3FF"/>
<path d="M108.035 107.415C110.825 105.865 113.77 104.47 116.56 102.92C115.63 102.145 114.7 101.525 113.77 100.75C113.305 103.54 111.29 108.5 112.065 111.29C112.995 114.08 117.49 116.87 119.505 118.885C119.815 117.8 120.125 116.715 120.435 115.63C117.645 116.095 112.53 115.63 110.205 117.335C107.88 119.04 106.64 124 105.4 126.635C106.485 126.635 107.57 126.635 108.81 126.635C107.57 124.155 106.33 119.04 104.005 117.335C101.68 115.63 96.565 115.94 93.775 115.63C94.085 116.715 94.395 117.8 94.705 118.885C96.72 116.87 101.215 114.08 102.145 111.29C103.075 108.5 101.06 103.54 100.44 100.75C99.51 101.525 98.58 102.145 97.65 102.92C100.44 104.47 103.385 105.865 106.175 107.415C108.345 108.5 110.36 105.245 108.19 104.005C105.4 102.455 102.455 101.06 99.665 99.5104C98.115 98.7354 96.565 99.9754 96.875 101.68C97.185 103.23 97.495 104.935 97.65 106.485C97.805 107.415 97.96 108.5 98.115 109.43C98.425 110.36 97.96 111.91 98.58 110.36C99.355 108.655 95.945 112.22 95.48 112.84C94.395 113.925 93.155 115.165 92.07 116.25C91.14 117.18 91.45 119.35 93 119.505C94.55 119.66 96.255 119.97 97.805 120.125C98.735 120.28 102.92 121.055 101.99 120.435C101.06 119.815 103.23 123.535 103.54 124.31C104.315 125.705 104.935 127.255 105.71 128.65C106.33 129.89 108.5 129.89 109.12 128.65C109.895 127.255 110.515 125.705 111.29 124.31C111.755 123.38 113.77 119.815 112.84 120.435C111.91 121.055 116.25 120.28 117.025 120.125C118.575 119.97 120.28 119.66 121.83 119.505C123.38 119.35 123.69 117.18 122.76 116.25C121.675 115.165 120.435 113.925 119.35 112.84C118.73 112.22 115.475 108.655 116.25 110.36C116.87 111.91 116.56 110.36 116.715 109.43C117.025 108.5 117.025 107.415 117.18 106.485C117.49 104.935 117.8 103.23 117.955 101.68C118.265 99.9754 116.715 98.7354 115.165 99.5104C112.375 101.06 109.43 102.455 106.64 104.005C103.85 105.245 105.71 108.5 108.035 107.415Z" fill="#59C3FF"/>
</svg>
