<svg width="190" height="190" viewBox="0 0 190 190" fill="none" xmlns="http://www.w3.org/2000/svg">
<path d="M181.094 125.893H178.125V52.2676C178.125 45.7197 171.466 40.3926 163.281 40.3926H145.469V35.6426H139.531V40.3926H133.594V33.2676H127.656V40.3926H109.844V35.6426H103.906V40.3926H86.0938V30.8926H80.1562V40.3926H62.3438V35.6426H56.4062V40.3926H50.4688V33.2676H44.5312V40.3926H29.6875C21.5027 40.3926 14.8438 45.7197 14.8438 52.2676V125.893H8.90625C7.26453 125.893 5.9375 126.957 5.9375 128.268V135.393C5.9375 141.94 12.5964 147.268 20.7812 147.268H169.219C177.404 147.268 184.062 141.94 184.062 135.393V128.268C184.062 126.957 182.735 125.893 181.094 125.893ZM20.7812 52.2676C20.7812 48.3393 24.7772 45.1426 29.6875 45.1426H163.281C168.192 45.1426 172.188 48.3393 172.188 52.2676V125.893H115.781C114.656 125.893 113.629 126.401 113.124 127.206L110.978 130.643H79.0222L76.8728 127.206C76.3711 126.401 75.3439 125.893 74.2188 125.893H20.7812V52.2676ZM178.125 135.393C178.125 139.321 174.129 142.518 169.219 142.518H20.7812C15.8709 142.518 11.875 139.321 11.875 135.393V130.643H72.3841L74.5334 134.079C75.0352 134.884 76.0623 135.393 77.1875 135.393H112.812C113.938 135.393 114.965 134.884 115.47 134.079L117.616 130.643H178.125V135.393Z" fill="#59C3FF"/>
<path d="M166.25 118.787V52.2871C166.25 50.9761 164.923 49.9121 163.281 49.9121H29.6875C28.0458 49.9121 26.7188 50.9761 26.7188 52.2871V118.787C26.7188 120.098 28.0458 121.162 29.6875 121.162H163.281C164.923 121.162 166.25 120.098 166.25 118.787ZM160.312 94.0539L149.307 102.858C148.749 103.302 148.438 103.908 148.438 104.537V116.412H139.531V103.145L147.568 96.7162C148.126 96.2721 148.438 95.6665 148.438 95.0371V73.2251C151.884 72.2419 154.375 69.6294 154.375 66.5371C154.375 63.4449 151.884 60.8324 148.438 59.8491V54.6621H160.312V94.0539ZM65.3125 99.7871C65.3125 98.4785 66.6425 97.4121 68.2812 97.4121C69.92 97.4121 71.25 98.4785 71.25 99.7871C71.25 101.096 69.92 102.162 68.2812 102.162C66.6425 102.162 65.3125 101.096 65.3125 99.7871ZM71.25 106.475C74.6967 105.492 77.1875 102.879 77.1875 99.7871C77.1875 95.8589 73.1916 92.6621 68.2812 92.6621C63.3709 92.6621 59.375 95.8589 59.375 99.7871C59.375 102.879 61.8658 105.492 65.3125 106.475V116.412H53.4375V93.6454L67.4114 82.4662C67.9695 82.0221 68.2812 81.4165 68.2812 80.7871V54.6621H74.2188V85.5371C74.2188 86.1665 74.5305 86.7721 75.0886 87.2162L92.0312 100.77V116.412H71.25V106.475ZM95 80.7871C93.3613 80.7871 92.0312 79.7207 92.0312 78.4121C92.0312 77.1035 93.3613 76.0371 95 76.0371C96.6387 76.0371 97.9688 77.1035 97.9688 78.4121C97.9688 79.7207 96.6387 80.7871 95 80.7871ZM92.0312 71.7241C88.5845 72.7074 86.0938 75.3199 86.0938 78.4121C86.0938 81.5044 88.5845 84.1169 92.0312 85.1001V94.0539L80.1562 84.5539V54.6621H92.0312V71.7241ZM97.9688 85.1001C101.415 84.1169 103.906 81.5044 103.906 78.4121C103.906 75.3199 101.415 72.7074 97.9688 71.7241V54.6621H109.844V59.4121C109.844 60.0415 110.155 60.6471 110.714 61.0912L118.75 67.5204V76.4741C115.303 77.4574 112.812 80.0699 112.812 83.1621C112.812 86.2544 115.303 88.8669 118.75 89.8501V94.0539L104.776 105.233C104.218 105.677 103.906 106.283 103.906 106.912V116.412H97.9688V85.1001ZM121.719 85.5371C120.08 85.5371 118.75 84.4707 118.75 83.1621C118.75 81.8535 120.08 80.7871 121.719 80.7871C123.357 80.7871 124.688 81.8535 124.688 83.1621C124.688 84.4707 123.357 85.5371 121.719 85.5371ZM121.719 63.1789L115.781 58.4289V54.6621H127.656V58.4289L121.719 63.1789ZM109.844 107.895L118.75 100.77V116.412H109.844V107.895ZM124.688 89.8501C128.134 88.8669 130.625 86.2544 130.625 83.1621C130.625 80.0699 128.134 77.4574 124.688 76.4741V67.5204L132.724 61.0912C133.282 60.6471 133.594 60.0415 133.594 59.4121V54.6621H142.5V59.8491C139.053 60.8324 136.562 63.4449 136.562 66.5371C136.562 69.6294 139.053 72.2419 142.5 73.2251V94.0539L134.464 100.483C133.905 100.927 133.594 101.533 133.594 102.162V116.412H124.688V89.8501ZM145.469 68.9121C143.83 68.9121 142.5 67.8457 142.5 66.5371C142.5 65.2285 143.83 64.1621 145.469 64.1621C147.107 64.1621 148.438 65.2285 148.438 66.5371C148.438 67.8457 147.107 68.9121 145.469 68.9121ZM47.5 68.9121C45.8613 68.9121 44.5312 67.8457 44.5312 66.5371C44.5312 65.2285 45.8613 64.1621 47.5 64.1621C49.1387 64.1621 50.4688 65.2285 50.4688 66.5371C50.4688 67.8457 49.1387 68.9121 47.5 68.9121ZM44.5312 54.6621V59.8491C41.0845 60.8324 38.5938 63.4449 38.5938 66.5371C38.5938 69.6294 41.0845 72.2419 44.5312 73.2251V77.4289L32.6562 86.9289V54.6621H44.5312ZM32.6562 93.6454L49.5989 80.0912C50.157 79.6471 50.4688 79.0415 50.4688 78.4121V73.2251C53.9155 72.2419 56.4062 69.6294 56.4062 66.5371C56.4062 63.4449 53.9155 60.8324 50.4688 59.8491V54.6621H62.3438V79.8039L48.3698 90.983C47.8117 91.4271 47.5 92.0327 47.5 92.6621V116.412H32.6562V93.6454ZM154.375 116.412V105.52L160.312 100.77V116.412H154.375Z" fill="#59C3FF"/>
<path d="M97.9688 30.8926H92.0312V35.6426H97.9688V30.8926Z" fill="#59C3FF"/>
<path d="M97.9688 14.2871H92.0312V26.1621H97.9688V14.2871Z" fill="#59C3FF"/>
<path d="M97.9688 4.73242H92.0312V9.48242H97.9688V4.73242Z" fill="#59C3FF"/>
<path d="M109.844 26.1621H103.906V30.9121H109.844V26.1621Z" fill="#59C3FF"/>
<path d="M109.844 4.73242H103.906V21.3574H109.844V4.73242Z" fill="#59C3FF"/>
<path d="M145.469 26.1621H139.531V30.9121H145.469V26.1621Z" fill="#59C3FF"/>
<path d="M145.469 4.73242H139.531V21.3574H145.469V4.73242Z" fill="#59C3FF"/>
<path d="M62.3438 26.1621H56.4062V30.9121H62.3438V26.1621Z" fill="#59C3FF"/>
<path d="M62.3438 4.73242H56.4062V11.8574H62.3438V4.73242Z" fill="#59C3FF"/>
<path d="M121.719 23.75H115.781V35.625H121.719V23.75Z" fill="#59C3FF"/>
<path d="M121.719 14.2871H115.781V19.0371H121.719V14.2871Z" fill="#59C3FF"/>
<path d="M121.719 4.73242H115.781V9.48242H121.719V4.73242Z" fill="#59C3FF"/>
<path d="M74.2188 4.73242H68.2812V11.8574H74.2188V4.73242Z" fill="#59C3FF"/>
<path d="M74.2188 16.6074H68.2812V21.3574H74.2188V16.6074Z" fill="#59C3FF"/>
<path d="M74.2188 26.1621H68.2812V35.6621H74.2188V26.1621Z" fill="#59C3FF"/>
<path d="M86.0938 4.73242H80.1562V16.6074H86.0938V4.73242Z" fill="#59C3FF"/>
<path d="M86.0938 21.3379H80.1562V26.0879H86.0938V21.3379Z" fill="#59C3FF"/>
<path d="M62.3438 16.6074H56.4062V21.3574H62.3438V16.6074Z" fill="#59C3FF"/>
<path d="M133.594 4.73242H127.656V28.4824H133.594V4.73242Z" fill="#59C3FF"/>
<path d="M50.4688 4.73242H44.5312V28.4824H50.4688V4.73242Z" fill="#59C3FF"/>
</svg>
