<svg width="178" height="223" viewBox="0 0 178 223" fill="none" xmlns="http://www.w3.org/2000/svg">
<path d="M167.313 68.5909C152.949 76.883 136.996 74.1223 127.082 71.4691C117.171 68.8125 101.971 63.2206 93.6819 48.8597C85.3932 34.4988 52.8293 141.866 104.513 155.717C156.197 169.564 181.681 60.2987 167.313 68.5909ZM101.974 81.1818C113.118 81.1281 110.77 93.6553 110.77 93.6553C102.333 94.9349 90.0078 88.0903 90.0078 88.0903C90.0078 88.0903 90.8306 81.2289 101.974 81.1818ZM109.067 138.723C89.1513 133.766 92.221 109.548 94.2092 113.88C96.2042 118.209 105.591 123.378 112.667 125.275C119.751 127.173 130.464 127.391 134.353 124.641C138.236 121.883 128.792 144.392 109.067 138.723ZM150.89 104.402C150.89 104.402 136.788 104.167 130.122 98.8408C130.122 98.8408 134.353 86.8241 143.975 92.4361C153.604 98.0482 150.89 104.402 150.89 104.402Z" fill="#59C3FF"/>
<path d="M71.7609 99.8145C69.7156 100.164 67.7139 100.59 65.9373 101.067C58.8609 102.961 49.2288 107.25 46.9013 110.313C44.5739 113.373 43.7343 97.5072 63.6233 92.4224C66.9045 91.5022 69.8096 91.163 72.4057 91.1697C72.5501 89.7726 72.6677 88.3922 72.8591 86.9649C73.4301 82.6156 74.6358 75.7878 76.446 68.8089C67.368 69.944 66.4948 58.6864 66.4948 58.6864C70.357 56.9937 75.6601 56.9769 80.0261 57.3934C83.0891 49.4472 87.0588 43.2642 91.8783 43.2642C94.1083 43.2642 96.1234 44.5236 97.3963 46.7201C97.8026 47.4254 98.2829 48.0836 98.7397 48.7587C94.5684 29.884 87.5693 16.7456 84.3082 22.3845C76.0161 36.7487 60.8257 42.3373 50.908 44.9938C40.9971 47.647 25.0443 50.4043 10.6834 42.1156C-3.68088 33.8201 21.8033 143.089 73.4838 129.242C73.9238 129.121 74.3436 128.983 74.7701 128.849C72.3789 120.496 71.3277 110.753 71.7609 99.8145ZM38.9887 78.9683C28.2181 81.8062 25.6455 75.3949 25.6455 75.3949C25.6455 75.3949 35.7814 65.5914 44.2616 64.6443C44.2649 64.641 49.7661 76.1304 38.9887 78.9683Z" fill="#59C3FF"/>
</svg>
